<?xml version="1.0" encoding="UTF-8" standalone="no"?>
<!-- Creator: CorelDRAW X7 -->

<svg
   xml:space="preserve"
   width="53.908176"
   height="51.000523"
   version="1.0"
   style="clip-rule:evenodd;fill-rule:evenodd;image-rendering:optimizeQuality;shape-rendering:geometricPrecision;text-rendering:geometricPrecision"
   viewBox="0 0 5365408.9 5084661.1"
   id="svg456"
   sodipodi:docname="About Umarket.svg"
   inkscape:version="1.1.2 (b8e25be833, 2022-02-05)"
   xmlns:inkscape="http://www.inkscape.org/namespaces/inkscape"
   xmlns:sodipodi="http://sodipodi.sourceforge.net/DTD/sodipodi-0.dtd"
   xmlns="http://www.w3.org/2000/svg"
   xmlns:svg="http://www.w3.org/2000/svg"><sodipodi:namedview
   id="namedview458"
   pagecolor="#ffffff"
   bordercolor="#999999"
   borderopacity="1"
   inkscape:pageshadow="0"
   inkscape:pageopacity="0"
   inkscape:pagecheckerboard="0"
   showgrid="false"
   inkscape:zoom="11.019608"
   inkscape:cx="26.906584"
   inkscape:cy="25.5"
   inkscape:window-width="1366"
   inkscape:window-height="745"
   inkscape:window-x="-8"
   inkscape:window-y="-8"
   inkscape:window-maximized="1"
   inkscape:current-layer="Layer_x0020_1" />
 <defs
   id="defs390">
  <style
   type="text/css"
   id="style388">
   <![CDATA[
    .str0 {stroke:#00C800;stroke-width:99226.8}
    .str4 {stroke:#00C800;stroke-width:59583}
    .str3 {stroke:#00C800;stroke-width:59583}
    .str2 {stroke:#00C800;stroke-width:99226.8;stroke-linecap:round}
    .str1 {stroke:#00C800;stroke-width:59583;stroke-linecap:round;stroke-linejoin:round}
    .fil0 {fill:none}
    .fil2 {fill:#00C800}
    .fil1 {fill:white}
    .fil3 {fill:#00C800;fill-rule:nonzero}
   ]]>
  </style>
 </defs>
 <g
   id="Layer_x0020_1"
   inkscape:label="Layer 1"
   inkscape:groupmode="layer"
   transform="translate(-4577.3235,52.449186)">
  <metadata
   id="CorelCorpID_0Corel-Layer" />
  <g
   id="_2072909003088">
   <path
   class="fil0 str0"
   d="M 976785,1048332 394796,735169"
   id="path393" />
   <ellipse
   class="fil1 str1"
   cx="394737"
   cy="735140"
   rx="364946"
   ry="365033"
   id="ellipse395" />
   <path
   class="fil1 str2"
   d="m 2693432,57237 858206,495548 858323,495547 v 1982072 l -858323,495547 -858206,495548 -858323,-495548 -858324,-495547 v -991095 -990977 l 858324,-495547 z"
   id="path397" />
   <path
   class="fil0 str0"
   d="m 2693432,4021499 -10908,660808"
   id="path399" />
   <ellipse
   class="fil1 str3"
   cx="2669094"
   cy="4689784"
   rx="364946"
   ry="365033"
   id="ellipse401" />
   <g
   id="g414">
    <g
   id="g406">
     <path
   class="fil2"
   d="m 2817055,4606069 c 0,21464 -3050,40816 -9266,58058 -6099,17241 -14661,32020 -25921,44570 -11025,12667 -24396,22637 -39878,30260 -15600,7507 -32841,12316 -51608,14427 l -3167,76473 c -234,4809 -3987,8210 -11142,10673 -7155,2228 -17593,3519 -31082,3519 -8679,0 -15834,-235 -21698,-587 -5865,-352 -10439,-1173 -13958,-2228 -3284,-939 -5747,-2463 -7272,-4340 -1642,-1759 -2580,-4105 -2815,-6920 l -3518,-92541 c -235,-8211 117,-15013 1173,-20291 1055,-5161 2932,-9266 5630,-12550 2815,-3050 6333,-5161 10438,-6451 4105,-1173 9032,-1642 14779,-1642 h 5512 c 13958,0 25804,-2346 35891,-6686 10087,-4457 18414,-10321 24748,-17710 6568,-7155 11377,-15835 14309,-25804 3167,-9852 4575,-20408 4575,-31668 0,-12550 -1760,-24045 -5278,-34483 -3519,-10439 -8914,-19470 -16069,-26977 -7155,-7624 -16186,-13371 -26977,-17476 -10908,-3988 -23575,-5982 -38236,-5982 -13371,0 -25100,1290 -35304,3871 -10204,2463 -19001,5395 -26156,8562 -7389,3049 -13371,5982 -18297,8562 -4809,2463 -8562,3871 -11142,3871 -1877,0 -3636,-587 -5044,-1760 -1642,-1173 -2932,-3401 -3987,-6568 -939,-3049 -1877,-7506 -2581,-13254 -704,-5747 -938,-13136 -938,-21933 0,-9148 352,-15834 1173,-20056 821,-4105 2463,-7624 5043,-10087 2581,-2698 7624,-5747 14896,-9266 7389,-3519 16186,-6803 26273,-9735 10204,-3049 21581,-5630 34131,-7741 12550,-1994 25569,-3050 39175,-3050 30847,0 57119,4223 79053,12668 22050,8562 39995,19939 54070,34365 13840,14310 24162,30730 30730,49262 6451,18414 9735,38119 9735,58645 z"
   id="path403" />
     <path
   id="1"
   class="fil2"
   d="m 2792776,4633045 c 1290,-8093 1994,-17241 1994,-26976 0,-9149 -821,-18180 -2111,-26508 -1291,-8210 -3519,-16772 -6334,-24748 -2698,-7624 -6334,-15130 -10556,-21933 h 117 c -4222,-6803 -9500,-13371 -15247,-19235 -5748,-5865 -12550,-11377 -20057,-16069 -7506,-4809 -16538,-9266 -26155,-13019 -19236,-7389 -42811,-11143 -70960,-11143 v -117 l -16773,704 -586,117 -19236,2229 c -10908,1759 -21346,4222 -30378,6920 l -13019,4222 -8914,3753 -234,118 -7859,4222 -586,469 -704,5747 -234,9266 234,10322 v 234 l 352,4692 235,-117 10086,-4457 v 117 l 1056,-469 10439,-3988 3518,-1290 14075,-3988 v 117 l 587,-234 c 11963,-2933 25686,-4575 40699,-4575 7624,0 15365,587 22754,1642 l 938,118 c 7272,938 14310,2932 20878,5160 l 1759,587 c 6451,2463 12902,5747 18415,9148 v 118 l 586,352 c 5865,3753 11377,8444 15834,13136 4457,4574 8445,9852 11729,15130 l 821,1290 c 3519,5748 6451,12433 8680,18884 v 117 c 4222,12668 6451,26860 6451,41521 0,6333 -470,13019 -1291,19352 h -117 v 470 c -821,5395 -1877,10790 -3519,16068 l -586,2229 c -1759,5630 -3988,11260 -6686,16538 l -469,1055 -586,938 c -2815,4927 -6451,10205 -10439,14662 l -704,821 c -4222,4809 -9266,9383 -14661,13253 -5630,3988 -11846,7507 -17945,10205 -6451,2814 -13958,5160 -21581,6450 -7272,1291 -15248,2112 -23224,2112 h -5512 v -118 l -5278,235 -2698,586 -352,118 -469,1642 -938,7506 -118,8093 3167,83979 4575,470 18766,586 15247,-821 587,-117 5161,-821 2697,-65682 c -469,-11612 8093,-21933 19822,-23224 8210,-938 16069,-2580 23106,-4339 l 352,-118 c 7389,-2111 14661,-4809 20995,-7858 6216,-2932 12315,-6803 17711,-10908 h 117 c 5161,-3870 10321,-8679 14896,-13957 l 117,117 234,-352 c 4457,-4926 8680,-10791 12199,-16890 3166,-5512 6216,-11846 8679,-18649 l 469,-1407 117,-352 c 2581,-7037 4575,-14778 5748,-22754 z" />
    </g>
    <g
   id="g412">
     <path
   class="fil2"
   d="m 2643349,4870556 c 27915,0 50669,22520 50669,50317 0,27915 -22754,50435 -50669,50435 -28032,0 -50786,-22520 -50786,-50435 0,-27797 22754,-50317 50786,-50317 z"
   id="path408" />
     <path
   id="path410"
   class="fil2"
   d="m 2643349,4870556 c 27915,0 50669,22520 50669,50317 0,27915 -22754,50435 -50669,50435 -28032,0 -50786,-22520 -50786,-50435 0,-27797 22754,-50317 50786,-50317 z m 20057,30495 c -5044,-5043 -12198,-8210 -20057,-8210 -7624,0 -14544,2932 -19587,7624 l -587,586 -234,235 c -4926,4809 -8093,11963 -8093,19587 0,7389 2932,14192 7506,19118 l 704,704 117,117 c 5044,5044 12199,8211 20174,8211 7272,0 14192,-2933 19353,-7390 l 821,-821 117,-117 c 4926,-5043 8093,-12198 8093,-19822 0,-7272 -2932,-14192 -7506,-19001 l -587,-586 z" />
    </g>
   </g>
   <path
   class="fil0 str0"
   d="M 4409961,1048332 4979870,703267"
   id="path416" />
   <ellipse
   class="fil1 str4"
   cx="4979811"
   cy="703355"
   rx="364946"
   ry="365033"
   id="ellipse418" />
   <g
   id="g432">
    <g
   id="g424">
     <path
   class="fil2"
   d="m 5127772,619639 c 0,21464 -3050,40817 -9266,58059 -6099,17241 -14662,32020 -25921,44570 -11025,12667 -24396,22636 -39879,30260 -15599,7507 -32841,12316 -51607,14427 l -3167,76472 c -234,4809 -3988,8211 -11142,10674 -7155,2228 -17594,3518 -31082,3518 -8679,0 -15834,-234 -21698,-586 -5865,-352 -10439,-1173 -13958,-2228 -3284,-939 -5747,-2464 -7272,-4340 -1642,-1760 -2580,-4105 -2815,-6920 l -3518,-92542 c -235,-8210 117,-15013 1172,-20291 1056,-5160 2933,-9265 5630,-12550 2815,-3049 6334,-5160 10439,-6450 4105,-1173 9031,-1642 14779,-1642 h 5512 c 13958,0 25804,-2346 35891,-6686 10087,-4457 18414,-10321 24748,-17711 6568,-7154 11377,-15834 14309,-25803 3167,-9853 4574,-20409 4574,-31668 0,-12550 -1759,-24045 -5278,-34483 -3518,-10439 -8914,-19471 -16068,-26977 -7155,-7624 -16186,-13371 -26977,-17476 -10908,-3988 -23575,-5982 -38236,-5982 -13371,0 -25100,1290 -35304,3871 -10204,2463 -19001,5395 -26156,8562 -7389,3049 -13371,5982 -18297,8562 -4809,2463 -8562,3870 -11142,3870 -1877,0 -3636,-586 -5044,-1759 -1642,-1173 -2932,-3401 -3988,-6568 -938,-3050 -1876,-7507 -2580,-13254 -704,-5747 -938,-13136 -938,-21933 0,-9148 351,-15834 1173,-20056 821,-4105 2463,-7624 5043,-10087 2580,-2698 7624,-5747 14896,-9266 7389,-3519 16186,-6803 26272,-9735 10205,-3050 21582,-5630 34132,-7741 12550,-1994 25569,-3050 39174,-3050 30847,0 57120,4223 79053,12668 22051,8562 39996,19939 54071,34365 13840,14310 24161,30730 30729,49262 6451,18414 9736,38119 9736,58644 z"
   id="path420" />
     <path
   id="path422"
   class="fil2"
   d="m 5103493,646616 c 1290,-8210 1994,-17359 1994,-26977 0,-9148 -821,-18179 -2112,-26507 -1290,-8210 -3518,-16772 -6333,-24748 -2698,-7624 -6334,-15130 -10556,-21933 h 117 c -4222,-6803 -9500,-13371 -15248,-19236 h 118 l -118,-117 c -5395,-5512 -12198,-11025 -19587,-15717 l -235,-117 m 51960,135704 v -352 m -5865,23458 c 2581,-7155 4574,-15013 5865,-23106 v -235 m -5982,23575 117,-234 m -9266,20408 c 3402,-5864 6568,-12784 9149,-20174 m -21581,37298 c 4574,-5160 8914,-11142 12432,-17124 m -27445,31082 c 5160,-3871 10321,-8680 14895,-13958 h 118 m -15131,13958 h 118 m -17828,10908 c 6099,-2932 12315,-6803 17710,-10908 m -38705,18766 c 7389,-2111 14661,-4809 20995,-7858 m -21347,7975 352,-117 m -23458,4457 c 8210,-938 16069,-2580 23106,-4340 m -42928,27563 c -469,-11611 8093,-21933 19822,-23223 m -22520,88905 2698,-65682 m -7858,66503 5160,-821 m -5747,939 587,-118 m -15834,939 15247,-821 m -34014,234 18767,587 m -23341,-1056 4574,469 m -7741,-84448 3167,83979 m -3049,-92072 -118,8093 m 939,-15365 -821,7272 m 1524,-9149 -703,1877 m 938,-1994 -235,117 m 2933,-703 -2698,586 m 7976,-821 -5278,235 m 10790,-118 h -5512 v -117 m 28735,-1994 c -7154,1290 -15130,2111 -23223,2111 m 44453,-8444 c -6451,2697 -13723,5043 -21230,6333 m 21582,-6451 -352,118 m 18297,-10322 c -5630,3988 -11846,7507 -17945,10204 m 32606,-23458 c -4222,4809 -9266,9384 -14661,13254 m 15599,-14426 -938,1172 m 11143,-15482 c -2815,4809 -6334,9970 -10205,14310 m 11260,-16304 -469,939 -586,1055 m 7741,-18531 c -1642,5512 -3988,11259 -6686,16537 m 7155,-18179 -469,1642 m 4105,-18415 c -821,5630 -1994,11377 -3636,16773 m 3636,-17242 v 469 m 1407,-19704 c 0,6333 -469,12901 -1290,19235 h -117 m -5044,-60756 c 4223,12667 6451,26625 6451,41521 m -6451,-41638 v 117 m -8679,-19001 c 3401,5630 6451,12316 8679,18884 m -9500,-20174 821,1290 m -12081,-15951 c 4223,4574 8093,9618 11260,14661 m -27563,-28267 c 5864,3871 11729,8562 16303,13606 m -16538,-13723 235,117 m -19470,-9735 c 7037,2581 13488,5865 19235,9501 v 117 m -41403,-15248 c 7624,1056 15365,3167 22168,5630 m -23106,-5747 938,117 m -23692,-1759 c 7741,0 15365,587 22754,1642 m -63454,2932 c 11964,-2932 25687,-4574 40700,-4574 m -41286,4809 586,-235 m -14661,4106 14075,-3988 v 117 m -17593,5161 3518,-1290 m -13957,5278 10439,-3988 m -11495,4457 1056,-469 m -11143,4808 10087,-4457 v 118 m -10321,4457 234,-118 m -586,-4574 352,4692 m -352,-4926 v 234 m -235,-10556 235,10322 m 0,-19588 -235,9266 m 939,-15013 -704,5747 m 1290,-6216 -586,469 m 8327,-4692 -7741,4223 m 17007,-8093 -9266,3870 m 22285,-8092 -13019,4222 m 43397,-11143 c -11025,1760 -21229,4223 -30378,6921 m 49614,-9149 -19236,2228 m 19822,-2345 -586,117 m 17358,-821 -16772,704 m 87850,10556 c -19236,-7390 -42928,-11143 -71078,-11143 v -117 m 97116,24279 c -7741,-4926 -16538,-9383 -26038,-13019" />
    </g>
    <g
   id="g430">
     <path
   class="fil2"
   d="m 4954066,884127 c 27915,0 50669,22519 50669,50317 0,27915 -22754,50434 -50669,50434 -28032,0 -50786,-22519 -50786,-50434 0,-27798 22754,-50317 50786,-50317 z"
   id="path426" />
     <path
   id="path428"
   class="fil2"
   d="m 4954066,884127 c 27915,0 50669,22519 50669,50317 0,27915 -22754,50434 -50669,50434 -28032,0 -50786,-22519 -50786,-50434 0,-27798 22754,-50317 50786,-50317 z m 20057,30495 c -5044,-5043 -12199,-8210 -20057,-8210 -7624,0 -14544,2932 -19587,7624 l -587,586 -234,235 c -4926,4809 -8093,11963 -8093,19587 0,7389 2932,14192 7506,19118 l 704,704 117,117 c 5044,5044 12198,8210 20174,8210 7272,0 14192,-2932 19353,-7389 l 821,-821 117,-117 c 4926,-5044 8093,-12198 8093,-19822 0,-7272 -2932,-14192 -7506,-19001 l -587,-586 z" />
    </g>
   </g>
   <g
   id="g438">
    <path
   class="fil2"
   d="m 542698,651425 c 0,21464 -3050,40817 -9266,58058 -6099,17242 -14661,32020 -25921,44570 -11025,12667 -24396,22637 -39879,30261 -15599,7506 -32841,12315 -51607,14426 l -3167,76473 c -234,4809 -3987,8210 -11142,10673 -7155,2229 -17593,3519 -31082,3519 -8679,0 -15834,-235 -21698,-587 -5865,-351 -10439,-1172 -13958,-2228 -3284,-938 -5747,-2463 -7272,-4340 -1642,-1759 -2580,-4105 -2815,-6920 l -3518,-92541 c -235,-8210 117,-15013 1173,-20291 1055,-5161 2932,-9266 5629,-12550 2815,-3050 6334,-5161 10439,-6451 4105,-1173 9032,-1642 14779,-1642 h 5512 c 13958,0 25804,-2346 35891,-6686 10087,-4457 18414,-10321 24748,-17710 6568,-7155 11377,-15834 14309,-25804 3167,-9852 4574,-20408 4574,-31668 0,-12550 -1759,-24044 -5278,-34483 -3518,-10439 -8914,-19470 -16068,-26977 -7155,-7623 -16186,-13371 -26977,-17476 -10908,-3988 -23575,-5981 -38236,-5981 -13371,0 -25100,1290 -35304,3870 -10204,2463 -19001,5395 -26156,8562 -7389,3050 -13371,5982 -18297,8562 -4809,2463 -8562,3871 -11142,3871 -1877,0 -3636,-587 -5044,-1760 -1642,-1172 -2932,-3401 -3988,-6568 -938,-3049 -1876,-7506 -2580,-13253 -704,-5748 -938,-13137 -938,-21933 0,-9149 352,-15835 1173,-20057 821,-4105 2463,-7624 5043,-10087 2580,-2698 7624,-5747 14896,-9266 7389,-3518 16186,-6802 26273,-9735 10204,-3049 21581,-5630 34131,-7741 12550,-1994 25569,-3049 39174,-3049 30848,0 57120,4222 79053,12667 22051,8562 39996,19939 54071,34366 13840,14309 24161,30729 30730,49261 6451,18415 9735,38119 9735,58645 z"
   id="path434" />
    <path
   id="path436"
   class="fil2"
   d="m 518419,678519 c 1173,-8211 1994,-17242 1994,-27094 0,-9149 -821,-18180 -2112,-26508 -1290,-8210 -3518,-16772 -6333,-24748 -2698,-7623 -6334,-15130 -10556,-21933 h 117 c -4222,-6802 -9500,-13371 -15248,-19235 h 118 l -118,-117 c -5395,-5513 -12198,-11026 -19587,-15717 l -234,-117 m 45977,159044 c 2580,-7507 4692,-15365 5982,-23575 m -15131,43749 c 3402,-5865 6569,-12785 9149,-20174 m -21581,37298 c 4574,-5161 8914,-11143 12432,-17124 m -27445,31081 c 5160,-3870 10321,-8679 14895,-13957 h 118 m -32841,24865 c 6451,-3167 12432,-6920 17828,-10908 m -38823,18767 c 7389,-2112 14661,-4809 20995,-7859 m -21347,7976 352,-117 m -23458,4457 c 8210,-939 16069,-2581 23106,-4340 m -42928,27563 c -469,-11612 8093,-21933 19822,-23223 m -22519,88905 2697,-65682 m -7858,66503 5161,-821 m -5748,938 587,-117 m -15834,938 15247,-821 m -34014,235 18767,586 m -23341,-1055 4574,469 m -7741,-84449 3167,83980 m -3049,-92073 -118,8093 m 939,-15364 -821,7271 m 1524,-9148 -703,1877 m 938,-1994 -235,117 m 2933,-704 -2698,587 m 7976,-821 -5278,234 m 10790,-117 h -5512 v -117 m 28736,-1994 c -7272,1290 -15248,2111 -23224,2111 m 44453,-8445 c -6451,2698 -13723,5043 -21229,6334 m 21581,-6451 -352,117 m 18297,-10321 c -5630,3987 -11846,7506 -17945,10204 m 32606,-23458 c -4222,4809 -9266,9383 -14661,13254 m 15600,-14427 -939,1173 m 11143,-15482 c -2815,4809 -6334,9969 -10204,14309 m 11259,-16303 -586,938 -235,587 m 7507,-18063 c -1760,5630 -3988,11260 -6686,16538 m 7038,-17828 -352,1290 m 4105,-18414 c -821,5864 -2111,11729 -3753,17124 m 3753,-17594 v 470 m 1407,-19705 c 0,6334 -469,12902 -1290,19235 h -117 m -5043,-60755 c 4222,12667 6450,26624 6450,41520 m -6450,-41638 v 118 m -8680,-19001 c 3401,5630 6451,12315 8680,18883 m -9501,-20174 821,1291 m -12550,-16421 235,235 c 4339,4574 8210,9735 11494,14895 m -12433,-15834 704,704 m -15834,-13136 c 5513,3518 10791,7741 15130,12432 m -15364,-12550 234,118 m -19470,-9735 c 6920,2463 13488,5864 19236,9500 v 117 m -41404,-15247 c 7741,1055 15248,3167 22168,5630 m -23106,-5747 938,117 m -23692,-1759 c 7624,0 15365,586 22754,1642 m -63453,2932 c 11963,-2932 25686,-4574 40699,-4574 m -41286,4808 587,-234 m -14662,4105 14075,-3988 v 117 m -17593,5161 3518,-1290 m -13957,5278 10439,-3988 m -11495,4457 1056,-469 m -11143,4809 10087,-4457 v 117 m -10321,4457 234,-117 m -586,-4574 352,4691 m -352,-4926 v 235 m -235,-10556 235,10321 m 0,-19587 -235,9266 m 939,-15014 -704,5748 m 1290,-6217 -586,469 m 8445,-4691 -7859,4222 m 8093,-4339 -234,117 m 9148,-3871 -8914,3754 m 21933,-7976 -13019,4222 m 43397,-11142 c -11025,1759 -21346,4222 -30378,6920 m 49614,-9149 -19236,2229 m 19822,-2346 -586,117 m 17358,-821 -16772,704 m 87850,10556 c -19236,-7389 -42928,-11142 -71078,-11142 v -118 m 97116,24279 c -7624,-4809 -16538,-9383 -26038,-13019" />
   </g>
   <g
   id="g444">
    <path
   class="fil2"
   d="m 368992,915912 c 27915,0 50669,22520 50669,50317 0,27915 -22754,50435 -50669,50435 -28032,0 -50786,-22520 -50786,-50435 0,-27797 22754,-50317 50786,-50317 z"
   id="path440" />
    <path
   id="path442"
   class="fil2"
   d="m 368992,915912 c 27915,0 50669,22520 50669,50317 0,27915 -22754,50435 -50669,50435 -28032,0 -50786,-22520 -50786,-50435 0,-27797 22754,-50317 50786,-50317 z m 20057,30495 c -5044,-5043 -12198,-8210 -20057,-8210 -7624,0 -14544,2932 -19587,7624 l -587,586 -234,235 c -4926,4809 -8093,11964 -8093,19587 0,7390 2932,14192 7506,19119 l 704,703 117,118 c 5044,5043 12199,8210 20174,8210 7272,0 14192,-2932 19353,-7389 l 821,-821 117,-118 c 4926,-5043 8093,-12198 8093,-19822 0,-7272 -2932,-14192 -7506,-19001 l -587,-586 z" />
   </g>
   <g
   id="g448">
    <path
   class="fil3"
   d="m 3637845,1535669 h 98993 l -5748,207719 -16772,194935 -27328,181799 -36829,169014 -45978,155994 -54305,142976 -61928,130074 -68967,116937 -75417,103919 -81164,90664 -86207,77411 -90782,63923 -94301,50317 -97467,36242 -99344,22285 -100635,7976 -100517,-6451 -99461,-20877 -97467,-35070 -94536,-49027 -90899,-62984 -86325,-76590 -81164,-90078 -75417,-103449 -69083,-116821 -61929,-130073 -54305,-143563 -45977,-156698 -36829,-170070 -27329,-183440 -16772,-196812 -5747,-210182 h 98992 l 5747,205256 16303,191651 26390,177811 35656,164205 44101,150365 51725,136759 58644,123036 64627,109549 70022,95942 74361,82572 77880,69083 80812,55947 82807,42928 84331,30378 85152,17828 85504,5513 85621,-6803 85269,-19001 84331,-31551 83041,-44218 80930,-56885 77997,-70139 74361,-83158 70022,-96412 64744,-109900 58645,-123037 51724,-136407 44101,-149661 35656,-162915 26390,-176403 16303,-189540 z"
   id="path446" />
   </g>
   <ellipse
   class="fil2"
   cx="1699374"
   cy="1181449"
   rx="99286"
   ry="100742"
   id="ellipse450" />
   <ellipse
   class="fil2"
   cx="3683658"
   cy="1181449"
   rx="99286"
   ry="100742"
   id="ellipse452" />
  </g>
 </g>
</svg>
