<?xml version="1.0" encoding="UTF-8"?>
<!DOCTYPE svg PUBLIC "-//W3C//DTD SVG 1.0//EN" "http://www.w3.org/TR/2001/REC-SVG-20010904/DTD/svg10.dtd">
<!-- Creator: CorelDRAW X7 -->
<svg xmlns="http://www.w3.org/2000/svg" xml:space="preserve" width="6.829mm" height="6.4606mm" version="1.0" style="shape-rendering:geometricPrecision; text-rendering:geometricPrecision; image-rendering:optimizeQuality; fill-rule:evenodd; clip-rule:evenodd"
viewBox="0 0 682900 646060"
 xmlns:xlink="http://www.w3.org/1999/xlink">
 <defs>
  <style type="text/css">
   <![CDATA[
    .str0 {stroke:#00C800;stroke-width:8460}
    .str1 {stroke:#00C800;stroke-width:7620}
    .fil0 {fill:none}
    .fil2 {fill:none;fill-rule:nonzero}
    .fil4 {fill:#00C800}
    .fil1 {fill:white}
    .fil3 {fill:#00C800;fill-rule:nonzero}
   ]]>
  </style>
 </defs>
 <g id="Layer_x0020_1">
  <metadata id="CorelCorpID_0Corel-Layer"/>
  <g id="_1933638881664">
   <path class="fil0 str0" d="M124120 133210l-73960 -39790"/>
   <g>
    <path class="fil1" d="M50160 47040c25610,0 46370,20760 46370,46380 0,25610 -20760,46380 -46370,46380 -25600,0 -46370,-20770 -46370,-46380 0,-25620 20770,-46380 46370,-46380z"/>
    <path id="1" class="fil2 str1" d="M50160 47040c25610,0 46370,20760 46370,46380 0,25610 -20760,46380 -46370,46380 -25600,0 -46370,-20770 -46370,-46380 0,-25620 20770,-46380 46370,-46380z"/>
   </g>
   <g>
    <path class="fil1" d="M342230 7280l109050 62960 109050 62970 0 251840 -109050 62960 -109050 62970 -109060 -62970 -109050 -62960 0 -125920 0 -125920 109050 -62970 109060 -62960z"/>
    <path id="1" class="fil3" d="M448130 75700l-109050 -62960 6300 -10920 109050 62960 0 0 -6300 10920zm109050 62970l-109050 -62970 6300 -10920 109050 62970 3150 5460 -9450 5460zm6300 -10920l3150 1820 0 3640 -3150 -5460zm-9450 257300l0 -251840 12600 0 0 251840 -3150 5460 -9450 -5460zm12600 0l0 3640 -3150 1820 3150 -5460zm-118500 57500l109050 -62960 6300 10920 -109050 62960 -6300 -10920zm-109050 62970l109050 -62970 6300 10920 -109050 62970 -6300 0 0 -10920zm6300 10920l-3150 1820 -3150 -1820 6300 0zm-109060 -73890l109060 62970 -6300 10920 -109060 -62970 6300 -10920zm-109050 -62960l109050 62960 -6300 10920 -109050 -62960 -3150 -5460 9450 -5460zm-6300 10920l-3150 -1820 0 -3640 3150 5460zm9450 -131380l0 125920 -12600 0 0 -125920 0 0 12600 0zm0 -125920l0 125920 -12600 0 0 -125920 3150 -5460 9450 5460zm-12600 0l0 -3640 3150 -1820 -3150 5460zm118500 -57510l-109050 62970 -6300 -10920 109050 -62970 0 0 6300 10920zm109060 -62960l-109060 62960 -6300 -10920 109060 -62960 6300 0 0 10920zm-6300 -10920l3150 -1820 3150 1820 -6300 0z"/>
   </g>
   <path class="fil0 str0" d="M342230 510980l-1380 83970"/>
   <g>
    <path class="fil1" d="M339140 549510c25610,0 46370,20770 46370,46380 0,25620 -20760,46380 -46370,46380 -25600,0 -46370,-20760 -46370,-46380 0,-25610 20770,-46380 46370,-46380z"/>
    <path id="1" class="fil2 str1" d="M339140 549510c25610,0 46370,20770 46370,46380 0,25620 -20760,46380 -46370,46380 -25600,0 -46370,-20760 -46370,-46380 0,-25610 20770,-46380 46370,-46380z"/>
   </g>
   <g>
    <path class="fil4" d="M351220 590060c0,1740 -250,3320 -750,4720 -500,1400 -1200,2610 -2110,3630 -900,1030 -1990,1840 -3250,2460 -1260,610 -2670,1000 -4200,1180l-250 6210c-20,400 -330,680 -910,880 -580,180 -1430,280 -2530,280 -700,0 -1290,-10 -1770,-50 -480,-30 -850,-90 -1130,-180 -270,-80 -470,-200 -600,-350 -130,-140 -200,-340 -230,-560l-280 -7530c-20,-670 10,-1230 100,-1650 90,-430 240,-760 460,-1020 220,-250 510,-430 840,-530 340,-90 740,-140 1210,-140l450 0c1130,0 2100,-180 2910,-540 830,-360 1500,-840 2020,-1440 540,-580 930,-1290 1170,-2090 250,-810 370,-1670 370,-2580 0,-1020 -140,-1960 -440,-2810 -280,-850 -720,-1590 -1300,-2190 -580,-620 -1320,-1090 -2200,-1430 -880,-330 -1910,-490 -3110,-490 -1090,0 -2040,110 -2870,320 -830,200 -1540,440 -2130,690 -600,250 -1090,490 -1490,700 -390,210 -700,310 -900,310 -160,0 -300,-40 -420,-140 -130,-100 -240,-270 -320,-530 -80,-250 -160,-610 -210,-1080 -50,-460 -80,-1060 -80,-1780 0,-750 40,-1290 100,-1630 70,-340 200,-620 410,-830 210,-220 620,-470 1210,-750 600,-280 1320,-550 2140,-790 830,-250 1750,-460 2780,-630 1020,-170 2070,-250 3180,-250 2520,0 4660,350 6440,1030 1800,700 3250,1620 4390,2790 1140,1170 1970,2510 2510,4020 530,1500 790,3100 790,4770z"/>
    <path id="1" class="fil4" d="M348760 594170c430,-1200 650,-2590 650,-4110 0,-730 -70,-1460 -180,-2170 -110,-700 -300,-1380 -510,-2010 -220,-620 -510,-1230 -850,-1770 -330,-520 -720,-1050 -1170,-1510l-70 -60c-470,-480 -1030,-940 -1620,-1310 -620,-390 -1340,-760 -2130,-1060 -760,-290 -1630,-520 -2570,-670 -960,-150 -2030,-240 -3160,-240l-1510 60 -1440 170 -1410 280 -1120 290 -1060 340 -880 370 -500 260 -80 70 -40 380 -30 870 20 800 0 20 30 410 790 -370 0 10 140 -60 970 -360 50 -20 150 -50 900 -250 370 -110 1340 -240 0 10 230 -30 1530 -80 90 0c690,0 1360,50 1950,140 630,90 1240,270 1780,460l30 10c550,210 1090,490 1550,780 400,260 810,590 1170,960l130 130 20 20c380,400 740,870 1010,1320 240,410 460,910 640,1410l40 90c170,470 310,990 390,1540l20 100c90,550 130,1160 130,1770 0,530 -40,1070 -110,1580 -70,480 -170,980 -320,1460l-10 60c-130,470 -350,980 -610,1440l-30 70c-250,450 -580,900 -940,1290 -350,390 -760,750 -1160,1050l-20 10c-440,310 -940,590 -1440,810l0 -10c-1040,460 -2270,700 -3640,700l-340 0 -500 30 -280 50 -60 200 -60 470 -10 740 250 6820 300 30 1670 50 1200 -60 10 0 430 -80 220 -5490 10 0c40,-880 690,-1630 1590,-1730 670,-70 1340,-210 1920,-370 570,-160 1160,-390 1710,-650l0 10c510,-260 1010,-550 1440,-880l10 -10m2220 -2520c280,-490 550,-1050 760,-1660m-1750 3030c360,-400 710,-880 990,-1370m-1110 1510l120 -140m-1220 1140c390,-290 770,-630 1100,-1000"/>
   </g>
   <g>
    <path class="fil4" d="M337080 611580c2280,0 4130,1830 4130,4100 0,2260 -1850,4100 -4130,4100 -2280,0 -4130,-1840 -4130,-4100 0,-2270 1850,-4100 4130,-4100z"/>
    <path id="1" class="fil4" d="M337080 611580c2280,0 4130,1830 4130,4100 0,2260 -1850,4100 -4130,4100 -2280,0 -4130,-1840 -4130,-4100 0,-2270 1850,-4100 4130,-4100zm1650 2490c-410,-410 -1010,-680 -1650,-680 -640,0 -1240,270 -1650,680 -410,400 -670,1000 -670,1610 0,610 260,1210 670,1610 410,410 1010,680 1650,680 640,0 1240,-270 1650,-680 410,-400 670,-1000 670,-1610 0,-610 -260,-1210 -670,-1610z"/>
   </g>
   <path class="fil0 str0" d="M560340 133210l72400 -43850"/>
   <g>
    <path class="fil1" d="M632740 43000c25610,0 46370,20760 46370,46380 0,25610 -20760,46380 -46370,46380 -25600,0 -46370,-20770 -46370,-46380 0,-25620 20770,-46380 46370,-46380z"/>
    <path id="1" class="fil2 str1" d="M632740 43000c25610,0 46370,20760 46370,46380 0,25610 -20760,46380 -46370,46380 -25600,0 -46370,-20770 -46370,-46380 0,-25620 20770,-46380 46370,-46380z"/>
   </g>
   <g>
    <path class="fil4" d="M644820 83550c0,1740 -250,3320 -750,4720 -500,1400 -1200,2610 -2110,3630 -910,1020 -1990,1840 -3250,2460 -1270,610 -2670,1000 -4200,1170l-250 6220c-20,390 -330,680 -920,870 -570,190 -1420,290 -2520,290 -710,0 -1290,-20 -1770,-50 -480,-30 -850,-100 -1130,-180 -280,-80 -470,-200 -600,-350 -130,-140 -210,-340 -230,-570l-280 -7520c-30,-680 10,-1230 90,-1650 90,-430 240,-770 460,-1030 230,-250 510,-420 850,-520 340,-100 740,-140 1210,-140l440 0c1130,0 2100,-190 2920,-540 820,-360 1500,-840 2020,-1440 530,-590 920,-1290 1160,-2100 250,-800 370,-1660 370,-2580 0,-1020 -140,-1950 -430,-2800 -280,-850 -720,-1590 -1310,-2200 -570,-620 -1310,-1080 -2190,-1420 -880,-330 -1920,-490 -3110,-490 -1090,0 -2050,110 -2880,310 -820,210 -1540,450 -2130,700 -600,250 -1080,490 -1490,700 -390,200 -690,310 -900,310 -150,0 -290,-40 -410,-140 -130,-100 -240,-270 -330,-530 -80,-250 -150,-610 -210,-1080 -50,-470 -70,-1070 -70,-1780 0,-750 30,-1300 100,-1630 60,-340 190,-620 410,-830 210,-220 620,-470 1210,-750 590,-280 1310,-550 2140,-790 830,-250 1750,-460 2770,-630 1030,-170 2080,-260 3190,-260 2510,0 4650,350 6440,1040 1790,690 3250,1620 4390,2790 1130,1170 1970,2500 2500,4010 540,1510 800,3100 800,4780z"/>
    <path id="1" class="fil4" d="M642360 87660c430,-1200 650,-2590 650,-4110 0,-710 -60,-1440 -180,-2140l0 -20c-100,-670 -270,-1320 -480,-1910l-50 -130c-210,-610 -510,-1210 -840,-1750l10 0c-340,-550 -770,-1090 -1240,-1570l10 0 -20 -20c-450,-460 -1010,-910 -1630,-1310 -580,-370 -1270,-720 -2000,-1000l-120 -40c-770,-300 -1650,-540 -2570,-680 -960,-150 -2010,-240 -3130,-240l-1550 70 -1440 170 -1340 260 -1240 330 -960 310 -950 400 -460 240 -80 70 -50 410 -20 820 20 850 0 20 20 380 790 -370 0 10 140 -60 800 -300 320 -120 1140 -330 80 -20c480,-110 1020,-220 1580,-270l90 -10 1540 -80 90 0c690,0 1340,50 1940,140 640,90 1270,260 1820,470 460,170 920,400 1350,660l200 110c490,320 960,700 1340,1130l-10 10c380,390 720,840 990,1290 260,450 510,940 670,1460l20 40c170,470 300,1010 380,1550l20 100c90,530 130,1150 130,1760 0,530 -40,1070 -110,1580 -70,480 -170,980 -320,1460l-10 60c-140,480 -370,1000 -620,1470 -260,490 -590,940 -930,1320 -350,390 -760,770 -1180,1070l-20 10c-400,280 -840,530 -1290,740l-130 60 -20 10m8090 -2700c280,-490 550,-1050 760,-1660m-1750 3030c360,-400 710,-880 990,-1370m-1070 1460l80 -90m-1230 1150c400,-310 790,-680 1150,-1060m-2620 1960l20 -10c510,-250 1020,-560 1450,-890m-5070 1890c1320,-140 2530,-490 3600,-990m-5210 2720c30,-880 710,-1630 1610,-1730m-1830 7250l220 -5520m-1830 5640c690,0 1230,-40 1610,-120m-3320 70l1710 50m-2000 -90l290 40m-540 -6870l250 6830m-250 -7530l0 700m60 -1230l-60 530m110 -690l-50 160m70 -170l-20 10m270 -60l-250 50m750 -70l-500 20m860 -20l-360 0m2250 -170c-570,100 -1220,170 -1890,170m3630 -680c-520,220 -1120,400 -1740,510m1780 -530l-40 20"/>
   </g>
   <g>
    <path class="fil4" d="M630680 105060c2280,0 4130,1840 4130,4100 0,2270 -1850,4100 -4130,4100 -2280,0 -4130,-1830 -4130,-4100 0,-2260 1850,-4100 4130,-4100z"/>
    <path id="1" class="fil4" d="M630680 105060c2280,0 4130,1840 4130,4100 0,2270 -1850,4100 -4130,4100 -2280,0 -4130,-1830 -4130,-4100 0,-2260 1850,-4100 4130,-4100zm1650 2490c-410,-410 -1010,-680 -1650,-680 -640,0 -1240,270 -1650,680 -410,400 -670,1000 -670,1610 0,610 260,1210 670,1610 410,410 1010,680 1650,680 640,0 1240,-270 1650,-680 410,-400 670,-1000 670,-1610 0,-610 -260,-1210 -670,-1610z"/>
   </g>
   <g>
    <path class="fil4" d="M62240 87590c0,1740 -250,3310 -750,4720 -500,1400 -1200,2610 -2110,3630 -900,1020 -1990,1840 -3250,2460 -1260,610 -2670,1000 -4200,1170l-250 6220c-20,390 -330,680 -910,870 -580,190 -1430,280 -2530,280 -700,0 -1290,-10 -1770,-40 -480,-30 -850,-100 -1130,-180 -270,-80 -470,-200 -600,-350 -130,-140 -210,-340 -230,-570l-280 -7520c-20,-680 10,-1230 100,-1660 80,-420 240,-760 450,-1020 230,-250 520,-420 850,-520 340,-100 740,-140 1210,-140l450 0c1130,0 2100,-190 2910,-540 830,-360 1500,-840 2020,-1440 540,-590 930,-1290 1170,-2100 250,-800 370,-1660 370,-2580 0,-1020 -140,-1950 -440,-2800 -280,-850 -710,-1590 -1300,-2200 -580,-620 -1320,-1090 -2200,-1420 -880,-330 -1910,-490 -3110,-490 -1090,0 -2050,110 -2870,310 -830,210 -1550,450 -2130,700 -600,250 -1090,490 -1490,700 -390,200 -700,310 -910,310 -150,0 -290,-40 -410,-140 -130,-100 -240,-270 -330,-530 -70,-250 -150,-610 -200,-1080 -60,-470 -80,-1070 -80,-1780 0,-750 30,-1300 100,-1630 60,-340 190,-620 410,-830 210,-220 620,-470 1210,-750 600,-280 1320,-560 2140,-800 830,-250 1750,-450 2780,-630 1020,-160 2070,-250 3180,-250 2520,0 4660,350 6440,1040 1800,690 3250,1620 4400,2790 1130,1170 1960,2500 2500,4010 530,1510 790,3100 790,4780z"/>
    <path id="1" class="fil4" d="M62240 87590c0,1490 -180,2860 -550,4110l-110 320 -90 290 -430 1050 -130 260 -10 30c-190,380 -390,750 -620,1090l-180 270 -680 860 -60 70 -160 180 -660 650 -260 220 -510 410 -250 180 -300 190 -1110 630 -410 190 -440 180c-870,330 -1800,580 -2780,730l-570 70 -40 920 -20 670 -160 3830 0 10 0 50 0 10 0 10 0 10 0 10 0 20 0 20 -30 660c-20,390 -330,680 -910,870 -580,190 -1430,280 -2530,280 -700,0 -1290,-10 -1770,-40 -480,-30 -850,-100 -1130,-180 -270,-80 -470,-200 -600,-350 -130,-140 -210,-340 -230,-570l-280 -7520c-20,-680 10,-1230 100,-1660l160 -520 40 -100 250 -400c230,-250 520,-420 850,-520 340,-100 740,-140 1210,-140l450 0c1130,0 2100,-190 2910,-540 830,-360 1500,-840 2020,-1440 540,-590 930,-1290 1170,-2100 250,-800 370,-1660 370,-2580l-70 -1200 0 -20c-70,-550 -190,-1080 -370,-1580 -280,-850 -710,-1590 -1300,-2200 -580,-620 -1320,-1090 -2200,-1420 -880,-330 -1910,-490 -3110,-490 -1090,0 -2050,110 -2870,310 -830,210 -1550,450 -2130,700 -600,250 -1090,490 -1490,700 -390,200 -700,310 -910,310 -150,0 -290,-40 -410,-140 -130,-100 -240,-270 -330,-530 -70,-250 -150,-610 -200,-1080 -60,-470 -80,-1070 -80,-1780 0,-750 30,-1300 100,-1630 30,-200 90,-370 180,-520l50 -100 180 -210c210,-220 620,-470 1210,-750 600,-280 1320,-560 2140,-800l1530 -390 110 -20 1140 -220c1020,-160 2070,-250 3180,-250 2520,0 4660,350 6440,1040 1800,690 3250,1620 4400,2790 1130,1170 1960,2500 2500,4010 530,1510 790,3100 790,4780zm-2460 4110c430,-1210 650,-2590 650,-4110 0,-720 -70,-1450 -180,-2160 -110,-690 -280,-1360 -490,-1980l-20 -40c-230,-640 -510,-1230 -830,-1740l-20 -30c-350,-550 -760,-1090 -1200,-1540l-30 -30c-480,-490 -1040,-940 -1650,-1330 -580,-370 -1270,-720 -2000,-1000l-120 -40c-770,-300 -1640,-540 -2560,-680 -960,-150 -2030,-240 -3160,-240l-1510 60 -1440 170 -1410 280 -1210 310 -870 290 -980 410 -500 260 -80 70 -50 410 -20 820 20 830 0 20 30 400 790 -370 0 10 140 -60 800 -300 320 -120 1140 -330 80 -20c480,-110 1030,-220 1590,-270l90 -10 1520 -80 90 0c690,0 1360,50 1950,140 640,90 1260,260 1810,470 540,210 1080,470 1530,760l30 20c400,260 810,580 1160,950l130 130 20 20c390,410 740,870 1010,1320 250,450 500,940 660,1460l20 40c180,490 320,1050 400,1630l10 50c80,530 130,1130 130,1730 0,530 -40,1070 -110,1580 -70,560 -200,1080 -330,1520 -300,1030 -820,1940 -1510,2720l-30 40c-350,400 -780,790 -1200,1100l-20 10c-440,310 -940,590 -1440,810l0 -10 -40 20c-520,210 -1100,400 -1700,510 -570,100 -1230,170 -1900,170l-370 0 -500 20 -260 60m12860 -3470c280,-490 550,-1050 760,-1660m-1750 3040c350,-390 690,-870 990,-1380m-2200 2510c430,-330 840,-720 1210,-1130m-2680 2030c520,-250 1020,-570 1470,-900m-3150 1530c560,-160 1140,-380 1680,-640l0 10m-3630 1000c670,-70 1340,-210 1950,-370m-3540 2100c40,-880 690,-1630 1590,-1730m-1820 7220l220 -5490 10 0m-610 5560l380 -70m-1710 140l1330 -70m-2940 30l1610 40m-1900 -80l290 40m-540 -6850l250 6810m-240 -7550l-10 740m70 -1280l-60 540m100 -670l-40 130"/>
   </g>
   <g>
    <path class="fil4" d="M48100 109100c2280,0 4130,1840 4130,4100 0,2270 -1850,4100 -4130,4100 -2280,0 -4130,-1830 -4130,-4100 0,-2260 1850,-4100 4130,-4100z"/>
    <path id="1" class="fil4" d="M48100 109100c2280,0 4130,1840 4130,4100 0,2270 -1850,4100 -4130,4100 -2280,0 -4130,-1830 -4130,-4100 0,-2260 1850,-4100 4130,-4100zm1650 2490c-410,-410 -1010,-680 -1650,-680 -640,0 -1240,270 -1650,680 -410,400 -670,1000 -670,1610 0,610 260,1210 670,1610 410,410 1010,680 1650,680 640,0 1240,-270 1650,-680 410,-400 670,-1000 670,-1610 0,-610 -260,-1210 -670,-1610z"/>
   </g>
   <g>
    <path class="fil3" d="M462230 195130l12580 0 -730 26390 -2150 24760 -3450 23110 -4690 21470 -5840 19820 -6900 18180 -7870 16520 -8770 14860 -9570 13200 -10310 11520 -10960 9830 -11520 8130 -12000 6380 -12370 4620 -12640 2820 -12760 1010 -12780 -820 -12640 -2650 -12400 -4450 -12010 -6240 -11530 -7990 -10980 -9730 -10310 -11440 -9580 -13150 -8780 -14840 -7870 -16540 -6900 -18220 -5840 -19910 -4690 -21620 -3450 -23310 -2150 -25000 -730 -26710 12580 0 710 26090 2090 24340 3350 22590 4530 20860 5600 19110 6580 17380 7450 15640 8220 13920 8880 12190 9450 10480 9900 8770 10270 7110 10530 5480 10700 3850 10820 2250 10880 700 10880 -850 10820 -2420 10730 -4000 10540 -5620 10280 -7250 9920 -8890 9450 -10580 8890 -12260 8230 -13940 7450 -15640 6580 -17320 5600 -19020 4530 -20710 3350 -22410 2090 -24080 710 -25770z"/>
   </g>
   <ellipse class="fil4" cx="215930" cy="150125" rx="12615" ry="12800"/>
   <ellipse class="fil4" cx="468053" cy="150125" rx="12615" ry="12800"/>
  </g>
 </g>
</svg>
