<?xml version="1.0" encoding="UTF-8"?>
<!DOCTYPE svg PUBLIC "-//W3C//DTD SVG 1.0//EN" "http://www.w3.org/TR/2001/REC-SVG-20010904/DTD/svg10.dtd">
<!-- Creator: CorelDRAW X7 -->
<svg xmlns="http://www.w3.org/2000/svg" xml:space="preserve" width="7.3302mm" height="6.6804mm" version="1.0" style="shape-rendering:geometricPrecision; text-rendering:geometricPrecision; image-rendering:optimizeQuality; fill-rule:evenodd; clip-rule:evenodd"
viewBox="0 0 733020 668040"
 xmlns:xlink="http://www.w3.org/1999/xlink">
 <defs>
  <style type="text/css">
   <![CDATA[
    .str0 {stroke:#00C800;stroke-width:7620}
    .fil0 {fill:none}
    .fil3 {fill:#00C800}
    .fil1 {fill:white}
    .fil2 {fill:#00C800;fill-rule:nonzero}
   ]]>
  </style>
 </defs>
 <g id="Layer_x0020_1">
  <metadata id="CorelCorpID_0Corel-Layer"/>
  <g id="_2419323815392">
   <path class="fil0 str0" d="M366480 406140l0 -296310"/>
   <path class="fil0 str0" d="M109800 558220l256680 -152080 256700 152090"/>
   <circle class="fil1 str0" cx="109817" cy="558219" r="106008"/>
   <ellipse class="fil1 str0" cx="366482" cy="406141" rx="150965" ry="150964"/>
   <circle class="fil1 str0" cx="623203" cy="558219" r="106008"/>
   <circle class="fil1 str0" cx="366510" cy="109821" r="106008"/>
   <path class="fil2" d="M590010 569180c0,2020 -280,3840 -830,5480 -560,1620 -1320,3070 -2290,4320 -980,1260 -2140,2330 -3490,3240 -1350,910 -2850,1640 -4470,2240 -1630,580 -3370,1010 -5220,1280 -1850,290 -3910,420 -6180,420l-15020 0c-960,0 -1760,-280 -2420,-850 -660,-570 -980,-1490 -980,-2780l0 -49320c0,-1280 320,-2200 980,-2770 660,-570 1460,-850 2420,-850l14170 0c3460,0 6390,300 8790,880 2400,580 4410,1460 6050,2640 1660,1180 2910,2670 3780,4480 880,1800 1310,3920 1310,6370 0,1370 -180,2650 -520,3860 -340,1210 -870,2310 -1520,3300 -670,1000 -1490,1860 -2480,2620 -970,760 -2070,1370 -3330,1840 1600,300 3090,800 4450,1530 1360,740 2540,1670 3540,2820 1010,1150 1800,2510 2380,4050 580,1550 880,3280 880,5200zm-14860 -23840c0,-1130 -180,-2140 -520,-3050 -340,-900 -860,-1660 -1560,-2260 -710,-590 -1590,-1040 -2650,-1370 -1050,-310 -2470,-480 -4250,-480l-5790 0 0 14680 6400 0c1660,0 2990,-190 3970,-590 990,-390 1810,-930 2460,-1620 660,-680 1140,-1490 1470,-2400 310,-920 470,-1880 470,-2910zm2960 24260c0,-1310 -230,-2490 -660,-3530 -430,-1030 -1070,-1900 -1920,-2600 -840,-700 -1910,-1240 -3230,-1630 -1310,-370 -3010,-560 -5110,-560l-6810 0 0 16110 8300 0c1600,0 2940,-170 4040,-510 1090,-330 2030,-830 2840,-1490 790,-660 1410,-1460 1880,-2450 440,-970 670,-2090 670,-3340z"/>
   <path id="1" class="fil2" d="M645380 565080c0,3460 -500,6560 -1530,9290 -1020,2750 -2510,5060 -4490,6960 -1990,1890 -4430,3340 -7340,4320 -2930,1000 -6270,1490 -10060,1490 -3560,0 -6750,-440 -9570,-1320 -2840,-900 -5220,-2240 -7180,-4050 -1950,-1800 -3440,-4050 -4470,-6750 -1030,-2700 -1550,-5850 -1550,-9460l0 -34400c0,-290 90,-560 270,-790 160,-230 470,-420 920,-570 450,-150 1040,-260 1780,-340 710,-90 1650,-140 2790,-140 1080,0 2010,50 2730,140 730,80 1310,190 1740,340 430,150 750,340 940,570 190,230 280,500 280,790l0 33410c0,2260 290,4200 840,5850 550,1640 1340,3010 2390,4090 1030,1070 2260,1890 3710,2430 1450,540 3070,810 4840,810 1810,0 3440,-290 4850,-840 1440,-550 2640,-1360 3640,-2420 990,-1070 1760,-2380 2300,-3930 540,-1570 810,-3350 810,-5330l0 -34070c0,-290 90,-560 260,-790 170,-230 480,-420 910,-570 440,-150 1030,-260 1780,-340 750,-90 1670,-140 2770,-140 1110,0 2020,50 2730,140 720,80 1300,190 1740,340 430,150 740,340 910,570 170,230 260,500 260,790l0 33920z"/>
   <path id="2" class="fil2" d="M680550 564690l0 19900c0,290 -90,560 -280,790 -200,230 -510,420 -940,570 -430,140 -1030,250 -1780,340 -740,90 -1670,140 -2770,140 -1140,0 -2080,-50 -2810,-140 -710,-90 -1310,-200 -1760,-340 -460,-150 -770,-340 -940,-570 -180,-230 -270,-500 -270,-790l0 -19900 -15480 -30820c-550,-1070 -910,-1920 -1070,-2520 -170,-600 -80,-1040 260,-1360 330,-300 960,-490 1850,-560 900,-80 2150,-110 3750,-110 1340,0 2400,30 3210,90 800,60 1430,160 1890,330 460,160 810,370 1030,630 210,260 420,590 630,1010l6320 13900c610,1350 1220,2760 1820,4240 610,1490 1210,3040 1840,4680l90 0c550,-1580 1110,-3100 1700,-4590 580,-1490 1150,-2890 1700,-4240l6220 -13810c150,-480 330,-850 550,-1120 210,-280 540,-510 980,-690 440,-160 1030,-280 1790,-340 750,-60 1770,-90 3020,-90 1650,0 2950,30 3860,110 930,70 1550,260 1880,560 350,320 420,780 240,1390 -160,610 -520,1430 -1040,2490l-15490 30820z"/>
   <path class="fil2" d="M315590 109410c0,2560 -330,4750 -1000,6570 -670,1820 -1620,3300 -2880,4450 -1250,1150 -2780,1990 -4560,2530 -1790,540 -3920,810 -6390,810l-6660 0c-480,0 -880,-140 -1200,-420 -320,-280 -490,-730 -490,-1370l0 -24310c0,-640 170,-1090 490,-1370 320,-280 720,-420 1200,-420l7150 0c2480,0 4600,290 6320,880 1740,580 3200,1440 4380,2580 1190,1140 2100,2560 2720,4230 610,1690 920,3630 920,5840zm-5880 200c0,-1320 -150,-2540 -460,-3680 -310,-1140 -800,-2110 -1490,-2950 -680,-830 -1550,-1480 -2620,-1940 -1070,-470 -2470,-700 -4220,-700l-2860 0 0 18930 2950 0c1550,0 2860,-200 3920,-600 1060,-400 1950,-1010 2670,-1820 700,-810 1230,-1820 1580,-3020 360,-1210 530,-2610 530,-4220z"/>
   <path id="1" class="fil2" d="M336750 121540c0,420 -20,770 -50,1050 -40,280 -90,510 -160,680 -80,180 -170,300 -280,380 -100,80 -220,120 -350,120l-13990 0c-470,0 -870,-140 -1190,-420 -320,-280 -490,-730 -490,-1370l0 -24310c0,-640 170,-1090 490,-1370 320,-280 720,-420 1190,-420l13920 0c130,0 250,40 350,110 100,70 180,200 260,380 60,180 120,410 160,690 40,280 50,640 50,1070 0,400 -10,740 -50,1030 -40,280 -90,510 -160,680 -80,170 -160,300 -260,380 -100,80 -220,120 -350,120l-9950 0 0 6790 8390 0c130,0 250,40 350,120 110,80 200,200 270,370 80,160 130,380 170,670 30,280 50,620 50,1010 0,420 -20,770 -50,1040 -40,270 -90,490 -170,650 -70,170 -160,290 -270,360 -100,70 -220,110 -350,110l-8390 0 0 7850 10020 0c130,0 250,40 350,120 110,80 200,210 280,380 70,170 120,400 160,680 30,290 50,630 50,1050z"/>
   <path id="2" class="fil2" d="M357090 121400c0,430 -20,800 -50,1090 -40,290 -100,540 -170,730 -70,200 -160,340 -270,420 -110,90 -230,130 -370,130l-12780 0c-470,0 -870,-140 -1190,-420 -320,-280 -490,-730 -490,-1370l0 -25330c0,-140 50,-270 140,-390 100,-110 250,-200 470,-280 210,-70 510,-120 870,-170 370,-40 830,-60 1370,-60 560,0 1020,20 1380,60 360,50 650,100 860,170 220,80 370,170 470,280 90,120 140,250 140,390l0 22440 8760 0c140,0 270,40 370,120 110,80 200,210 270,390 80,180 130,410 170,710 30,300 50,660 50,1090z"/>
   <path id="3" class="fil2" d="M366130 123000c0,140 -50,270 -140,390 -100,110 -250,200 -470,280 -210,60 -500,120 -860,170 -360,40 -820,60 -1380,60 -540,0 -1000,-20 -1370,-60 -360,-50 -660,-110 -870,-170 -220,-80 -370,-170 -470,-280 -90,-120 -140,-250 -140,-390l0 -26350c0,-140 50,-270 140,-390 100,-110 250,-200 480,-280 220,-70 510,-120 870,-170 360,-40 820,-60 1360,-60 560,0 1020,20 1380,60 360,50 650,100 860,170 220,80 370,170 470,280 90,120 140,250 140,390l0 26350z"/>
   <path id="4" class="fil2" d="M386100 122780c-70,250 -160,450 -280,590 -120,160 -300,270 -560,350 -250,80 -610,130 -1060,150 -440,30 -1020,30 -1740,30 -570,0 -1070,0 -1480,0 -410,-10 -760,-30 -1040,-60 -290,-30 -520,-80 -700,-130 -180,-60 -330,-130 -460,-220 -110,-80 -210,-190 -280,-310 -60,-120 -120,-280 -180,-460l-8290 -24730c-170,-520 -280,-930 -310,-1230 -40,-300 30,-530 210,-680 180,-150 490,-240 920,-280 430,-40 1030,-50 1810,-50 670,0 1180,10 1560,40 370,30 660,80 860,150 190,70 340,180 420,320 80,150 150,330 220,550l6780 21510 20 0 6660 -21410c60,-240 140,-440 220,-590 80,-150 230,-270 440,-360 210,-80 510,-140 900,-170 380,-30 920,-40 1600,-40 660,0 1180,20 1540,60 370,50 620,150 760,310 130,170 180,410 130,710 -50,300 -170,700 -340,1200l-8330 24750z"/>
   <path id="5" class="fil2" d="M414820 121540c0,420 -20,770 -50,1050 -40,280 -90,510 -160,680 -80,180 -170,300 -280,380 -100,80 -220,120 -350,120l-13990 0c-470,0 -870,-140 -1190,-420 -320,-280 -490,-730 -490,-1370l0 -24310c0,-640 170,-1090 490,-1370 320,-280 720,-420 1190,-420l13920 0c130,0 250,40 350,110 100,70 180,200 260,380 60,180 120,410 160,690 40,280 50,640 50,1070 0,400 -10,740 -50,1030 -40,280 -90,510 -160,680 -80,170 -160,300 -260,380 -100,80 -220,120 -350,120l-9950 0 0 6790 8390 0c130,0 250,40 350,120 110,80 200,200 270,370 80,160 130,380 170,670 30,280 50,620 50,1010 0,420 -20,770 -50,1040 -40,270 -90,490 -170,650 -70,170 -160,290 -270,360 -100,70 -220,110 -350,110l-8390 0 0 7850 10020 0c130,0 250,40 350,120 110,80 200,210 280,380 70,170 120,400 160,680 30,290 50,630 50,1050z"/>
   <path id="6" class="fil2" d="M440550 123040c0,160 -30,290 -90,400 -60,110 -190,200 -400,270 -220,70 -530,120 -950,150 -420,30 -990,40 -1700,40 -600,0 -1080,-10 -1440,-40 -360,-30 -650,-80 -850,-160 -210,-80 -360,-180 -440,-310 -90,-120 -160,-270 -220,-440l-2510 -6240c-300,-710 -600,-1340 -890,-1880 -280,-560 -610,-1010 -960,-1380 -350,-370 -760,-640 -1230,-830 -450,-180 -990,-280 -1590,-280l-1780 0 0 10660c0,140 -40,270 -140,380 -90,120 -250,210 -460,290 -210,60 -500,120 -860,170 -350,40 -820,60 -1370,60 -550,0 -1010,-20 -1380,-60 -360,-50 -650,-110 -860,-170 -220,-80 -370,-170 -450,-280 -90,-120 -140,-250 -140,-390l0 -25330c0,-640 170,-1090 490,-1370 320,-280 720,-420 1190,-420l7230 0c730,0 1340,10 1810,40 470,30 910,70 1300,110 1120,160 2120,430 3020,820 900,380 1660,890 2290,1520 620,620 1100,1360 1430,2210 330,850 500,1830 500,2940 0,930 -120,1780 -360,2550 -240,770 -590,1450 -1050,2060 -460,600 -1020,1120 -1700,1560 -670,450 -1450,800 -2310,1080 420,200 810,450 1180,730 370,290 710,640 1040,1050 320,420 630,880 920,1410 280,520 560,1120 830,1780l2370 5510c210,540 360,940 420,1200 80,250 110,440 110,590zm-7320 -18940c0,-920 -210,-1700 -630,-2320 -420,-630 -1100,-1080 -2050,-1340 -290,-70 -610,-130 -980,-170 -370,-40 -870,-70 -1520,-70l-2550 0 0 7900 2890 0c810,0 1510,-90 2120,-290 610,-190 1110,-460 1510,-820 400,-340 710,-770 900,-1250 200,-490 310,-1030 310,-1640z"/>
   <path class="fil2" d="M67620 569530c0,2990 -560,5580 -1660,7830 -1120,2240 -2610,4110 -4510,5610 -1900,1500 -4110,2630 -6650,3390 -2540,760 -5250,1130 -8150,1130 -1950,0 -3760,-160 -5440,-490 -1670,-330 -3150,-710 -4430,-1180 -1290,-440 -2360,-920 -3230,-1430 -860,-510 -1470,-950 -1860,-1330 -370,-380 -640,-940 -810,-1650 -160,-720 -230,-1730 -230,-3080 0,-910 20,-1650 80,-2260 60,-620 150,-1110 290,-1500 130,-370 310,-640 520,-800 220,-170 480,-240 780,-240 400,0 980,240 1730,730 740,480 1700,1020 2860,1600 1170,580 2570,1120 4190,1590 1620,500 3500,730 5630,730 1400,0 2650,-160 3760,-490 1120,-340 2060,-800 2830,-1420 780,-610 1360,-1350 1780,-2250 400,-890 610,-1890 610,-3000 0,-1280 -340,-2380 -1040,-3290 -700,-930 -1620,-1730 -2750,-2450 -1120,-720 -2400,-1390 -3830,-2020 -1420,-620 -2900,-1280 -4420,-1980 -1520,-700 -3000,-1490 -4420,-2390 -1430,-880 -2710,-1940 -3830,-3170 -1130,-1240 -2040,-2710 -2750,-4410 -700,-1680 -1040,-3710 -1040,-6070 0,-2700 510,-5090 1510,-7150 1000,-2040 2350,-3740 4050,-5100 1720,-1360 3720,-2370 6030,-3040 2320,-670 4780,-1000 7370,-1000 1330,0 2670,100 4020,310 1340,200 2590,480 3760,820 1160,360 2190,750 3100,1180 900,450 1490,810 1790,1110 280,280 480,530 580,730 110,210 200,470 270,820 80,330 120,740 150,1270 30,500 40,1130 40,1890 0,840 -10,1550 -60,2130 -40,590 -110,1060 -220,1450 -100,370 -250,660 -430,820 -200,180 -450,270 -780,270 -310,0 -820,-210 -1520,-610 -700,-400 -1570,-850 -2580,-1340 -1030,-480 -2210,-910 -3550,-1300 -1340,-410 -2810,-600 -4420,-600 -1250,0 -2340,150 -3280,460 -930,300 -1700,730 -2330,1270 -620,540 -1100,1180 -1400,1940 -310,760 -460,1570 -460,2400 0,1260 340,2350 1030,3260 680,920 1610,1740 2760,2460 1150,700 2460,1370 3920,2000 1450,620 2940,1290 4460,1980 1520,700 3020,1490 4460,2390 1470,890 2760,1950 3910,3190 1140,1240 2060,2690 2760,4370 700,1670 1050,3640 1050,5910z"/>
   <path id="1" class="fil2" d="M109850 581990c0,850 -30,1550 -110,2130 -70,570 -180,1030 -330,1380 -140,350 -320,610 -550,770 -210,170 -460,240 -710,240l-28390 0c-960,0 -1760,-280 -2420,-850 -650,-570 -980,-1490 -980,-2780l0 -49320c0,-1280 330,-2210 980,-2780 660,-560 1460,-850 2420,-850l28250 0c260,0 490,80 700,230 200,150 380,400 530,760 130,370 250,830 320,1400 80,580 110,1300 110,2180 0,820 -30,1510 -110,2090 -70,560 -180,1030 -320,1370 -150,360 -330,610 -530,780 -210,160 -440,230 -700,230l-20190 0 0 13790 17010 0c270,0 510,80 720,240 220,160 400,400 550,750 150,320 260,770 330,1350 80,570 110,1260 110,2060 0,850 -30,1550 -110,2110 -70,550 -180,1000 -330,1320 -150,350 -330,590 -550,720 -210,150 -450,220 -720,220l-17010 0 0 15940 20330 0c270,0 500,70 710,240 230,160 410,410 550,770 150,350 260,810 330,1380 80,580 110,1280 110,2130z"/>
   <path id="2" class="fil2" d="M151100 581710c0,860 -30,1610 -100,2200 -80,600 -200,1090 -330,1480 -150,400 -330,690 -550,850 -230,180 -480,270 -770,270l-25910 0c-960,0 -1760,-280 -2420,-850 -650,-570 -980,-1490 -980,-2780l0 -51380c0,-280 90,-550 280,-790 190,-220 510,-420 940,-570 430,-150 1030,-250 1780,-340 740,-90 1670,-140 2770,-140 1130,0 2070,50 2810,140 710,90 1310,190 1740,340 430,150 750,350 940,570 200,240 280,510 280,790l0 45520 17770 0c290,0 560,80 770,240 220,160 400,420 550,790 150,360 250,840 330,1450 70,590 100,1330 100,2210z"/>
   <path id="3" class="fil2" d="M188950 581710c0,860 -30,1610 -100,2200 -80,600 -200,1090 -330,1480 -150,400 -330,690 -550,850 -230,180 -480,270 -770,270l-25910 0c-960,0 -1760,-280 -2420,-850 -650,-570 -980,-1490 -980,-2780l0 -51380c0,-280 90,-550 280,-790 190,-220 510,-420 940,-570 430,-150 1030,-250 1780,-340 740,-90 1670,-140 2770,-140 1130,0 2070,50 2810,140 710,90 1310,190 1740,340 430,150 750,350 940,570 200,240 280,510 280,790l0 45520 17770 0c290,0 560,80 770,240 220,160 400,420 550,790 150,360 250,840 330,1450 70,590 100,1330 100,2210z"/>
   <g>
    <path class="fil2" d="M423460 366960l6080 0 -360 12730 -1030 11950 -1670 11160 -2270 10350 -2820 9560 -3320 8770 -3790 7970 -4240 7170 -4620 6370 -4980 5560 -5280 4740 -5560 3920 -5790 3080 -5960 2230 -6100 1360 -6170 490 -6160 -400 -6090 -1270 -5980 -2150 -5800 -3010 -5570 -3860 -5290 -4700 -4970 -5520 -4630 -6340 -4240 -7150 -3790 -7990 -3330 -8780 -2810 -9620 -2270 -10430 -1670 -11240 -1030 -12060 -360 -12890 6080 0 340 12590 1010 11740 1610 10900 2190 10070 2710 9220 3170 8380 3590 7550 3960 6710 4290 5880 4570 5060 4770 4240 4950 3420 5080 2650 5160 1850 5230 1090 5240 340 5250 -410 5220 -1180 5180 -1930 5090 -2700 4960 -3500 4780 -4300 4560 -5100 4300 -5910 3960 -6730 3590 -7530 3180 -8370 2700 -9180 2190 -9990 1610 -10800 1010 -11630 340 -12430z"/>
   </g>
   <ellipse class="fil3" cx="304635" cy="345250" rx="6086" ry="6176"/>
   <ellipse class="fil3" cx="426276" cy="345250" rx="6086" ry="6176"/>
  </g>
 </g>
</svg>
