<?xml version="1.0" encoding="UTF-8" standalone="no"?>
<!-- Creator: CorelDRAW X7 -->

<svg
   xml:space="preserve"
   width="26.458334mm"
   height="8.0376329mm"
   version="1.0"
   style="clip-rule:evenodd;fill-rule:evenodd;image-rendering:optimizeQuality;shape-rendering:geometricPrecision;text-rendering:geometricPrecision"
   viewBox="0 0 2645.9396 803.70257"
   id="svg115181"
   sodipodi:docname="Buy-Sell.svg"
   inkscape:version="1.1.2 (b8e25be833, 2022-02-05)"
   xmlns:inkscape="http://www.inkscape.org/namespaces/inkscape"
   xmlns:sodipodi="http://sodipodi.sourceforge.net/DTD/sodipodi-0.dtd"
   xmlns="http://www.w3.org/2000/svg"
   xmlns:svg="http://www.w3.org/2000/svg"><sodipodi:namedview
   id="namedview115183"
   pagecolor="#ffffff"
   bordercolor="#666666"
   borderopacity="1.0"
   inkscape:pageshadow="2"
   inkscape:pageopacity="0.0"
   inkscape:pagecheckerboard="0"
   inkscape:document-units="mm"
   showgrid="false"
   inkscape:zoom="3.3500107"
   inkscape:cx="49.99984"
   inkscape:cy="15.223832"
   inkscape:window-width="1366"
   inkscape:window-height="745"
   inkscape:window-x="-8"
   inkscape:window-y="-8"
   inkscape:window-maximized="1"
   inkscape:current-layer="Layer_x0020_1" />
 <defs
   id="defs115160">
  <style
   type="text/css"
   id="style115158">
   <![CDATA[
    .str1 {stroke:#00C800;stroke-width:16.93}
    .str0 {stroke:#00C800;stroke-width:20}
    .fil0 {fill:none}
    .fil3 {fill:#00C800}
    .fil1 {fill:white}
    .fil2 {fill:#00C800;fill-rule:nonzero}
    .fil4 {fill:white;fill-rule:nonzero}
   ]]>
  </style>
 </defs>
 <g
   id="Layer_x0020_1"
   inkscape:label="Layer 1"
   inkscape:groupmode="layer"
   transform="translate(-849.53499,-665.40562)">
  <metadata
   id="CorelCorpID_0Corel-Layer" />
  
  
  
  
  
  
  
  
  
  <g
   id="g115275"
   transform="matrix(0.4256341,0,0,0.4256341,487.94392,382.10619)"><path
     class="fil0 str0"
     d="m 4820,672 -756,830 -168,185 -783,860"
     id="path115163" /><path
     class="fil1 str1"
     d="M 3531,2091 H 858 V 847 h 3799 z"
     id="path115165" /><path
     class="fil2"
     d="m 2374,1595 c 0,24 -4,45 -10,64 -6,19 -15,35 -26,50 -12,14 -25,27 -41,37 -15,11 -33,19 -51,26 -19,7 -39,12 -61,15 -21,3 -45,5 -71,5 h -174 c -11,0 -20,-4 -28,-10 -7,-7 -11,-17 -11,-32 v -570 c 0,-15 4,-26 11,-33 8,-6 17,-9 28,-9 h 164 c 40,0 74,3 102,10 27,7 51,17 70,30 19,14 33,31 43,52 10,21 15,45 15,74 0,16 -2,30 -6,44 -4,14 -10,27 -17,39 -8,11 -18,21 -29,30 -11,9 -24,16 -38,21 18,4 35,9 51,18 16,8 29,19 41,32 12,14 21,29 28,47 6,18 10,38 10,60 z m -172,-275 c 0,-13 -2,-25 -6,-36 -4,-10 -10,-19 -18,-26 -8,-7 -19,-12 -31,-16 -12,-3 -28,-5 -49,-5 h -67 v 170 h 74 c 19,0 35,-3 46,-7 11,-5 21,-11 28,-19 8,-8 14,-17 17,-28 4,-10 6,-21 6,-33 z m 34,280 c 0,-15 -3,-29 -8,-41 -5,-12 -12,-22 -22,-30 -9,-8 -22,-14 -37,-18 -15,-5 -35,-7 -59,-7 h -79 v 186 h 96 c 18,0 34,-2 47,-6 12,-3 23,-9 33,-17 9,-7 16,-17 21,-28 5,-11 8,-24 8,-39 z"
     id="path115167" /><path
     id="1"
     class="fil2"
     d="m 3014,1548 c 0,40 -6,76 -18,107 -12,32 -29,59 -52,81 -23,22 -51,38 -85,50 -34,11 -72,17 -116,17 -41,0 -78,-5 -111,-15 -32,-11 -60,-26 -83,-47 -22,-21 -39,-47 -51,-78 -12,-31 -18,-68 -18,-110 v -397 c 0,-4 1,-7 3,-9 2,-3 5,-5 11,-7 5,-2 12,-3 20,-4 8,-1 19,-1 32,-1 13,0 24,0 32,1 8,1 15,2 20,4 5,2 9,4 11,7 2,2 3,5 3,9 v 386 c 0,26 4,49 10,68 6,19 15,35 28,47 11,12 26,22 42,28 17,6 36,9 56,9 21,0 40,-3 56,-9 17,-7 31,-16 43,-28 11,-13 20,-28 26,-46 6,-18 9,-38 9,-61 v -394 c 0,-4 1,-7 3,-9 2,-3 6,-5 11,-7 5,-2 12,-3 21,-4 8,-1 19,-1 32,-1 12,0 23,0 31,1 8,1 15,2 20,4 5,2 9,4 11,7 2,2 3,5 3,9 z" /><path
     id="2"
     class="fil2"
     d="m 3420,1543 v 231 c 0,3 -1,6 -3,9 -2,2 -6,5 -11,6 -5,2 -12,3 -20,4 -9,1 -20,2 -32,2 -13,0 -24,-1 -33,-2 -8,-1 -15,-2 -20,-4 -5,-1 -9,-4 -11,-6 -2,-3 -3,-6 -3,-9 v -231 l -179,-356 c -7,-12 -11,-22 -13,-29 -1,-7 0,-12 4,-16 3,-3 11,-5 21,-6 10,-1 25,-1 43,-1 16,0 28,0 37,1 10,0 17,1 22,3 6,2 10,5 12,8 3,3 5,6 7,11 l 73,161 c 8,16 15,32 22,49 7,17 13,35 21,54 h 1 c 6,-18 13,-36 19,-53 7,-17 14,-33 20,-49 l 72,-160 c 2,-5 4,-9 6,-13 3,-3 7,-5 12,-7 5,-2 12,-4 21,-4 8,-1 20,-1 34,-1 19,0 34,0 45,1 11,1 18,3 22,6 4,4 5,9 3,16 -2,7 -7,17 -13,29 z" /><path
     class="fil3"
     d="M 4393,1135 H 7066 V 2379 H 3267 Z"
     id="path115171" /><path
     class="fil4"
     d="m 4915,1934 c 0,34 -7,64 -19,90 -13,26 -31,48 -52,65 -23,18 -48,31 -77,39 -30,9 -61,14 -95,14 -22,0 -43,-2 -63,-6 -19,-4 -36,-8 -51,-14 -15,-5 -27,-10 -37,-16 -10,-6 -17,-11 -22,-16 -4,-4 -7,-11 -9,-19 -2,-8 -3,-20 -3,-35 0,-11 1,-20 1,-27 1,-7 2,-12 4,-17 1,-4 3,-7 6,-9 2,-2 5,-3 9,-3 4,0 11,3 20,9 8,5 19,11 33,18 13,7 29,13 48,18 19,6 41,9 65,9 17,0 31,-2 44,-6 13,-4 24,-9 33,-16 8,-7 15,-16 20,-26 5,-11 7,-22 7,-35 0,-15 -4,-28 -12,-38 -8,-11 -19,-20 -32,-28 -13,-9 -27,-16 -44,-24 -16,-7 -33,-14 -51,-23 -18,-8 -35,-17 -51,-27 -17,-10 -32,-23 -44,-37 -14,-14 -24,-31 -32,-51 -8,-19 -12,-43 -12,-70 0,-31 6,-59 17,-83 12,-23 27,-43 47,-59 20,-15 43,-27 70,-35 26,-8 55,-11 85,-11 15,0 31,1 46,3 16,3 30,6 44,10 13,4 25,8 36,13 10,6 17,10 20,13 4,3 6,6 7,9 1,2 2,5 3,9 1,4 2,9 2,15 0,6 0,13 0,22 0,9 0,18 0,24 -1,7 -2,13 -3,17 -1,4 -3,8 -5,10 -2,2 -5,3 -9,3 -3,0 -9,-3 -17,-7 -8,-5 -18,-10 -30,-16 -12,-5 -26,-10 -41,-15 -16,-5 -33,-7 -51,-7 -15,0 -27,2 -38,5 -11,4 -20,9 -27,15 -7,6 -13,14 -16,23 -4,8 -6,18 -6,27 0,15 4,27 12,38 8,11 19,20 32,28 13,9 29,16 45,24 17,7 34,15 52,22 18,9 35,18 52,28 16,10 31,23 45,37 13,14 24,31 32,51 8,19 12,42 12,68 z"
     id="path115173" /><path
     id="path115175"
     class="fil4"
     d="m 5403,2078 c 0,10 0,18 -1,25 -1,6 -2,11 -4,15 -2,5 -4,7 -6,9 -3,2 -6,3 -9,3 h -328 c -11,0 -20,-3 -28,-10 -7,-6 -11,-17 -11,-32 v -570 c 0,-15 4,-26 11,-32 8,-7 17,-10 28,-10 h 327 c 3,0 5,1 8,3 2,1 4,4 6,8 1,5 3,10 4,17 1,6 1,15 1,25 0,9 0,17 -1,24 -1,7 -2,12 -4,16 -2,4 -4,7 -6,9 -3,2 -5,3 -8,3 h -234 v 159 h 197 c 3,0 6,1 8,3 3,2 5,4 7,8 1,4 3,9 3,16 1,7 2,15 2,24 0,10 -1,18 -2,24 0,7 -2,12 -3,16 -2,3 -4,6 -7,8 -2,2 -5,2 -8,2 h -197 v 185 h 235 c 3,0 6,0 9,2 2,2 4,5 6,9 2,4 3,10 4,16 1,7 1,15 1,25 z" /><path
     id="path115177"
     class="fil4"
     d="m 5880,2075 c 0,10 0,18 -1,25 -1,7 -3,13 -4,17 -2,5 -4,8 -7,10 -2,2 -5,3 -8,3 h -300 c -11,0 -20,-3 -28,-10 -7,-6 -11,-17 -11,-32 v -594 c 0,-3 1,-6 3,-9 2,-3 6,-5 11,-7 5,-1 12,-2 20,-4 9,-1 20,-1 32,-1 14,0 24,0 33,1 8,2 15,3 20,4 5,2 9,4 11,7 2,3 3,6 3,9 v 526 h 206 c 3,0 6,1 8,3 3,2 5,5 7,9 2,4 3,10 4,17 1,7 1,15 1,26 z" /><path
     id="3"
     class="fil4"
     d="m 6317,2075 c 0,10 0,18 -1,25 -1,7 -2,13 -4,17 -1,5 -3,8 -6,10 -2,2 -5,3 -9,3 h -299 c -11,0 -21,-3 -28,-10 -8,-6 -12,-17 -12,-32 v -594 c 0,-3 1,-6 4,-9 2,-3 5,-5 11,-7 5,-1 11,-2 20,-4 9,-1 19,-1 32,-1 13,0 24,0 33,1 8,2 15,3 20,4 5,2 8,4 11,7 2,3 3,6 3,9 v 526 h 205 c 4,0 7,1 9,3 3,2 5,5 6,9 2,4 3,10 4,17 1,7 1,15 1,26 z" /></g>
 </g>
</svg>
