<?xml version="1.0" encoding="UTF-8" standalone="no"?>
<!-- Creator: CorelDRAW X7 -->

<svg
   xml:space="preserve"
   width="86.440109"
   height="78.776299"
   version="1.0"
   style="clip-rule:evenodd;fill-rule:evenodd;image-rendering:optimizeQuality;shape-rendering:geometricPrecision;text-rendering:geometricPrecision"
   viewBox="0 0 8644010.9 7877629.9"
   id="svg1344"
   sodipodi:docname="Buy-Sell.svg"
   inkscape:version="1.1.2 (b8e25be833, 2022-02-05)"
   xmlns:inkscape="http://www.inkscape.org/namespaces/inkscape"
   xmlns:sodipodi="http://sodipodi.sourceforge.net/DTD/sodipodi-0.dtd"
   xmlns="http://www.w3.org/2000/svg"
   xmlns:svg="http://www.w3.org/2000/svg"><sodipodi:namedview
   id="namedview1346"
   pagecolor="#ffffff"
   bordercolor="#999999"
   borderopacity="1"
   inkscape:pageshadow="0"
   inkscape:pageopacity="0"
   inkscape:pagecheckerboard="0"
   showgrid="false"
   inkscape:zoom="3.6025641"
   inkscape:cx="43.163701"
   inkscape:cy="45.245552"
   inkscape:window-width="1366"
   inkscape:window-height="745"
   inkscape:window-x="-8"
   inkscape:window-y="-8"
   inkscape:window-maximized="1"
   inkscape:current-layer="svg1344" />
 <defs
   id="defs1297">
  <style
   type="text/css"
   id="style1295">
   <![CDATA[
    .str0 {stroke:#00C800;stroke-width:89857.1}
    .fil0 {fill:none}
    .fil3 {fill:#00C800}
    .fil1 {fill:white}
    .fil2 {fill:#00C800;fill-rule:nonzero}
   ]]>
  </style>
 </defs>
 <g
   id="Layer_x0020_1"
   inkscape:label="Layer 1"
   inkscape:groupmode="layer"
   transform="translate(-3477994.4,-3274519.4)">
  <metadata
   id="CorelCorpID_0Corel-Layer" />
  <path
   class="fil0 str0"
   d="M 7799646,8063793 V 4569624"
   id="path1300" />
  <path
   class="fil0 str0"
   d="M 4772805,9857162 7799646,8063793 10826723,9857280"
   id="path1302" />
  <ellipse
   class="fil1 str0"
   cx="4773002"
   cy="9857145"
   rx="1250079"
   ry="1250076"
   id="ellipse1304" />
  <ellipse
   class="fil1 str0"
   cx="7799675"
   cy="8063802"
   rx="1780217"
   ry="1780214"
   id="ellipse1306" />
  <ellipse
   class="fil1 str0"
   cx="10826998"
   cy="9857145"
   rx="1250079"
   ry="1250076"
   id="ellipse1308" />
  <ellipse
   class="fil1 str0"
   cx="7800000"
   cy="4569524"
   rx="1250079"
   ry="1250076"
   id="ellipse1310" />
  <path
   class="fil2"
   d="m 10435573,9986406 c 0,23820 -3301,45282 -9787,64621 -6604,19104 -15566,36203 -27005,50943 -11556,14858 -25235,27476 -41155,38207 -15919,10731 -33608,19339 -52711,26415 -19221,6839 -39740,11910 -61556,15094 -21815,3419 -46108,4952 -72876,4952 h -177120 c -11321,0 -20754,-3301 -28537,-10023 -7783,-6722 -11557,-17570 -11557,-32783 v -581594 c 0,-15095 3774,-25943 11557,-32665 7783,-6722 17216,-10024 28537,-10024 h 167097 c 40801,0 75352,3538 103654,10378 28301,6839 52004,17216 71343,31131 19575,13915 34315,31486 44575,52830 10377,21226 15448,46225 15448,75116 0,16156 -2123,31250 -6132,45519 -4010,14268 -10260,27240 -17925,38914 -7900,11792 -17570,21934 -29244,30896 -11439,8962 -24410,16155 -39269,21698 18868,3537 36438,9434 52476,18042 16037,8726 29952,19693 41745,33254 11910,13561 21226,29599 28065,47759 6840,18278 10377,38678 10377,61320 z m -175233,-281128 c 0,-13325 -2122,-25236 -6132,-35967 -4009,-10613 -10141,-19575 -18396,-26650 -8372,-6958 -18749,-12264 -31249,-16156 -12382,-3655 -29127,-5660 -50117,-5660 h -68278 v 173111 h 75471 c 19575,0 35259,-2241 46815,-6958 11675,-4599 21344,-10967 29009,-19103 7783,-8019 13443,-17571 17335,-28302 3655,-10849 5542,-22169 5542,-34315 z m 34905,286080 c 0,-15448 -2712,-29362 -7783,-41626 -5070,-12146 -12617,-22406 -22641,-30660 -9905,-8255 -22523,-14623 -38089,-19222 -15448,-4363 -35495,-6603 -60258,-6603 h -80306 v 189973 h 97876 c 18868,0 34669,-2004 47641,-6014 12854,-3891 23938,-9787 33490,-17570 9316,-7783 16627,-17217 22169,-28891 5189,-11439 7901,-24646 7901,-39387 z"
   id="path1312" />
  <path
   id="1"
   class="fil2"
   d="m 11088512,9938057 c 0,40802 -5897,77358 -18043,109551 -12028,32428 -29598,59668 -52947,82074 -23467,22287 -52240,39386 -86555,50942 -34552,11793 -73938,17571 -118630,17571 -41981,0 -79598,-5189 -112853,-15566 -33490,-10613 -61555,-26415 -84668,-47759 -22995,-21226 -40565,-47758 -52712,-79597 -12146,-31840 -18278,-68985 -18278,-111555 v -405655 c 0,-3419 1062,-6603 3184,-9316 1887,-2712 5543,-4952 10849,-6721 5307,-1769 12264,-3066 20990,-4010 8373,-1061 19458,-1650 32901,-1650 12736,0 23702,589 32193,1650 8608,944 15448,2241 20518,4010 5071,1769 8845,4009 11085,6721 2241,2713 3302,5897 3302,9316 v 393980 c 0,26651 3420,49528 9905,68985 6486,19339 15802,35495 28184,48230 12146,12618 26651,22288 43749,28656 17099,6368 36203,9551 57075,9551 21344,0 40565,-3419 57193,-9905 16980,-6486 31131,-16038 42923,-28537 11675,-12618 20755,-28066 27123,-46344 6367,-18514 9551,-39504 9551,-62853 v -401763 c 0,-3419 1062,-6603 3066,-9316 2005,-2712 5661,-4952 10731,-6721 5189,-1769 12146,-3066 20991,-4010 8844,-1061 19693,-1650 32664,-1650 13090,0 23821,589 32193,1650 8491,944 15330,2241 20519,4010 5070,1769 8726,4009 10731,6721 2004,2713 3066,5897 3066,9316 z" />
  <path
   id="2"
   class="fil2"
   d="m 11503246,9933458 v 234667 c 0,3419 -1061,6603 -3302,9315 -2358,2713 -6014,4953 -11085,6722 -5070,1651 -12146,2948 -20990,4009 -8726,1062 -19693,1651 -32665,1651 -13443,0 -24527,-589 -33136,-1651 -8372,-1061 -15448,-2358 -20754,-4009 -5425,-1769 -9080,-4009 -11085,-6722 -2123,-2712 -3184,-5896 -3184,-9315 v -234667 l -182544,-363438 c -6486,-12617 -10731,-22641 -12618,-29716 -2005,-7075 -943,-12264 3066,-16038 3891,-3537 11321,-5778 21816,-6603 10613,-944 25353,-1297 44221,-1297 15801,0 28301,353 37853,1061 9434,707 16863,1887 22287,3891 5425,1887 9552,4363 12146,7429 2477,3066 4953,6958 7429,11911 l 74528,163912 c 7193,15920 14386,32547 21462,50000 7193,17570 14268,35848 21697,55187 h 1062 c 6485,-18631 13089,-36556 20047,-54126 6839,-17571 13561,-34080 20046,-49999 l 73348,-162852 c 1769,-5660 3892,-10023 6486,-13207 2477,-3302 6368,-6014 11557,-8137 5188,-1887 12146,-3302 21108,-4009 8844,-708 20872,-1061 35612,-1061 19458,0 34788,353 45519,1297 10966,825 18278,3066 22169,6603 4127,3774 4953,9198 2830,16392 -1887,7193 -6132,16863 -12264,29362 z" />
  <path
   class="fil2"
   d="m 7199537,4564672 c 0,30188 -3891,56013 -11792,77475 -7901,21462 -19103,38914 -33962,52475 -14740,13562 -32782,23467 -53772,29835 -21109,6368 -46226,9552 -75353,9552 h -78537 c -5660,0 -10377,-1651 -14150,-4953 -3774,-3302 -5779,-8608 -5779,-16156 v -286670 c 0,-7547 2005,-12853 5779,-16155 3773,-3302 8490,-4953 14150,-4953 h 84315 c 29245,0 54245,3420 74527,10377 20519,6840 37736,16981 51651,30424 14032,13444 24763,30189 32074,49882 7194,19929 10849,42806 10849,68867 z m -69338,2358 c 0,-15566 -1769,-29952 -5425,-43396 -3655,-13443 -9433,-24881 -17570,-34787 -8019,-9787 -18278,-17452 -30896,-22877 -12618,-5542 -29127,-8254 -49763,-8254 h -33726 v 223227 h 34787 c 18278,0 33726,-2358 46226,-7075 12500,-4717 22995,-11910 31485,-21462 8255,-9552 14505,-21462 18632,-35613 4245,-14268 6250,-30777 6250,-49763 z"
   id="path1316" />
  <path
   id="path1318"
   class="fil2"
   d="m 7449062,4707712 c 0,4953 -236,9080 -590,12382 -471,3302 -1061,6014 -1886,8018 -944,2123 -2005,3538 -3302,4482 -1180,943 -2595,1415 -4128,1415 h -164974 c -5542,0 -10259,-1651 -14032,-4953 -3774,-3302 -5779,-8608 -5779,-16156 v -286670 c 0,-7547 2005,-12853 5779,-16155 3773,-3302 8490,-4953 14032,-4953 h 164149 c 1533,0 2948,472 4127,1297 1179,826 2123,2359 3066,4481 708,2123 1415,4835 1887,8137 472,3302 590,7547 590,12618 0,4717 -118,8726 -590,12146 -472,3302 -1061,6014 -1887,8018 -943,2005 -1887,3538 -3066,4482 -1179,943 -2594,1415 -4127,1415 h -117333 v 80069 h 98937 c 1533,0 2948,472 4127,1415 1297,944 2359,2359 3184,4363 944,1887 1533,4481 2005,7901 354,3302 590,7311 590,11910 0,4953 -236,9080 -590,12264 -472,3184 -1061,5779 -2005,7665 -825,2005 -1887,3420 -3184,4246 -1179,825 -2594,1297 -4127,1297 h -98937 v 92569 h 118158 c 1533,0 2948,472 4128,1415 1297,944 2358,2477 3302,4481 825,2005 1415,4717 1886,8019 354,3420 590,7429 590,12382 z" />
  <path
   id="path1320"
   class="fil2"
   d="m 7688917,4706061 c 0,5071 -236,9434 -590,12854 -472,3419 -1179,6367 -2005,8608 -825,2358 -1886,4009 -3183,4953 -1298,1061 -2713,1533 -4364,1533 h -150705 c -5542,0 -10259,-1651 -14033,-4953 -3773,-3302 -5778,-8608 -5778,-16156 v -298698 c 0,-1651 590,-3184 1651,-4599 1179,-1297 2948,-2358 5542,-3302 2477,-825 6014,-1415 10260,-2004 4363,-472 9787,-708 16155,-708 6604,0 12028,236 16273,708 4246,589 7665,1179 10142,2004 2594,944 4363,2005 5542,3302 1061,1415 1651,2948 1651,4599 v 264619 h 103300 c 1651,0 3184,471 4364,1415 1297,943 2358,2476 3183,4599 944,2122 1533,4835 2005,8372 354,3538 590,7783 590,12854 z" />
  <path
   id="3"
   class="fil2"
   d="m 7795519,4724929 c 0,1650 -590,3183 -1651,4599 -1179,1297 -2948,2358 -5542,3301 -2477,708 -5896,1415 -10142,2005 -4245,472 -9669,708 -16273,708 -6368,0 -11792,-236 -16155,-708 -4246,-590 -7783,-1297 -10260,-2005 -2594,-943 -4363,-2004 -5542,-3301 -1061,-1416 -1651,-2949 -1651,-4599 v -310727 c 0,-1651 590,-3184 1651,-4599 1179,-1297 2948,-2358 5660,-3302 2594,-825 6014,-1415 10259,-2004 4246,-472 9670,-708 16038,-708 6604,0 12028,236 16273,708 4246,589 7665,1179 10142,2004 2594,944 4363,2005 5542,3302 1061,1415 1651,2948 1651,4599 z" />
  <path
   id="4"
   class="fil2"
   d="m 8031011,4722334 c -826,2948 -1887,5307 -3302,6958 -1415,1886 -3538,3184 -6604,4127 -2948,943 -7193,1533 -12500,1769 -5188,354 -12028,354 -20518,354 -6722,0 -12618,0 -17453,0 -4835,-118 -8962,-354 -12264,-708 -3420,-354 -6132,-943 -8254,-1533 -2123,-707 -3892,-1533 -5425,-2594 -1297,-944 -2476,-2241 -3302,-3656 -707,-1415 -1415,-3302 -2122,-5424 l -97758,-291623 c -2005,-6132 -3302,-10967 -3656,-14505 -471,-3537 354,-6250 2477,-8018 2122,-1769 5778,-2831 10848,-3302 5071,-472 12147,-590 21344,-590 7901,0 13915,118 18396,472 4364,354 7783,943 10142,1769 2240,825 4009,2122 4953,3773 943,1769 1768,3892 2594,6486 l 79951,253652 h 236 l 78537,-252473 c 707,-2830 1651,-5188 2594,-6957 944,-1769 2712,-3184 5189,-4246 2476,-943 6014,-1650 10613,-2004 4481,-354 10849,-472 18867,-472 7783,0 13915,236 18161,708 4363,589 7311,1768 8962,3655 1533,2005 2122,4835 1533,8373 -590,3537 -2005,8254 -4010,14150 z" />
  <path
   id="5"
   class="fil2"
   d="m 8369685,4707712 c 0,4953 -236,9080 -590,12382 -472,3302 -1061,6014 -1887,8018 -943,2123 -2004,3538 -3301,4482 -1180,943 -2595,1415 -4128,1415 h -164974 c -5542,0 -10259,-1651 -14032,-4953 -3774,-3302 -5779,-8608 -5779,-16156 v -286670 c 0,-7547 2005,-12853 5779,-16155 3773,-3302 8490,-4953 14032,-4953 h 164149 c 1533,0 2948,472 4127,1297 1179,826 2123,2359 3066,4481 708,2123 1415,4835 1887,8137 472,3302 589,7547 589,12618 0,4717 -117,8726 -589,12146 -472,3302 -1061,6014 -1887,8018 -943,2005 -1887,3538 -3066,4482 -1179,943 -2594,1415 -4127,1415 h -117333 v 80069 h 98937 c 1533,0 2948,472 4127,1415 1297,944 2359,2359 3184,4363 943,1887 1533,4481 2005,7901 354,3302 589,7311 589,11910 0,4953 -235,9080 -589,12264 -472,3184 -1062,5779 -2005,7665 -825,2005 -1887,3420 -3184,4246 -1179,825 -2594,1297 -4127,1297 h -98937 v 92569 h 118158 c 1533,0 2948,472 4128,1415 1297,944 2358,2477 3301,4481 826,2005 1415,4717 1887,8019 354,3420 590,7429 590,12382 z" />
  <path
   id="6"
   class="fil2"
   d="m 8673100,4725400 c 0,1887 -354,3420 -1061,4717 -708,1297 -2241,2359 -4717,3184 -2595,826 -6250,1415 -11203,1769 -4953,354 -11674,472 -20047,472 -7075,0 -12735,-118 -16981,-472 -4245,-354 -7665,-943 -10023,-1887 -2476,-943 -4245,-2122 -5189,-3655 -1061,-1416 -1886,-3184 -2594,-5189 l -29599,-73584 c -3537,-8372 -7075,-15801 -10495,-22169 -3302,-6604 -7193,-11911 -11320,-16274 -4128,-4363 -8962,-7547 -14505,-9787 -5306,-2123 -11674,-3302 -18749,-3302 h -20991 v 125706 c 0,1650 -471,3183 -1651,4481 -1061,1415 -2948,2476 -5424,3419 -2476,708 -5896,1415 -10141,2005 -4128,472 -9670,708 -16156,708 -6486,0 -11910,-236 -16273,-708 -4245,-590 -7665,-1297 -10142,-2005 -2594,-943 -4363,-2004 -5306,-3301 -1061,-1416 -1651,-2949 -1651,-4599 v -298699 c 0,-7547 2005,-12853 5778,-16155 3774,-3302 8491,-4953 14033,-4953 h 85258 c 8609,0 15802,118 21344,472 5543,354 10731,825 15330,1297 13207,1887 25000,5071 35613,9670 10613,4481 19575,10495 27004,17924 7311,7311 12972,16037 16863,26061 3892,10023 5896,21580 5896,34669 0,10967 -1415,20990 -4245,30070 -2830,9080 -6957,17099 -12382,24292 -5424,7076 -12028,13208 -20047,18396 -7901,5307 -17099,9434 -27240,12736 4953,2359 9552,5307 13915,8608 4363,3420 8372,7547 12264,12382 3773,4953 7429,10377 10849,16627 3302,6132 6603,13208 9787,20991 l 27948,64975 c 2476,6368 4245,11085 4953,14151 943,2948 1297,5188 1297,6957 z m -86319,-223345 c 0,-10849 -2477,-20047 -7430,-27358 -4952,-7430 -12971,-12736 -24174,-15802 -3419,-826 -7193,-1533 -11556,-2005 -4363,-472 -10259,-825 -17924,-825 h -30071 v 93159 h 34080 c 9552,0 17806,-1062 25000,-3420 7193,-2241 13089,-5425 17806,-9670 4717,-4009 8372,-9080 10613,-14740 2358,-5778 3656,-12146 3656,-19339 z" />
  <path
   class="fil2"
   d="m 4275407,9990533 c 0,35259 -6604,65801 -19575,92333 -13207,26415 -30778,48467 -53183,66155 -22406,17689 -48467,31014 -78419,39976 -29952,8962 -61909,13325 -96107,13325 -22995,0 -44339,-1887 -64150,-5778 -19693,-3891 -37146,-8373 -52240,-13915 -15212,-5189 -27829,-10849 -38089,-16863 -10141,-6014 -17334,-11203 -21933,-15684 -4364,-4481 -7547,-11084 -9552,-19457 -1887,-8490 -2712,-20400 -2712,-36320 0,-10731 236,-19457 943,-26651 708,-7311 1769,-13089 3420,-17688 1533,-4363 3655,-7547 6132,-9434 2594,-2005 5660,-2830 9198,-2830 4717,0 11556,2830 20400,8608 8727,5661 20047,12028 33726,18868 13797,6840 30306,13207 49410,18750 19103,5896 41273,8608 66390,8608 16510,0 31250,-1887 44339,-5778 13208,-4009 24292,-9434 33373,-16745 9198,-7193 16037,-15920 20990,-26533 4717,-10495 7193,-22287 7193,-35377 0,-15094 -4009,-28065 -12264,-38796 -8254,-10967 -19103,-20401 -32429,-28891 -13207,-8491 -28301,-16392 -45164,-23821 -16745,-7311 -34198,-15094 -52122,-23348 -17924,-8255 -35377,-17571 -52122,-28184 -16863,-10377 -31957,-22877 -45164,-37381 -13325,-14623 -24056,-31957 -32429,-52004 -8255,-19811 -12264,-43750 -12264,-71579 0,-31840 6014,-60023 17806,-84315 11793,-24056 27712,-44103 47759,-60141 20283,-16037 43867,-27947 71108,-35848 27358,-7901 56367,-11793 86909,-11793 15683,0 31485,1180 47405,3656 15801,2358 30542,5660 44339,9670 13679,4245 25825,8844 36556,13915 10613,5306 17570,9551 21108,13089 3302,3302 5660,6250 6839,8608 1297,2477 2359,5543 3184,9670 944,3891 1415,8726 1769,14976 354,5896 472,13325 472,22288 0,9905 -118,18278 -708,25117 -472,6958 -1297,12500 -2594,17099 -1179,4363 -2948,7783 -5071,9670 -2358,2122 -5306,3184 -9198,3184 -3655,0 -9669,-2477 -17924,-7194 -8255,-4717 -18514,-10023 -30424,-15801 -12146,-5661 -26061,-10731 -41863,-15330 -15801,-4835 -33136,-7076 -52122,-7076 -14740,0 -27593,1769 -38678,5425 -10967,3537 -20047,8608 -27476,14976 -7311,6368 -12972,13915 -16509,22877 -3656,8962 -5425,18514 -5425,28301 0,14859 4010,27712 12146,38443 8019,10849 18986,20519 32547,29009 13561,8255 29009,16156 46226,23585 17098,7311 34669,15212 52593,23348 17924,8255 35613,17571 52594,28184 17334,10495 32546,22995 46107,37617 13444,14623 24293,31722 32547,51533 8255,19693 12382,42923 12382,69692 z"
   id="path1326" />
  <path
   id="path1328"
   class="fil2"
   d="m 4773395,10137465 c 0,10023 -354,18278 -1297,25117 -826,6722 -2123,12146 -3892,16274 -1651,4127 -3773,7193 -6486,9080 -2476,2004 -5424,2830 -8372,2830 h -334783 c -11320,0 -20754,-3302 -28537,-10024 -7665,-6721 -11556,-17570 -11556,-32782 v -581595 c 0,-15094 3891,-26061 11556,-32783 7783,-6603 17217,-10023 28537,-10023 h 333132 c 3066,0 5778,943 8255,2712 2358,1769 4481,4717 6250,8962 1533,4363 2948,9788 3773,16509 943,6840 1297,15330 1297,25708 0,9669 -354,17806 -1297,24645 -825,6604 -2123,12146 -3773,16156 -1769,4245 -3892,7193 -6250,9198 -2477,1887 -5189,2712 -8255,2712 h -238086 v 162615 h 200587 c 3184,0 6014,944 8490,2831 2594,1886 4717,4717 6486,8844 1769,3773 3066,9080 3891,15919 944,6722 1297,14859 1297,24292 0,10024 -353,18279 -1297,24882 -825,6486 -2122,11792 -3891,15566 -1769,4127 -3892,6957 -6486,8490 -2476,1769 -5306,2595 -8490,2595 h -200587 v 187969 h 239737 c 3184,0 5896,825 8372,2830 2713,1886 4835,4835 6486,9080 1769,4127 3066,9552 3892,16273 943,6840 1297,15094 1297,25118 z" />
  <path
   id="path1330"
   class="fil2"
   d="m 5259826,10134163 c 0,10141 -354,18985 -1179,25943 -943,7075 -2359,12853 -3892,17452 -1768,4717 -3891,8137 -6485,10024 -2713,2122 -5661,3184 -9080,3184 h -305538 c -11321,0 -20755,-3302 -28537,-10024 -7665,-6721 -11557,-17570 -11557,-32782 v -605887 c 0,-3302 1061,-6486 3302,-9316 2240,-2594 6014,-4953 11085,-6722 5070,-1769 12146,-2948 20990,-4009 8726,-1061 19693,-1651 32665,-1651 13325,0 24410,590 33136,1651 8372,1061 15448,2240 20518,4009 5071,1769 8845,4128 11085,6722 2359,2830 3302,6014 3302,9316 v 536784 h 209549 c 3419,0 6603,943 9080,2830 2594,1887 4717,4953 6485,9316 1769,4245 2949,9906 3892,17099 825,6957 1179,15684 1179,26061 z" />
  <path
   id="path1332"
   class="fil2"
   d="m 5706164,10134163 c 0,10141 -354,18985 -1179,25943 -944,7075 -2359,12853 -3892,17452 -1769,4717 -3891,8137 -6486,10024 -2712,2122 -5660,3184 -9080,3184 h -305538 c -11320,0 -20754,-3302 -28537,-10024 -7665,-6721 -11556,-17570 -11556,-32782 v -605887 c 0,-3302 1061,-6486 3302,-9316 2240,-2594 6014,-4953 11084,-6722 5071,-1769 12146,-2948 20991,-4009 8726,-1061 19693,-1651 32664,-1651 13325,0 24410,590 33136,1651 8373,1061 15448,2240 20519,4009 5071,1769 8844,4128 11085,6722 2358,2830 3302,6014 3302,9316 v 536784 h 209548 c 3420,0 6604,943 9080,2830 2595,1887 4717,4953 6486,9316 1769,4245 2948,9906 3892,17099 825,6957 1179,15684 1179,26061 z" />
  <g
   id="_2072775030512">
   <g
   id="g1336">
    <path
   class="fil2"
   d="m 8471570,7601772 h 71697 l -4245,150116 -12146,140917 -19693,131602 -26769,122050 -33254,112734 -39150,103418 -44693,93985 -49999,84550 -54481,75117 -58725,65565 -62263,55896 -65565,46225 -68278,36321 -70282,26296 -71932,16038 -72759,5778 -72640,-4717 -71815,-14976 -70518,-25353 -68395,-35495 -65683,-45518 -62381,-55424 -58608,-65093 -54598,-74763 -49999,-84315 -44693,-94220 -39268,-103537 -33137,-113441 -26768,-122994 -19693,-132545 -12146,-142215 -4245,-152002 h 71697 l 4009,148465 11910,138441 18986,128536 25825,118748 31957,108725 37381,98819 42335,89032 46697,79126 50589,69338 53891,59669 56249,49999 58371,40330 59905,31250 60848,21815 61674,12854 61791,4009 61910,-4835 61556,-13914 61084,-22760 60022,-31839 58490,-41273 56367,-50706 53773,-60141 50707,-69692 46697,-79362 42334,-88796 37500,-98702 31839,-108253 25825,-117804 18985,-127357 11911,-137144 z"
   id="path1334" />
   </g>
   <ellipse
   class="fil3"
   cx="7070355"
   cy="7345762"
   rx="71773"
   ry="72825"
   id="ellipse1338" />
   <ellipse
   class="fil3"
   cx="8504775"
   cy="7345762"
   rx="71773"
   ry="72825"
   id="ellipse1340" />
  </g>
 </g>
</svg>
