<?xml version="1.0" encoding="UTF-8" standalone="no"?>
<!-- Creator: CorelDRAW X7 -->

<svg
   xml:space="preserve"
   width="100"
   height="46.233498"
   version="1.0"
   style="clip-rule:evenodd;fill-rule:evenodd;image-rendering:optimizeQuality;shape-rendering:geometricPrecision;text-rendering:geometricPrecision"
   viewBox="0 0 10000 4623.3498"
   id="svg6782"
   sodipodi:docname="Buy-Sell.svg"
   inkscape:version="1.1.2 (b8e25be833, 2022-02-05)"
   xmlns:inkscape="http://www.inkscape.org/namespaces/inkscape"
   xmlns:sodipodi="http://sodipodi.sourceforge.net/DTD/sodipodi-0.dtd"
   xmlns="http://www.w3.org/2000/svg"
   xmlns:svg="http://www.w3.org/2000/svg"><sodipodi:namedview
   id="namedview6784"
   pagecolor="#ffffff"
   bordercolor="#666666"
   borderopacity="1.0"
   inkscape:pageshadow="2"
   inkscape:pageopacity="0.0"
   inkscape:pagecheckerboard="0"
   showgrid="false"
   inkscape:zoom="8.576"
   inkscape:cx="50.081623"
   inkscape:cy="23.320896"
   inkscape:window-width="1366"
   inkscape:window-height="745"
   inkscape:window-x="-8"
   inkscape:window-y="-8"
   inkscape:window-maximized="1"
   inkscape:current-layer="Layer_x0020_1" />
 <defs
   id="defs6721">
  <style
   type="text/css"
   id="style6719">
   <![CDATA[
    .str0 {stroke:#00C800;stroke-width:118.11}
    .fil0 {fill:white}
    .fil1 {fill:#00C800;fill-rule:nonzero}
   ]]>
  </style>
 </defs>
 <g
   id="Layer_x0020_1"
   inkscape:label="Layer 1"
   inkscape:groupmode="layer"
   transform="translate(-12349,-6650.9999)">
  <metadata
   id="CorelCorpID_0Corel-Layer" />
  <g
   id="_2678362760240"
   transform="matrix(0.39522567,0,0,0.39522567,7468.3582,4022.354)">
   <g
   id="g6755">
    <g
   id="g6727">
     <path
   class="fil0"
   d="m 18418,6700 h 13200 v 3900 H 18418 Z"
   id="path6724" />
     <path
   id="1"
   class="fil1"
   d="M 31618,6749 H 18418 v -98 h 13200 l 50,49 z m 0,-98 h 50 v 49 z m -50,3949 V 6700 h 100 v 3900 l -50,49 z m 100,0 v 49 h -50 z m -13250,-49 h 13200 v 98 H 18418 l -50,-49 z m 0,98 h -50 v -49 z m 50,-3949 v 3900 h -100 V 6700 l 50,-49 z m -100,0 v -49 h 50 z" />
    </g>
    <g
   id="g6753">
     <rect
   class="fil0 str0"
   x="14354"
   y="10600"
   width="10664"
   height="3800"
   id="rect6729" />
     <rect
   class="fil0 str0"
   x="25018"
   y="10600"
   width="10583"
   height="3800"
   id="rect6731" />
     <g
   id="g6735">
      <path
   class="fil1"
   d="m 18401,6749 h -6040 v -98 h 6040 l 50,49 z m 0,-98 h 50 v 49 z m -50,3949 V 6700 h 100 v 3900 l -50,49 z m 100,0 v 49 h -50 z m -6102,-49 h 6052 v 98 h -6052 z"
   id="path6733" />
     </g>
     <g
   id="g6739">
      <path
   class="fil1"
   d="m 18401,14449 h -6040 v -98 h 6040 l 50,49 z m 0,-98 h 50 v 49 z m -50,3949 v -3900 h 100 v 3900 l -50,49 z m 100,0 v 49 h -50 z m -6102,-49 h 6052 v 98 h -6052 z"
   id="path6737" />
     </g>
     <g
   id="g6743">
      <path
   class="fil1"
   d="M 31618,14449 H 18418 v -98 h 13200 l 50,49 z m 0,-98 h 50 v 49 z m -50,3949 v -3900 h 100 v 3900 l -50,49 z m 100,0 v 49 h -50 z m -13250,-49 h 13200 v 98 H 18418 l -50,-49 z m 0,98 h -50 v -49 z m 50,-3949 v 3900 h -100 v -3900 l 50,-49 z m -100,0 v -49 h 50 z"
   id="path6741" />
     </g>
     <g
   id="g6747">
      <path
   class="fil1"
   d="m 31599,14449 -50,-49 50,-49 h 6040 v 98 z m -50,-49 v -49 h 50 z m 100,3900 -50,49 -50,-49 v -3900 h 100 z m -50,49 h -50 v -49 z m 6052,-98 v 98 h -6052 v -98 z"
   id="path6745" />
     </g>
     <g
   id="g6751">
      <path
   class="fil1"
   d="m 31599,6749 -50,-49 50,-49 h 6040 v 98 z m -50,-49 v -49 h 50 z m 100,3900 -50,49 -50,-49 V 6700 h 100 z m -50,49 h -50 v -49 z m 6052,-98 v 98 h -6052 v -98 z"
   id="path6749" />
     </g>
    </g>
   </g>
   <path
   class="fil1"
   d="m 18491,12934 c 0,72 -11,138 -31,197 -19,59 -47,111 -82,156 -35,45 -77,84 -126,117 -49,33 -102,59 -161,80 -59,21 -122,37 -188,47 -67,10 -141,15 -223,15 h -541 c -35,0 -64,-10 -87,-31 -24,-20 -36,-54 -36,-100 v -1778 c 0,-46 12,-79 36,-100 23,-20 52,-30 87,-30 h 510 c 125,0 231,10 317,31 87,21 159,53 219,96 59,42 104,96 136,161 31,65 47,141 47,230 0,49 -7,95 -19,139 -12,43 -31,83 -55,119 -24,36 -54,67 -89,94 -35,28 -75,50 -120,66 58,11 111,29 160,56 49,26 92,60 128,101 36,42 65,91 86,146 21,56 32,118 32,188 z m -536,-860 c 0,-40 -7,-77 -19,-110 -12,-32 -31,-59 -56,-81 -26,-21 -57,-38 -96,-49 -38,-12 -89,-18 -153,-18 h -208 v 530 h 230 c 60,0 108,-7 143,-22 36,-14 65,-33 89,-58 24,-25 41,-54 53,-87 11,-33 17,-67 17,-105 z m 106,875 c 0,-47 -8,-90 -23,-128 -16,-37 -39,-68 -70,-93 -30,-25 -68,-45 -116,-59 -47,-13 -108,-20 -184,-20 h -245 v 581 h 299 c 57,0 106,-6 145,-19 40,-12 73,-30 102,-53 29,-24 52,-53 68,-89 16,-35 24,-75 24,-120 z"
   id="path6757" />
   <path
   id="path6759"
   class="fil1"
   d="m 20486,12786 c 0,125 -18,237 -55,335 -37,99 -91,182 -162,251 -72,68 -160,120 -265,155 -105,36 -226,54 -362,54 -128,0 -243,-16 -345,-48 -102,-32 -188,-80 -259,-145 -70,-65 -124,-147 -161,-244 -37,-97 -56,-211 -56,-341 v -1240 c 0,-10 3,-20 10,-28 6,-8 17,-15 33,-21 16,-5 38,-9 64,-12 26,-3 60,-5 101,-5 39,0 72,2 98,5 27,3 48,7 63,12 16,6 27,13 34,21 7,8 10,18 10,28 v 1205 c 0,81 10,151 30,210 20,60 49,109 86,148 38,39 82,68 134,87 52,20 111,29 175,29 65,0 123,-10 174,-30 52,-20 95,-49 131,-87 36,-38 64,-86 83,-142 20,-56 29,-120 29,-192 v -1228 c 0,-10 4,-20 10,-28 6,-8 17,-15 33,-21 15,-5 37,-9 64,-12 27,-3 60,-5 100,-5 40,0 72,2 98,5 26,3 47,7 63,12 15,6 27,13 32,21 7,8 10,18 10,28 z" />
   <path
   id="2"
   class="fil1"
   d="m 21754,12772 v 717 c 0,11 -4,20 -11,29 -7,8 -18,15 -33,20 -16,5 -38,9 -65,13 -26,3 -60,4 -99,4 -41,0 -75,-1 -102,-4 -25,-4 -47,-8 -63,-13 -17,-5 -28,-12 -34,-20 -6,-9 -10,-18 -10,-29 v -717 l -558,-1111 c -20,-39 -33,-69 -39,-91 -5,-21 -2,-38 10,-49 12,-11 35,-18 67,-20 32,-3 77,-4 135,-4 48,0 86,1 115,3 29,2 52,6 69,12 16,6 29,13 37,23 7,9 15,21 22,36 l 228,501 c 22,49 44,100 66,153 22,54 44,110 66,169 h 3 c 20,-57 41,-112 62,-166 21,-53 41,-104 61,-152 l 224,-498 c 6,-18 12,-31 20,-41 8,-10 19,-18 36,-24 15,-6 37,-11 64,-13 27,-2 64,-3 109,-3 59,0 106,1 139,4 33,2 56,9 68,20 12,11 15,28 8,50 -5,22 -18,52 -37,90 z" />
   <path
   class="fil1"
   d="m 28823,12947 c 0,107 -20,201 -60,282 -40,81 -94,148 -162,202 -69,54 -149,95 -240,122 -92,28 -189,41 -294,41 -70,0 -135,-6 -196,-18 -60,-11 -113,-25 -160,-42 -46,-16 -85,-33 -116,-52 -31,-18 -53,-34 -67,-47 -13,-14 -23,-34 -29,-60 -6,-26 -9,-62 -9,-111 0,-33 1,-60 4,-82 2,-22 5,-39 10,-53 5,-14 11,-24 19,-29 8,-6 17,-9 28,-9 14,0 35,9 62,26 27,18 61,37 103,58 42,21 93,40 151,57 58,18 126,27 203,27 51,0 96,-6 136,-18 40,-12 74,-29 102,-51 28,-22 49,-49 64,-81 14,-33 22,-69 22,-108 0,-47 -13,-86 -38,-119 -25,-34 -58,-63 -99,-88 -40,-26 -86,-50 -138,-73 -51,-23 -104,-46 -159,-72 -55,-25 -108,-53 -159,-86 -52,-31 -98,-69 -139,-114 -40,-45 -73,-97 -99,-159 -25,-61 -37,-134 -37,-219 0,-97 18,-183 54,-257 36,-74 85,-135 146,-184 62,-49 134,-86 218,-110 83,-24 172,-36 265,-36 48,0 97,4 145,12 48,7 93,17 135,29 42,13 79,27 112,43 33,16 54,29 65,39 10,11 17,20 21,27 4,7 7,17 9,29 3,12 5,27 6,46 1,18 1,41 1,68 0,30 0,56 -2,77 -1,21 -4,38 -8,52 -4,14 -9,24 -15,30 -7,6 -17,10 -28,10 -12,0 -30,-8 -55,-22 -25,-15 -57,-31 -93,-49 -37,-17 -80,-33 -128,-47 -49,-14 -101,-21 -159,-21 -46,0 -85,5 -119,17 -33,10 -61,26 -84,45 -22,20 -39,43 -50,70 -11,28 -17,57 -17,87 0,45 13,84 37,117 25,33 58,63 100,89 41,25 89,49 141,72 52,22 106,47 161,71 55,26 109,54 161,86 53,33 99,71 141,115 41,45 74,97 99,158 25,60 38,131 38,213 z"
   id="path6762" />
   <path
   id="path6764"
   class="fil1"
   d="m 30345,13396 c 0,30 -2,56 -4,77 -3,20 -7,37 -12,49 -5,13 -12,22 -20,28 -7,6 -17,9 -26,9 h -1022 c -35,0 -64,-10 -88,-31 -23,-20 -35,-54 -35,-100 v -1778 c 0,-46 12,-79 35,-100 24,-20 53,-30 88,-30 h 1017 c 10,0 18,2 26,8 7,5 13,14 19,27 4,14 9,30 11,51 3,21 4,47 4,78 0,30 -1,55 -4,76 -2,20 -6,37 -11,49 -6,13 -12,22 -19,28 -8,6 -16,9 -26,9 h -727 v 496 h 613 c 10,0 18,3 26,9 8,6 14,15 20,27 5,12 9,28 11,49 3,20 4,45 4,74 0,31 -1,56 -4,76 -2,20 -6,36 -11,48 -6,12 -12,21 -20,26 -8,5 -16,8 -26,8 h -613 v 574 h 732 c 10,0 19,3 26,9 8,5 15,15 20,27 5,13 9,30 12,50 2,21 4,46 4,77 z" />
   <path
   id="path6766"
   class="fil1"
   d="m 31831,13386 c 0,31 -1,58 -3,79 -3,22 -7,39 -12,53 -6,15 -12,25 -20,31 -8,7 -17,10 -28,10 h -934 c -34,0 -63,-10 -87,-31 -23,-20 -35,-54 -35,-100 v -1852 c 0,-10 3,-20 10,-28 7,-8 18,-15 34,-21 16,-5 37,-9 64,-12 27,-3 60,-5 100,-5 41,0 75,2 101,5 26,3 47,7 63,12 16,6 27,13 34,21 7,8 10,18 10,28 v 1641 h 640 c 11,0 20,2 28,8 8,6 14,15 20,29 5,13 9,30 12,52 2,22 3,48 3,80 z" />
   <path
   id="3"
   class="fil1"
   d="m 33196,13386 c 0,31 -1,58 -4,79 -3,22 -7,39 -12,53 -5,15 -12,25 -20,31 -8,7 -17,10 -27,10 h -934 c -35,0 -64,-10 -87,-31 -24,-20 -36,-54 -36,-100 v -1852 c 0,-10 3,-20 10,-28 7,-8 19,-15 34,-21 16,-5 37,-9 64,-12 27,-3 60,-5 100,-5 41,0 75,2 101,5 26,3 48,7 63,12 16,6 27,13 34,21 7,8 10,18 10,28 v 1641 h 641 c 10,0 20,2 27,8 8,6 15,15 20,29 5,13 9,30 12,52 3,22 4,48 4,80 z" />
   <path
   class="fil1"
   d="m 21298,8620 c 0,187 -24,347 -73,480 -49,133 -119,241 -210,325 -92,84 -203,146 -334,185 -130,40 -286,59 -467,59 h -487 c -35,0 -64,-10 -87,-30 -24,-21 -36,-54 -36,-100 V 7761 c 0,-46 12,-80 36,-100 23,-20 52,-31 87,-31 h 523 c 182,0 336,22 462,64 127,43 234,106 320,189 87,84 153,187 198,310 46,123 68,265 68,427 z m -429,14 c 0,-97 -11,-186 -34,-269 -22,-83 -59,-154 -109,-215 -50,-61 -114,-109 -192,-143 -78,-34 -180,-51 -308,-51 h -209 v 1384 h 216 c 113,0 209,-14 286,-44 78,-29 143,-73 195,-133 52,-59 90,-132 116,-221 26,-88 39,-190 39,-308 z"
   id="path6769" />
   <path
   id="path6771"
   class="fil1"
   d="m 22845,9507 c 0,30 -1,55 -4,76 -3,21 -7,37 -12,50 -5,13 -12,22 -20,28 -7,6 -17,8 -26,8 h -1022 c -35,0 -64,-10 -88,-30 -23,-21 -35,-54 -35,-100 V 7761 c 0,-46 12,-80 35,-100 24,-20 53,-31 88,-31 h 1017 c 10,0 18,3 26,8 7,6 13,15 19,28 4,13 9,30 11,50 3,21 4,47 4,79 0,29 -1,54 -4,75 -2,21 -6,37 -11,50 -6,13 -12,22 -19,28 -8,5 -16,8 -26,8 h -727 v 497 h 613 c 10,0 18,3 26,9 8,6 14,14 20,27 5,11 9,28 11,48 3,21 4,46 4,75 0,30 -1,56 -4,76 -2,19 -6,36 -11,47 -6,13 -12,21 -20,26 -8,6 -16,8 -26,8 h -613 v 575 h 732 c 10,0 19,2 26,8 8,6 15,15 20,28 5,12 9,29 12,50 3,21 4,46 4,77 z" />
   <path
   id="path6773"
   class="fil1"
   d="m 24331,9496 c 0,31 -1,58 -3,80 -3,21 -7,39 -12,53 -5,15 -12,25 -20,31 -8,6 -17,9 -27,9 h -934 c -35,0 -64,-10 -88,-30 -23,-21 -35,-54 -35,-100 V 7687 c 0,-10 3,-20 10,-29 7,-8 18,-15 34,-20 16,-6 37,-9 64,-13 27,-3 60,-4 100,-4 41,0 75,1 101,4 26,4 47,7 63,13 16,5 27,12 34,20 7,9 10,19 10,29 v 1640 h 641 c 10,0 20,3 27,9 8,6 15,15 20,29 5,12 9,30 12,52 2,21 3,48 3,79 z" />
   <path
   id="path6775"
   class="fil1"
   d="m 24992,9613 c 0,10 -3,20 -10,28 -7,9 -18,16 -34,21 -15,5 -37,9 -63,12 -26,4 -60,5 -101,5 -40,0 -73,-1 -100,-5 -27,-3 -48,-7 -64,-12 -15,-5 -27,-12 -34,-21 -7,-8 -10,-18 -10,-28 V 7687 c 0,-10 3,-20 10,-29 7,-8 19,-15 35,-20 16,-6 37,-9 64,-13 26,-3 59,-4 99,-4 41,0 75,1 101,4 26,4 48,7 63,13 16,5 27,12 34,20 7,9 10,19 10,29 z" />
   <path
   id="4"
   class="fil1"
   d="m 26452,9597 c -6,18 -12,33 -21,43 -8,12 -22,20 -40,26 -19,6 -45,9 -78,11 -32,2 -75,2 -127,2 -42,0 -78,0 -108,0 -31,-1 -56,-3 -77,-5 -21,-2 -38,-5 -51,-9 -13,-4 -24,-10 -33,-16 -9,-6 -16,-14 -21,-23 -5,-9 -9,-20 -13,-33 l -606,-1808 c -13,-38 -21,-68 -23,-90 -2,-22 2,-39 16,-50 13,-11 35,-18 66,-21 32,-2 76,-3 133,-3 49,0 86,1 114,3 27,2 48,6 63,11 14,5 25,13 30,23 6,11 12,24 17,40 l 495,1573 h 2 l 487,-1565 c 4,-18 10,-33 16,-43 6,-12 17,-20 32,-27 16,-6 38,-10 66,-12 28,-2 67,-3 117,-3 48,0 86,1 113,4 27,4 45,11 55,23 10,12 13,30 9,52 -3,22 -12,51 -24,88 z" />
   <path
   id="5"
   class="fil1"
   d="m 28551,9507 c 0,30 -1,55 -4,76 -2,21 -6,37 -11,50 -6,13 -12,22 -20,28 -8,6 -17,8 -26,8 h -1023 c -34,0 -63,-10 -87,-30 -24,-21 -36,-54 -36,-100 V 7761 c 0,-46 12,-80 36,-100 24,-20 53,-31 87,-31 h 1018 c 9,0 18,3 25,8 7,6 14,15 19,28 5,13 9,30 12,50 3,21 4,47 4,79 0,29 -1,54 -4,75 -3,21 -7,37 -12,50 -5,13 -12,22 -19,28 -7,5 -16,8 -25,8 h -728 v 497 h 613 c 10,0 19,3 26,9 8,6 15,14 20,27 6,11 9,28 12,48 3,21 4,46 4,75 0,30 -1,56 -4,76 -3,19 -6,36 -12,47 -5,13 -12,21 -20,26 -7,6 -16,8 -26,8 h -613 v 575 h 733 c 9,0 18,2 26,8 8,6 14,15 20,28 5,12 9,29 11,50 3,21 4,46 4,77 z" />
   <path
   id="6"
   class="fil1"
   d="m 30432,9616 c 0,12 -3,21 -7,29 -4,8 -14,15 -29,20 -17,5 -39,9 -70,11 -30,2 -72,3 -124,3 -44,0 -79,-1 -105,-3 -27,-2 -48,-6 -63,-12 -15,-6 -26,-13 -32,-22 -6,-9 -11,-20 -16,-32 l -184,-457 c -22,-51 -43,-98 -64,-137 -21,-41 -45,-74 -71,-101 -25,-27 -55,-47 -89,-61 -34,-13 -73,-20 -117,-20 h -130 v 779 c 0,10 -3,20 -10,28 -7,9 -18,16 -34,21 -15,5 -36,9 -63,12 -25,4 -59,5 -100,5 -39,0 -73,-1 -100,-5 -27,-3 -48,-7 -63,-12 -16,-5 -27,-12 -33,-21 -6,-8 -10,-18 -10,-28 V 7761 c 0,-46 12,-80 36,-100 24,-20 53,-31 87,-31 h 528 c 53,0 98,1 132,4 35,2 67,4 95,7 82,12 155,32 221,60 66,28 122,65 167,111 46,46 81,100 105,162 24,62 36,134 36,215 0,68 -8,130 -26,186 -17,57 -43,107 -77,151 -33,44 -74,82 -124,114 -49,33 -106,59 -169,79 31,15 60,33 86,53 27,21 53,47 76,77 24,31 47,64 67,103 21,38 42,82 62,130 l 172,403 c 16,40 27,69 32,88 5,18 8,32 8,43 z m -536,-1384 c 0,-68 -15,-125 -46,-170 -30,-47 -80,-79 -150,-98 -21,-6 -44,-9 -71,-13 -27,-3 -64,-4 -112,-4 h -186 v 577 h 212 c 59,0 110,-7 154,-21 45,-14 81,-34 111,-60 29,-25 51,-57 66,-92 15,-36 22,-75 22,-119 z" />
  </g>
 </g>
</svg>
