<?xml version="1.0" encoding="UTF-8" standalone="no"?>
<!-- Creator: CorelDRAW X7 -->

<svg
   xml:space="preserve"
   width="5.8981376mm"
   height="6.3501mm"
   version="1.0"
   style="clip-rule:evenodd;fill-rule:evenodd;image-rendering:optimizeQuality;shape-rendering:geometricPrecision;text-rendering:geometricPrecision"
   viewBox="0 0 589813.75 635010"
   id="svg858"
   sodipodi:docname="Delete.svg"
   inkscape:version="1.1.2 (b8e25be833, 2022-02-05)"
   xmlns:inkscape="http://www.inkscape.org/namespaces/inkscape"
   xmlns:sodipodi="http://sodipodi.sourceforge.net/DTD/sodipodi-0.dtd"
   xmlns="http://www.w3.org/2000/svg"
   xmlns:svg="http://www.w3.org/2000/svg"><sodipodi:namedview
   id="namedview860"
   pagecolor="#ffffff"
   bordercolor="#999999"
   borderopacity="1"
   inkscape:pageshadow="0"
   inkscape:pageopacity="0"
   inkscape:pagecheckerboard="0"
   inkscape:document-units="mm"
   showgrid="false"
   inkscape:zoom="11.240142"
   inkscape:cx="11.254307"
   inkscape:cy="11.832591"
   inkscape:window-width="1366"
   inkscape:window-height="745"
   inkscape:window-x="-8"
   inkscape:window-y="-8"
   inkscape:window-maximized="1"
   inkscape:current-layer="svg858" />
 <defs
   id="defs836">
  <style
   type="text/css"
   id="style834">
   <![CDATA[
    .fil1 {fill:#00C800}
    .fil0 {fill:white}
   ]]>
  </style>
 </defs>
 <g
   id="Layer_x0020_1"
   inkscape:label="Layer 1"
   inkscape:groupmode="layer"
   transform="translate(-363549.67,-349220)">
  <metadata
   id="CorelCorpID_0Corel-Layer" />
  <g
   id="_1609756532352">
   <g
   id="g842">
    <path
   class="fil0"
   d="m 661450,349220 c 45870,0 83050,37570 83050,83930 0,46360 -37180,83940 -83050,83940 -45870,0 -83050,-37580 -83050,-83940 0,-46360 37180,-83930 83050,-83930 z"
   id="path839" />
    <path
   id="1"
   class="fil1"
   d="m 661450,349220 c 45870,0 83050,37570 83050,83930 0,46360 -37180,83940 -83050,83940 -45870,0 -83050,-37580 -83050,-83940 0,-46360 37180,-83930 83050,-83930 z m 28800,54340 c -7340,-7420 -17530,-12010 -28800,-12010 -11270,0 -21460,4590 -28800,12010 -7360,7440 -11920,17900 -11920,29590 0,11700 4630,22230 12080,29760 7330,7330 17450,11850 28640,11850 11190,0 21310,-4520 28640,-11850 7450,-7530 12080,-18060 12080,-29760 0,-11690 -4560,-22150 -11920,-29590 z" />
   </g>
   <g
   id="g848">
    <path
   class="fil0"
   d="M 426640,518160 H 895110 L 814840,984230 H 505000 Z"
   id="path844" />
    <path
   id="path846"
   class="fil1"
   d="M 426640,518160 H 895110 L 814840,984230 H 505000 Z m 418290,42330 H 476590 l 64130,381410 h 238520 z" />
   </g>
   <g
   id="g854">
    <path
   class="fil0"
   d="m 661450,597150 h 287000 c 0,-25120 18790,-49280 -17120,-78590 -52150,-42570 -159850,-70140 -269880,-70140 -90610,0 -224990,35350 -277560,69320 -39390,25440 -9440,44230 -9440,79410 z"
   id="path850" />
    <path
   id="path852"
   class="fil1"
   d="m 661450,554820 h 246560 c -820,-1200 -1900,-2370 -3300,-3520 -21240,-17340 -55430,-32080 -96680,-42800 -43640,-11340 -94590,-17750 -146580,-17750 -40990,0 -92170,7960 -139610,19800 -48640,12140 -92120,27880 -115130,42740 -1180,760 1340,-310 1520,240 l 430,1290 z m 0,42330 h 287000 c 0,-25120 18790,-49280 -17120,-78590 -52150,-42570 -159850,-70140 -269880,-70140 -90610,0 -224990,35350 -277560,69320 -39390,25440 -9440,44230 -9440,79410 z" />
   </g>
  </g>
 </g>
</svg>
