<?xml version="1.0" encoding="UTF-8" standalone="no"?>
<!-- Creator: CorelDRAW X7 -->

<svg
   xml:space="preserve"
   width="6.2200227mm"
   height="6.3500252mm"
   version="1.0"
   style="clip-rule:evenodd;fill-rule:evenodd;image-rendering:optimizeQuality;shape-rendering:geometricPrecision;text-rendering:geometricPrecision"
   viewBox="0 0 622002.26 635002.51"
   id="svg13"
   sodipodi:docname="Failure.svg"
   inkscape:version="1.1.2 (b8e25be833, 2022-02-05)"
   xmlns:inkscape="http://www.inkscape.org/namespaces/inkscape"
   xmlns:sodipodi="http://sodipodi.sourceforge.net/DTD/sodipodi-0.dtd"
   xmlns="http://www.w3.org/2000/svg"
   xmlns:svg="http://www.w3.org/2000/svg"><sodipodi:namedview
   id="namedview15"
   pagecolor="#ffffff"
   bordercolor="#999999"
   borderopacity="1"
   inkscape:pageshadow="0"
   inkscape:pageopacity="0"
   inkscape:pagecheckerboard="0"
   inkscape:document-units="mm"
   showgrid="false"
   inkscape:zoom="11.700147"
   inkscape:cx="11.751989"
   inkscape:cy="11.794723"
   inkscape:window-width="1366"
   inkscape:window-height="745"
   inkscape:window-x="-8"
   inkscape:window-y="-8"
   inkscape:window-maximized="1"
   inkscape:current-layer="Layer_x0020_1" />
 <defs
   id="defs4">
  <style
   type="text/css"
   id="style2">
   <![CDATA[
    .fil0 {fill:red}
    .fil1 {fill:white}
   ]]>
  </style>
 </defs>
 <g
   id="Layer_x0020_1"
   inkscape:label="Layer 1"
   inkscape:groupmode="layer"
   transform="translate(-350447.01,-349227.5)">
  <metadata
   id="CorelCorpID_0Corel-Layer" />
  <g
   id="_2112303800736">
   <path
   class="fil0"
   d="m 683420,368990 142880,284390 142760,286900 c 8820,21960 40,43910 -21850,43950 H 375710 c -21910,-40 -30690,-21990 -21880,-43950 L 496640,654630 639470,368990 c 14650,-26350 29300,-26350 43950,0 z"
   id="path7" />
   <path
   class="fil1"
   d="m 680010,850630 c -60,1140 -250,2180 -870,3170 -610,990 -1720,1790 -3200,2480 -1600,690 -3570,1190 -6170,1490 -2460,290 -5550,390 -9120,390 -3580,0 -6670,-100 -9150,-390 -2590,-300 -4560,-800 -6160,-1490 -1480,-690 -2630,-1510 -3210,-2480 -600,-960 -760,-1990 -870,-3170 L 613680,566700 c 0,-34300 95530,-32970 95530,0 z m 11360,74140 c 0,5460 -380,9910 -1240,13570 -860,3580 -2460,6450 -4930,8530 -2360,2190 -5550,3670 -9510,4560 -4070,890 -9000,1290 -15040,1290 -6300,0 -11360,-400 -15310,-1290 -4080,-890 -7160,-2370 -9500,-4560 -2220,-2080 -3840,-4950 -4700,-8530 -860,-3660 -1220,-8110 -1220,-13570 0,-5450 360,-10010 1220,-13680 860,-3660 2480,-6540 4700,-8620 2340,-1980 5420,-3470 9500,-4360 3950,-900 9010,-1300 15310,-1300 6040,0 10970,400 15040,1300 3960,890 7150,2380 9510,4360 2470,2080 4070,4960 4930,8620 860,3670 1240,8230 1240,13680 z"
   id="path9" />
  </g>
 </g>
</svg>
