<?xml version="1.0" encoding="UTF-8" standalone="no"?>
<!-- Creator: CorelDRAW X7 -->

<svg
   xml:space="preserve"
   width="6.2200227mm"
   height="6.3500252mm"
   version="1.0"
   style="clip-rule:evenodd;fill-rule:evenodd;image-rendering:optimizeQuality;shape-rendering:geometricPrecision;text-rendering:geometricPrecision"
   viewBox="0 0 622002.26 635002.51"
   id="svg20"
   sodipodi:docname="Failure.svg"
   inkscape:version="1.1.2 (b8e25be833, 2022-02-05)"
   xmlns:inkscape="http://www.inkscape.org/namespaces/inkscape"
   xmlns:sodipodi="http://sodipodi.sourceforge.net/DTD/sodipodi-0.dtd"
   xmlns="http://www.w3.org/2000/svg"
   xmlns:svg="http://www.w3.org/2000/svg"><sodipodi:namedview
   id="namedview22"
   pagecolor="#ffffff"
   bordercolor="#999999"
   borderopacity="1"
   inkscape:pageshadow="0"
   inkscape:pageopacity="0"
   inkscape:pagecheckerboard="0"
   inkscape:document-units="mm"
   showgrid="false"
   inkscape:zoom="11.240142"
   inkscape:cx="11.699141"
   inkscape:cy="11.832591"
   inkscape:window-width="1366"
   inkscape:window-height="745"
   inkscape:window-x="-8"
   inkscape:window-y="-8"
   inkscape:window-maximized="1"
   inkscape:current-layer="svg20" />
 <defs
   id="defs11">
  <style
   type="text/css"
   id="style9">
   <![CDATA[
    .fil0 {fill:red}
    .fil1 {fill:white}
   ]]>
  </style>
 </defs>
 <g
   id="Layer_x0020_1"
   inkscape:label="Layer 1"
   inkscape:groupmode="layer"
   transform="translate(-350447.01,-349227.5)">
  <metadata
   id="CorelCorpID_0Corel-Layer" />
  <g
   id="_2588999635888">
   <path
   class="fil0"
   d="m 683420,368990 142880,284390 142760,286900 c 8820,21960 40,43910 -21850,43950 H 375710 c -21910,-40 -30690,-21990 -21880,-43950 L 496640,654630 639470,368990 c 14650,-26350 29300,-26350 43950,0 z"
   id="path14" />
   <path
   class="fil1"
   d="m 674820,785310 c -30,900 -170,1720 -620,2500 -440,770 -1240,1400 -2310,1950 -1150,540 -2570,940 -4440,1170 -1770,230 -4000,310 -6570,310 -2580,0 -4800,-80 -6590,-310 -1860,-230 -3280,-630 -4430,-1170 -1070,-550 -1880,-1180 -2320,-1950 -440,-780 -580,-1570 -620,-2500 L 636190,561740 c 0,-27010 50530,-25970 50530,0 z m 8190,58380 c 0,4300 -270,7800 -890,10690 -630,2820 -1780,5070 -3560,6720 -1690,1710 -4000,2880 -6840,3590 -2940,700 -6490,1010 -10840,1010 -4540,0 -8180,-310 -11020,-1010 -2940,-710 -5160,-1880 -6850,-3590 -1590,-1650 -2760,-3900 -3380,-6720 -620,-2890 -880,-6390 -880,-10690 0,-4290 260,-7880 880,-10770 620,-2880 1790,-5150 3380,-6790 1690,-1560 3910,-2730 6850,-3430 2840,-710 6480,-1020 11020,-1020 4350,0 7900,310 10840,1020 2840,700 5150,1870 6840,3430 1780,1640 2930,3910 3560,6790 620,2890 890,6480 890,10770 z"
   id="path16" />
  </g>
 </g>
</svg>
