<?xml version="1.0" encoding="UTF-8"?>
<!DOCTYPE svg PUBLIC "-//W3C//DTD SVG 1.0//EN" "http://www.w3.org/TR/2001/REC-SVG-20010904/DTD/svg10.dtd">
<!-- Creator: CorelDRAW X7 -->
<svg xmlns="http://www.w3.org/2000/svg" xml:space="preserve" width="100px" height="100px" version="1.0" style="shape-rendering:geometricPrecision; text-rendering:geometricPrecision; image-rendering:optimizeQuality; fill-rule:evenodd; clip-rule:evenodd"
viewBox="0 0 10000000 10000000"
 xmlns:xlink="http://www.w3.org/1999/xlink">
 <defs>
  <style type="text/css">
   <![CDATA[
    .fil0 {fill:#00C800}
   ]]>
  </style>
 </defs>
 <g id="Layer_x0020_1">
  <metadata id="CorelCorpID_0Corel-Layer"/>
  <g>
   <path class="fil0" d="M5236223 2130471l2731046 2167737 -1070149 1815 -3402 2591352c2344,55182 -50797,108625 -100158,107416l-869000 0c-56240,-2797 -110440,-52234 -105828,-104619l302 -975357 -1622572 -1210 -1058 974904c0,54048 -52309,107491 -107945,107491l-860307 -983c-73172,4158 -106508,-22072 -107188,-102275l1436 -2609494 -1088593 -1437 2663693 -2155113c270013,-171366 291027,-176960 539723,-227zm2160179 1969461l-2282032 -1811324c-84663,-60170 -127372,-89349 -138408,-89273 -13607,75 -64782,31899 -161615,93280l-2218232 1794693 525285 681c109986,0 199259,89273 199259,199259l-1360 2512586 676921 831 983 -883060c0,-109985 89274,-199259 199259,-199259l1622572 1210c109986,0 199259,89273 199259,199259l-302 879960 676619 0 3251 -2498752c0,-109986 89273,-199260 199259,-199260l499282 -831z"/>
  </g>
 </g>
</svg>
