<?xml version="1.0" encoding="UTF-8"?>
<!DOCTYPE svg PUBLIC "-//W3C//DTD SVG 1.0//EN" "http://www.w3.org/TR/2001/REC-SVG-20010904/DTD/svg10.dtd">
<!-- Creator: CorelDRAW X7 -->
<svg xmlns="http://www.w3.org/2000/svg" xml:space="preserve" width="5.9267mm" height="6.35mm" version="1.0" style="shape-rendering:geometricPrecision; text-rendering:geometricPrecision; image-rendering:optimizeQuality; fill-rule:evenodd; clip-rule:evenodd"
viewBox="0 0 592680 635011"
 xmlns:xlink="http://www.w3.org/1999/xlink">
 <defs>
  <style type="text/css">
   <![CDATA[
    .fil0 {fill:#00C800}
   ]]>
  </style>
 </defs>
 <g id="Layer_x0020_1">
  <metadata id="CorelCorpID_0Corel-Layer"/>
  <g id="_1497466359904">
   <g>
    <path class="fil0" d="M0 0l592680 0 0 146532 -592680 0 0 -146532zm554709 37551l-516738 0 0 71431 516738 0 0 -71431z"/>
   </g>
   <g>
    <path class="fil0" d="M0 244234l592680 0 0 146543 -592680 0 0 -146543zm554709 37551l-516738 0 0 71441 516738 0 0 -71441z"/>
   </g>
   <g>
    <path class="fil0" d="M0 488468l592680 0 0 146543 -592680 0 0 -146543zm554709 37551l-516738 0 0 71441 516738 0 0 -71441z"/>
   </g>
  </g>
 </g>
</svg>
