<?xml version="1.0" encoding="UTF-8" standalone="no"?>
<!-- Creator: CorelDRAW X7 -->

<svg
   xml:space="preserve"
   width="5.9267068mm"
   height="6.3870001mm"
   version="1.0"
   style="clip-rule:evenodd;fill-rule:evenodd;image-rendering:optimizeQuality;shape-rendering:geometricPrecision;text-rendering:geometricPrecision"
   viewBox="0 0 592670.7 638699.99"
   id="svg457"
   sodipodi:docname="Notification.svg"
   inkscape:version="1.1.2 (b8e25be833, 2022-02-05)"
   xmlns:inkscape="http://www.inkscape.org/namespaces/inkscape"
   xmlns:sodipodi="http://sodipodi.sourceforge.net/DTD/sodipodi-0.dtd"
   xmlns="http://www.w3.org/2000/svg"
   xmlns:svg="http://www.w3.org/2000/svg"><sodipodi:namedview
   id="namedview459"
   pagecolor="#ffffff"
   bordercolor="#999999"
   borderopacity="1"
   inkscape:pageshadow="0"
   inkscape:pageopacity="0"
   inkscape:pagecheckerboard="0"
   inkscape:document-units="mm"
   showgrid="false"
   inkscape:zoom="23.282107"
   inkscape:cx="11.18885"
   inkscape:cy="12.069355"
   inkscape:window-width="1366"
   inkscape:window-height="745"
   inkscape:window-x="-8"
   inkscape:window-y="-8"
   inkscape:window-maximized="1"
   inkscape:current-layer="svg457" />
 <defs
   id="defs435">
  <style
   type="text/css"
   id="style433">
   <![CDATA[
    .fil0 {fill:#FEFEFE}
    .fil1 {fill:#2DC000}
   ]]>
  </style>
 </defs>
 <g
   id="Layer_x0020_1"
   inkscape:label="Layer 1"
   inkscape:groupmode="layer"
   transform="translate(-4.3299835,20)">
  <metadata
   id="CorelCorpID_0Corel-Layer" />
  <g
   id="_1644220654336">
   <g
   id="g441">
    <path
   class="fil0"
   d="m 303970,-20 c 25720,0 46560,20850 46560,46570 0,25710 -20840,46560 -46560,46560 -25710,0 -46550,-20850 -46550,-46560 0,-25720 20840,-46570 46550,-46570 z"
   id="path438" />
    <path
   id="1"
   class="fil1"
   d="m 303970,-20 c 25720,0 46560,20850 46560,46570 0,25710 -20840,46560 -46560,46560 -25710,0 -46550,-20850 -46550,-46560 0,-25720 20840,-46570 46550,-46570 z m 15150,31560 c -3830,-3830 -9190,-6210 -15150,-6210 -5950,0 -11320,2380 -15150,6210 -3780,3780 -6120,9090 -6120,15010 0,5910 2350,11220 6130,15000 3830,3830 9190,6210 15140,6210 5960,0 11320,-2380 15150,-6210 3780,-3780 6130,-9090 6130,-15000 0,-5920 -2350,-11230 -6130,-15010 z" />
   </g>
   <g
   id="g447">
    <path
   class="fil0"
   d="m 296340,486270 c 42080,0 76200,34120 76200,76200 0,42090 -34120,76210 -76200,76210 -42090,0 -76200,-34120 -76200,-76210 0,-42080 34110,-76200 76200,-76200 z"
   id="path443" />
    <path
   id="path445"
   class="fil1"
   d="m 296340,486270 c 42080,0 76200,34120 76200,76200 0,42090 -34120,76210 -76200,76210 -42090,0 -76200,-34120 -76200,-76210 0,-42080 34110,-76200 76200,-76200 z m 24660,51780 c -6240,-6240 -14960,-10110 -24660,-10110 -9700,0 -18420,3870 -24660,10110 -6160,6160 -9990,14800 -9990,24420 0,9620 3830,18270 9990,24430 6240,6240 14960,10110 24660,10110 9700,0 18420,-3870 24660,-10110 6160,-6160 9990,-14810 9990,-24430 0,-9620 -3830,-18260 -9990,-24420 z" />
   </g>
   <g
   id="g453">
    <path
   class="fil0"
   d="m 540100,398930 c 50450,56690 81580,57890 12820,96400 C 392740,585050 206010,585920 36590,491500 -29660,454570 4580,451550 56300,397380 104340,-8950 507630,-28600 540100,398930 Z"
   id="path449" />
    <path
   id="path451"
   class="fil1"
   d="m 540100,398930 c 50450,56690 81580,57890 12820,96400 C 392740,585050 206010,585920 36590,491500 -29660,454570 4580,451550 56300,397380 104340,-8950 507630,-28600 540100,398930 Z m -2920,57820 c -8370,-8090 -18420,-17790 -29910,-30580 -6480,-6540 -10690,-15050 -11380,-24540 -9830,-129570 -54700,-212230 -111530,-251010 -23890,-16290 -49770,-24480 -75460,-24710 -26200,-230 -53060,7580 -78350,23260 -62660,38860 -114970,123520 -130210,252500 l -50,-10 c -930,8010 -4470,15870 -10700,22390 -12870,13490 -24150,23570 -33500,31930 -7000,6250 -12470,11140 -14060,12780 l -280,520 c -7040,12660 11500,-15940 17900,-12380 77210,43030 157970,64490 237310,65080 80050,580 159390,-20080 232900,-61250 9130,-5110 28110,22390 21040,9760 -580,-1030 -6230,-6500 -13720,-13740 z" />
   </g>
  </g>
 </g>
</svg>
