<?xml version="1.0" encoding="UTF-8" standalone="no"?>
<!-- Creator: CorelDRAW X7 -->

<svg
   xml:space="preserve"
   width="25.513706"
   height="30"
   version="1.0"
   style="clip-rule:evenodd;fill-rule:evenodd;image-rendering:optimizeQuality;shape-rendering:geometricPrecision;text-rendering:geometricPrecision"
   viewBox="0 0 2551370.6 3000000"
   id="svg2102"
   sodipodi:docname="Notification.svg"
   inkscape:version="1.1.2 (b8e25be833, 2022-02-05)"
   xmlns:inkscape="http://www.inkscape.org/namespaces/inkscape"
   xmlns:sodipodi="http://sodipodi.sourceforge.net/DTD/sodipodi-0.dtd"
   xmlns="http://www.w3.org/2000/svg"
   xmlns:svg="http://www.w3.org/2000/svg"><sodipodi:namedview
   id="namedview2104"
   pagecolor="#ffffff"
   bordercolor="#999999"
   borderopacity="1"
   inkscape:pageshadow="0"
   inkscape:pageopacity="0"
   inkscape:pagecheckerboard="0"
   showgrid="false"
   inkscape:zoom="18.733333"
   inkscape:cx="12.731317"
   inkscape:cy="15"
   inkscape:window-width="1366"
   inkscape:window-height="745"
   inkscape:window-x="-8"
   inkscape:window-y="-8"
   inkscape:window-maximized="1"
   inkscape:current-layer="Layer_x0020_1" />
 <defs
   id="defs2080">
  <style
   type="text/css"
   id="style2078">
   <![CDATA[
    .fil0 {fill:#FEFEFE}
    .fil1 {fill:#2DC000}
   ]]>
  </style>
 </defs>
 <g
   id="Layer_x0020_1"
   inkscape:label="Layer 1"
   inkscape:groupmode="layer"
   transform="translate(-4670526.5,-3307025)">
  <metadata
   id="CorelCorpID_0Corel-Layer" />
  <g
   id="_1996849488960"
   transform="matrix(0.38460957,0,0,0.38460957,2874197.3,2035111.5)">
   <g
   id="g2086">
    <path
   class="fil0"
   d="m 8072873,3307025 c 303651,0 549874,246223 549874,549874 0,303769 -246223,549992 -549874,549992 -303769,0 -549991,-246223 -549991,-549992 0,-303651 246222,-549874 549991,-549874 z"
   id="path2083" />
    <path
   id="1"
   class="fil1"
   d="m 8072873,3307025 c 303651,0 549874,246223 549874,549874 0,303769 -246223,549992 -549874,549992 -303769,0 -549991,-246223 -549991,-549992 0,-303651 246222,-549874 549991,-549874 z m 178889,372754 c -45164,-45164 -108607,-73348 -178889,-73348 -70400,0 -133842,28184 -179006,73348 -44693,44693 -72405,107310 -72405,177120 0,69811 27712,132545 72405,177238 45164,45165 108606,73348 179006,73348 70282,0 133725,-28183 178889,-73348 44693,-44693 72405,-107427 72405,-177238 0,-69810 -27712,-132427 -72405,-177120 z" />
   </g>
   <g
   id="g2092">
    <path
   class="fil0"
   d="m 7987379,9281581 c 504120,0 912840,408721 912840,912840 0,504120 -408720,912722 -912840,912722 -504119,0 -912840,-408602 -912840,-912722 0,-504119 408721,-912840 912840,-912840 z"
   id="path2088" />
    <path
   id="path2090"
   class="fil1"
   d="m 7987379,9281581 c 504120,0 912840,408721 912840,912840 0,504120 -408720,912722 -912840,912722 -504119,0 -912840,-408602 -912840,-912722 0,-504119 408721,-912840 912840,-912840 z m 295515,620274 c -74763,-74763 -179361,-121107 -295515,-121107 -116272,0 -220869,46462 -295514,121107 -73820,73820 -119574,177356 -119574,292566 0,115211 45754,218629 119574,292449 74763,74763 179242,121106 295514,121106 116272,0 220752,-46343 295515,-121106 73819,-73820 119573,-177238 119573,-292449 0,-115210 -45754,-218746 -119573,-292566 z" />
   </g>
   <g
   id="g2098">
    <path
   class="fil0"
   d="m 10715758,8185489 c 564614,696334 913076,711075 143512,1184063 -1792898,1102106 -3882960,1112837 -5779276,-47051 -741498,-453531 -358249,-490677 220751,-1156115 537610,-4991080 5051575,-5232468 5415013,19103 z"
   id="path2094" />
    <path
   id="path2096"
   class="fil1"
   d="m 10715758,8185489 c 564614,696334 913076,711075 143512,1184063 -1792898,1102106 -3882960,1112837 -5779276,-47051 -741498,-453531 -358249,-490677 220751,-1156115 537610,-4991080 5051575,-5232468 5415013,19103 z m -32665,710249 c -93395,-99055 -205539,-217921 -334193,-375112 -72758,-80423 -120163,-185139 -127946,-302000 -111201,-1607641 -623340,-2627791 -1269792,-3097949 -262850,-191270 -545865,-287024 -826049,-289028 -286552,-2005 -581241,91508 -860718,278297 -707183,472635 -1299155,1515190 -1470733,3109034 h -471 c -10377,98583 -50000,194808 -119810,274995 -143983,165328 -270279,289501 -374994,392211 -84079,82546 -149644,146932 -166389,174290 -95871,156720 145988,-199879 206129,-163087 864491,528766 1768251,792441 2656092,799634 895859,7193 1783935,-246694 2606918,-752583 92098,-56603 333957,281364 239265,127357 -16273,-26533 -78183,-92216 -157309,-176059 z" />
   </g>
  </g>
 </g>
</svg>
