<?xml version="1.0" encoding="UTF-8" standalone="no"?>
<!-- Creator: CorelDRAW X7 -->

<svg
   xml:space="preserve"
   width="25.513779"
   height="30"
   version="1.0"
   style="clip-rule:evenodd;fill-rule:evenodd;image-rendering:optimizeQuality;shape-rendering:geometricPrecision;text-rendering:geometricPrecision"
   viewBox="0 0 2551377.9 3000000"
   id="svg769"
   sodipodi:docname="Notification.svg"
   inkscape:version="1.1.2 (b8e25be833, 2022-02-05)"
   xmlns:inkscape="http://www.inkscape.org/namespaces/inkscape"
   xmlns:sodipodi="http://sodipodi.sourceforge.net/DTD/sodipodi-0.dtd"
   xmlns="http://www.w3.org/2000/svg"
   xmlns:svg="http://www.w3.org/2000/svg"><sodipodi:namedview
   id="namedview771"
   pagecolor="#ffffff"
   bordercolor="#999999"
   borderopacity="1"
   inkscape:pageshadow="0"
   inkscape:pageopacity="0"
   inkscape:pagecheckerboard="0"
   showgrid="false"
   inkscape:zoom="18.733333"
   inkscape:cx="12.731317"
   inkscape:cy="15"
   inkscape:window-width="1366"
   inkscape:window-height="745"
   inkscape:window-x="-8"
   inkscape:window-y="-8"
   inkscape:window-maximized="1"
   inkscape:current-layer="Layer_x0020_1" />
 <defs
   id="defs747">
  <style
   type="text/css"
   id="style745">
   <![CDATA[
    .fil0 {fill:#FEFEFE}
    .fil1 {fill:#2DC000}
   ]]>
  </style>
 </defs>
 <g
   id="Layer_x0020_1"
   inkscape:label="Layer 1"
   inkscape:groupmode="layer"
   transform="translate(-4615837.6,-4118216)">
  <metadata
   id="CorelCorpID_0Corel-Layer" />
  <g
   id="_2939915464432"
   transform="matrix(0.400636,0,0,0.400636,2766566.9,2468310.4)">
   <g
   id="g753">
    <path
   class="fil0"
   d="m 7882074,4118216 c 291505,0 527940,236317 527940,527940 0,291505 -236435,527940 -527940,527940 -291623,0 -527940,-236435 -527940,-527940 0,-291623 236317,-527940 527940,-527940 z"
   id="path750" />
    <path
   id="1"
   class="fil1"
   d="m 7882074,4118216 c 291505,0 527940,236317 527940,527940 0,291505 -236435,527940 -527940,527940 -291623,0 -527940,-236435 -527940,-527940 0,-291623 236317,-527940 527940,-527940 z m 171814,357778 c -43514,-43396 -104362,-70400 -171814,-70400 -67570,0 -128418,27004 -171813,70400 -42806,42806 -69457,103064 -69457,170162 0,67098 26651,127357 69457,170163 43395,43395 104243,70400 171813,70400 67452,0 128300,-27005 171814,-70518 42806,-42806 69456,-103065 69456,-170045 0,-67098 -26650,-127356 -69456,-170162 z" />
   </g>
   <g
   id="g759">
    <path
   class="fil0"
   d="m 7800000,9853743 c 483955,0 876284,392329 876284,876283 0,483955 -392329,876284 -876284,876284 -483955,0 -876284,-392329 -876284,-876284 0,-483954 392329,-876283 876284,-876283 z"
   id="path755" />
    <path
   id="path757"
   class="fil1"
   d="m 7800000,9853743 c 483955,0 876284,392329 876284,876283 0,483955 -392329,876284 -876284,876284 -483955,0 -876284,-392329 -876284,-876284 0,-483954 392329,-876283 876284,-876283 z m 283722,595509 c -71697,-71697 -172167,-116271 -283722,-116271 -111555,0 -212025,44574 -283722,116271 -70754,70754 -114739,170163 -114739,280774 0,110612 43985,210021 114739,280892 71697,71580 172167,116154 283722,116154 111555,0 212025,-44574 283722,-116154 70754,-70871 114739,-170280 114739,-280892 0,-110611 -43985,-210020 -114739,-280774 z" />
   </g>
   <g
   id="g765">
    <path
   class="fil0"
   d="m 10419300,8801518 c 541973,668504 876520,682655 137734,1136775 -1721201,1058003 -3727656,1068262 -5548147,-45164 -711782,-435489 -343863,-471102 211907,-1109889 516148,-4791555 4849573,-5023273 5198506,18278 z"
   id="path761" />
    <path
   id="path763"
   class="fil1"
   d="m 10419300,8801518 c 541973,668504 876520,682655 137734,1136775 -1721201,1058003 -3727656,1068262 -5548147,-45164 -711782,-435489 -343863,-471102 211907,-1109889 516148,-4791555 4849573,-5023273 5198506,18278 z m -31485,681829 c -89504,-94928 -197049,-208841 -320986,-360254 -69810,-77121 -115093,-177709 -122522,-289736 -106720,-1543255 -598576,-2522721 -1219085,-2974130 -252355,-183605 -524049,-275467 -793031,-277354 -275113,-1887 -558010,87735 -826284,267095 -678882,453649 -1247151,1454813 -1411889,2984861 l -708,-118 c -10023,94456 -47876,187143 -114857,264029 -138559,159313 -259548,278062 -359900,376527 -80777,79244 -143512,140800 -159549,167097 -91862,150351 139974,-191507 197638,-156248 829705,507422 1697380,760484 2549962,767441 860128,6840 1712828,-236789 2502674,-722277 88442,-54362 320396,269690 229596,121933 -15094,-24646 -74881,-88089 -151059,-168866 z" />
   </g>
  </g>
 </g>
</svg>
