<?xml version="1.0" encoding="UTF-8" standalone="no"?>
<!-- Creator: CorelDRAW X7 -->

<svg
   xml:space="preserve"
   width="26.666456"
   height="30"
   version="1.0"
   style="clip-rule:evenodd;fill-rule:evenodd;image-rendering:optimizeQuality;shape-rendering:geometricPrecision;text-rendering:geometricPrecision"
   viewBox="0 0 2666645.6 3000000"
   id="svg353"
   sodipodi:docname="Orders.svg"
   inkscape:version="1.1.2 (b8e25be833, 2022-02-05)"
   xmlns:inkscape="http://www.inkscape.org/namespaces/inkscape"
   xmlns:sodipodi="http://sodipodi.sourceforge.net/DTD/sodipodi-0.dtd"
   xmlns="http://www.w3.org/2000/svg"
   xmlns:svg="http://www.w3.org/2000/svg"><sodipodi:namedview
   id="namedview355"
   pagecolor="#ffffff"
   bordercolor="#999999"
   borderopacity="1"
   inkscape:pageshadow="0"
   inkscape:pageopacity="0"
   inkscape:pagecheckerboard="0"
   showgrid="false"
   inkscape:zoom="18.733333"
   inkscape:cx="13.318506"
   inkscape:cy="15"
   inkscape:window-width="1366"
   inkscape:window-height="745"
   inkscape:window-x="-8"
   inkscape:window-y="-8"
   inkscape:window-maximized="1"
   inkscape:current-layer="Layer_x0020_1" />
 <defs
   id="defs332">
  <style
   type="text/css"
   id="style330">
   <![CDATA[
    .fil0 {fill:#00C800}
   ]]>
  </style>
 </defs>
 <g
   id="Layer_x0020_1"
   inkscape:label="Layer 1"
   inkscape:groupmode="layer"
   transform="translate(-4659246,-4118216)">
  <metadata
   id="CorelCorpID_0Corel-Layer" />
  <g
   id="_2941918664448"
   transform="matrix(0.400636,0,0,0.400636,2792584.3,2468310.4)">
   <g
   id="g337">
    <path
   class="fil0"
   d="m 4659246,4118216 h 6656031 v 7488094 H 4659246 Z m 6176085,479946 H 5139191 v 6528203 h 5696140 z"
   id="path335" />
   </g>
   <rect
   class="fil0"
   x="5491232"
   y="4950259"
   width="3371507"
   height="832043"
   id="rect339" />
   <rect
   class="fil0"
   x="5491232"
   y="7446389"
   width="3371507"
   height="832043"
   id="rect341" />
   <rect
   class="fil0"
   x="5491232"
   y="9942519"
   width="3371507"
   height="832043"
   id="rect343" />
   <path
   class="fil0"
   d="m 9670255,5254873 327589,285020 536667,-559426 c 32428,-33726 86791,-34787 120635,-2358 v 0 c 33607,32311 34905,86673 2476,120399 l -590203,615203 c -16628,17334 -39033,26061 -61438,26061 v 0 h -354 c -21698,1415 -43985,-5307 -61438,-20519 l -385961,-335726 c -35141,-30660 -38914,-84904 -8137,-120281 v 0 c 30660,-35259 84905,-39033 120164,-8373 z"
   id="path345" />
   <path
   class="fil0"
   d="m 9670255,7751062 327589,284901 536667,-559425 c 32428,-33726 86791,-34787 120635,-2359 v 0 c 33607,32429 34905,86674 2476,120518 l -590203,615085 c -16628,17334 -39033,26060 -61438,26060 v 0 h -354 c -21698,1533 -43985,-5188 -61438,-20518 l -385961,-335608 c -35141,-30660 -38914,-84905 -8137,-120399 v 0 c 30660,-35141 84905,-38915 120164,-8255 z"
   id="path347" />
   <path
   class="fil0"
   d="m 9670255,10247133 327589,285019 536667,-559425 c 32428,-33726 86791,-34788 120635,-2359 v 0 c 33607,32311 34905,86673 2476,120399 l -590203,615203 c -16628,17335 -39033,26061 -61438,26061 v 0 h -354 c -21698,1415 -43985,-5306 -61438,-20518 l -385961,-335726 c -35141,-30660 -38914,-84905 -8137,-120282 v 0 c 30660,-35259 84905,-39032 120164,-8372 z"
   id="path349" />
  </g>
 </g>
</svg>
