<?xml version="1.0" encoding="UTF-8" standalone="no"?>
<!-- Creator: CorelDRAW X7 -->

<svg
   xml:space="preserve"
   width="26.666567"
   height="30"
   version="1.0"
   style="clip-rule:evenodd;fill-rule:evenodd;image-rendering:optimizeQuality;shape-rendering:geometricPrecision;text-rendering:geometricPrecision"
   viewBox="0 0 2666656.7 3000000"
   id="svg1669"
   sodipodi:docname="Orders.svg"
   inkscape:version="1.1.2 (b8e25be833, 2022-02-05)"
   xmlns:inkscape="http://www.inkscape.org/namespaces/inkscape"
   xmlns:sodipodi="http://sodipodi.sourceforge.net/DTD/sodipodi-0.dtd"
   xmlns="http://www.w3.org/2000/svg"
   xmlns:svg="http://www.w3.org/2000/svg"><sodipodi:namedview
   id="namedview1671"
   pagecolor="#ffffff"
   bordercolor="#999999"
   borderopacity="1"
   inkscape:pageshadow="0"
   inkscape:pageopacity="0"
   inkscape:pagecheckerboard="0"
   showgrid="false"
   inkscape:zoom="18.733333"
   inkscape:cx="13.318505"
   inkscape:cy="15"
   inkscape:window-width="1366"
   inkscape:window-height="745"
   inkscape:window-x="-8"
   inkscape:window-y="-8"
   inkscape:window-maximized="1"
   inkscape:current-layer="Layer_x0020_1" />
 <defs
   id="defs1648">
  <style
   type="text/css"
   id="style1646">
   <![CDATA[
    .fil0 {fill:#00C800}
   ]]>
  </style>
 </defs>
 <g
   id="Layer_x0020_1"
   inkscape:label="Layer 1"
   inkscape:groupmode="layer"
   transform="translate(-4526111.1,-3319525)">
  <metadata
   id="CorelCorpID_0Corel-Layer" />
  <g
   id="_1996851243296"
   transform="matrix(0.38522691,0,0,0.38522691,2782531.3,2040754.6)">
   <g
   id="g1653">
    <path
   class="fil0"
   d="m 4785659,3319525 h 6403205 c 142922,0 259548,116744 259548,259548 v 7268522 c 0,142805 -116626,259548 -259548,259548 H 4785659 c -142923,0 -259548,-116743 -259548,-259548 V 3579073 c 0,-142804 116625,-259548 259548,-259548 z m 6163586,499167 H 5025278 v 6789284 h 5923967 z"
   id="path1651" />
   </g>
   <rect
   class="fil0"
   x="5391380"
   y="4184850"
   width="3506382"
   height="865325"
   id="rect1655" />
   <rect
   class="fil0"
   x="5391380"
   y="6780825"
   width="3506382"
   height="865325"
   id="rect1657" />
   <rect
   class="fil0"
   x="5391380"
   y="9376800"
   width="3506382"
   height="865325"
   id="rect1659" />
   <path
   class="fil0"
   d="m 9737589,4501701 340678,296340 558129,-581831 c 33726,-35023 90211,-36202 125470,-2359 v 0 c 35023,33608 36202,90093 2594,125234 l -613788,639731 c -17335,18042 -40565,27122 -63914,27122 v 0 h -354 c -22641,1533 -45754,-5542 -64032,-21344 l -401291,-349169 c -36556,-31839 -40565,-88206 -8490,-125116 v 0 c 31839,-36556 88324,-40565 124998,-8608 z"
   id="path1661" />
   <path
   class="fil0"
   d="m 9737589,7097652 340678,296340 558129,-581713 c 33726,-35141 90211,-36320 125470,-2476 v 0 c 35023,33608 36202,90093 2594,125234 l -613788,639731 c -17335,18042 -40565,27122 -63914,27122 v 0 h -354 c -22641,1533 -45754,-5425 -64032,-21344 l -401291,-349052 c -36556,-31957 -40565,-88324 -8490,-125116 v 0 c 31839,-36674 88324,-40683 124998,-8726 z"
   id="path1663" />
   <path
   class="fil0"
   d="m 9737589,9693603 340678,296340 558129,-581713 c 33726,-35141 90211,-36202 125470,-2476 v 0 c 35023,33608 36202,90093 2594,125234 l -613788,639731 c -17335,18042 -40565,27122 -63914,27122 v 0 h -354 c -22641,1533 -45754,-5424 -64032,-21344 l -401291,-349051 c -36556,-31957 -40565,-88324 -8490,-125116 v 0 c 31839,-36674 88324,-40566 124998,-8727 z"
   id="path1665" />
  </g>
 </g>
</svg>
