<?xml version="1.0" encoding="UTF-8" standalone="no"?>
<!-- Creator: CorelDRAW X7 -->

<svg
   xml:space="preserve"
   width="5.9268003mm"
   height="6.3499999mm"
   version="1.0"
   style="clip-rule:evenodd;fill-rule:evenodd;image-rendering:optimizeQuality;shape-rendering:geometricPrecision;text-rendering:geometricPrecision"
   viewBox="0 0 592680.02 634999.99"
   id="svg123"
   sodipodi:docname="Orders.svg"
   inkscape:version="1.1.2 (b8e25be833, 2022-02-05)"
   xmlns:inkscape="http://www.inkscape.org/namespaces/inkscape"
   xmlns:sodipodi="http://sodipodi.sourceforge.net/DTD/sodipodi-0.dtd"
   xmlns="http://www.w3.org/2000/svg"
   xmlns:svg="http://www.w3.org/2000/svg"><sodipodi:namedview
   id="namedview125"
   pagecolor="#ffffff"
   bordercolor="#999999"
   borderopacity="1"
   inkscape:pageshadow="0"
   inkscape:pageopacity="0"
   inkscape:pagecheckerboard="0"
   inkscape:document-units="mm"
   showgrid="false"
   inkscape:zoom="11.700147"
   inkscape:cx="10.640892"
   inkscape:cy="11.794723"
   inkscape:window-width="1366"
   inkscape:window-height="745"
   inkscape:window-x="-8"
   inkscape:window-y="-8"
   inkscape:window-maximized="1"
   inkscape:current-layer="Layer_x0020_1" />
 <defs
   id="defs102">
  <style
   type="text/css"
   id="style100">
   <![CDATA[
    .fil0 {fill:#00C800}
   ]]>
  </style>
 </defs>
 <g
   id="Layer_x0020_1"
   inkscape:label="Layer 1"
   inkscape:groupmode="layer"
   transform="translate(-380990,-349230)">
  <metadata
   id="CorelCorpID_0Corel-Layer" />
  <g
   id="_1609756529440">
   <g
   id="g107">
    <path
   class="fil0"
   d="M 380990,349230 H 973670 V 984230 H 380990 Z m 549940,40700 H 423730 v 553600 h 507200 z"
   id="path105" />
   </g>
   <rect
   class="fil0"
   x="455077"
   y="419788"
   width="300208"
   height="70558"
   id="rect109" />
   <rect
   class="fil0"
   x="455077"
   y="631463"
   width="300208"
   height="70558"
   id="rect111" />
   <rect
   class="fil0"
   x="455077"
   y="843138"
   width="300208"
   height="70558"
   id="rect113" />
   <path
   class="fil0"
   d="m 827180,445620 29180,24170 47780,-47440 c 2890,-2860 7730,-2950 10740,-200 v 0 c 3000,2740 3110,7350 220,10210 l -52550,52170 c -1480,1470 -3470,2210 -5470,2210 v 0 h -30 c -1930,120 -3910,-450 -5470,-1740 l -34360,-28470 c -3140,-2600 -3470,-7200 -730,-10200 v 0 c 2730,-2990 7560,-3310 10690,-710 z"
   id="path115" />
   <path
   class="fil0"
   d="m 827180,657300 29180,24160 47780,-47440 c 2890,-2860 7730,-2950 10740,-200 v 0 c 3000,2750 3110,7350 220,10220 l -52550,52160 c -1480,1470 -3470,2210 -5470,2210 v 0 h -30 c -1930,130 -3910,-440 -5470,-1740 l -34360,-28460 c -3140,-2600 -3470,-7200 -730,-10210 v 0 c 2730,-2980 7560,-3300 10690,-700 z"
   id="path117" />
   <path
   class="fil0"
   d="m 827180,868970 29180,24170 47780,-47440 c 2890,-2860 7730,-2950 10740,-200 v 0 c 3000,2740 3110,7350 220,10210 l -52550,52170 c -1480,1470 -3470,2210 -5470,2210 v 0 h -30 c -1930,120 -3910,-450 -5470,-1740 l -34360,-28470 c -3140,-2600 -3470,-7200 -730,-10200 v 0 c 2730,-2990 7560,-3310 10690,-710 z"
   id="path119" />
  </g>
 </g>
</svg>
