<?xml version="1.0" encoding="UTF-8" standalone="no"?>
<!-- Creator: CorelDRAW X7 -->

<svg
   xml:space="preserve"
   width="9.1438999mm"
   height="7.0256mm"
   version="1.0"
   style="clip-rule:evenodd;fill-rule:evenodd;image-rendering:optimizeQuality;shape-rendering:geometricPrecision;text-rendering:geometricPrecision"
   viewBox="0 0 914389.99 702559.99"
   id="svg1261"
   sodipodi:docname="Product.svg"
   inkscape:version="1.1.2 (b8e25be833, 2022-02-05)"
   xmlns:inkscape="http://www.inkscape.org/namespaces/inkscape"
   xmlns:sodipodi="http://sodipodi.sourceforge.net/DTD/sodipodi-0.dtd"
   xmlns="http://www.w3.org/2000/svg"
   xmlns:svg="http://www.w3.org/2000/svg"><sodipodi:namedview
   id="namedview1263"
   pagecolor="#ffffff"
   bordercolor="#999999"
   borderopacity="1"
   inkscape:pageshadow="0"
   inkscape:pageopacity="0"
   inkscape:pagecheckerboard="0"
   inkscape:document-units="mm"
   showgrid="false"
   inkscape:zoom="11.240142"
   inkscape:cx="17.481986"
   inkscape:cy="13.167094"
   inkscape:window-width="1366"
   inkscape:window-height="745"
   inkscape:window-x="-8"
   inkscape:window-y="-8"
   inkscape:window-maximized="1"
   inkscape:current-layer="svg1261" />
 <defs
   id="defs1244">
  <style
   type="text/css"
   id="style1242">
   <![CDATA[
    .fil0 {fill:#00C800;fill-rule:nonzero}
   ]]>
  </style>
 </defs>
 <g
   id="Layer_x0020_1"
   inkscape:label="Layer 1"
   inkscape:groupmode="layer"
   transform="translate(-198850,-312860)">
  <metadata
   id="CorelCorpID_0Corel-Layer" />
  <g
   id="_1644228813536">
   <g
   id="g1249">
    <path
   class="fil0"
   d="M 1079380,380420 H 232710 v -67560 h 846670 l 33860,33780 z m 0,-67560 h 33860 v 33780 z m -33860,668780 V 346640 h 67720 v 635000 l -33860,33780 z m 67720,0 v 33780 h -33860 z M 232710,947860 h 846670 v 67560 H 232710 l -33860,-33780 z m 0,67560 H 198850 V 981640 Z M 266570,346640 V 981640 H 198850 V 346640 l 33860,-33780 z m -67720,0 v -33780 h 33860 z"
   id="path1247" />
   </g>
   <path
   class="fil0"
   d="m 560630,510820 c 0,2260 -70,4140 -260,5670 -200,1540 -500,2770 -930,3690 -420,880 -880,1570 -1380,1990 -530,460 -1150,690 -1800,690 h -47640 v 39130 h 44690 c 690,0 1300,190 1800,570 540,350 1000,1000 1420,1880 420,920 690,2110 880,3610 190,1490 310,3370 310,5640 0,2220 -120,4100 -310,5600 -190,1490 -460,2720 -880,3720 -420,960 -880,1650 -1420,2070 -500,420 -1110,610 -1800,610 h -44690 v 54200 c 0,810 -230,1540 -690,2150 -420,580 -1230,1070 -2420,1500 -1150,420 -2680,730 -4520,960 -1880,230 -4300,340 -7210,340 -2840,0 -5220,-110 -7140,-340 -1920,-230 -3450,-540 -4560,-960 -1120,-390 -1920,-920 -2420,-1500 -500,-610 -730,-1340 -730,-2150 V 508020 c 0,-3300 840,-5680 2530,-7140 1690,-1460 3760,-2180 6250,-2180 h 68550 c 650,0 1270,190 1800,610 500,420 960,1070 1380,2030 430,920 730,2190 930,3760 190,1570 260,3490 260,5720 z"
   id="path1251" />
   <path
   id="1"
   class="fil0"
   d="m 713610,569730 c 0,12050 -1500,22830 -4490,32340 -2990,9510 -7440,17610 -13390,24210 -5910,6630 -13230,11690 -21940,15180 -8750,3500 -18830,5220 -30300,5220 -11320,0 -21180,-1490 -29580,-4450 -8440,-2950 -15460,-7440 -21090,-13540 -5610,-6060 -9820,-13770 -12620,-23130 -2800,-9360 -4220,-20440 -4220,-33260 0,-11730 1490,-22320 4480,-31720 3000,-9400 7450,-17370 13390,-23970 5910,-6600 13230,-11660 21940,-15150 8750,-3530 18870,-5300 30420,-5300 11010,0 20710,1460 29150,4380 8400,2910 15460,7400 21100,13500 5680,6060 9930,13690 12810,22940 2880,9280 4340,20170 4340,32750 z m -31070,1500 c 0,-7630 -620,-14580 -1810,-20830 -1190,-6250 -3220,-11620 -6100,-16070 -2870,-4450 -6710,-7900 -11500,-10360 -4800,-2410 -10780,-3640 -17960,-3640 -7250,0 -13310,1380 -18140,4100 -4870,2730 -8820,6410 -11810,10970 -3000,4570 -5110,9900 -6330,16000 -1230,6140 -1840,12580 -1840,19410 0,7940 610,15070 1800,21400 1190,6330 3220,11740 6060,16270 2840,4480 6640,7900 11430,10280 4800,2340 10820,3530 18070,3530 7250,0 13310,-1350 18140,-4070 4870,-2690 8820,-6370 11810,-11010 3000,-4640 5110,-10050 6330,-16220 1230,-6180 1850,-12780 1850,-19760 z" />
   <path
   id="2"
   class="fil0"
   d="m 846480,640350 c 0,810 -150,1500 -460,2070 -310,580 -1000,1040 -2110,1420 -1150,350 -2760,620 -4950,770 -2180,150 -5140,230 -8860,230 -3140,0 -5640,-80 -7520,-230 -1880,-150 -3370,-420 -4450,-840 -1070,-430 -1840,-920 -2300,-1580 -420,-650 -800,-1420 -1110,-2300 l -13120,-32560 c -1570,-3690 -3110,-6990 -4600,-9820 -1500,-2880 -3190,-5260 -5030,-7180 -1840,-1910 -3990,-3330 -6400,-4330 -2380,-960 -5180,-1460 -8330,-1460 h -9240 v 55580 c 0,730 -230,1420 -730,2000 -500,610 -1300,1110 -2420,1490 -1110,350 -2600,660 -4480,890 -1840,230 -4260,340 -7140,340 -2840,0 -5220,-110 -7130,-340 -1920,-230 -3420,-540 -4530,-890 -1110,-380 -1920,-880 -2340,-1450 -460,-620 -690,-1310 -690,-2040 V 508020 c 0,-3300 840,-5680 2530,-7140 1690,-1460 3760,-2180 6220,-2180 h 37660 c 3800,0 6990,70 9440,230 2460,150 4720,340 6750,530 5830,850 11090,2270 15770,4300 4680,1990 8670,4640 11930,7900 3260,3260 5750,7100 7480,11550 1720,4450 2570,9550 2570,15340 0,4830 -620,9280 -1850,13270 -1260,4030 -3060,7600 -5480,10740 -2380,3150 -5330,5870 -8860,8170 -3530,2340 -7560,4180 -12050,5640 2190,1040 4220,2300 6140,3800 1920,1490 3720,3340 5410,5480 1690,2150 3300,4570 4790,7330 1500,2720 2960,5830 4380,9280 l 12310,28730 c 1110,2840 1880,4910 2230,6260 380,1300 570,2340 570,3100 z m -38200,-98770 c 0,-4790 -1080,-8860 -3260,-12120 -2190,-3300 -5760,-5640 -10710,-6980 -1490,-390 -3180,-650 -5100,-880 -1920,-240 -4560,-350 -7940,-350 h -13270 v 41200 h 15070 c 4220,0 7870,-500 11010,-1540 3190,-990 5800,-2410 7910,-4260 2100,-1800 3680,-4020 4710,-6550 1040,-2540 1580,-5370 1580,-8520 z" />
   <path
   id="3"
   class="fil0"
   d="m 532310,785920 c 0,7670 -1420,14340 -4260,20140 -2880,5750 -6710,10540 -11590,14420 -4910,3830 -10580,6750 -17100,8710 -6520,1950 -13510,2910 -20950,2910 -5020,0 -9660,-420 -14000,-1260 -4290,-850 -8090,-1850 -11390,-3030 -3300,-1160 -6060,-2380 -8290,-3690 -2220,-1300 -3790,-2450 -4790,-3410 -960,-1000 -1650,-2420 -2070,-4260 -420,-1840 -620,-4450 -620,-7900 0,-2340 80,-4260 230,-5830 160,-1570 390,-2840 730,-3840 350,-960 810,-1650 1350,-2070 570,-420 1220,-610 1990,-610 1040,0 2530,610 4450,1880 1920,1230 4370,2610 7370,4100 2990,1500 6590,2880 10770,4110 4150,1260 8980,1880 14460,1880 3610,0 6830,-430 9670,-1270 2880,-880 5290,-2070 7290,-3640 1990,-1580 3490,-3490 4560,-5800 1040,-2300 1580,-4870 1580,-7710 0,-3290 -890,-6130 -2690,-8470 -1800,-2380 -4140,-4450 -7060,-6290 -2870,-1850 -6170,-3570 -9850,-5180 -3650,-1610 -7450,-3300 -11360,-5100 -3910,-1810 -7710,-3840 -11350,-6140 -3680,-2260 -6980,-4990 -9860,-8170 -2920,-3190 -5260,-6940 -7060,-11320 -1800,-4330 -2680,-9550 -2680,-15610 0,-6940 1300,-13080 3870,-18370 2570,-5260 6060,-9630 10430,-13120 4420,-3490 9560,-6100 15500,-7830 5950,-1720 12280,-2570 18950,-2570 3410,0 6870,270 10320,810 3450,500 6670,1230 9660,2110 3000,920 5640,1920 7980,3030 2300,1150 3840,2070 4610,2840 720,730 1220,1380 1490,1880 270,530 500,1220 690,2110 190,840 310,1910 390,3260 70,1300 110,2910 110,4870 0,2150 -40,3990 -150,5480 -120,1500 -310,2730 -580,3720 -270,960 -650,1690 -1110,2110 -500,460 -1150,690 -1990,690 -810,0 -2110,-530 -3920,-1570 -1800,-1030 -4020,-2180 -6630,-3450 -2650,-1230 -5680,-2340 -9130,-3340 -3450,-1030 -7210,-1530 -11360,-1530 -3220,0 -6020,380 -8440,1190 -2370,760 -4370,1880 -5980,3260 -1610,1380 -2840,3030 -3610,4980 -800,1960 -1180,4030 -1180,6180 0,3220 880,6020 2640,8360 1770,2380 4150,4490 7100,6330 2950,1800 6330,3530 10090,5140 3720,1610 7550,3340 11470,5100 3910,1810 7740,3840 11470,6140 3750,2300 7090,5030 10050,8210 2910,3180 5290,6900 7090,11240 1800,4290 2690,9360 2690,15190 z" />
   <path
   id="4"
   class="fil0"
   d="m 671080,818560 c 890,2690 1460,4830 1690,6410 230,1570 -80,2760 -880,3560 -850,770 -2300,1270 -4410,1460 -2070,190 -4990,270 -8630,270 -3840,0 -6830,-40 -8940,-150 -2150,-120 -3760,-350 -4910,-690 -1110,-350 -1880,-810 -2340,-1420 -460,-580 -840,-1380 -1110,-2340 l -9550,-29230 h -54860 l -9160,28420 c -310,1080 -690,1960 -1190,2650 -460,730 -1270,1260 -2340,1690 -1080,420 -2610,690 -4610,840 -1990,150 -4600,230 -7820,230 -3450,0 -6140,-110 -8090,-340 -1960,-230 -3300,-770 -4030,-1620 -770,-880 -1040,-2110 -810,-3680 230,-1570 810,-3640 1690,-6290 l 44800,-129070 c 420,-1270 960,-2310 1570,-3070 580,-810 1540,-1380 2840,-1810 1350,-420 3150,-690 5490,-800 2300,-120 5370,-160 9200,-160 4420,0 7940,40 10550,160 2650,110 4680,380 6140,800 1460,430 2490,1040 3150,1840 610,850 1190,1960 1610,3380 z M 604340,711770 h -120 l -20250,61870 h 40810 z" />
   <path
   id="5"
   class="fil0"
   d="m 771310,817220 c 0,2220 -70,4140 -270,5680 -190,1530 -490,2800 -840,3790 -380,1040 -840,1770 -1420,2190 -570,460 -1230,690 -1960,690 h -66620 c -2460,0 -4530,-730 -6220,-2190 -1690,-1450 -2530,-3830 -2530,-7130 V 688140 c 0,-730 230,-1420 730,-2030 500,-580 1300,-1070 2420,-1460 1110,-380 2640,-650 4560,-880 1920,-230 4300,-350 7140,-350 2910,0 5330,120 7210,350 1840,230 3370,500 4480,880 1120,390 1920,880 2420,1460 500,610 730,1300 730,2030 v 117030 h 45680 c 730,0 1420,200 1960,620 580,420 1040,1070 1420,2030 380,920 650,2150 840,3720 200,1540 270,3420 270,5680 z" />
   <path
   id="6"
   class="fil0"
   d="m 874850,817950 c 0,2180 -80,3990 -270,5480 -190,1460 -460,2650 -850,3530 -380,920 -840,1570 -1420,2000 -530,420 -1180,610 -1840,610 h -72950 c -2460,0 -4530,-730 -6220,-2190 -1690,-1450 -2530,-3830 -2530,-7130 V 693440 c 0,-3300 840,-5680 2530,-7140 1690,-1460 3760,-2180 6220,-2180 h 72610 c 650,0 1260,190 1800,570 500,380 960,1040 1340,1960 350,960 660,2140 850,3600 190,1500 270,3340 270,5600 0,2110 -80,3880 -270,5370 -190,1460 -460,2650 -850,3530 -380,920 -840,1570 -1340,2000 -540,420 -1150,610 -1800,610 h -51900 v 35440 h 43730 c 690,0 1300,200 1840,620 570,420 1030,1030 1420,1920 380,840 650,1990 840,3490 190,1450 270,3220 270,5290 0,2190 -80,3990 -270,5410 -190,1420 -460,2570 -840,3410 -390,880 -850,1500 -1420,1840 -540,390 -1150,580 -1840,580 h -43730 v 40960 h 52240 c 690,0 1310,200 1840,620 580,420 1040,1070 1420,1990 390,890 660,2070 850,3530 190,1500 270,3300 270,5490 z" />
  </g>
 </g>
</svg>
