<?xml version="1.0" encoding="UTF-8"?>
<!DOCTYPE svg PUBLIC "-//W3C//DTD SVG 1.0//EN" "http://www.w3.org/TR/2001/REC-SVG-20010904/DTD/svg10.dtd">
<!-- Creator: CorelDRAW X7 -->
<svg xmlns="http://www.w3.org/2000/svg" xml:space="preserve" width="5.9266mm" height="5.9266mm" version="1.0" style="shape-rendering:geometricPrecision; text-rendering:geometricPrecision; image-rendering:optimizeQuality; fill-rule:evenodd; clip-rule:evenodd"
viewBox="0 0 592620 592620"
 xmlns:xlink="http://www.w3.org/1999/xlink">
 <defs>
  <style type="text/css">
   <![CDATA[
    .fil1 {fill:#00C800}
    .fil0 {fill:white}
    .fil2 {fill:#00C800;fill-rule:nonzero}
   ]]>
  </style>
 </defs>
 <g id="Layer_x0020_1">
  <metadata id="CorelCorpID_0Corel-Layer"/>
  <g id="_1497466377312">
   <g>
    <path class="fil0" d="M296310 0c163659,0 296310,132661 296310,296310 0,163649 -132651,296310 -296310,296310 -163649,0 -296310,-132661 -296310,-296310 0,-163649 132661,-296310 296310,-296310z"/>
    <path id="1" class="fil1" d="M296310 0c163659,0 296310,132661 296310,296310 0,163649 -132651,296310 -296310,296310 -163649,0 -296310,-132661 -296310,-296310 0,-163649 132661,-296310 296310,-296310zm179598 116712c-45947,-45947 -109463,-74385 -179598,-74385 -70135,0 -133641,28438 -179598,74385 -45947,45957 -74385,109463 -74385,179598 0,70135 28438,133641 74385,179598 45957,45947 109463,74385 179598,74385 70135,0 133651,-28438 179598,-74385 45947,-45957 74385,-109463 74385,-179598 0,-70135 -28438,-133641 -74385,-179598z"/>
   </g>
   <g id="_1497466377376">
    <path class="fil2" d="M398253 402163c0,2930 -520,5539 -1500,7889 -1040,2280 -2410,4180 -4169,5740 -1700,1500 -3720,2610 -6070,3330 -2410,720 -4760,1040 -7170,1040l-21458 0c-4500,0 -8350,-460 -11609,-1300 -3200,-920 -6200,-2550 -8940,-4890 -2800,-2350 -5409,-5550 -7959,-9589 -2540,-3980 -5410,-9200 -8600,-15589l-61376 -115632c-3589,-6920 -7169,-14349 -10889,-22309 -3720,-7959 -6979,-15719 -9919,-23218l-390 0c520,9199 920,18328 1180,27458 260,9069 390,18519 390,28178l0 129461c0,1240 -330,2410 -1050,3450 -710,980 -1950,1830 -3650,2550 -1690,710 -4040,1240 -6979,1630 -2930,390 -6720,580 -11280,580 -4499,0 -8219,-190 -11149,-580 -2940,-390 -5220,-920 -6849,-1630 -1700,-660 -2870,-1570 -3460,-2550 -650,-1040 -980,-2210 -980,-3450l0 -222275c0,-5999 1760,-10499 5290,-13499 3449,-3000 7759,-4500 12909,-4500l26938 0c4820,0 8929,390 12259,1240 3330,850 6260,2220 8869,4110 2610,1890 5090,4570 7370,7959 2280,3330 4630,7560 7039,12520l48067 90464c2810,5479 5550,10889 8290,16168 2739,5280 5409,10570 7889,15849 2540,5280 5020,10500 7430,15589 2479,5150 4829,10240 7109,15329l200 0c-390,-8939 -720,-18269 -910,-27918 -200,-9719 -260,-18979 -260,-27778l0 -116092c0,-1240 390,-2410 1170,-3460 720,-980 2020,-1890 3780,-2670 1830,-790 4180,-1310 7109,-1630 2940,-330 6720,-460 11290,-460 4369,0 8019,130 10949,460 2940,320 5160,840 6789,1630 1560,780 2740,1690 3320,2670 650,1050 980,2150 980,3460l0 222265z"/>
    <rect class="fil1" x="153829" y="253563" width="284978" height="28499"/>
    <rect class="fil1" x="153829" y="339059" width="284978" height="28499"/>
   </g>
  </g>
 </g>
</svg>
