<?xml version="1.0" encoding="UTF-8" standalone="no"?>
<!-- Creator: CorelDRAW X7 -->

<svg
   xml:space="preserve"
   width="32.238232"
   height="30"
   version="1.0"
   style="clip-rule:evenodd;fill-rule:evenodd;image-rendering:optimizeQuality;shape-rendering:geometricPrecision;text-rendering:geometricPrecision"
   viewBox="0 0 3223823.2 3000000"
   id="svg34"
   sodipodi:docname="Revenue.svg"
   inkscape:version="1.1.2 (b8e25be833, 2022-02-05)"
   xmlns:inkscape="http://www.inkscape.org/namespaces/inkscape"
   xmlns:sodipodi="http://sodipodi.sourceforge.net/DTD/sodipodi-0.dtd"
   xmlns="http://www.w3.org/2000/svg"
   xmlns:svg="http://www.w3.org/2000/svg"><sodipodi:namedview
   id="namedview36"
   pagecolor="#ffffff"
   bordercolor="#999999"
   borderopacity="1"
   inkscape:pageshadow="0"
   inkscape:pageopacity="0"
   inkscape:pagecheckerboard="0"
   showgrid="false"
   inkscape:zoom="3.75"
   inkscape:cx="40.133333"
   inkscape:cy="45.066667"
   inkscape:window-width="1366"
   inkscape:window-height="745"
   inkscape:window-x="-8"
   inkscape:window-y="-8"
   inkscape:window-maximized="1"
   inkscape:current-layer="Layer_x0020_1" />
 <defs
   id="defs4">
  <style
   type="text/css"
   id="style2">
   <![CDATA[
    .fil1 {fill:#00C800}
    .fil0 {fill:white}
    .fil2 {fill:#00C800;fill-rule:nonzero}
   ]]>
  </style>
 </defs>
 <g
   id="Layer_x0020_1"
   inkscape:label="Layer 1"
   inkscape:groupmode="layer"
   transform="translate(-3796287,-3307025)">
  <metadata
   id="CorelCorpID_0Corel-Layer" />
  <g
   id="_1698610749616"
   transform="matrix(0.38460957,0,0,0.38460957,2336198.7,2035111.5)">
   <g
   id="g10">
    <path
   class="fil0"
   d="m 7296942,3307025 c 1933461,0 3500772,1567312 3500772,3500773 0,1933461 -1567311,3500773 -3500772,3500773 -1933344,0 -3500655,-1567312 -3500655,-3500773 0,-1933461 1567311,-3500773 3500655,-3500773 z"
   id="path7" />
    <path
   id="1"
   class="fil1"
   d="m 7296942,3307025 c 1933461,0 3500772,1567312 3500772,3500773 0,1933461 -1567311,3500773 -3500772,3500773 -1933344,0 -3500655,-1567312 -3500655,-3500773 0,-1933461 1567311,-3500773 3500655,-3500773 z m 2263763,1237010 c -579237,-579236 -1379697,-937604 -2263763,-937604 -884067,0 -1684409,358368 -2263645,937604 -579237,579237 -937604,1379696 -937604,2263763 0,884067 358367,1684526 937604,2263763 579236,579236 1379578,937604 2263645,937604 884066,0 1684526,-358368 2263763,-937604 579236,-579237 937603,-1379696 937603,-2263763 0,-884067 -358367,-1684526 -937603,-2263763 z" />
   </g>
   <g
   id="g16">
    <path
   class="fil0"
   d="m 7898230,3603719 c 1933343,0 3500772,1567311 3500772,3500773 0,1933461 -1567429,3500890 -3500772,3500890 -1933462,0 -3500773,-1567429 -3500773,-3500890 0,-1933462 1567311,-3500773 3500773,-3500773 z"
   id="path12" />
    <path
   id="path14"
   class="fil1"
   d="m 7898230,3603719 c 1933343,0 3500772,1567311 3500772,3500773 0,1933461 -1567429,3500890 -3500772,3500890 -1933462,0 -3500773,-1567429 -3500773,-3500890 0,-1933462 1567311,-3500773 3500773,-3500773 z m 2263763,1237010 c -579237,-579119 -1379697,-937604 -2263763,-937604 -884067,0 -1684527,358367 -2263763,937604 -579237,579236 -937604,1379696 -937604,2263763 0,884066 358485,1684644 937604,2263881 579236,579236 1379696,937603 2263763,937603 884066,0 1684526,-358485 2263763,-937721 579236,-579237 937603,-1379697 937603,-2263763 0,-884067 -358367,-1684527 -937603,-2263763 z" />
   </g>
   <g
   id="g22">
    <path
   class="fil0"
   d="m 8677581,4105598 c 1933343,0 3500773,1567312 3500773,3500773 0,1933461 -1567430,3500772 -3500773,3500772 -1933461,0 -3500772,-1567311 -3500772,-3500772 0,-1933461 1567311,-3500773 3500772,-3500773 z"
   id="path18" />
    <path
   id="path20"
   class="fil1"
   d="m 8677581,4105598 c 1933343,0 3500773,1567312 3500773,3500773 0,1933461 -1567430,3500772 -3500773,3500772 -1933461,0 -3500772,-1567311 -3500772,-3500772 0,-1933461 1567311,-3500773 3500772,-3500773 z m 2263763,1237010 c -579237,-579119 -1379696,-937604 -2263763,-937604 -884067,0 -1684526,358367 -2263763,937604 -579236,579236 -937604,1379696 -937604,2263763 0,884067 358368,1684526 937604,2263763 579237,579236 1379696,937604 2263763,937604 884067,0 1684526,-358486 2263763,-937604 579237,-579237 937604,-1379696 937604,-2263763 0,-884067 -358367,-1684527 -937604,-2263763 z" />
   </g>
   <g
   id="g30">
    <path
   class="fil2"
   d="m 9929803,8906823 c 0,35966 -6368,68041 -18396,96932 -12854,27948 -29599,51179 -51297,70518 -20754,18396 -45636,31957 -74527,40801 -29598,8845 -58489,12854 -88088,12854 h -263557 c -55306,0 -102593,-5660 -142687,-16037 -39268,-11203 -76060,-31250 -109668,-60141 -34551,-28773 -66509,-68041 -97758,-117687 -31250,-48938 -66508,-112970 -105777,-191506 L 8224168,7322059 c -44103,-84904 -88206,-176294 -133842,-274052 -45636,-97758 -85730,-193040 -121814,-285255 h -4835 c 6486,112970 11320,225232 14504,337377 3184,111319 4835,227472 4835,346103 v 1590306 c 0,15212 -4009,29716 -12853,42452 -8845,12028 -24057,22523 -44929,31250 -20754,8844 -49646,15212 -85730,20046 -35966,4835 -82428,7194 -138559,7194 -55306,0 -100942,-2359 -137026,-7194 -36085,-4834 -64032,-11202 -84079,-20046 -20873,-8019 -35259,-19222 -42452,-31250 -8019,-12736 -12029,-27240 -12029,-42452 V 6306155 c 0,-73702 21580,-129008 64858,-165918 42452,-36792 95399,-55187 158606,-55187 h 330891 c 59315,0 109786,4716 150706,15212 40801,10377 76885,27240 108960,50470 31957,23231 62499,56014 90447,97758 28066,40802 56957,92924 86555,153772 l 590439,1111304 c 34552,67216 68160,133724 101768,198582 33726,64975 66508,129832 96932,194690 31250,64975 61792,129007 91390,191507 30424,63324 59315,125823 87381,188322 h 2359 c -4835,-109786 -8845,-224289 -11203,-342919 -2476,-119338 -3184,-233133 -3184,-341269 V 6176322 c 0,-15212 4717,-29599 14387,-42452 8844,-12029 24881,-23231 46461,-32901 22405,-9552 51296,-15919 87381,-19929 35966,-4009 82428,-5660 138559,-5660 53655,0 98583,1651 134550,5660 36084,4010 63324,10377 83371,19929 19222,9670 33608,20872 40802,32901 8018,12853 12028,26414 12028,42452 z"
   id="path24" />
    <rect
   class="fil1"
   x="6927176"
   y="7081295"
   width="3500787"
   height="350092"
   id="rect26" />
    <rect
   class="fil1"
   x="6927176"
   y="8131573"
   width="3500787"
   height="350092"
   id="rect28" />
   </g>
  </g>
 </g>
</svg>
