<?xml version="1.0" encoding="UTF-8"?>
<!DOCTYPE svg PUBLIC "-//W3C//DTD SVG 1.0//EN" "http://www.w3.org/TR/2001/REC-SVG-20010904/DTD/svg10.dtd">
<!-- Creator: CorelDRAW X7 -->
<svg xmlns="http://www.w3.org/2000/svg" xml:space="preserve" width="156px" height="156px" version="1.0" style="shape-rendering:geometricPrecision; text-rendering:geometricPrecision; image-rendering:optimizeQuality; fill-rule:evenodd; clip-rule:evenodd"
viewBox="0 0 15600000 15600000"
 xmlns:xlink="http://www.w3.org/1999/xlink">
 <defs>
  <style type="text/css">
   <![CDATA[
    .fil0 {fill:#00C800}
    .fil1 {fill:white}
   ]]>
  </style>
 </defs>
 <g id="Layer_x0020_1">
  <metadata id="CorelCorpID_0Corel-Layer"/>
  <g id="_1996849452032">
   <g>
    <path class="fil0" d="M8093628 7293640l26061 26061c121342,121342 121342,319806 0,441031l-3255376 3255375c-121224,121343 -319688,121343 -441031,0l-26061 -26061c-121342,-121342 -121342,-319806 0,-441031l3255376 -3255375c121224,-121343 319688,-121343 441031,0z"/>
    <path id="1" class="fil0" d="M7952474 7434793l26061 26061 118 118c21580,21580 32429,50471 32429,79244 0,28891 -10849,57664 -32429,79244l-118 118 590 590 -3255376 3255375 -589 -589 -118 117c-21580,21580 -50353,32429 -79244,32429 -29481,0 -58726,-10731 -79834,-31839l590 -590 -118 -117 -26061 -26061 -118 -118c-21580,-21580 -32429,-50471 -32429,-79244 0,-28891 10849,-57665 32429,-79245l118 -117 -590 -590 3255375 -3255375 590 589 118 -118c21580,-21580 50353,-32428 79244,-32428 29481,0 58726,10731 79834,31839l-590 589 118 118zm141154 -141153l26061 26061c121342,121342 121342,319806 0,441031l-3255376 3255375c-121224,121343 -319688,121343 -441031,0l-26061 -26061c-121342,-121342 -121342,-319806 0,-441031l3255376 -3255375c121224,-121343 319688,-121343 441031,0z"/>
   </g>
   <g>
    <path class="fil1" d="M9055052 3299360c1443256,0 2613286,1170030 2613286,2613286 0,1443375 -1170030,2613404 -2613286,2613404 -1443375,0 -2613404,-1170029 -2613404,-2613404 0,-1443256 1170029,-2613286 2613404,-2613286z"/>
    <path id="1" class="fil0" d="M9055052 3299360c1443256,0 2613286,1170030 2613286,2613286 0,1443375 -1170030,2613404 -2613286,2613404 -1443375,0 -2613404,-1170029 -2613404,-2613404 0,-1443256 1170029,-2613286 2613404,-2613286zm1494906 1115432c-381480,-381598 -910009,-617680 -1494906,-617680 -584897,0 -1113427,236082 -1495025,617680 -382423,382423 -619212,912132 -619212,1497854 0,585841 236671,1115432 619212,1497973 381480,381598 910128,617679 1495025,617679 584779,0 1113426,-236199 1494906,-617679 382542,-382541 619213,-912132 619213,-1497973 0,-585840 -236671,-1115431 -619213,-1497854z"/>
   </g>
   <path class="fil0" d="M10249020 6735393c300467,-549637 270279,-1099511 0,-1649267 -28891,-58608 68159,-113442 151648,-113442l0 0c83490,0 126178,54009 151649,113442 235963,549756 269571,1099512 0,1649267 -28655,58608 -68159,113442 -151649,113442l0 0c-83489,0 -183252,-55659 -151648,-113442z"/>
   <ellipse class="fil0" cx="10270901" cy="4751122" rx="149764" ry="149784"/>
  </g>
 </g>
</svg>
