<?xml version="1.0" encoding="UTF-8" standalone="no"?>
<!-- Creator: CorelDRAW X7 -->

<svg
   xml:space="preserve"
   width="52.916664mm"
   height="19.229345mm"
   version="1.0"
   style="clip-rule:evenodd;fill-rule:evenodd;image-rendering:optimizeQuality;shape-rendering:geometricPrecision;text-rendering:geometricPrecision"
   viewBox="0 0 5628.5506 2046.0685"
   id="svg18787"
   sodipodi:docname="Umarket.svg"
   inkscape:version="1.1.2 (b8e25be833, 2022-02-05)"
   xmlns:inkscape="http://www.inkscape.org/namespaces/inkscape"
   xmlns:sodipodi="http://sodipodi.sourceforge.net/DTD/sodipodi-0.dtd"
   xmlns="http://www.w3.org/2000/svg"
   xmlns:svg="http://www.w3.org/2000/svg"><sodipodi:namedview
   id="namedview18789"
   pagecolor="#ffffff"
   bordercolor="#999999"
   borderopacity="1"
   inkscape:pageshadow="0"
   inkscape:pageopacity="0"
   inkscape:pagecheckerboard="0"
   inkscape:document-units="mm"
   showgrid="false"
   inkscape:zoom="5.8550002"
   inkscape:cx="99.999997"
   inkscape:cy="36.379162"
   inkscape:window-width="1366"
   inkscape:window-height="745"
   inkscape:window-x="-8"
   inkscape:window-y="-8"
   inkscape:window-maximized="1"
   inkscape:current-layer="Layer_x0020_1" />
 <defs
   id="defs18749">
  <style
   type="text/css"
   id="style18747">
   <![CDATA[
    .fil2 {fill:#00C800}
    .fil0 {fill:white}
    .fil1 {fill:#00C800;fill-rule:nonzero}
   ]]>
  </style>
 </defs>
 <g
   id="Layer_x0020_1"
   inkscape:label="Layer 1"
   inkscape:groupmode="layer"
   transform="translate(-0.77034008)">
  <metadata
   id="CorelCorpID_0Corel-Layer" />
  <g
   id="_2262227202544"
   transform="scale(1.2756038)">
   <g
   id="g18755">
    <path
   class="fil0"
   d="m 2142,1066 c 0,3 -1,5 -3,7 -1,2 -4,4 -8,5 -4,2 -9,3 -15,3 -7,1 -15,1 -25,1 -11,0 -19,0 -26,-1 -6,0 -11,-1 -15,-3 -4,-1 -7,-3 -8,-5 -2,-2 -3,-4 -3,-7 V 851 c 0,-12 -1,-23 -3,-33 -2,-10 -6,-19 -11,-26 -4,-7 -10,-12 -17,-16 -8,-4 -16,-6 -26,-6 -12,0 -24,4 -37,14 -12,9 -26,23 -40,41 v 241 c 0,3 -1,5 -3,7 -1,2 -4,4 -8,5 -4,2 -9,3 -16,3 -6,1 -14,1 -24,1 -10,0 -19,0 -25,-1 -7,0 -12,-1 -16,-3 -4,-1 -6,-3 -8,-5 -2,-2 -3,-4 -3,-7 V 851 c 0,-12 -1,-23 -3,-33 -2,-10 -6,-19 -10,-26 -5,-7 -11,-12 -18,-16 -7,-4 -16,-6 -26,-6 -12,0 -25,4 -37,14 -12,9 -26,23 -40,41 v 241 c 0,3 -1,5 -3,7 -1,2 -4,4 -8,5 -4,2 -9,3 -16,3 -6,1 -14,1 -24,1 -10,0 -19,0 -25,-1 -7,0 -12,-1 -16,-3 -4,-1 -6,-3 -8,-5 -2,-2 -2,-4 -2,-7 V 704 c 0,-3 0,-5 2,-7 1,-2 3,-4 7,-6 3,-1 8,-2 13,-3 6,0 13,-1 21,-1 9,0 16,1 22,1 5,1 10,2 13,3 3,2 5,4 7,6 1,2 2,4 2,7 v 42 c 20,-22 40,-38 60,-49 20,-11 40,-16 62,-16 15,0 28,1 40,5 12,3 23,7 32,13 10,6 18,13 24,21 7,8 13,17 17,27 11,-12 22,-22 32,-30 11,-8 21,-15 31,-21 10,-5 20,-9 31,-11 10,-3 20,-4 31,-4 24,0 44,4 61,12 16,8 29,19 39,33 11,14 18,30 22,49 4,19 7,38 7,59 z m 408,1 c 0,4 -1,7 -4,9 -2,2 -7,4 -13,5 -5,1 -14,1 -25,1 -13,0 -22,0 -27,-1 -6,-1 -10,-3 -12,-5 -2,-2 -3,-5 -3,-9 v -28 c -15,16 -32,28 -51,37 -19,9 -41,13 -64,13 -19,0 -37,-2 -53,-7 -16,-5 -30,-13 -41,-23 -12,-10 -21,-22 -28,-37 -6,-14 -10,-31 -10,-51 0,-21 5,-39 13,-55 8,-15 20,-28 37,-38 16,-10 36,-18 61,-23 24,-5 52,-7 84,-7 h 36 v -22 c 0,-11 -1,-21 -4,-30 -2,-8 -6,-16 -11,-21 -5,-6 -12,-10 -21,-13 -9,-2 -20,-4 -33,-4 -17,0 -32,2 -45,6 -14,4 -26,8 -36,12 -10,5 -19,9 -26,13 -6,4 -12,6 -16,6 -3,0 -6,-1 -8,-3 -3,-2 -5,-5 -6,-8 -1,-4 -3,-8 -3,-13 -1,-5 -2,-11 -2,-17 0,-9 1,-15 2,-20 2,-5 4,-9 8,-13 4,-4 10,-8 20,-13 9,-5 21,-9 33,-13 13,-5 27,-8 42,-10 15,-3 30,-4 46,-4 29,0 53,3 73,8 20,6 37,14 50,26 13,11 23,26 28,44 6,18 9,40 9,65 z M 2450,912 h -39 c -17,0 -31,1 -42,4 -12,2 -21,6 -29,11 -7,4 -12,10 -16,17 -3,7 -5,15 -5,24 0,15 5,27 15,36 9,8 22,13 40,13 14,0 27,-4 39,-11 12,-8 24,-18 37,-32 z m 435,-175 c 0,10 0,18 -1,24 0,7 -1,12 -2,15 -1,3 -3,6 -4,7 -2,2 -4,2 -7,2 -2,0 -5,0 -7,-1 -3,-1 -6,-2 -10,-3 -3,-1 -7,-2 -11,-3 -4,-1 -8,-2 -13,-2 -6,0 -12,2 -17,4 -6,2 -12,6 -18,11 -6,5 -12,11 -19,19 -7,8 -14,18 -21,30 v 226 c 0,3 -1,5 -3,7 -1,2 -4,4 -8,5 -4,2 -9,3 -16,3 -6,1 -15,1 -25,1 -10,0 -18,0 -24,-1 -7,0 -12,-1 -16,-3 -4,-1 -7,-3 -8,-5 -2,-2 -3,-4 -3,-7 V 704 c 0,-3 1,-5 2,-7 2,-2 4,-4 8,-6 3,-1 8,-2 13,-3 6,0 13,-1 21,-1 9,0 16,1 22,1 5,1 10,2 13,3 3,2 5,4 7,6 1,2 2,4 2,7 v 45 c 9,-14 18,-25 26,-34 9,-8 17,-15 24,-20 8,-6 16,-9 23,-11 8,-2 15,-3 23,-3 3,0 7,0 11,0 4,1 9,1 13,2 4,1 8,3 11,4 4,1 6,2 7,3 2,2 3,3 4,5 0,2 1,4 1,7 1,2 1,7 2,12 0,6 0,14 0,23 z m 400,330 c 0,2 -1,5 -3,7 -1,2 -4,3 -8,4 -4,2 -9,3 -16,3 -7,1 -15,1 -26,1 -11,0 -20,0 -27,0 -7,-1 -13,-2 -17,-3 -5,-1 -8,-3 -11,-5 -2,-2 -4,-5 -6,-9 L 3050,874 v 192 c 0,3 -1,5 -2,7 -2,2 -5,4 -9,5 -4,2 -9,3 -15,3 -7,1 -15,1 -25,1 -10,0 -18,0 -25,-1 -6,0 -11,-1 -15,-3 -4,-1 -7,-3 -9,-5 -1,-2 -2,-4 -2,-7 V 532 c 0,-3 1,-5 2,-7 2,-2 5,-4 9,-6 4,-1 9,-2 15,-3 7,-1 15,-1 25,-1 10,0 18,0 25,1 6,1 11,2 15,3 4,2 7,4 9,6 1,2 2,4 2,7 v 318 l 107,-144 c 3,-4 5,-6 8,-9 2,-2 6,-4 10,-6 5,-1 10,-2 17,-3 7,0 15,-1 25,-1 10,0 19,1 26,1 7,1 12,2 16,3 5,2 7,4 9,6 2,2 2,4 2,7 0,4 0,9 -3,13 -2,5 -5,10 -9,15 l -106,120 123,190 c 4,5 6,10 7,14 2,4 3,7 3,11 z m 373,-192 c 0,12 -2,21 -8,27 -5,6 -13,9 -23,9 h -220 c 0,15 1,29 5,42 4,12 10,23 17,32 8,9 19,15 31,20 13,4 28,7 45,7 18,0 34,-2 48,-4 13,-3 25,-6 35,-9 10,-3 18,-6 24,-8 7,-3 12,-4 16,-4 2,0 5,0 6,1 2,1 3,3 4,5 1,3 2,6 2,11 1,4 1,10 1,16 0,6 0,11 0,16 -1,4 -1,7 -2,10 0,3 -1,6 -2,8 -1,2 -3,4 -4,6 -2,1 -7,4 -15,7 -8,4 -18,7 -30,10 -12,3 -26,6 -41,8 -16,3 -33,4 -51,4 -32,0 -60,-4 -84,-12 -25,-8 -45,-21 -61,-37 -16,-17 -28,-37 -36,-63 -8,-25 -12,-54 -12,-88 0,-32 4,-61 12,-87 9,-26 21,-48 37,-66 16,-18 35,-32 58,-41 23,-9 49,-14 77,-14 31,0 57,4 78,13 22,9 39,22 53,37 14,16 24,35 31,57 6,21 9,45 9,70 z m -98,-30 c 0,-28 -5,-51 -18,-67 -12,-17 -31,-25 -57,-25 -13,0 -24,3 -34,7 -10,5 -18,12 -24,20 -6,8 -11,18 -14,29 -4,12 -6,24 -6,36 z m 392,186 c 0,11 -1,21 -3,27 -1,6 -3,11 -6,13 -2,3 -6,5 -10,7 -5,2 -11,4 -17,5 -6,2 -13,3 -21,4 -7,1 -15,1 -22,1 -21,0 -38,-2 -53,-8 -15,-5 -27,-13 -37,-23 -10,-11 -17,-24 -22,-41 -4,-16 -7,-35 -7,-57 V 773 h -43 c -6,0 -10,-3 -12,-9 -3,-7 -4,-18 -4,-32 0,-8 0,-15 1,-20 0,-6 1,-10 3,-13 1,-3 3,-6 5,-7 2,-1 4,-2 7,-2 h 43 v -81 c 0,-3 1,-5 3,-7 1,-3 4,-4 8,-6 4,-1 9,-3 16,-3 6,-1 15,-1 24,-1 10,0 19,0 25,1 7,0 12,2 16,3 4,2 7,3 8,6 2,2 3,4 3,7 v 81 h 78 c 3,0 5,1 7,2 2,1 4,4 6,7 1,3 2,7 3,13 0,5 1,12 1,20 0,14 -2,25 -4,32 -3,6 -7,9 -12,9 h -79 v 170 c 0,20 3,35 9,45 6,10 17,15 33,15 6,0 11,-1 15,-2 4,-1 8,-2 11,-3 4,-1 7,-2 9,-3 2,-1 4,-2 6,-2 2,0 3,1 5,2 1,1 3,2 3,5 1,3 2,7 3,12 0,5 1,11 1,19 z"
   id="path18752" />
    <path
   id="1"
   class="fil1"
   d="m 2146,1079 -14,-11 v 0 -1 0 0 0 0 0 0 0 0 0 0 h 1 v 0 0 0 0 0 0 0 0 0 0 -1 1 0 0 0 -1 0 0 0 0 h 18 v 1 0 0 1 0 1 0 h -1 v 1 0 1 0 0 1 1 0 h -1 v 1 0 0 1 0 l -1,1 v 0 0 1 0 l -1,1 v 0 0 z m -14,-11 z m 2,19 -6,-17 v 0 0 h 1 v 0 0 -1 h 1 v 0 0 0 0 0 h 1 v 0 0 0 -1 0 h 1 v 0 0 0 0 0 0 0 0 0 0 0 0 0 0 l 14,11 v 0 0 l -1,1 v 0 0 l -1,1 v 0 0 l -1,1 v 0 0 l -1,1 v 0 0 h -1 v 1 h -1 v 0 0 l -1,1 v 0 h -1 v 0 0 l -1,1 v 0 h -1 v 0 0 h -1 v 1 z m 0,0 z m -17,3 -2,-18 v 0 0 h 1 v 0 h 1 v 0 h 1 v 0 h 1 v 0 h 1 v 0 h 1 v 0 l 1,-1 v 0 h 1 v 0 0 h 1 v 0 h 1 v 0 0 h 1 v -1 0 h 1 v 0 h 1 v 0 0 0 l 6,17 v 0 h -1 v 0 h -1 v 1 h -1 v 0 h -1 v 0 h -1 v 0 h -1 v 1 h -1 v 0 h -1 v 0 h -1 -1 v 0 h -1 v 1 h -1 v 0 h -1 -1 v 0 h -1 v 0 h -1 z m -26,1 v -18 0 h 1 1 1 v 0 h 1 1 1 1 1 v 0 h 1 1 1 1 v 0 h 1 1 1 v 0 h 1 1 1 v 0 h 1 v 0 h 1 1 v 0 h 1 v 0 l 1,-1 h 1 l 2,18 h -1 -1 v 1 h -1 -1 -1 v 0 h -1 -1 -1 v 0 h -1 -1 -1 v 0 h -1 -1 -1 -1 v 0 h -1 -1 -1 -1 -1 -1 v 0 h -1 -1 -1 -1 z m -26,-1 1,-18 v 0 h 1 l 1,1 v 0 h 1 v 0 h 1 1 v 0 h 1 1 v 0 h 1 1 1 v 0 h 1 1 1 v 0 h 1 1 1 1 1 v 0 h 1 1 1 1 1 1 1 v 18 h -1 -1 -1 -1 -1 -1 -1 -1 -1 -1 v 0 h -1 -1 -1 -1 -1 v 0 h -1 -1 -1 -1 v 0 h -1 -1 -1 v 0 h -1 -1 v 0 l -1,-1 z m -18,-3 6,-17 v 0 0 0 0 h 1 v 0 h 1 v 0 1 h 1 v 0 0 h 1 v 0 h 1 v 0 0 h 1 v 0 l 1,1 v 0 h 1 v 0 h 1 v 0 h 1 v 0 h 1 v 0 h 1 v 0 h 1 v 0 l -1,18 h -1 -1 v 0 h -1 -1 v 0 h -1 v 0 h -1 -1 v -1 h -1 v 0 h -1 -1 v 0 h -1 v 0 h -1 v -1 h -1 v 0 h -1 v 0 h -1 v 0 h -1 v -1 h -1 v 0 z m 0,0 z m -13,-8 15,-11 v 0 0 0 0 0 0 0 0 0 0 0 0 0 0 0 0 h 1 v 0 1 0 0 0 h 1 v 0 0 0 0 h 1 v 0 1 0 h 1 v 0 l -6,17 h -1 v 0 -1 h -1 v 0 h -1 v 0 l -1,-1 v 0 h -1 v 0 0 l -1,-1 v 0 h -1 v 0 -1 h -1 v 0 0 l -1,-1 v 0 h -1 v -1 0 h -1 v -1 0 h -1 v -1 0 z m -4,-13 h 18 v 0 0 0 0 1 0 0 0 0 0 h 1 v 0 0 0 0 0 0 0 0 0 0 0 0 1 0 -1 1 0 0 0 0 0 0 l -15,11 v -1 0 0 l -1,-1 v 0 -1 0 0 l -1,-1 v 0 -1 0 0 -1 0 h -1 v -1 0 -1 0 0 -1 0 -1 0 -1 0 h -1 v -1 0 0 z m 18,-215 v 215 h -18 v -215 0 z m -21,-31 18,-4 v 0 1 1 1 l 1,1 v 1 1 1 1 l 1,1 v 1 2 1 1 1 1 l 1,1 v 1 1 1 1 2 1 1 1 1 1 1 2 1 1 1 1 h -18 v -1 -1 -1 -1 -1 -1 -1 -1 -1 -1 -1 -1 -1 -1 -1 -1 -1 l -1,-1 v -1 -1 -1 -1 -1 -1 l -1,-1 v -1 0 -1 -1 -1 l -1,-1 z m 0,0 z m -9,-23 15,-10 v 0 1 l 1,1 v 1 h 1 v 1 l 1,1 v 1 l 1,1 v 1 h 1 v 1 1 l 1,1 v 1 l 1,1 v 1 1 l 1,1 v 0 1 l 1,1 v 1 1 l 1,1 v 1 1 l 1,1 v 1 1 1 l 1,1 v 1 l -18,4 v -1 -1 -1 h -1 v -1 -1 -1 l -1,-1 v 0 -1 -1 l -1,-1 v 0 -1 -1 h -1 v -1 -1 l -1,-1 v 0 -1 l -1,-1 v 0 -1 l -1,-1 v 0 -1 h -1 v -1 -1 h -1 z m 0,0 v 0 1 z m -15,-14 9,-15 v 0 h 1 l 1,1 v 0 l 1,1 h 1 l 1,1 v 0 l 1,1 h 1 l 1,1 v 0 l 1,1 h 1 v 1 l 1,1 h 1 v 1 h 1 l 1,1 v 1 h 1 v 1 l 1,1 h 1 v 1 l 1,1 v 1 h 1 v 1 l 1,1 v 1 h 1 l -15,10 v 0 l -1,-1 v 0 l -1,-1 v 0 -1 h -1 v -1 h -1 v -1 0 l -1,-1 v 0 l -1,-1 v 0 l -1,-1 v 0 l -1,-1 v 0 h -1 v -1 h -1 v -1 h -1 v 0 l -1,-1 v 0 h -1 v -1 h -1 v 0 z m 9,-15 z m -30,11 v -18 0 h 1 1 1 1 1 1 1 1 1 1 l 1,1 h 1 1 1 1 1 l 1,1 h 1 1 1 v 1 h 1 1 l 1,1 h 1 1 l 1,1 h 1 v 0 l 1,1 h 1 l 1,1 -9,15 v 0 h -1 v 0 l -1,-1 v 0 h -1 v 0 l -1,-1 h -1 v 0 h -1 v 0 l -1,-1 h -1 v 0 h -1 -1 v 0 h -1 l -1,-1 h -1 v 0 h -1 -1 v 0 h -1 -1 -1 -1 v 0 h -1 z m -31,12 -11,-14 v 0 l 1,-1 1,-1 2,-1 1,-1 1,-1 h 1 l 2,-1 1,-1 1,-1 h 2 l 1,-1 1,-1 h 2 l 1,-1 1,-1 h 1 l 2,-1 h 1 1 l 2,-1 h 1 l 1,-1 h 2 1 2 l 1,-1 h 1 2 1 1 2 1 v 18 h -1 -1 -1 -1 -1 v 0 h -1 -1 l -1,1 h -1 -1 -1 l -1,1 h -1 -1 l -1,1 h -1 l -1,1 h -1 -1 l -1,1 h -1 l -1,1 -1,1 h -1 l -1,1 h -1 l -1,1 -1,1 -1,1 h -1 z m 0,0 z m -37,34 h -18 l 2,-5 1,-2 2,-2 1,-1 1,-2 2,-2 1,-1 1,-2 2,-1 1,-2 1,-1 2,-2 1,-1 1,-2 2,-1 1,-2 1,-1 2,-1 1,-1 1,-2 2,-1 1,-1 1,-1 1,-2 2,-1 1,-1 1,-1 1,-1 2,-1 1,-1 1,-1 2,-1 1,-1 11,14 -1,1 -2,1 -1,1 -1,1 -1,1 -1,1 -1,1 -1,1 -1,1 -2,1 -1,1 -1,1 -1,1 -1,1 -2,2 -1,1 -1,1 -1,1 -1,2 -2,1 -1,1 -1,2 -1,1 -2,2 -1,1 -1,1 -2,2 -1,2 -1,1 -2,2 -1,1 -1,2 z m -18,0 v -3 l 2,-2 z m 0,241 V 825 h 18 v 241 0 z m 14,13 -15,-11 v 0 0 -1 0 0 0 0 0 h 1 -1 1 v 0 0 0 0 0 0 0 0 0 0 0 0 0 -1 0 1 0 -1 0 0 0 0 h 18 v 1 0 0 1 0 1 0 l -1,1 v 0 0 1 0 1 0 1 0 0 l -1,1 v 0 1 0 0 l -1,1 v 0 0 1 0 h -1 v 1 0 0 l -1,1 z m -15,-11 z m 2,19 -6,-17 v 0 0 h 1 v 0 -1 0 h 1 v 0 0 0 0 h 1 v 0 0 0 -1 0 h 1 v 0 0 0 0 0 0 0 0 0 0 0 0 0 0 0 l 15,11 h -1 v 0 1 h -1 v 0 1 h -1 v 0 l -1,1 v 0 0 l -1,1 v 0 h -1 v 1 0 h -1 v 0 0 l -1,1 v 0 h -1 v 0 h -1 v 1 0 h -1 v 0 h -1 v 1 z m 0,0 z m -18,3 -2,-18 v 0 h 1 v 0 h 1 1 v 0 h 1 v 0 h 1 v 0 h 1 v 0 h 1 v -1 0 h 1 v 0 h 1 v 0 h 1 v 0 0 h 1 v 0 h 1 v -1 0 h 1 v 0 0 h 1 v 0 0 l 6,17 h -1 v 0 h -1 v 0 l -1,1 v 0 0 h -1 -1 v 0 0 h -1 l -1,1 v 0 h -1 v 0 h -1 v 0 h -1 v 0 h -1 l -1,1 v 0 h -1 v 0 h -1 -1 v 0 h -1 v 0 h -1 z m -25,1 v -18 0 h 1 1 1 v 0 h 1 1 1 1 1 v 0 h 1 1 1 v 0 h 1 1 1 v 0 h 1 1 1 v 0 h 1 v 0 h 1 1 v 0 h 1 1 v 0 l 1,-1 v 0 l 2,18 v 0 h -1 l -1,1 h -1 v 0 h -1 -1 v 0 h -1 -1 -1 v 0 h -1 -1 -1 v 0 h -1 -1 -1 -1 v 0 h -1 -1 -1 -1 -1 -1 v 0 h -1 -1 -1 z m -26,-1 2,-18 v 0 0 l 1,1 h 1 v 0 h 1 1 v 0 h 1 1 v 0 h 1 1 v 0 h 1 1 v 0 h 1 1 1 1 v 0 h 1 1 1 1 1 v 0 h 1 1 1 1 1 v 18 h -1 -1 -1 -1 -1 -1 -1 v 0 h -1 -1 -1 -1 -1 -1 v 0 h -1 -1 -1 -1 v 0 h -1 -1 -1 v 0 h -1 -1 -1 v 0 h -1 l -1,-1 v 0 z m -18,-3 6,-17 v 0 0 h 1 v 0 0 h 1 v 0 0 l 1,1 v 0 0 h 1 v 0 h 1 v 0 0 h 1 v 0 h 1 v 0 l 1,1 v 0 h 1 v 0 h 1 v 0 h 1 v 0 h 1 v 0 h 1 v 0 h 1 l -2,18 h -1 v 0 h -1 -1 v 0 h -1 v 0 h -1 -1 v 0 l -1,-1 v 0 h -1 -1 v 0 h -1 v 0 h -1 v 0 l -1,-1 v 0 h -1 v 0 h -1 v 0 h -1 v 0 l -1,-1 v 0 h -1 v 0 0 z m 1,0 h -1 z m -13,-8 14,-11 v 0 0 0 0 0 0 0 0 0 0 0 0 h 1 v 0 0 0 0 0 1 0 h 1 v 0 0 0 0 0 h 1 v 0 0 1 h 1 v 0 0 l -6,17 v 0 h -1 v -1 0 h -1 v 0 h -1 v -1 h -1 v 0 0 h -1 v -1 h -1 v 0 0 h -1 v -1 h -1 v 0 -1 h -1 v 0 l -1,-1 v 0 0 l -1,-1 v 0 0 l -1,-1 z m 14,-11 z m -19,-2 h 18 v 0 0 0 0 0 l 1,1 v 0 l -1,-1 h 1 v 1 0 0 0 0 0 0 0 0 0 0 0 0 0 0 0 0 0 0 0 0 0 1 0 l -14,11 v -1 h -1 v 0 -1 0 h -1 v -1 0 0 -1 h -1 v 0 -1 0 -1 0 0 l -1,-1 v 0 -1 0 -1 0 0 -1 0 -1 0 -1 h -1 v 0 z m 18,-215 v 215 h -18 v -215 0 z m -21,-31 18,-4 v 0 1 1 1 l 1,1 v 1 1 1 1 l 1,1 v 1 2 1 1 1 1 l 1,1 v 1 1 1 1 2 1 1 1 1 1 1 2 1 1 1 1 h -18 v -1 -1 -1 -1 -1 -1 -1 -1 -1 -1 -1 -1 -1 -1 -1 -1 -1 l -1,-1 v -1 -1 -1 -1 -1 -1 -1 l -1,-1 v 0 -1 -1 -1 l -1,-1 z m 0,0 z m -9,-23 15,-10 v 0 l 1,1 v 1 l 1,1 v 0 l 1,1 v 1 1 l 1,1 v 1 h 1 v 1 l 1,1 v 1 1 l 1,1 v 1 1 l 1,1 v 0 l 1,1 v 1 1 1 l 1,1 v 1 1 l 1,1 v 1 1 1 l 1,1 v 1 l -18,4 v -1 -1 -1 h -1 v -1 -1 -1 -1 h -1 v -1 -1 -1 h -1 v -1 -1 l -1,-1 v 0 -1 -1 h -1 v -1 -1 h -1 v -1 -1 h -1 v -1 0 l -1,-1 v -1 0 z m 0,0 z m -14,-13 8,-16 v 0 h 1 l 1,1 h 1 v 1 h 1 l 1,1 h 1 v 1 h 1 l 1,1 v 0 l 1,1 h 1 l 1,1 v 1 h 1 l 1,1 v 0 l 1,1 v 1 h 1 l 1,1 v 1 h 1 v 1 l 1,1 1,1 v 0 l 1,1 v 1 l 1,1 v 0 l -15,10 v 0 l -1,-1 v 0 -1 l -1,-1 v 0 l -1,-1 v 0 0 l -1,-1 v 0 l -1,-1 v 0 l -1,-1 v 0 -1 h -1 v -1 h -1 v 0 l -1,-1 v 0 h -1 v -1 h -1 v -1 h -1 v 0 l -1,-1 v 0 h -1 v -1 z m 8,-16 z m -30,11 v -18 0 h 1 1 1 1 1 1 1 1 1 1 l 1,1 h 1 1 1 1 1 l 1,1 h 1 1 1 l 1,1 v 0 h 1 l 1,1 h 1 1 l 1,1 h 1 1 v 1 h 1 l 1,1 -8,16 -1,-1 v 0 h -1 l -1,-1 v 0 h -1 v 0 l -1,-1 h -1 v 0 h -1 v 0 l -1,-1 h -1 v 0 h -1 -1 v 0 h -1 l -1,-1 v 0 h -1 -1 -1 v 0 h -1 -1 -1 v 0 h -1 -1 z m -32,12 -10,-14 v 0 l 1,-1 1,-1 1,-1 2,-1 1,-1 h 1 l 2,-1 1,-1 1,-1 h 1 l 2,-1 1,-1 h 1 l 2,-1 1,-1 h 1 l 2,-1 h 1 l 1,-1 h 2 1 l 1,-1 h 2 1 2 l 1,-1 h 1 2 1 1 2 1 v 18 h -1 -1 -1 -1 -1 v 0 h -1 -1 l -1,1 h -1 -1 -1 l -1,1 h -1 -1 l -1,1 h -1 l -1,1 h -1 -1 l -1,1 h -1 l -1,1 -1,1 h -1 l -1,1 h -1 l -1,1 -1,1 -1,1 h -1 z m 0,0 z m -36,34 h -18 l 2,-5 1,-2 1,-2 2,-1 1,-2 2,-2 1,-1 1,-2 2,-1 1,-2 1,-1 2,-2 1,-1 1,-2 1,-1 2,-1 1,-2 1,-1 2,-1 1,-2 1,-1 2,-1 1,-1 1,-2 1,-1 2,-1 1,-1 1,-1 2,-1 1,-1 1,-1 1,-1 2,-1 10,14 -1,1 -1,1 -1,1 -1,1 -1,1 -1,1 -1,1 -2,1 -1,1 -1,1 -1,1 -1,1 -1,1 -2,1 -1,1 -1,2 -1,1 -1,1 -2,2 -1,1 -1,1 -1,2 -2,1 -1,1 -1,2 -1,1 -2,2 -1,2 -1,1 -2,2 -1,1 -1,2 z m -18,0 v -3 l 2,-2 z m 0,241 V 825 h 18 v 241 0 z m 14,13 -15,-11 v 0 0 -1 0 0 0 0 0 h 1 v 0 0 0 0 0 0 0 0 0 0 0 0 0 0 0 -1 0 1 0 -1 0 0 0 0 h 18 v 1 0 0 1 0 1 0 l -1,1 v 0 0 1 0 1 0 1 0 0 l -1,1 v 0 1 0 0 l -1,1 v 0 0 1 0 h -1 v 1 0 0 l -1,1 z m -15,-11 z m 2,19 -6,-17 v 0 0 h 1 v 0 -1 0 h 1 v 0 0 0 0 h 1 v 0 0 0 -1 0 h 1 v 0 0 0 0 0 0 0 0 0 0 0 0 0 0 0 l 15,11 h -1 v 0 1 h -1 v 0 1 h -1 v 0 l -1,1 v 0 0 l -1,1 v 0 0 l -1,1 v 0 h -1 v 0 0 l -1,1 v 0 h -1 v 0 h -1 v 1 0 h -1 v 0 h -1 v 1 z m 0,0 z m -18,3 -1,-18 v 0 0 h 1 v 0 h 1 v 0 h 1 v 0 h 1 v 0 h 1 v 0 h 1 v 0 -1 h 1 v 0 h 1 v 0 h 1 v 0 0 h 1 v 0 h 1 v -1 0 h 1 v 0 0 h 1 v 0 0 l 6,17 h -1 v 0 h -1 v 0 l -1,1 v 0 0 h -1 v 0 h -1 v 0 h -1 v 1 h -1 v 0 h -1 -1 v 0 h -1 v 0 h -1 v 1 h -1 -1 v 0 h -1 v 0 h -1 -1 v 0 h -1 z m -25,1 v -18 0 h 1 v 0 h 1 1 1 1 1 1 1 v 0 h 1 1 1 v 0 h 1 1 1 1 v 0 h 1 1 v 0 h 1 1 v 0 h 1 1 v 0 h 1 v 0 l 1,-1 h 1 l 1,18 v 0 h -1 l -1,1 v 0 h -1 -1 v 0 h -1 -1 -1 v 0 h -1 -1 -1 v 0 h -1 -1 -1 -1 -1 v 0 h -1 -1 -1 -1 -1 -1 -1 -1 v 0 h -1 z m -26,-1 2,-18 v 0 0 l 1,1 h 1 v 0 h 1 v 0 h 1 1 v 0 h 1 1 v 0 h 1 1 1 v 0 h 1 1 1 v 0 h 1 1 1 1 v 0 h 1 1 1 1 1 1 1 v 18 h -1 -1 -1 -1 -1 -1 -1 -1 -1 v 0 h -1 -1 -1 -1 -1 v 0 h -1 -1 -1 -1 v 0 h -1 -1 -1 v 0 h -1 -1 v 0 h -1 l -1,-1 v 0 z m -18,-3 6,-17 v 0 0 h 1 v 0 0 h 1 v 0 0 l 1,1 v 0 0 h 1 v 0 h 1 v 0 h 1 v 0 0 h 1 v 1 h 1 v 0 h 1 v 0 h 1 v 0 h 1 v 0 h 1 v 0 h 1 v 0 h 1 l -2,18 h -1 v 0 h -1 -1 v 0 h -1 v 0 h -1 -1 v 0 l -1,-1 v 0 h -1 -1 v 0 h -1 v 0 h -1 v 0 l -1,-1 v 0 h -1 v 0 h -1 v 0 h -1 v 0 l -1,-1 v 0 h -1 v 0 0 z m 1,0 h -1 z m -13,-8 14,-11 v 0 0 0 0 0 0 0 0 0 0 0 0 h 1 v 0 0 0 0 0 1 0 h 1 v 0 0 0 0 0 h 1 v 0 0 1 h 1 v 0 0 l -6,17 v 0 h -1 v -1 0 h -1 v 0 h -1 v -1 h -1 v 0 0 h -1 v -1 h -1 v 0 0 h -1 v -1 h -1 v 0 -1 h -1 v 0 l -1,-1 v 0 0 l -1,-1 v 0 0 l -1,-1 z m 14,-11 z m -18,-2 h 18 v 0 0 0 0 0 1 0 -1 0 1 0 0 0 0 0 0 0 0 0 0 0 0 0 0 0 0 0 0 0 0 0 1 0 l -14,11 v -1 h -1 v 0 -1 0 0 l -1,-1 v 0 0 -1 0 h -1 v -1 0 -1 0 l -1,-1 v 0 0 -1 0 -1 0 0 -1 0 -1 0 -1 0 0 z m 18,-362 v 362 h -18 v -362 0 z m -15,-12 15,9 v 1 0 0 0 0 0 0 0 0 0 0 0 0 0 0 0 0 1 0 0 0 0 0 0 0 0 0 0 0 0 1 0 0 h -18 v -1 0 0 -1 0 -1 0 0 -1 0 -1 0 -1 0 0 -1 h 1 v -1 0 0 -1 0 0 l 1,-1 v 0 0 -1 0 h 1 v -1 z m 15,9 v 1 0 z m -3,-18 6,17 v 0 0 0 h -1 v 0 0 0 0 1 h -1 v 0 0 0 0 0 0 0 h -1 v 0 0 0 0 0 0 0 0 0 0 0 0 0 0 0 l -15,-9 v 0 -1 h 1 v -1 0 h 1 v -1 0 l 1,-1 v 0 0 h 1 v -1 h 1 v 0 -1 h 1 v 0 0 l 1,-1 v 0 0 h 1 v 0 l 1,-1 v 0 0 h 1 v 0 l 1,-1 v 0 0 z m -1,0 h 1 v 0 z m 16,-4 3,18 v 0 h -1 v 0 l -1,1 v 0 h -1 v 0 h -1 v 0 0 h -1 v 0 h -1 v 0 0 h -1 v 1 0 h -1 v 0 0 h -1 v 0 h -1 v 0 0 0 h -1 v 1 0 h -1 v 0 0 l -6,-17 v 0 h 1 v 0 l 1,-1 v 0 0 h 1 v 0 h 1 v 0 0 l 1,-1 v 0 h 1 v 0 h 1 v 0 h 1 v 0 h 1 v -1 h 1 v 0 h 1 v 0 h 1 v 0 h 1 1 v 0 h 1 z m 22,-1 v 18 0 0 h -1 -1 -1 v 0 h -1 -1 -1 v 1 h -1 -1 v 0 h -1 -1 v 0 h -1 v 0 h -1 -1 v 0 h -1 v 0 h -1 v 0 h -1 -1 v 0 h -1 v 0 h -1 v 0 0 l -3,-18 h 1 v 0 h 1 1 v 0 h 1 1 v 0 h 1 v 0 h 1 1 v 0 h 1 1 v 0 h 1 1 1 v 0 h 1 1 v 0 l 1,-1 h 1 1 v 0 h 1 1 1 z m 23,1 -2,18 v 0 h -1 v 0 h -1 v 0 h -1 v 0 h -1 v 0 h -1 -1 v 0 h -1 v 0 h -1 -1 v 0 h -1 v 0 h -1 -1 -1 v 0 h -1 l -1,-1 v 0 h -1 -1 -1 v 0 h -1 -1 -1 v -18 h 1 1 1 1 v 0 h 1 1 1 v 1 h 1 1 1 v 0 h 1 1 1 v 0 h 1 1 v 0 h 1 1 v 0 h 1 1 v 0 h 1 1 v 0 h 1 v 0 z m 16,4 -8,17 h 1 v 0 h -1 v 0 0 -1 h -1 v 0 0 0 h -1 v 0 0 h -1 v 0 0 h -1 v -1 0 h -1 v 0 h -1 v 0 0 h -1 v 0 0 h -1 v 0 h -1 v -1 h -1 v 0 l 2,-18 1,1 v 0 h 1 v 0 h 1 v 0 h 1 v 0 h 1 v 0 h 1 l 1,1 v 0 0 h 1 v 0 h 1 v 0 h 1 v 0 l 1,1 v 0 h 1 v 0 0 h 1 v 0 h 1 v 1 h 1 v 0 0 z m -1,0 h 1 v 0 z m 11,9 -15,10 v 0 0 0 -1 0 0 0 0 0 0 0 0 0 0 0 0 0 0 h -1 v 0 0 0 -1 0 0 0 h -1 v 0 0 0 0 0 h -1 l 8,-17 v 0 l 1,1 v 0 0 h 1 v 0 1 h 1 v 0 0 h 1 v 1 h 1 v 0 0 l 1,1 v 0 0 l 1,1 v 0 0 0 h 1 v 1 0 l 1,1 v 0 0 l 1,1 v 0 0 z m 4,12 h -18 v 0 0 0 -1 0 0 0 0 0 0 0 0 0 0 -1 0 1 -1 0 0 0 0 0 0 0 h -1 v 0 0 h 1 -1 v 0 0 0 l 15,-10 v 0 h 1 v 1 0 0 l 1,1 v 0 0 1 0 0 1 h 1 v 1 0 0 1 0 0 1 0 1 h 1 v 1 0 0 1 0 1 0 0 z m -18,42 v -42 h 18 v 42 l -3,6 z m 15,6 -15,17 v -23 z m 49,-63 9,16 v 0 l -2,1 -2,1 -1,1 -2,1 -2,1 -2,1 -1,1 -2,2 -2,1 -2,1 -2,1 -1,2 -2,1 -2,1 -2,2 -2,1 -1,2 -2,1 -2,2 -2,1 -2,2 -1,2 -2,1 -2,2 -2,2 -2,1 -1,2 -2,2 -2,2 -2,2 -2,2 -2,2 -13,-13 2,-2 2,-2 2,-2 2,-2 2,-2 2,-2 2,-1 2,-2 2,-2 2,-2 1,-2 2,-1 2,-2 2,-2 2,-1 2,-2 2,-1 2,-2 2,-1 2,-2 2,-1 2,-2 2,-1 2,-1 2,-2 2,-1 2,-1 2,-1 1,-2 2,-1 2,-1 z m 0,0 v 0 l -1,1 z m 67,-17 v 18 0 h -2 -2 -2 -1 -2 -2 l -2,1 h -2 -2 -2 l -1,1 h -2 -2 l -2,1 h -2 l -1,1 h -2 l -2,1 h -2 l -2,1 h -1 l -2,1 -2,1 h -2 l -2,1 -1,1 -2,1 h -2 l -2,1 -2,1 -1,1 -2,1 -9,-16 2,-1 2,-1 2,-1 2,-1 2,-1 2,-1 2,-1 h 2 l 3,-1 2,-1 2,-1 h 2 l 2,-1 2,-1 h 2 l 2,-1 h 2 l 2,-1 h 2 l 2,-1 h 3 l 2,-1 h 2 2 2 l 2,-1 h 2 2 3 2 2 z m 43,5 -5,17 v 0 h -1 -1 l -1,-1 h -1 -1 -1 l -1,-1 h -2 -1 -1 -1 -1 l -1,-1 h -1 -1 -2 -1 -1 -1 l -2,-1 h -1 -1 -1 -1 -2 -1 -1 -2 -1 -1 -2 -1 v -18 h 2 1 1 2 1 2 1 1 2 1 2 1 l 1,1 h 2 1 1 2 1 l 1,1 h 2 1 1 2 l 1,1 h 1 1 2 l 1,1 h 1 1 1 z m -5,17 z m 39,-3 -10,15 h 1 -1 l -1,-1 h -1 -1 l -1,-1 v 0 l -1,-1 h -1 l -1,-1 h -1 l -1,-1 h -1 -1 v -1 h -1 l -1,-1 h -1 -1 l -1,-1 h -1 -1 l -1,-1 h -1 -1 l -1,-1 h -1 -1 l -1,-1 h -1 -1 l -1,-1 h -1 l 5,-17 h 1 1 l 1,1 h 1 1 l 2,1 h 1 l 1,1 h 1 1 l 1,1 h 1 l 1,1 h 2 1 l 1,1 h 1 l 1,1 h 1 l 1,1 h 1 l 1,1 h 1 l 1,1 h 1 l 1,1 h 1 l 1,1 h 1 l 1,1 1,1 z m 0,0 z m 26,23 -14,11 v 0 0 l -1,-1 v -1 h -1 v -1 l -1,-1 h -1 v -1 l -1,-1 h -1 v -1 h -1 l -1,-1 v -1 h -1 l -1,-1 v 0 l -1,-1 -1,-1 v 0 l -1,-1 h -1 l -1,-1 v 0 l -1,-1 h -1 l -1,-1 v 0 l -1,-1 -1,-1 h -1 l -1,-1 10,-15 1,1 h 1 l 1,1 1,1 h 1 l 1,1 v 0 l 1,1 1,1 h 1 l 1,1 1,1 h 1 v 1 l 1,1 1,1 h 1 l 1,1 1,1 v 0 l 1,1 1,1 1,1 v 0 l 1,1 1,1 1,1 v 1 h 1 l 1,1 1,1 z m 0,0 v 0 h 1 z m 4,27 13,12 -15,-2 v -1 l -1,-1 v -1 -1 l -1,-1 v -1 h -1 v -1 l -1,-1 v -1 l -1,-1 v 0 -1 l -1,-1 v -1 l -1,-1 v 0 l -1,-1 v -1 l -1,-1 v -1 h -1 l -1,-1 v -1 l -1,-1 v 0 l -1,-1 v -1 l -1,-1 v 0 l -1,-1 -1,-1 14,-11 1,1 1,1 v 0 l 1,1 1,1 v 1 l 1,1 1,1 v 0 l 1,1 v 1 l 1,1 1,1 v 1 l 1,1 v 1 l 1,1 v 1 h 1 l 1,1 v 1 l 1,1 v 1 l 1,1 v 1 l 1,1 v 1 l 1,1 v 1 l 1,1 v 1 l 1,1 z m 13,12 -9,10 -6,-12 z m 20,-43 11,14 v 0 l -1,1 h -1 l -1,1 -1,1 -1,1 -1,1 h -1 l -1,1 -1,1 -1,1 v 1 l -1,1 h -1 l -1,1 -1,1 -1,1 -1,1 -1,1 -1,1 -1,1 -1,1 -1,1 -1,1 -1,1 -1,1 -1,1 -1,1 -1,1 -1,1 -1,1 -1,1 -1,1 -13,-12 1,-2 1,-1 1,-1 1,-1 1,-1 1,-1 1,-1 1,-1 1,-1 1,-1 1,-1 1,-1 1,-1 1,-1 1,-1 1,-1 1,-1 1,-1 1,-1 1,-1 1,-1 1,-1 2,-1 h 1 l 1,-1 1,-1 1,-1 1,-1 1,-1 1,-1 h 1 z m 0,0 v 0 h -1 z m 32,-22 8,16 v 0 l -1,1 v 0 l -1,1 h -1 l -1,1 h -1 l -1,1 h -1 l -1,1 h -1 l -1,1 v 1 h -1 l -1,1 h -1 l -1,1 -1,1 h -1 l -1,1 h -1 l -1,1 -1,1 h -1 l -1,1 -1,1 v 1 h -1 l -1,1 -1,1 h -1 l -1,1 -1,1 -11,-14 1,-1 1,-1 1,-1 h 1 l 1,-1 1,-1 1,-1 h 1 l 1,-1 1,-1 1,-1 h 1 l 1,-1 1,-1 h 1 l 1,-1 1,-1 h 1 l 1,-1 1,-1 h 1 l 1,-1 1,-1 h 1 l 1,-1 h 1 l 1,-1 h 1 l 1,-1 1,-1 h 1 z m 32,-12 5,17 v 0 l -1,1 h -1 -1 -1 l -1,1 h -1 v 0 h -1 l -1,1 h -1 -1 l -1,1 h -1 -1 l -1,1 v 0 h -1 l -1,1 h -1 -1 l -1,1 h -1 -1 l -1,1 v 0 l -1,1 h -1 -1 l -1,1 h -1 l -1,1 h -1 l -8,-16 h 1 l 1,-1 h 1 l 1,-1 h 1 l 1,-1 h 1 l 1,-1 h 1 1 l 1,-1 h 1 l 1,-1 h 1 l 1,-1 h 1 1 l 1,-1 h 1 1 l 1,-1 h 1 1 l 1,-1 h 1 1 l 1,-1 h 1 1 l 1,-1 h 2 1 z m 5,17 z m 29,-21 v 18 0 h -1 -1 -1 -1 -1 -1 -1 -1 -1 v 0 h -1 -1 -1 -1 l -1,1 h -1 -1 -1 -1 v 0 h -1 -1 l -1,1 h -1 -1 -1 -1 l -1,1 v 0 h -1 -1 -1 l -5,-17 h 1 l 1,-1 h 1 1 2 1 l 1,-1 h 1 1 1 1 l 1,-1 h 1 1 1 1 1 1 l 1,-1 h 1 1 1 1 1 1 1 1 1 1 2 1 z m 64,13 -7,16 v 0 l -2,-1 h -1 l -2,-1 -1,-1 h -2 l -1,-1 h -2 l -1,-1 h -2 l -2,-1 h -1 l -2,-1 h -2 l -1,-1 h -2 -2 l -2,-1 h -1 -2 l -2,-1 h -2 -2 -2 -2 l -2,-1 h -2 -2 -2 -2 -2 -2 -2 v -18 h 2 2 3 2 2 2 3 l 2,1 h 2 2 2 l 2,1 h 3 2 l 2,1 h 2 2 l 2,1 h 2 l 2,1 h 2 l 2,1 h 1 l 2,1 2,1 h 2 l 2,1 2,1 1,1 h 2 l 2,1 2,1 z m -7,16 z m 51,20 -15,10 v 0 l -1,-1 -1,-1 -1,-1 v -1 l -1,-1 -1,-2 -1,-1 -1,-1 -1,-1 -1,-1 -1,-1 -1,-1 -2,-1 -1,-1 -1,-1 -1,-1 -1,-1 -1,-1 -1,-1 h -2 l -1,-1 -1,-1 -1,-1 -2,-1 -1,-1 h -1 l -1,-1 -2,-1 -1,-1 h -2 l -1,-1 -1,-1 7,-16 2,1 2,1 h 1 l 2,1 2,1 1,1 2,1 1,1 2,1 1,1 2,1 1,1 1,1 2,1 1,1 2,1 1,2 1,1 2,1 1,1 1,1 1,1 2,2 1,1 1,1 1,2 1,1 1,1 2,2 1,1 1,1 z m -15,10 z m 38,42 -18,4 v 0 -2 -1 l -1,-2 v -1 l -1,-2 v -2 l -1,-1 v -2 l -1,-1 v -2 l -1,-1 v -2 l -1,-1 v -2 l -1,-1 -1,-2 v -1 l -1,-1 -1,-2 v -1 l -1,-2 -1,-1 v -1 l -1,-2 -1,-1 -1,-1 -1,-1 v -2 l -1,-1 -1,-1 -1,-1 -1,-2 15,-10 1,1 1,2 1,1 1,1 1,2 1,1 v 2 l 1,1 1,2 1,2 1,1 1,2 1,1 v 2 l 1,1 1,2 1,2 v 1 l 1,2 1,2 v 1 l 1,2 v 2 l 1,2 1,1 v 2 l 1,2 v 2 l 1,2 v 1 l 1,2 z m 7,61 h -18 v 0 -2 -1 -2 -2 -2 l -1,-2 v -2 -2 -1 -2 -2 -2 -2 l -1,-2 v -1 -2 -2 -2 l -1,-1 v -2 -2 -2 l -1,-2 v -1 -2 -2 l -1,-1 v -2 -2 l -1,-2 v -1 l -1,-2 18,-4 v 2 l 1,2 v 1 l 1,2 v 2 2 l 1,2 v 2 2 1 l 1,2 v 2 2 l 1,2 v 2 2 2 2 l 1,2 v 2 2 1 2 2 2 2 l 1,2 v 2 2 2 2 z m -18,232 V 834 h 18 v 232 0 z m 419,17 -11,-14 v 0 0 0 0 0 0 0 0 0 0 0 0 0 0 0 0 0 0 0 -1 0 0 0 0 0 0 0 0 0 0 0 -1 0 h 18 v 1 1 0 1 0 1 0 1 0 1 0 l -1,1 v 1 0 1 h -1 v 1 0 1 h -1 v 1 0 l -1,1 v 0 1 h -1 v 0 1 h -1 v 0 1 z m 0,0 z m -17,7 -3,-18 v 0 0 h 1 v 0 h 1 v 0 h 1 v 0 -1 h 1 v 0 0 h 1 v 0 0 h 1 v 0 0 -1 h 1 v 0 0 0 h 1 v 0 0 0 0 0 -1 0 h 1 v 0 l 11,14 -1,1 v 0 0 l -1,1 v 0 h -1 v 0 l -1,1 v 0 h -1 v 0 l -1,1 v 0 h -1 v 0 l -1,1 v 0 h -1 v 0 h -1 -1 v 1 h -1 v 0 h -1 -1 v 0 h -1 v 1 h -1 v 0 z m -27,1 v -18 0 h 1 1 1 1 1 1 v 0 h 1 1 1 1 1 1 1 v 0 h 1 1 1 v 0 h 1 1 v 0 h 1 1 v 0 h 1 v -1 h 1 v 0 h 1 1 v 0 l 3,18 h -1 v 0 h -1 -1 v 0 h -1 -1 l -1,1 v 0 h -1 -1 -1 v 0 h -1 -1 -1 -1 -1 -1 v 0 h -1 -1 -1 -1 -1 -1 -1 -1 -1 -1 -1 z m -29,-1 3,-18 v 0 h 1 v 0 h 1 v 0 h 1 v 1 h 1 1 v 0 h 1 1 v 0 h 1 1 v 0 h 1 1 1 1 1 v 0 h 1 1 1 1 1 1 1 1 1 1 2 v 18 h -2 -1 -1 -1 -1 -1 -1 -1 -1 -1 -1 -1 -1 -1 -1 -1 -1 v 0 h -1 -1 -1 -1 v 0 h -1 l -1,-1 h -1 v 0 h -1 -1 v 0 h -1 z m -16,-7 12,-13 h 1 -1 1 v 0 0 0 0 0 0 0 0 0 0 h 1 v 1 0 0 0 h 1 v 0 0 0 h 1 v 0 0 l 1,1 v 0 0 h 1 v 0 h 1 v 0 0 l -3,18 v 0 h -1 v 0 l -1,-1 h -1 v 0 h -1 v 0 h -1 v 0 l -1,-1 v 0 h -1 v 0 h -1 l -1,-1 v 0 h -1 v 0 h -1 v -1 h -1 v 0 h -1 v -1 h -1 v 0 -1 h -1 v -1 z m 12,-13 v 0 h 1 z m -18,-3 h 18 v 0 1 0 0 0 0 0 0 1 0 0 0 0 0 0 0 0 0 0 0 0 0 0 0 0 0 0 0 1 0 0 0 0 l -12,13 v -1 h -1 v 0 l -1,-1 v 0 -1 h -1 v 0 -1 0 l -1,-1 v 0 -1 0 l -1,-1 v 0 -1 0 -1 h -1 v -1 0 -1 0 -1 -1 0 -1 0 0 -1 z m 18,-28 v 28 h -18 v -28 l 2,-7 z m -16,-7 16,-16 v 23 z m -41,52 -7,-16 v 0 l 2,-1 1,-1 2,-1 2,-1 1,-1 2,-1 h 1 l 2,-1 2,-1 1,-1 2,-1 1,-1 2,-1 1,-1 2,-1 1,-1 2,-2 1,-1 2,-1 1,-1 2,-1 1,-1 2,-2 1,-1 2,-1 1,-1 1,-2 2,-1 1,-1 1,-2 2,-1 1,-2 13,13 -1,1 -2,2 -1,1 -2,2 -1,1 -2,2 -1,1 -2,2 -2,1 -1,1 -2,2 -1,1 -2,1 -2,2 -1,1 -2,1 -2,1 -1,1 -2,2 -2,1 -2,1 -1,1 -2,1 -2,1 -2,1 -1,1 -2,1 -2,1 -2,1 -2,1 -2,1 z m -7,-16 v 0 h -1 z m -60,30 v -18 0 h 2 2 2 2 2 2 l 2,-1 h 2 2 2 2 l 2,-1 h 2 2 l 2,-1 h 2 l 2,-1 h 1 2 l 2,-1 h 2 l 2,-1 h 1 l 2,-1 2,-1 h 2 l 1,-1 2,-1 h 2 l 2,-1 1,-1 h 2 l 7,16 -1,1 -2,1 h -2 l -2,1 -2,1 -2,1 h -2 l -2,1 -2,1 h -2 l -2,1 -2,1 h -2 l -2,1 h -2 l -3,1 h -2 -2 l -2,1 h -2 -2 l -2,1 h -3 -2 -2 l -2,1 h -2 -3 -2 -2 -2 z m -55,-8 5,-17 v 0 h 1 l 2,1 h 1 l 2,1 h 1 2 l 1,1 h 2 1 l 2,1 h 1 2 l 1,1 h 2 1 2 1 l 2,1 h 2 1 2 1 2 l 2,1 h 1 2 2 1 2 2 2 1 v 18 h -2 -1 -2 -2 -2 -2 -2 -1 l -2,-1 h -2 -2 -2 -1 -2 l -2,-1 h -2 -1 -2 l -2,-1 h -2 -1 l -2,-1 h -2 -1 l -2,-1 h -2 l -1,-1 h -2 -2 l -1,-1 h -2 z m -45,-24 11,-14 v 0 l 1,1 1,1 1,1 2,1 h 1 l 1,1 1,1 1,1 h 1 l 1,1 1,1 1,1 h 2 l 1,1 1,1 h 1 l 1,1 2,1 h 1 l 1,1 h 1 l 2,1 h 1 l 1,1 1,1 h 2 l 1,1 h 1 l 2,1 h 1 2 l 1,1 -5,17 h -2 l -2,-1 h -1 l -2,-1 -1,-1 h -2 l -1,-1 h -2 l -1,-1 -2,-1 h -1 l -2,-1 -1,-1 h -2 l -1,-1 -1,-1 -2,-1 h -1 l -2,-1 -1,-1 -1,-1 -2,-1 -1,-1 h -1 l -2,-1 -1,-1 -1,-1 -1,-1 -2,-1 -1,-1 -1,-1 z m 0,0 v 0 1 z m -30,-40 16,-7 v 0 l 1,1 v 1 l 1,2 1,1 v 1 l 1,1 1,1 v 1 l 1,2 1,1 v 1 l 1,1 1,1 1,1 v 1 l 1,1 1,1 1,1 v 1 l 1,1 1,1 1,1 1,1 1,1 1,1 1,1 1,1 v 1 l 1,1 1,1 h 1 l 1,1 -11,14 -1,-1 -2,-1 -1,-1 -1,-1 -1,-1 -1,-1 -1,-1 -1,-1 -1,-2 -1,-1 -1,-1 -1,-1 -1,-1 -1,-2 -1,-1 -1,-1 -1,-1 -1,-2 -1,-1 -1,-1 -1,-1 -1,-2 v -1 l -1,-1 -1,-2 -1,-1 -1,-2 v -1 l -1,-1 -1,-2 v -1 z m 0,0 v 0 l -1,-1 z m -11,-55 h 18 v 0 2 2 l 1,1 v 2 2 1 2 2 1 2 l 1,1 v 2 2 1 2 l 1,1 v 2 1 l 1,1 v 2 1 l 1,2 v 1 1 l 1,2 v 1 l 1,1 v 2 l 1,1 v 1 l 1,2 v 1 l -16,7 -1,-1 v -2 l -1,-1 -1,-2 v -2 l -1,-1 v -2 l -1,-1 v -2 l -1,-2 v -1 l -1,-2 v -2 -1 l -1,-2 v -2 -1 l -1,-2 v -2 -2 -1 l -1,-2 v -2 -2 -2 -1 -2 -2 -2 l -1,-2 v -2 z m 14,-59 16,9 v 0 l -1,1 -1,1 v 2 l -1,1 v 1 l -1,2 -1,1 v 2 l -1,1 v 2 l -1,1 v 1 l -1,2 v 2 1 l -1,2 v 1 2 l -1,2 v 1 2 2 l -1,1 v 2 2 1 2 2 2 l -1,2 v 2 1 h -18 v -2 -2 l 1,-2 v -2 -2 -2 -2 -2 -2 l 1,-2 v -2 -2 l 1,-2 v -2 -1 l 1,-2 v -2 l 1,-2 v -2 l 1,-2 v -1 l 1,-2 v -2 l 1,-2 1,-1 v -2 l 1,-2 1,-1 v -2 l 1,-2 1,-1 z m 0,0 z m 40,-42 10,15 v 0 l -2,1 -1,1 -2,1 -1,1 -1,1 -2,1 -1,1 -1,1 -1,1 -2,1 -1,1 -1,1 -1,1 -1,1 -1,1 -1,1 -1,1 -1,1 -1,2 -1,1 -1,1 -1,1 -1,1 -1,1 -1,2 -1,1 v 1 l -1,1 -1,2 -1,1 -1,1 v 2 l -16,-9 1,-1 1,-2 v -2 l 1,-1 1,-2 1,-1 1,-2 1,-1 2,-2 1,-1 1,-1 1,-2 1,-1 1,-2 2,-1 1,-1 1,-2 1,-1 2,-1 1,-1 1,-2 2,-1 1,-1 2,-1 1,-1 2,-1 1,-2 2,-1 1,-1 2,-1 1,-1 z m 0,0 v 0 h 1 z m 64,-24 3,18 v 0 l -2,1 h -2 -2 l -2,1 h -2 l -2,1 -2,1 h -2 l -2,1 h -2 l -2,1 h -2 l -2,1 -2,1 h -2 l -2,1 -1,1 h -2 l -2,1 -2,1 h -1 l -2,1 -2,1 -1,1 h -2 l -2,1 -1,1 -2,1 -1,1 -2,1 h -1 l -1,1 -10,-15 2,-1 1,-1 2,-1 2,-1 2,-1 1,-1 2,-1 2,-1 h 2 l 2,-1 1,-1 2,-1 2,-1 h 2 l 2,-1 2,-1 2,-1 h 2 l 2,-1 2,-1 h 2 l 3,-1 2,-1 h 2 l 2,-1 h 2 l 2,-1 3,-1 h 2 l 2,-1 h 3 z m 86,-7 v 18 0 h -3 -2 -3 -3 -3 -3 -3 -3 -2 l -3,1 h -3 -3 -2 -3 l -3,1 h -2 -3 -2 -3 l -2,1 h -3 -2 l -3,1 h -2 -2 l -3,1 h -2 -2 l -3,1 h -2 l -2,1 h -3 l -3,-18 h 2 3 l 2,-1 h 3 l 2,-1 h 2 l 3,-1 h 2 3 l 3,-1 h 2 3 2 l 3,-1 h 3 2 3 l 3,-1 h 3 2 3 3 l 3,-1 h 3 3 2 3 3 3 3 3 z m 36,18 h -36 v -18 h 36 l 9,9 z m 9,-9 v 9 h -9 z m 0,-22 v 22 h -18 v -22 0 z m -21,-28 17,-4 v 0 1 1 h 1 v 1 1 1 1 l 1,1 v 1 1 1 1 1 l 1,1 v 1 1 1 1 1 1 1 1 1 l 1,1 v 1 1 2 1 1 1 1 1 h -18 v -1 -1 -1 -1 -1 -1 -1 -1 l -1,-1 v -1 -1 0 -1 -1 -1 -1 -1 -1 -1 0 l -1,-1 v -1 -1 -1 0 -1 l -1,-1 v -1 0 -1 -1 z m 0,0 z m -10,-17 14,-12 v 0 0 l 1,1 v 1 h 1 v 1 l 1,1 v 0 l 1,1 v 1 l 1,1 v 0 l 1,1 v 1 l 1,1 v 0 l 1,1 v 1 1 l 1,1 v 0 l 1,1 v 1 1 l 1,1 v 1 0 l 1,1 v 1 1 1 l 1,1 v 1 l -17,4 h -1 v -1 -1 0 -1 l -1,-1 v 0 -1 0 l -1,-1 v -1 0 -1 h -1 v -1 0 l -1,-1 v 0 -1 -1 h -1 v -1 0 l -1,-1 v 0 0 l -1,-1 v 0 l -1,-1 v 0 -1 z m -17,-10 5,-17 h 1 v 0 h 1 1 l 1,1 h 1 1 l 1,1 h 1 l 1,1 v 0 h 1 l 1,1 h 1 l 1,1 h 1 v 1 h 1 l 1,1 h 1 v 1 h 1 l 1,1 h 1 v 1 h 1 l 1,1 v 0 l 1,1 1,1 v 0 l 1,1 1,1 -14,12 v -1 0 h -1 v -1 h -1 v 0 l -1,-1 v 0 -1 h -1 v 0 l -1,-1 v 0 h -1 v -1 h -1 v 0 l -1,-1 h -1 v 0 h -1 v -1 h -1 v 0 l -1,-1 h -1 v 0 h -1 l -1,-1 v 0 h -1 z m 5,-17 h 1 l -1,-1 z m -35,13 v -18 0 h 2 1 1 1 2 1 1 1 1 l 1,1 h 2 1 1 1 1 1 1 1 l 1,1 h 2 1 1 1 l 1,1 h 1 1 1 1 l 1,1 h 1 1 v 1 l -5,17 v 0 l -1,-1 h -1 -1 -1 v 0 l -1,-1 h -1 -1 -1 v 0 h -1 l -1,-1 h -1 -1 -1 -1 -1 -1 -1 -1 l -1,-1 h -1 -1 -1 -1 -1 -1 -1 -1 -2 z m -43,5 -5,-17 v 0 h 2 l 1,-1 h 1 2 l 1,-1 h 1 2 1 l 2,-1 h 1 2 l 1,-1 h 2 1 2 1 l 1,-1 h 2 2 1 2 1 2 l 1,-1 h 2 1 2 2 1 2 2 1 v 18 h -1 -2 -1 -2 -1 -2 -1 -2 l -1,1 h -1 -2 -1 -2 -1 -1 -2 l -1,1 h -1 -2 -1 -1 l -2,1 h -1 -1 -1 l -2,1 h -1 -1 l -1,1 h -2 -1 z m 0,0 v 0 h 2 z m -34,13 -7,-17 v 0 h 1 l 1,-1 h 1 l 1,-1 h 1 1 l 1,-1 h 1 l 1,-1 h 1 l 1,-1 h 1 1 l 1,-1 h 2 l 1,-1 h 1 1 l 1,-1 h 1 l 2,-1 h 1 1 l 1,-1 h 1 l 2,-1 h 1 1 l 1,-1 h 2 l 1,-1 h 1 l 5,17 -1,1 h -1 -2 l -1,1 h -1 l -1,1 h -1 -1 l -1,1 h -2 -1 l -1,1 h -1 -1 l -1,1 h -1 l -1,1 h -1 -1 l -1,1 h -1 l -1,1 h -1 -1 l -1,1 h -1 l -1,1 h -1 -1 l -1,1 h -1 z m -25,12 -9,-16 v 0 h 1 l 1,-1 v 0 h 1 l 1,-1 v 0 l 1,-1 h 1 1 v -1 h 1 1 l 1,-1 v 0 l 1,-1 h 1 1 l 1,-1 h 1 l 1,-1 v 0 l 1,-1 h 1 1 l 1,-1 h 1 l 1,-1 h 1 l 1,-1 h 1 1 l 1,-1 7,17 h -1 -1 l -1,1 h -1 l -1,1 h -1 v 1 h -1 -1 l -1,1 h -1 l -1,1 h -1 v 0 l -1,1 h -1 -1 v 1 h -1 l -1,1 h -1 v 0 l -1,1 h -1 -1 v 1 h -1 l -1,1 v 0 h -1 z m -21,7 v -18 0 0 0 0 0 h 1 v 0 0 -1 h 1 v 0 0 h 1 v 0 0 h 1 v 0 h 1 v -1 0 h 1 v 0 h 1 v -1 h 1 v 0 h 1 v 0 l 1,-1 v 0 h 1 l 1,-1 v 0 l 9,16 h -1 l -1,1 v 0 h -1 l -1,1 v 0 h -1 l -1,1 h -1 v 0 l -1,1 v 0 h -1 -1 v 1 h -1 -1 v 0 h -1 v 1 h -1 -1 v 0 h -1 -1 v 0 h -1 l -1,1 v 0 h -1 z m -14,-5 12,-14 h -1 1 v 0 0 0 0 0 0 0 0 0 0 0 0 1 -1 0 l 1,1 v 0 0 0 0 0 0 0 0 0 0 0 0 0 h 1 v 0 18 h -1 v 0 h -1 v 0 h -1 v 0 -1 h -1 v 0 h -1 v 0 h -1 v 0 h -1 v 0 0 l -1,-1 h -1 v 0 0 h -1 v -1 h -1 v 0 0 h -1 v -1 0 h -1 v -1 z m 0,0 z m -8,-12 16,-7 v 0 l 1,1 v 0 0 0 0 1 0 0 0 0 0 l 1,1 v 0 0 0 0 0 1 0 0 0 h 1 v 0 0 0 1 0 0 0 0 0 h 1 l -12,14 v 0 l -1,-1 v 0 0 l -1,-1 v 0 0 l -1,-1 v 0 0 -1 h -1 v 0 -1 h -1 v 0 -1 0 l -1,-1 v 0 0 -1 h -1 v -1 0 0 -1 h -1 v -1 0 0 z m 16,-7 z m -20,-8 18,-3 v 0 1 0 1 0 0 1 0 1 0 0 1 0 l 1,1 v 0 0 1 0 0 1 0 0 1 0 h 1 v 0 1 0 0 0 1 0 0 l -16,7 v 0 0 l -1,-1 v 0 -1 0 -1 0 l -1,-1 v 0 -1 0 0 -1 0 l -1,-1 v 0 -1 0 -1 0 -1 0 l -1,-1 v 0 -1 0 -1 0 -1 0 z m -2,-18 h 18 v 0 0 1 0 1 0 1 1 0 1 h 1 v 1 0 1 0 0 1 0 1 0 1 0 1 0 1 0 1 0 1 0 0 1 h 1 l -18,3 v 0 -1 0 l -1,-1 v -1 0 -1 0 -1 0 -1 0 -1 -1 0 -1 0 -1 0 -1 -1 0 l -1,-1 v 0 -1 -1 0 -1 0 -1 z m 3,-22 17,4 v 0 1 0 0 1 0 1 0 h -1 v 1 0 1 0 1 0 1 0 1 1 0 1 0 1 1 0 l -1,1 v 1 0 1 1 0 1 1 h -18 v -1 -1 -1 0 -1 -1 -1 l 1,-1 v 0 -1 -1 -1 0 -1 -1 0 -1 -1 0 -1 -1 0 l 1,-1 v -1 0 -1 -1 0 -1 0 l 1,-1 v -1 z m 17,4 z m -7,-22 12,13 h 1 -1 v 0 1 0 h -1 v 1 0 0 h -1 v 1 0 0 1 h -1 v 0 1 0 0 0 l -1,1 v 0 0 1 0 0 0 1 0 h -1 v 1 0 0 l -17,-4 v -1 -1 0 -1 h 1 v -1 -1 0 l 1,-1 v 0 -1 0 l 1,-1 v -1 0 l 1,-1 v 0 -1 h 1 v -1 0 l 1,-1 v 0 -1 h 1 v -1 h 1 v -1 0 l 1,-1 v 0 h 1 z m 0,1 v -1 0 z m 22,-15 8,16 v 0 h -1 l -1,1 v 0 l -1,1 h -1 -1 v 1 h -1 l -1,1 h -1 v 0 l -1,1 v 0 h -1 l -1,1 v 0 h -1 v 1 h -1 v 1 h -1 v 0 h -1 v 1 0 h -1 v 1 0 h -1 v 1 0 h -1 l -12,-13 v 0 l 1,-1 v 0 l 1,-1 v 0 h 1 v -1 h 1 l 1,-1 v 0 l 1,-1 v 0 l 1,-1 h 1 v 0 l 1,-1 h 1 v -1 h 1 l 1,-1 h 1 v -1 h 1 l 1,-1 h 1 l 1,-1 h 1 v 0 l 1,-1 h 1 l 1,-1 z m 8,16 v 0 l 1,-1 z m 27,-30 5,17 v 0 l -1,1 h -1 -1 l -2,1 h -1 -1 l -1,1 h -1 l -1,1 h -1 -1 l -1,1 h -1 l -1,1 h -1 -1 l -1,1 h -1 l -1,1 h -1 -1 l -1,1 h -1 l -1,1 h -1 -1 l -1,1 v 0 l -1,1 h -1 -1 l -1,1 -8,-16 1,-1 h 1 l 1,-1 h 1 l 1,-1 h 1 1 l 1,-1 h 1 l 1,-1 h 1 l 1,-1 h 1 l 1,-1 h 1 1 l 1,-1 h 1 l 1,-1 h 2 l 1,-1 h 1 1 l 1,-1 h 1 l 1,-1 h 2 1 l 1,-1 h 1 l 1,-1 z m 5,17 z m 37,-27 3,18 v 0 h -1 -1 -2 l -1,1 h -1 -2 -1 l -1,1 h -2 -1 -1 l -2,1 h -1 -1 -1 l -2,1 h -1 -1 l -1,1 h -2 -1 l -1,1 h -1 -1 l -2,1 h -1 -1 l -1,1 h -1 -2 l -1,1 h -1 l -5,-17 h 1 l 1,-1 h 1 2 l 1,-1 h 1 l 1,-1 h 2 1 l 1,-1 h 2 1 l 1,-1 h 1 2 l 1,-1 h 1 2 l 1,-1 h 2 1 l 1,-1 h 2 1 1 l 2,-1 h 1 2 1 l 2,-1 h 1 z m 3,18 v 0 h 1 z m 45,-22 v 18 0 h -1 -1 -2 -1 -2 -1 -2 -1 -1 -2 -1 -2 -1 -2 l -1,1 h -1 -2 -1 -2 -1 -1 l -2,1 h -1 -2 -1 -1 -2 l -1,1 h -1 -2 -1 l -2,1 -3,-18 h 2 l 1,-1 h 2 1 2 l 1,-1 h 2 1 2 1 l 2,-1 h 1 2 1 2 1 2 1 l 2,-1 h 1 2 1 2 1 2 1 2 1 2 1 2 z m 76,8 -5,18 v 0 l -2,-1 h -2 l -2,-1 h -1 -2 l -2,-1 h -2 l -2,-1 h -2 -2 l -2,-1 h -2 -3 l -2,-1 h -2 -2 -2 l -3,-1 h -2 -2 -2 -3 l -2,-1 h -3 -2 -2 -3 -2 -3 -2 -3 -3 v -18 h 3 3 2 3 3 2 3 2 3 l 2,1 h 3 2 3 2 l 3,1 h 2 2 l 3,1 h 2 2 2 l 3,1 h 2 l 2,1 h 2 2 l 2,1 h 3 l 2,1 h 2 l 2,1 z m 0,0 v 0 l 1,1 z m 53,28 -12,14 v -1 l -1,-1 h -1 l -1,-1 -2,-1 -1,-1 -1,-1 -1,-1 -2,-1 -1,-1 -1,-1 h -1 l -2,-1 -1,-1 -1,-1 -2,-1 h -1 l -2,-1 -1,-1 h -2 l -1,-1 -2,-1 h -1 l -2,-1 -1,-1 h -2 l -2,-1 -1,-1 h -2 l -2,-1 h -2 l -1,-1 h -2 l 5,-18 2,1 2,1 h 2 l 1,1 h 2 l 2,1 2,1 h 2 l 2,1 2,1 1,1 h 2 l 2,1 2,1 1,1 2,1 2,1 h 1 l 2,1 1,1 2,1 2,1 1,1 2,1 1,1 2,1 1,1 1,1 2,2 1,1 2,1 z m -12,14 v -1 z m 43,34 -17,6 v 0 l -1,-2 v -1 l -1,-2 v -1 l -1,-2 -1,-1 v -1 l -1,-2 -1,-1 v -2 l -1,-1 -1,-1 v -2 l -1,-1 -1,-1 -1,-2 -1,-1 v -1 l -1,-1 -1,-2 -1,-1 -1,-1 -1,-1 -1,-1 -1,-1 -1,-1 -1,-1 -1,-1 -1,-2 -1,-1 -1,-1 h -1 l 12,-14 1,1 2,1 1,2 1,1 1,1 2,1 1,2 1,1 1,2 1,1 1,1 1,2 1,1 1,2 1,1 1,2 1,1 1,2 1,1 1,2 1,1 1,2 1,2 v 1 l 1,2 1,2 1,2 v 1 l 1,2 1,2 v 2 z m -17,6 v 0 l 1,3 z m 26,62 h -18 v 0 -3 -2 -2 -2 -2 -3 -2 -2 -2 -2 l -1,-2 v -2 -2 -2 l -1,-2 v -2 -2 -2 l -1,-2 v -1 -2 l -1,-2 v -2 -2 l -1,-1 v -2 l -1,-2 v -1 l -1,-2 v -2 l -1,-1 v -2 l 17,-6 1,2 v 2 l 1,2 v 2 l 1,2 v 2 l 1,1 v 2 l 1,2 v 2 2 l 1,2 v 2 2 l 1,3 v 2 2 l 1,2 v 2 2 2 3 l 1,2 v 2 2 3 2 2 3 2 2 z m -18,243 V 824 h 18 v 243 0 z M 2411,903 h 39 v 18 h -39 v 0 z m -40,21 -4,-17 v 0 l 1,-1 h 1 1 2 1 l 1,-1 h 1 2 1 1 1 l 2,-1 h 1 1 2 1 2 1 1 l 2,-1 h 1 2 1 2 1 2 1 2 1 2 1 2 v 18 h -2 -1 -2 -1 -2 -1 -1 -2 -1 -1 -2 -1 l -1,1 h -2 -1 -1 -2 -1 -1 -1 -1 l -2,1 h -1 -1 -1 -1 -1 l -1,1 h -1 -1 -2 -1 z m -4,-17 z m -22,27 -10,-15 v 0 h 1 l 1,-1 h 1 l 1,-1 v 0 l 1,-1 h 1 l 1,-1 h 1 l 1,-1 h 1 l 1,-1 h 1 1 l 1,-1 h 1 l 1,-1 h 1 1 l 1,-1 h 1 1 l 1,-1 h 1 1 l 1,-1 h 1 1 1 l 1,-1 h 2 1 l 4,17 -1,1 h -1 -1 -1 -1 l -1,1 h -1 -1 l -1,1 h -1 -1 -1 v 1 h -1 -1 l -1,1 h -1 v 0 h -1 l -1,1 h -1 v 0 l -1,1 h -1 v 0 l -1,1 h -1 v 1 h -1 -1 v 1 z m 0,0 z m -13,14 -16,-8 v 0 h 1 v -1 -1 l 1,-1 v -1 h 1 v -1 l 1,-1 v -1 h 1 v -1 l 1,-1 v 0 l 1,-1 1,-1 v 0 l 1,-1 v -1 h 1 l 1,-1 v -1 h 1 l 1,-1 v 0 l 1,-1 1,-1 v 0 l 1,-1 h 1 l 1,-1 v 0 l 1,-1 10,15 v 0 l -1,1 v 0 l -1,1 h -1 v 0 l -1,1 v 0 1 h -1 v 1 h -1 v 0 l -1,1 v 0 l -1,1 v 0 1 h -1 v 0 1 h -1 v 1 0 l -1,1 v 0 1 0 l -1,1 v 0 1 z m 0,0 z m -4,20 h -18 v 0 -1 -1 -1 -1 -1 -1 -1 h 1 v -1 -1 -1 -1 -1 -1 -1 l 1,-1 v 0 -1 -1 l 1,-1 v -1 -1 -1 h 1 v -1 -1 l 1,-1 v -1 0 l 1,-1 v -1 -1 l 16,8 v 1 0 1 h -1 v 1 0 1 1 h -1 v 1 0 1 0 1 l -1,1 v 0 1 0 1 1 0 1 1 h -1 v 1 1 0 1 1 0 1 z m 12,29 -12,13 v 0 l -1,-1 -1,-1 -2,-1 v -1 l -1,-1 -1,-1 -1,-1 -1,-1 -1,-1 -1,-2 v -1 l -1,-1 -1,-1 v -2 l -1,-1 -1,-1 v -2 l -1,-1 v -1 -2 l -1,-1 v -2 -1 l -1,-2 v -1 -2 -1 l -1,-2 v -1 -2 -2 -1 h 18 v 1 1 2 1 l 1,1 v 1 1 1 1 1 l 1,1 v 1 1 1 l 1,1 v 1 l 1,1 v 1 0 l 1,1 v 1 l 1,1 v 1 h 1 v 1 l 1,1 v 1 h 1 l 1,1 v 1 h 1 z m 0,0 v 0 h -1 z m 34,11 v 18 0 h -2 -2 -2 l -1,-1 h -2 -2 -1 -2 -1 l -2,-1 h -2 -1 l -2,-1 h -1 l -2,-1 h -1 -1 l -2,-1 -1,-1 h -2 l -1,-1 h -1 l -2,-1 -1,-1 -1,-1 h -1 l -2,-1 -1,-1 -1,-1 -1,-1 -1,-1 -1,-1 12,-13 v 1 h 1 l 1,1 h 1 v 1 l 1,1 h 1 l 1,1 h 1 1 l 1,1 h 1 l 1,1 h 1 l 1,1 h 1 1 l 1,1 h 1 1 1 l 1,1 h 1 2 1 1 2 1 l 1,1 h 2 1 z m 34,-10 10,15 v 0 l -2,1 -1,1 -1,1 h -1 l -2,1 -1,1 h -1 l -2,1 h -1 l -1,1 h -2 l -1,1 h -1 l -2,1 h -1 l -1,1 h -2 -1 l -2,1 h -1 -2 l -1,1 h -1 -2 -1 -2 -1 l -2,1 h -1 -2 -1 -1 v -18 h 1 1 1 1 l 1,-1 h 2 1 1 1 1 1 l 1,-1 h 1 2 1 l 1,-1 h 1 1 l 1,-1 h 1 1 l 1,-1 h 1 l 1,-1 h 1 l 1,-1 h 1 l 1,-1 h 1 l 1,-1 h 1 z m 33,-24 h 18 l -3,6 -1,1 -1,1 -1,2 -1,1 -2,1 -1,1 -1,2 -1,1 -1,1 -2,1 -1,1 -1,2 -1,1 -1,1 -2,1 -1,1 -1,1 -1,1 -1,1 -2,1 -1,1 -1,1 -1,1 -2,1 -1,1 -1,1 h -1 l -1,1 -2,1 -1,1 -1,1 h -1 l -10,-15 1,-1 h 1 l 1,-1 2,-1 h 1 l 1,-1 1,-1 1,-1 h 1 l 1,-1 1,-1 1,-1 1,-1 1,-1 1,-1 1,-1 1,-1 1,-1 h 2 l 1,-2 1,-1 1,-1 1,-1 1,-1 1,-1 1,-1 1,-1 1,-1 2,-2 1,-1 1,-1 1,-1 z m 18,0 v 3 l -3,3 z m 0,-62 v 62 h -18 v -62 l 9,-9 z m -9,-9 h 9 v 9 z m 443,-141 -18,-1 v 0 -1 0 -1 -1 h 1 v -1 0 -1 -1 0 -1 -1 0 -1 -1 -1 0 -1 -1 -1 0 -1 -1 -1 -1 0 -1 -1 -1 -1 -1 -1 h 18 v 1 1 1 1 1 1 1 1 0 1 1 1 1 1 0 1 1 1 0 1 1 1 0 1 1 0 1 l -1,1 v 0 1 z m -3,17 -17,-6 v 1 -1 0 0 l 1,-1 v 0 0 0 -1 0 0 -1 0 -1 0 0 -1 0 l 1,-1 v 0 0 -1 0 -1 0 -1 0 -1 0 -1 0 -1 0 l 18,1 v 1 0 1 1 0 1 0 1 0 1 1 h -1 v 1 0 1 0 1 0 1 0 1 0 1 h -1 v 0 1 0 1 0 1 0 0 z m 1,-1 v 1 h -1 z m -8,12 -11,-14 v 0 0 0 0 1 -1 0 0 0 0 0 0 0 0 0 0 0 0 0 -1 0 h 1 v 0 0 0 0 -1 0 0 0 0 -1 0 l 17,6 v 0 1 0 0 1 0 l -1,1 v 0 0 1 0 0 l -1,1 v 0 1 0 0 l -1,1 v 0 0 1 h -1 v 1 0 0 h -1 v 1 0 h -1 v 1 0 z m 0,0 z m -12,4 v -18 0 0 0 0 0 0 h 1 v 0 0 0 0 0 0 0 0 0 0 0 0 0 0 0 0 0 0 0 0 0 0 0 0 0 0 l 11,14 v 1 h -1 v 0 0 l -1,1 v 0 0 h -1 v 1 h -1 v 0 0 h -1 v 0 h -1 v 0 1 h -1 v 0 h -1 v 0 0 h -1 v 0 h -1 v 0 0 h -1 v 0 0 z m -11,-2 7,-17 h -1 1 v 1 0 0 0 h 1 v 0 0 0 0 0 0 h 1 v 0 0 0 0 0 h 1 v 0 0 0 0 0 0 0 0 h 1 v 0 0 0 0 18 0 h -1 v 0 0 h -1 v 0 0 h -1 v 0 0 h -1 v 0 0 h -1 v 0 0 h -1 v 0 0 0 l -1,-1 v 0 h -1 v 0 0 h -1 v 0 0 h -1 v 0 0 -1 z m 1,0 h -1 v 0 z m -9,-3 5,-17 v 0 0 h 1 v 1 0 h 1 v 0 0 h 1 v 0 0 h 1 v 0 1 0 h 1 v 0 0 h 1 v 0 0 0 h 1 v 1 0 h 1 v 0 0 h 1 v 0 0 0 h 1 l -7,17 v 0 0 0 h -1 v 0 0 0 0 h -1 v 0 -1 h -1 v 0 0 0 h -1 v 0 0 0 h -1 v 0 -1 h -1 v 0 0 h -1 v 0 0 0 h -1 v 0 z m 0,0 z m -11,-2 4,-18 v 0 h 1 v 0 h 1 v 0 0 l 1,1 v 0 0 h 1 v 0 0 h 1 v 0 h 1 v 0 1 h 1 v 0 h 1 v 0 0 h 1 v 0 0 l 1,1 v 0 0 h 1 v 0 0 h 1 v 0 l -5,17 h -1 v 0 0 h -1 v 0 0 h -1 v 0 0 -1 h -1 v 0 0 h -1 v 0 0 h -1 v 0 0 h -1 v 0 -1 h -1 v 0 0 h -1 v 0 0 h -1 v 0 0 z m 4,-18 v 0 h 1 z m -15,16 v -18 0 0 h 1 v 0 h 1 v 0 h 1 v 0 h 1 v 1 h 1 v 0 h 1 v 0 h 1 v 0 h 1 v 0 h 1 v 0 h 1 v 0 h 1 v 0 h 1 v 0 0 l 1,1 v 0 h 1 v 0 h 1 v 0 l -4,18 v -1 0 h -1 v 0 0 h -1 v 0 0 h -1 v 0 0 h -1 v 0 0 h -1 v 0 h -1 v 0 0 h -1 v 0 0 l -1,-1 v 0 0 h -1 v 0 h -1 v 0 0 z m -14,3 -7,-16 v 0 l 1,-1 h 1 v 0 h 1 v -1 h 1 1 v 0 h 1 l 1,-1 v 0 h 1 1 v 0 h 1 l 1,-1 v 0 h 1 v 0 h 1 1 v 0 h 1 1 v 0 h 1 l 1,-1 v 0 h 1 1 v 0 h 1 v 18 h -1 v 0 0 h -1 v 0 h -1 v 1 h -1 v 0 0 h -1 v 0 h -1 v 0 0 h -1 v 0 h -1 v 0 h -1 v 1 0 h -1 v 0 h -1 v 0 h -1 v 1 0 h -1 v 0 z m -15,10 -12,-14 v 0 l 1,-1 h 1 v -1 h 1 v -1 h 1 l 1,-1 v 0 l 1,-1 h 1 v 0 l 1,-1 h 1 v -1 h 1 v 0 l 1,-1 h 1 v -1 h 1 1 v -1 h 1 v 0 l 1,-1 h 1 v 0 h 1 l 1,-1 v 0 h 1 v 0 l 7,16 v 0 l -1,1 v 0 h -1 v 0 h -1 v 1 0 h -1 v 0 l -1,1 v 0 h -1 v 0 l -1,1 v 0 h -1 v 1 h -1 v 0 l -1,1 v 0 h -1 v 1 h -1 v 0 l -1,1 v 0 h -1 v 1 h -1 z m 0,0 z m -18,18 -14,-12 v 0 h 1 v -1 l 1,-1 1,-1 v 0 l 1,-1 1,-1 v -1 h 1 v -1 l 1,-1 h 1 v -1 l 1,-1 h 1 v -1 l 1,-1 h 1 v -1 l 1,-1 v 0 l 1,-1 h 1 v -1 l 1,-1 h 1 v -1 h 1 l 1,-1 v 0 l 1,-1 v 0 l 12,14 h -1 v 1 h -1 v 0 l -1,1 v 0 l -1,1 h -1 v 1 h -1 v 1 h -1 v 1 h -1 v 1 h -1 v 1 l -1,1 h -1 v 1 h -1 v 1 l -1,1 v 0 l -1,1 -1,1 v 0 l -1,1 v 1 h -1 l -1,1 z m -14,-12 z m -5,36 h -18 l 1,-5 1,-1 v -1 l 1,-1 1,-1 1,-1 v -1 l 1,-1 1,-1 v -1 l 1,-2 1,-1 1,-1 v -1 l 1,-1 1,-1 v 0 l 1,-1 1,-1 v -1 l 1,-1 1,-1 v -1 l 1,-1 1,-1 v -1 l 1,-1 h 1 v -1 l 1,-1 1,-1 v -1 l 1,-1 14,12 -1,1 v 0 l -1,1 v 1 l -1,1 h -1 v 1 l -1,1 -1,1 v 1 h -1 v 1 l -1,1 -1,1 v 1 l -1,1 -1,1 v 1 l -1,1 -1,1 v 1 l -1,1 -1,1 v 1 l -1,1 -1,1 v 1 l -1,1 -1,1 v 1 l -1,1 -1,1 z m -18,0 v -2 l 1,-3 z m 0,226 V 840 h 18 v 226 0 z m 13,13 -14,-11 v 0 0 -1 0 0 0 0 0 0 0 0 0 0 0 0 0 h 1 -1 v 0 0 h 1 v 0 0 0 -1 0 1 0 -1 0 0 0 0 h 18 v 1 0 0 1 h -1 v 1 0 1 0 0 1 0 1 0 0 l -1,1 v 0 1 0 1 0 h -1 v 1 0 0 1 h -1 v 0 1 0 h -1 z m -14,-11 z m 2,19 -6,-17 v 0 0 0 h 1 v -1 0 0 h 1 v 0 0 0 0 h 1 v 0 0 -1 0 0 0 0 h 1 v 0 0 0 0 0 0 0 0 0 0 0 0 l 14,11 v 0 0 l -1,1 v 0 0 l -1,1 v 0 0 l -1,1 v 0 0 l -1,1 v 0 h -1 v 1 0 h -1 v 0 h -1 v 1 0 h -1 v 0 h -1 v 1 h -1 v 0 0 h -1 v 1 z m 0,0 v 0 h -1 z m -18,3 -2,-18 v 0 h 1 v 0 h 1 v 0 h 1 v 0 h 1 1 v 0 0 h 1 v 0 h 1 v -1 h 1 v 0 h 1 v 0 0 h 1 v 0 h 1 v 0 0 l 1,-1 v 0 0 h 1 v 0 0 h 1 v 0 l 6,17 h -1 v 0 h -1 v 0 l -1,1 v 0 h -1 v 0 h -1 v 0 h -1 v 0 l -1,1 v 0 h -1 v 0 h -1 v 0 h -1 v 0 h -1 l -1,1 v 0 h -1 v 0 h -1 -1 v 0 h -1 v 0 h -1 z m -26,1 v -18 0 h 1 1 1 1 1 1 1 1 v 0 h 1 1 1 1 v 0 h 1 1 1 v 0 h 1 1 v 0 h 1 1 v 0 h 1 1 v 0 h 1 1 v 0 l 1,-1 v 0 l 2,18 v 0 h -1 l -1,1 h -1 v 0 h -1 -1 v 0 h -1 -1 -1 v 0 h -1 -1 -1 -1 v 0 h -1 -1 -1 -1 v 0 h -1 -1 -1 -1 -1 -1 -1 -1 -1 z m -25,-1 2,-18 v 0 0 l 1,1 v 0 h 1 1 v 0 h 1 v 0 h 1 1 v 0 h 1 1 1 v 0 h 1 1 1 v 0 h 1 1 1 1 v 0 h 1 1 1 1 1 1 1 v 0 18 0 h -1 -1 -1 -1 -1 -1 -1 -1 -1 v 0 h -1 -1 -1 -1 -1 v 0 h -1 -1 -1 v 0 h -1 -1 -1 v 0 h -1 -1 -1 v 0 l -1,-1 z m -18,-3 6,-17 v 0 0 h 1 v 0 0 0 h 1 v 0 1 h 1 v 0 h 1 v 0 0 h 1 v 0 h 1 v 0 h 1 v 1 h 1 v 0 0 h 1 v 0 h 1 v 0 h 1 v 0 h 1 1 v 0 h 1 l -2,18 h -1 -1 v 0 h -1 v 0 h -1 -1 v 0 h -1 v 0 l -1,-1 h -1 v 0 h -1 v 0 h -1 v 0 h -1 v 0 l -1,-1 v 0 h -1 v 0 h -1 v 0 h -1 v 0 l -1,-1 v 0 h -1 v 0 z m 0,0 z m -12,-8 14,-11 v 0 0 0 0 0 0 0 0 0 0 0 0 0 0 0 h 1 v 0 0 1 0 0 0 h 1 v 0 0 0 0 h 1 v 0 1 0 h 1 v 0 l -6,17 v 0 h -1 v -1 h -1 v 0 0 h -1 v -1 h -1 v 0 h -1 v 0 -1 h -1 v 0 h -1 v 0 -1 h -1 v 0 l -1,-1 v 0 0 l -1,-1 v 0 0 l -1,-1 v 0 0 l -1,-1 z m 14,-11 z m -19,-2 h 18 v 0 0 0 0 0 1 0 -1 0 1 0 0 0 0 0 0 0 0 h 1 -1 v 0 h 1 v 0 0 0 0 0 0 0 0 0 1 0 l -14,11 -1,-1 v 0 0 -1 0 h -1 v -1 0 0 l -1,-1 v 0 0 -1 0 -1 h -1 v 0 -1 0 -1 0 -1 0 0 -1 h -1 v -1 0 -1 0 0 z m 18,-362 v 362 h -18 v -362 0 z m -14,-12 15,9 v 1 0 0 0 0 0 0 0 0 0 0 0 0 0 h -1 v 0 1 -1 0 1 0 0 0 0 0 0 0 0 0 0 1 0 0 h -18 v -1 0 0 -1 0 -1 0 l 1,-1 v 0 0 -1 0 -1 0 0 -1 0 -1 h 1 v 0 -1 0 0 -1 0 h 1 v -1 0 0 -1 z m 15,9 v 1 0 z m -3,-18 6,17 v 0 0 0 h -1 v 0 0 0 0 l -1,1 v 0 0 0 0 0 h -1 v 0 0 0 0 0 0 0 0 0 0 0 0 0 0 0 0 0 0 l -15,-9 v 0 -1 0 l 1,-1 v 0 0 l 1,-1 v 0 l 1,-1 v 0 0 h 1 v -1 0 h 1 v -1 0 h 1 v 0 l 1,-1 v 0 0 h 1 v 0 -1 h 1 v 0 h 1 v 0 -1 h 1 v 0 z m -1,0 h 1 v 0 z m 16,-4 2,18 v 0 0 h -1 v 1 h -1 v 0 0 h -1 v 0 h -1 v 0 0 h -1 v 0 h -1 v 0 1 h -1 v 0 0 h -1 v 0 0 h -1 v 0 0 h -1 v 0 1 h -1 v 0 0 0 l -6,-17 v 0 h 1 v 0 -1 h 1 v 0 h 1 v 0 0 h 1 v 0 l 1,-1 v 0 h 1 v 0 h 1 v 0 h 1 v 0 h 1 v -1 h 1 v 0 h 1 v 0 h 1 v 0 h 1 v 0 h 1 v 0 z m 22,-1 v 18 0 h -1 v 0 h -1 -1 -1 v 0 h -1 -1 v 1 h -1 -1 v 0 h -1 -1 v 0 h -1 -1 v 0 h -1 v 0 h -1 -1 v 0 h -1 v 0 h -1 v 0 h -1 v 0 h -1 v 0 h -1 l -2,-18 h 1 v 0 h 1 v 0 h 1 1 v 0 h 1 1 v 0 h 1 1 v 0 h 1 1 v 0 h 1 1 v 0 h 1 1 v 0 h 1 l 1,-1 h 1 v 0 h 1 1 1 1 v 0 z m 23,1 -3,18 h 1 -1 v 0 h -1 -1 v 0 0 h -1 -1 v 0 h -1 v 0 h -1 -1 v 0 h -1 v 0 h -1 -1 v 0 h -1 -1 v 0 h -1 l -1,-1 h -1 v 0 h -1 -1 -1 v 0 h -1 -1 v -18 h 1 1 1 v 0 h 1 1 1 v 0 l 1,1 h 1 1 1 v 0 h 1 1 v 0 h 1 1 v 0 h 1 1 v 0 h 1 1 v 0 h 1 1 v 0 h 1 v 0 h 1 z m 16,4 -8,17 h 1 -1 v 0 0 0 l -1,-1 v 0 0 0 h -1 v 0 0 h -1 v 0 0 h -1 v 0 -1 h -1 v 0 0 h -1 v 0 h -1 v 0 0 h -1 v 0 h -1 v 0 l -1,-1 v 0 h -1 l 3,-18 v 1 h 1 v 0 h 1 1 v 0 h 1 v 0 h 1 v 0 h 1 v 1 h 1 v 0 h 1 v 0 h 1 v 0 h 1 v 0 l 1,1 v 0 0 h 1 v 0 h 1 v 0 h 1 v 1 0 h 1 v 0 z m -1,0 v 0 h 1 z m 11,9 -15,10 v 0 0 0 -1 0 0 0 0 0 0 0 0 0 h -1 v 0 h 1 -1 v 0 0 0 0 0 -1 0 h -1 v 0 0 0 0 0 h -1 v 0 0 l 8,-17 v 0 1 h 1 v 0 0 h 1 v 1 h 1 v 0 0 h 1 v 1 0 h 1 v 0 1 h 1 v 0 1 h 1 v 0 0 0 l 1,1 v 0 1 h 1 v 0 1 0 h 1 z m 4,12 h -18 v 0 0 0 -1 0 0 0 0 0 0 0 0 0 0 l -1,-1 v 0 l 1,1 -1,-1 v 0 0 0 0 0 0 0 0 0 0 0 0 0 0 0 l 15,-10 v 0 0 l 1,1 v 0 0 1 0 h 1 v 1 0 0 1 0 l 1,1 v 0 0 1 0 0 1 0 1 0 1 0 h 1 v 1 0 1 0 0 z m -18,45 v -45 h 18 v 45 l -2,5 z m 16,5 -16,24 v -29 z m 13,-45 13,13 v 0 h -1 l -1,1 v 1 l -1,1 -1,1 -1,1 v 0 l -1,1 -1,1 -1,1 -1,1 v 1 l -1,1 -1,1 -1,1 -1,1 v 1 l -1,1 -1,1 -1,1 -1,1 -1,1 v 1 l -1,1 -1,2 -1,1 -1,1 -1,1 v 1 l -1,2 -1,1 -1,1 -15,-10 1,-2 1,-1 1,-1 1,-1 1,-2 1,-1 1,-1 v -1 l 1,-1 1,-2 1,-1 1,-1 1,-1 1,-1 1,-1 v -1 l 1,-1 1,-1 1,-2 1,-1 1,-1 1,-1 v -1 l 1,-1 h 1 l 1,-1 1,-1 1,-1 v -1 l 1,-1 1,-1 z m 0,0 z m 25,-22 10,15 v 0 0 l -1,1 h -1 v 1 h -1 v 1 h -1 l -1,1 v 0 l -1,1 h -1 l -1,1 v 1 h -1 l -1,1 v 0 l -1,1 -1,1 v 0 l -1,1 -1,1 h -1 v 1 l -1,1 h -1 l -1,1 v 1 l -1,1 h -1 l -1,1 v 1 l -1,1 -13,-13 1,-1 1,-1 v 0 l 1,-1 1,-1 1,-1 1,-1 v 0 l 1,-1 1,-1 1,-1 h 1 v -1 l 1,-1 h 1 l 1,-1 1,-1 v -1 h 1 l 1,-1 h 1 l 1,-1 v -1 h 1 l 1,-1 1,-1 v 0 l 1,-1 h 1 l 1,-1 v 0 z m 0,0 z m 26,-12 5,18 h -1 v 0 h -1 v 0 h -1 -1 v 1 h -1 v 0 h -1 l -1,1 v 0 h -1 -1 v 1 h -1 v 0 h -1 l -1,1 v 0 h -1 l -1,1 v 0 h -1 l -1,1 v 0 h -1 v 1 h -1 l -1,1 v 0 l -1,1 h -1 l -10,-15 h 1 l 1,-1 1,-1 v 0 h 1 l 1,-1 h 1 l 1,-1 v 0 l 1,-1 h 1 l 1,-1 h 1 v 0 l 1,-1 h 1 l 1,-1 h 1 v 0 l 1,-1 h 1 1 l 1,-1 v 0 h 1 1 l 1,-1 h 1 1 v 0 l 1,-1 z m 5,18 h -1 l 1,-1 z m 20,-21 v 18 0 h -1 v 0 h -1 -1 v 0 h -1 -1 v 0 h -1 v 0 h -1 -1 v 0 h -1 -1 v 0 l -1,1 h -1 v 0 h -1 -1 v 0 h -1 v 0 h -1 l -1,1 v 0 h -1 -1 v 0 h -1 v 1 l -5,-18 h 1 v 0 h 1 l 1,-1 h 1 1 v 0 h 1 1 l 1,-1 v 0 h 1 1 1 1 v 0 h 1 l 1,-1 h 1 v 0 h 1 1 1 1 v 0 h 1 1 1 1 v 0 h 1 z m 12,0 -2,18 v 0 0 0 h -1 v 0 0 h -1 v 0 0 h -1 v 0 0 h -1 v 0 0 h -1 v 0 0 h -1 v 0 0 h -1 v 0 0 h -1 v 0 0 0 h -1 v 0 0 h -1 v 0 -18 0 h 1 v 0 0 h 1 v 0 0 h 1 v 0 h 1 v 0 0 h 1 v 0 0 h 1 v 0 h 1 v 0 0 h 1 v 0 h 1 v 0 0 h 1 v 0 h 1 v 0 0 z m 14,3 -4,17 v 0 0 h -1 v 0 h -1 v 0 0 h -1 v 0 -1 h -1 v 0 0 h -1 v 0 h -1 v 0 0 h -1 v 0 0 h -1 v 0 0 h -1 v 0 h -1 v -1 0 h -1 v 0 0 h -1 l 2,-18 h 1 v 0 1 h 1 v 0 h 1 v 0 h 1 v 0 0 h 1 v 0 h 1 v 0 h 1 v 0 0 h 1 v 1 h 1 v 0 h 1 v 0 0 h 1 v 0 h 1 v 0 h 1 v 0 1 z m 12,3 -6,17 v 0 0 0 0 h -1 v 0 0 l -1,-1 v 0 0 h -1 v 0 0 0 h -1 v 0 0 h -1 v -1 0 h -1 v 0 0 h -1 v 0 h -1 v 0 0 h -1 v -1 0 h -1 v 0 l 4,-17 v 0 h 1 v 0 h 1 v 0 0 h 1 v 0 l 1,1 v 0 0 h 1 v 0 h 1 v 0 0 h 1 v 1 h 1 v 0 0 h 1 v 0 h 1 v 0 0 l 1,1 v 0 0 0 z m 0,0 z m 11,6 -13,13 v 0 0 0 0 0 0 0 0 0 0 0 0 0 0 h -1 v -1 0 0 0 0 0 h -1 v 0 0 0 0 0 h -1 v -1 0 0 h -1 v 0 l 6,-17 h 1 v 0 l 1,1 v 0 0 h 1 v 0 0 h 1 v 1 0 h 1 v 0 0 0 l 1,1 v 0 0 h 1 v 0 0 l 1,1 v 0 0 h 1 v 0 1 0 h 1 v 0 1 0 z m -1,0 h 1 v 0 z m 6,7 -17,7 v 1 0 h 1 -1 v -1 0 0 0 0 0 0 0 0 0 0 0 0 0 0 0 0 0 -1 1 -1 0 h -1 v 0 0 0 0 0 0 l 13,-13 v 0 1 0 h 1 v 0 0 0 1 0 h 1 v 0 0 1 0 0 h 1 v 0 1 0 0 0 1 h 1 v 0 1 0 0 0 0 h 1 z m 0,0 z m 2,9 -17,4 v -1 0 0 h -1 v -1 0 0 0 0 -1 0 0 0 0 -1 0 0 0 0 0 0 -1 0 0 0 0 h -1 v 0 h 1 -1 v -1 0 0 l 17,-7 v 1 0 0 0 l 1,1 v 0 0 1 0 0 0 0 1 0 0 0 1 0 h 1 v 1 0 0 0 1 0 0 1 0 0 0 z m -17,4 v -1 h -1 z m 19,10 -18,1 v 0 -1 0 -1 0 -1 0 0 l -1,-1 v 0 -1 0 -1 0 0 -1 0 0 -1 0 0 -1 0 0 -1 0 0 0 -1 0 0 0 0 l 17,-4 v 0 1 0 h 1 v 1 0 0 1 0 1 0 0 1 0 1 0 1 0 0 1 0 1 0 1 0 l 1,1 v 0 1 0 1 0 z m 0,23 h -18 v 0 0 -1 -1 -1 -1 -1 0 -1 -1 -1 -1 0 -1 -1 -1 0 -1 -1 0 -1 -1 0 -1 -1 0 -1 0 -1 -1 0 -1 0 l 18,-1 v 1 0 1 0 1 1 0 1 0 1 1 0 1 1 1 0 1 1 1 0 1 1 1 1 0 1 1 1 1 1 z m 396,342 -15,-11 v 0 0 0 0 0 0 0 0 0 0 0 0 0 0 0 0 0 h 1 v -1 0 1 0 -1 0 0 0 0 0 0 0 0 0 0 h 18 v 0 0 1 0 1 h -1 v 0 1 0 1 0 0 1 0 1 0 0 l -1,1 v 0 1 0 0 1 h -1 v 1 0 0 1 h -1 v 0 z m -13,8 -6,-17 h 1 v 0 0 0 h 1 v -1 0 0 0 h 1 v 0 0 0 0 h 1 v 0 0 0 -1 0 0 0 0 0 0 0 0 0 0 0 0 0 0 l 15,11 h -1 v 1 0 l -1,1 v 0 0 h -1 v 1 0 l -1,1 v 0 h -1 v 0 1 h -1 v 0 h -1 v 1 0 h -1 v 0 h -1 v 1 h -1 v 0 0 h -1 v 0 l -1,1 v 0 z m -6,-17 h 1 z m -12,20 -2,-18 v 0 h 1 v 0 h 1 1 v 0 h 1 v 0 h 1 v 0 h 1 v 0 h 1 v 0 l 1,-1 v 0 h 1 v 0 h 1 v 0 0 h 1 v 0 h 1 v 0 0 l 1,-1 v 0 0 h 1 v 0 0 0 l 6,17 v 0 h -1 v 0 l -1,1 v 0 h -1 v 0 h -1 v 0 h -1 v 0 l -1,1 v 0 h -1 -1 v 0 h -1 v 0 h -1 v 0 h -1 l -1,1 v 0 h -1 v 0 h -1 -1 v 0 h -1 -1 v 0 z m -27,1 v -18 0 h 1 1 1 1 1 1 v 0 h 1 1 1 1 1 1 1 v 0 h 1 1 1 v 0 h 1 1 1 v 0 h 1 1 v 0 h 1 1 v 0 h 1 l 1,-1 v 0 l 2,18 h -1 v 0 l -1,1 h -1 v 0 h -1 -1 -1 v 0 h -1 -1 -1 -1 -1 v 0 h -1 -1 -1 -1 -1 -1 v 0 h -1 -1 -1 -1 -1 -1 -1 -1 -1 z m -28,0 1,-18 v 0 h 1 1 v 0 h 1 1 v 0 h 1 1 v 0 h 1 1 1 v 0 h 1 1 1 1 1 v 0 h 1 1 1 1 1 1 1 1 1 1 1 1 1 v 18 h -1 -1 -1 -1 -1 -1 -1 -1 -1 -1 -1 -1 -1 -1 -1 -1 -1 v 0 h -1 -1 -1 -1 v 0 h -1 -1 -1 -1 v 0 h -1 -1 v 0 z m -19,-3 5,-18 v 0 0 h 1 v 0 1 h 1 v 0 h 1 v 0 0 h 1 v 0 h 1 v 0 h 1 v 1 h 1 v 0 h 1 v 0 h 1 v 0 h 1 v 0 h 1 v 0 h 1 v 0 h 1 1 v 0 l 1,1 v 0 l -1,18 -1,-1 v 0 h -1 -1 v 0 h -1 -1 v 0 h -1 -1 v 0 h -1 v 0 h -1 l -1,-1 v 0 h -1 v 0 h -1 v 0 h -1 -1 v 0 h -1 v -1 h -1 v 0 h -1 v 0 h -1 v 0 z m -14,-7 12,-14 v 0 0 0 h 1 v 0 1 0 0 0 0 0 h 1 v 0 0 0 0 l 1,1 v 0 0 0 h 1 v 0 0 0 h 1 v 1 0 0 h 1 v 0 0 h 1 v 0 l -5,18 v -1 h -1 v 0 h -1 v 0 h -1 v 0 l -1,-1 v 0 h -1 v 0 h -1 v -1 0 h -1 v 0 h -1 v -1 0 h -1 v 0 l -1,-1 v 0 h -1 v 0 -1 h -1 v 0 l -1,-1 v 0 0 l -1,-1 z m 12,-14 z m -20,3 15,-9 h 1 v 0 0 1 0 0 0 l 1,1 v 0 0 0 1 0 h 1 v 0 1 0 0 0 0 0 h 1 v 1 0 0 0 0 0 h 1 v 1 0 0 0 l -12,14 v -1 0 h -1 v -1 0 h -1 v 0 -1 0 h -1 v -1 0 h -1 v -1 0 0 l -1,-1 v 0 -1 0 h -1 v -1 0 0 l -1,-1 v 0 0 -1 0 h -1 z m 15,-9 v 0 h 1 z m -120,-191 120,191 -15,9 -120,-191 -2,-5 z m -17,4 v -31 l 17,27 z m 0,192 V 874 h 18 v 192 0 z m 14,13 -15,-11 h 1 v 0 -1 0 0 0 0 0 0 0 0 0 0 0 0 0 0 0 0 0 0 0 0 0 -1 0 1 0 -1 0 0 0 0 h 18 v 1 0 0 1 0 1 0 1 0 0 1 0 l -1,1 v 0 0 1 0 1 0 l -1,1 v 0 0 1 0 h -1 v 1 0 0 l -1,1 v 0 0 z m -15,-11 v 0 h 1 z m 2,19 -5,-17 h -1 1 v 0 0 l 1,-1 v 0 0 0 0 h 1 v 0 0 0 0 l 1,-1 v 0 0 0 0 0 0 0 0 0 0 0 0 0 0 0 0 0 0 l 15,11 v 0 h -1 v 1 0 h -1 v 1 0 h -1 v 1 h -1 v 0 1 h -1 v 0 0 l -1,1 v 0 h -1 v 0 1 h -1 v 0 h -1 v 0 l -1,1 v 0 0 h -1 v 0 l -1,1 v 0 z m 0,0 z m -17,3 -2,-18 v 0 0 h 1 v 0 h 1 1 v 0 h 1 v 0 h 1 v 0 0 h 1 v 0 l 1,-1 v 0 h 1 v 0 h 1 v 0 0 h 1 v 0 h 1 v 0 -1 h 1 v 0 0 h 1 v 0 0 h 1 l 5,17 v 0 h -1 v 0 h -1 v 1 h -1 v 0 h -1 v 0 h -1 v 0 h -1 v 1 h -1 v 0 h -1 v 0 h -1 v 0 h -1 v 0 l -1,1 h -1 v 0 h -1 v 0 h -1 -1 v 0 h -1 z m -26,1 v -18 0 h 1 1 1 1 v 0 h 1 1 1 1 1 v 0 h 1 1 1 1 v 0 h 1 1 1 v 0 h 1 1 v 0 h 1 1 v 0 h 1 1 v 0 h 1 v -1 h 1 l 2,18 h -1 -1 v 1 h -1 -1 v 0 h -1 -1 v 0 h -1 -1 -1 -1 v 0 h -1 -1 -1 -1 v 0 h -1 -1 -1 -1 -1 -1 v 0 h -1 -1 -1 -1 -1 z m -26,-1 2,-18 v 0 h 1 v 1 h 1 v 0 h 1 1 v 0 h 1 1 v 0 h 1 1 v 0 h 1 1 1 v 0 h 1 1 1 1 v 0 h 1 1 1 1 1 v 0 h 1 1 1 1 v 18 h -1 -1 -1 -1 -1 -1 v 0 h -1 -1 -1 -1 -1 -1 v 0 h -1 -1 -1 -1 v 0 h -1 -1 -1 v 0 h -1 -1 -1 v 0 h -1 -1 v -1 h -1 z m -17,-3 6,-17 h -1 1 v 0 0 h 1 v 0 0 h 1 v 1 0 h 1 v 0 h 1 v 0 0 h 1 v 0 h 1 v 0 l 1,1 v 0 h 1 v 0 h 1 v 0 0 h 1 v 0 h 1 1 v 0 h 1 v 0 l -2,18 v 0 h -1 -1 v 0 h -1 -1 v 0 h -1 v 0 h -1 v -1 h -1 -1 v 0 h -1 v 0 h -1 v 0 h -1 v -1 h -1 v 0 h -1 v 0 h -1 v 0 h -1 v -1 h -1 v 0 z m 0,0 z m -13,-8 14,-11 h 1 v 0 0 0 0 0 0 0 0 0 0 0 0 0 0 0 0 0 h 1 v 1 0 0 0 0 h 1 v 0 0 0 h 1 v 1 0 0 h 1 l -6,17 h -1 v 0 l -1,-1 v 0 0 h -1 v 0 l -1,-1 v 0 h -1 v 0 h -1 v -1 0 h -1 v 0 -1 h -1 v 0 h -1 v -1 0 h -1 v -1 h -1 v 0 -1 h -1 v 0 -1 z m 14,-11 h 1 v 0 z m -18,-2 h 18 v 0 0 0 0 0 1 0 -1 0 1 0 0 0 0 0 0 0 0 0 0 0 0 0 0 0 0 0 0 0 0 0 0 1 l -14,11 v 0 -1 0 h -1 v -1 0 -1 h -1 v 0 -1 0 -1 0 h -1 v -1 0 0 -1 0 -1 h -1 v -1 0 0 -1 0 -1 0 -1 0 0 z m 18,-534 v 534 h -18 v -534 0 z m -14,-13 15,11 v 0 h -1 v 0 h 1 -1 v 0 1 0 0 0 0 0 0 0 0 0 0 0 0 0 0 0 0 0 1 0 -1 0 1 0 0 0 0 h -18 v 0 -1 0 -1 0 -1 0 -1 0 0 -1 h 1 v -1 0 0 -1 0 -1 h 1 v 0 -1 0 -1 0 h 1 v -1 0 0 -1 h 1 z m 15,11 z m -3,-19 7,17 v 0 h -1 v 0 0 0 h -1 v 0 0 0 1 h -1 v 0 0 0 0 0 0 0 h -1 v 0 0 1 0 0 0 0 0 0 0 0 0 0 0 l -15,-11 v 0 h 1 v -1 0 l 1,-1 v 0 0 h 1 v -1 0 h 1 v -1 h 1 v 0 -1 h 1 v 0 h 1 v -1 0 h 1 v 0 l 1,-1 v 0 0 h 1 v 0 l 1,-1 v 0 h 1 v 0 h 1 z m 7,17 z m 11,-21 2,18 v 0 0 h -1 v 0 h -1 v 0 h -1 v 0 h -1 v 0 h -1 v 1 h -1 v 0 h -1 v 0 h -1 v 0 0 h -1 v 0 l -1,1 v 0 0 h -1 v 0 0 h -1 v 0 0 0 l -1,1 v 0 l -7,-17 h 1 v -1 h 1 v 0 h 1 v 0 h 1 v 0 l 1,-1 v 0 h 1 v 0 h 1 v 0 h 1 l 1,-1 v 0 h 1 v 0 h 1 v 0 h 1 1 v 0 l 1,-1 v 0 h 1 1 v 0 h 1 v 0 z m 0,0 v 0 l 3,-1 z m 26,-1 v 18 0 h -1 -1 -1 -1 v 0 h -1 -1 -1 -1 -1 v 0 h -1 -1 -1 v 0 h -1 -1 -1 v 0 h -1 -1 v 0 h -1 -1 v 0 h -1 -1 v 0 h -1 v 1 h -1 -1 l -2,-18 h 1 v 0 h 1 1 v -1 h 1 1 1 v 0 h 1 1 1 v 0 h 1 1 1 1 v 0 h 1 1 1 1 1 1 1 v 0 h 1 1 1 1 1 z m 26,1 -2,18 v 0 h -1 v 0 l -1,-1 h -1 v 0 h -1 v 0 h -1 -1 v 0 h -1 -1 -1 v 0 h -1 -1 v 0 h -1 -1 -1 -1 v 0 h -1 -1 -1 -1 -1 v 0 h -1 -1 -1 -1 v -18 h 1 1 1 1 1 1 v 0 h 1 1 1 1 1 1 1 v 0 h 1 1 1 1 v 0 h 1 1 1 v 0 h 1 1 1 v 1 h 1 1 v 0 z m 0,0 v 0 h -2 z m 17,4 -6,17 v 0 0 -1 h -1 v 0 0 h -1 v 0 0 h -1 v 0 0 l -1,-1 v 0 h -1 v 0 0 h -1 v 0 h -1 v 0 h -1 v -1 h -1 v 0 h -1 v 0 h -1 v 0 h -1 v 0 h -1 v 0 l 2,-18 h 1 v 0 h 1 v 0 h 1 1 v 0 l 1,1 v 0 h 1 1 v 0 h 1 v 0 h 1 v 0 l 1,1 h 1 v 0 h 1 v 0 h 1 v 0 l 1,1 v 0 h 1 v 0 h 1 v 0 h 1 v 1 h 1 z m -6,17 z m 19,-9 -15,11 v 0 0 0 0 0 0 0 0 0 0 0 0 -1 0 0 0 0 h -1 v 0 0 0 0 0 h -1 v -1 0 0 0 h -1 v 0 0 0 h -1 l 6,-17 h 1 v 0 h 1 v 0 l 1,1 v 0 h 1 v 0 0 l 1,1 v 0 h 1 v 0 l 1,1 v 0 0 h 1 v 1 h 1 v 0 1 h 1 v 0 1 h 1 v 0 0 l 1,1 v 0 1 z m -15,11 v 0 -1 z m 19,2 h -18 v 0 0 0 0 0 -1 0 1 0 -1 0 0 0 0 0 0 0 0 0 0 0 0 0 0 0 -1 1 -1 0 0 0 h -1 v 0 l 15,-11 v 1 0 h 1 v 1 0 0 l 1,1 v 0 0 1 0 0 l 1,1 v 0 1 0 1 0 0 l 1,1 v 0 1 0 0 1 0 1 0 1 0 z m -18,318 V 532 h 18 v 318 l -2,5 z m 16,5 -16,22 v -27 z m 108,-144 -108,144 -14,-10 107,-145 z m 0,0 z m -6,-21 12,14 v 0 0 h -1 v 0 1 0 0 h -1 v 0 1 0 0 0 h -1 v 1 0 0 0 h -1 v 1 0 0 0 l -1,1 v 0 0 0 0 1 h -1 v 0 0 1 l -15,-10 v -1 0 h 1 v -1 0 0 l 1,-1 v 0 0 -1 h 1 v 0 -1 0 h 1 v -1 0 h 1 v -1 0 0 l 1,-1 v 0 0 l 1,-1 v 0 0 h 1 v -1 0 0 z m 14,-7 5,17 v 0 0 0 h -1 v 0 1 h -1 v 0 0 h -1 v 0 0 0 l -1,1 v 0 0 0 0 h -1 v 0 0 1 h -1 v 0 0 0 0 0 h -1 v 0 1 0 0 l -12,-14 v 0 0 h 1 v -1 h 1 v 0 -1 h 1 v 0 l 1,-1 v 0 0 h 1 v -1 h 1 v 0 h 1 v 0 l 1,-1 v 0 0 h 1 v -1 h 1 v 0 h 1 v 0 h 1 v -1 h 1 v 0 z m 0,0 z m 18,-4 2,18 v 0 h -1 v 0 l -1,1 v 0 h -1 v 0 h -1 v 0 h -1 -1 v 0 0 h -1 -1 v 0 1 h -1 v 0 h -1 v 0 h -1 v 0 h -1 v 0 0 l -1,1 v 0 h -1 v 0 0 h -1 v 0 l -5,-17 v 0 h 1 v -1 h 1 v 0 h 1 v 0 h 1 v 0 h 1 v -1 h 1 1 v 0 h 1 v 0 h 1 v 0 h 1 v -1 h 1 1 v 0 h 1 1 v 0 h 1 v 0 h 1 1 v 0 z m 26,-1 v 18 0 h -1 v 0 h -1 -1 -1 -1 -1 -1 l -1,1 v 0 h -1 -1 -1 -1 -1 v 0 h -1 -1 -1 v 0 h -1 -1 v 0 h -1 -1 v 0 h -1 -1 v 0 h -1 v 0 h -1 l -2,-18 h 1 v 0 h 1 1 1 v 0 h 1 1 1 v 0 h 1 1 1 v 0 h 1 1 1 1 1 v 0 h 1 1 1 l 1,-1 h 1 1 1 1 1 v 0 h 1 z m 27,1 -2,18 v 0 h -1 v 0 h -1 -1 v 0 h -1 -1 v 0 h -1 -1 v 0 h -1 -1 -1 v 0 h -1 -1 -1 v 0 h -1 -1 -1 -1 v -1 h -1 -1 -1 -1 -1 -1 -1 -1 v -18 h 1 1 1 1 1 1 1 1 l 1,1 h 1 v 0 h 1 1 1 1 1 v 0 h 1 1 1 1 v 0 h 1 1 1 v 0 h 1 1 1 v 0 h 1 z m 18,4 -5,17 v 0 0 h -1 v 0 h -1 v 0 0 l -1,-1 v 0 h -1 v 0 0 h -1 v 0 h -1 v 0 h -1 v -1 h -1 v 0 h -1 v 0 h -1 v 0 h -1 v 0 h -1 v 0 h -1 v 0 l -1,-1 h -1 v 0 l 2,-18 v 1 h 1 1 v 0 h 1 1 v 0 h 1 1 v 0 h 1 v 0 l 1,1 v 0 h 1 1 v 0 h 1 v 0 h 1 v 0 l 1,1 v 0 h 1 v 0 h 1 1 v 0 0 l 1,1 v 0 z m 0,0 z m 13,8 -14,11 v 0 0 0 0 0 0 0 0 0 0 0 0 0 h -1 v 0 0 0 -1 0 0 0 h -1 v 0 0 0 h -1 v 0 0 -1 h -1 v 0 0 0 l 5,-17 h 1 v 0 h 1 v 1 h 1 v 0 0 h 1 v 1 h 1 v 0 h 1 v 0 1 h 1 v 0 h 1 v 1 h 1 v 0 0 l 1,1 v 0 0 l 1,1 v 0 0 l 1,1 v 0 h 1 z m -14,11 z m 18,2 h -18 v 0 0 0 0 0 -1 0 1 -1 0 0 0 0 0 0 0 0 0 0 0 0 0 0 0 0 -1 0 0 0 0 0 0 0 l 14,-11 v 0 l 1,1 v 0 0 1 h 1 v 1 0 0 1 h 1 v 0 1 0 1 0 l 1,1 v 0 0 1 0 1 0 0 1 1 0 0 1 0 z m -3,17 -17,-8 v 0 0 h 1 v -1 0 0 -1 0 0 -1 0 h 1 v 0 -1 0 0 -1 0 0 0 -1 0 0 -1 0 0 0 -1 0 0 0 -1 0 h 18 v 1 0 1 0 1 0 1 0 1 0 1 0 1 0 1 0 l -1,1 v 0 1 0 1 1 h -1 v 1 0 1 0 1 h -1 v 1 0 z m -11,17 -13,-12 h -1 v 0 l 1,-1 v 0 0 l 1,-1 v 0 -1 h 1 v -1 0 l 1,-1 v 0 0 -1 h 1 v -1 0 0 l 1,-1 v 0 -1 0 h 1 v -1 0 0 -1 h 1 v -1 0 0 -1 l 17,8 h -1 v 1 0 1 h -1 v 1 0 1 h -1 v 1 0 l -1,1 v 0 1 0 l -1,1 v 0 1 h -1 v 1 1 h -1 v 1 0 l -1,1 v 0 l -1,1 v 0 1 h -1 v 1 h -1 z m 0,-1 v 0 1 z m -119,109 106,-120 13,12 -106,120 -14,-1 z m -1,11 -4,-6 5,-5 z m 123,190 -123,-190 15,-10 123,190 v 0 z m 15,-10 z m 8,15 -17,7 v 0 0 -1 0 0 l -1,-1 v 0 0 -1 0 0 l -1,-1 v 0 0 -1 0 l -1,-1 v 0 0 -1 0 l -1,-1 v 0 -1 0 h -1 v -1 0 -1 h -1 v -1 0 -1 l 15,-9 v 1 h 1 v 1 0 l 1,1 v 0 1 0 l 1,1 v 0 1 h 1 v 1 0 1 h 1 v 1 0 1 0 l 1,1 v 0 1 0 h 1 v 1 0 1 0 1 z m 3,15 h -18 v 0 -1 0 0 0 0 -1 0 0 0 h -1 v -1 0 0 0 -1 0 0 0 -1 0 0 0 -1 0 0 0 l -1,-1 v 0 0 0 -1 0 l 17,-7 v 1 0 1 0 l 1,1 v 0 1 0 0 1 0 l 1,1 v 0 1 0 1 0 0 1 0 1 0 1 0 0 l 1,1 v 0 1 0 1 0 z m 363,-159 -13,-12 v 0 0 -1 0 l 1,-1 v 0 0 l 1,-1 v 0 -1 0 l 1,-1 v 0 -1 -1 h 1 v -1 -1 0 -1 -1 h 1 v -1 -1 -1 -1 -1 -1 0 -1 -1 -1 -1 h 18 v 1 1 1 2 1 1 1 1 2 1 l -1,1 v 1 1 1 l -1,1 v 1 1 l -1,1 v 1 1 l -1,1 v 1 l -1,1 v 1 l -1,1 v 1 l -1,1 -1,1 v 1 l -1,1 h -1 z m -30,12 v -18 0 h 1 1 v 0 h 1 1 v 0 h 1 1 v 0 l 1,-1 v 0 h 1 v 0 h 1 1 v -1 0 h 1 v 0 h 1 v -1 h 1 v 0 h 1 v -1 0 h 1 v -1 0 h 1 v -1 h 1 l 13,12 -1,1 -1,1 v 0 l -1,1 -1,1 h -1 l -1,1 v 0 l -1,1 -1,1 h -1 -1 l -1,1 h -1 v 1 h -1 l -1,1 h -1 -1 -1 l -1,1 h -1 -1 -1 l -1,1 h -1 -1 -2 -1 -1 -1 z m -220,-18 h 220 v 18 h -220 l -9,-9 z m -9,9 v -9 h 9 z m 23,39 -18,5 v 1 -2 -1 l -1,-1 v -2 -1 l -1,-1 v -2 -1 -1 l -1,-2 v -1 -1 -2 l -1,-1 v -1 -2 -1 -2 l -1,-1 v -1 -2 -1 -2 -1 -2 -1 -1 -2 -1 -2 -1 -2 h 18 v 1 2 1 2 1 1 1 2 1 1 2 1 1 l 1,1 v 2 1 1 1 2 l 1,1 v 1 1 1 1 l 1,2 v 1 1 l 1,1 v 1 1 1 z m 0,0 v 0 1 z m 15,29 -13,12 v 0 l -1,-1 -1,-1 -1,-1 v -1 l -1,-1 -1,-1 -1,-1 v -1 l -1,-1 -1,-1 -1,-1 v -1 l -1,-1 -1,-1 v -1 l -1,-1 v -2 l -1,-1 -1,-1 v -1 l -1,-1 v -1 l -1,-1 v -2 l -1,-1 v -1 l -1,-1 v -2 -1 l -1,-1 v -1 l -1,-2 18,-5 v 1 2 l 1,1 v 1 1 l 1,1 v 1 l 1,1 v 1 0 l 1,1 v 1 l 1,1 v 1 l 1,1 v 1 l 1,1 v 1 l 1,1 v 0 l 1,1 v 1 l 1,1 v 1 l 1,1 v 0 l 1,1 1,1 v 1 h 1 v 1 z m -13,12 z m 40,5 -6,17 v 0 h -1 l -1,-1 h -2 l -1,-1 h -1 l -1,-1 h -1 l -2,-1 -1,-1 h -1 l -1,-1 h -1 l -1,-1 -2,-1 h -1 l -1,-1 -1,-1 -1,-1 h -1 l -1,-1 -1,-1 -1,-1 h -1 l -1,-1 -1,-1 -1,-1 -1,-1 h -1 l -1,-1 v -1 l -1,-1 -1,-1 13,-12 h 1 v 1 l 1,1 h 1 v 1 l 1,1 h 1 l 1,1 v 1 h 1 l 1,1 1,1 h 1 v 1 h 1 l 1,1 h 1 l 1,1 h 1 l 1,1 v 0 l 1,1 h 1 l 1,1 h 1 l 1,1 h 1 l 1,1 h 1 1 l 1,1 z m 42,7 v 18 0 h -1 -2 -2 -1 -2 l -2,-1 h -1 -2 -1 -2 -2 -1 l -2,-1 h -1 -2 -1 -2 l -1,-1 h -2 -1 l -2,-1 h -1 -2 -1 l -1,-1 h -2 l -1,-1 h -1 -2 l -1,-1 h -1 l -2,-1 6,-17 1,1 h 2 1 l 1,1 h 1 1 l 1,1 h 1 2 l 1,1 h 1 1 2 l 1,1 h 1 1 2 1 l 1,1 h 2 1 2 1 1 2 1 l 2,1 h 1 2 1 2 z m 46,-4 3,18 v 0 h -1 -1 -2 l -1,1 h -2 -1 -1 -2 l -1,1 h -2 -1 -2 -1 -2 l -1,1 h -2 -1 -2 -1 -2 -1 -2 -2 -1 l -2,1 h -1 -2 -2 -1 -2 -2 -2 v -18 h 2 2 1 2 1 2 2 l 1,-1 h 2 1 2 1 2 1 2 1 1 2 l 1,-1 h 1 2 1 2 1 l 1,-1 h 1 2 1 1 l 1,-1 h 2 z m 3,18 v 0 l 2,-1 z m 31,-26 5,17 v 0 h -1 -1 l -1,1 h -1 -1 l -1,1 h -1 -1 l -1,1 h -1 -1 -1 l -1,1 h -1 -1 -1 l -2,1 h -1 -1 l -1,1 h -1 -1 -2 l -1,1 h -1 -1 -1 l -2,1 h -1 -1 -1 l -2,1 -3,-18 h 1 l 1,-1 h 2 1 1 1 l 1,-1 h 1 2 l 1,-1 h 1 1 1 l 1,-1 h 1 1 1 l 1,-1 h 2 1 1 l 1,-1 h 1 1 v 0 l 1,-1 h 1 1 l 1,-1 h 1 1 z m 24,-9 7,17 v 0 h -1 -1 v 1 h -1 -1 v 1 h -1 -1 -1 v 1 h -1 -1 -1 v 1 h -1 -1 l -1,1 v 0 h -1 -1 l -1,1 h -1 -1 v 0 l -1,1 h -1 -1 l -1,1 h -1 -1 -1 l -1,1 -5,-17 1,-1 h 1 1 v -1 h 1 1 1 l 1,-1 h 1 1 v 0 l 1,-1 h 1 1 v -1 h 1 1 1 v -1 h 1 1 1 v -1 h 1 1 v 0 l 1,-1 v 0 h 1 1 v 0 z m 19,-4 v 18 0 0 0 h -1 v 0 0 h -1 v 0 0 0 h -1 v 0 0 h -1 v 0 0 h -1 v 1 h -1 v 0 0 h -1 v 0 h -1 v 0 l -1,1 v 0 h -1 v 0 h -1 v 1 h -1 v 0 l -7,-17 v 0 h 1 1 v -1 h 1 1 v 0 l 1,-1 h 1 v 0 h 1 v 0 l 1,-1 h 1 v 0 h 1 v 0 h 1 1 v -1 h 1 v 0 h 1 1 v 0 h 1 v 0 h 1 v 0 h 1 v 0 z m 11,2 -9,16 h -1 v 0 0 0 0 h 1 -1 1 v 0 h -1 1 v 0 0 h -1 1 -1 v 0 h 1 -1 v 0 0 0 0 0 0 0 0 0 h -1 v 0 0 0 0 -18 0 h 1 v 0 0 h 1 v 0 0 h 1 v 0 0 h 1 v 0 0 h 1 v 0 0 h 1 v 0 1 h 1 v 0 0 h 1 v 0 0 h 1 v 1 h 1 v 0 0 h 1 v 1 z m -9,16 h -1 v 0 z m 17,-6 -17,7 v 0 0 0 0 0 -1 0 0 0 0 h -1 1 -1 v 0 0 0 0 0 0 0 0 0 0 0 0 0 0 0 h 1 v 0 0 h -1 1 l 9,-16 v 1 0 0 h 1 v 1 h 1 v 0 0 l 1,1 v 0 0 0 0 l 1,1 v 0 0 l 1,1 v 0 0 1 0 h 1 v 0 1 0 1 h 1 v 0 0 1 0 1 z m -1,0 h 1 v 0 z m 3,13 -18,1 v 0 0 0 -1 0 0 -1 0 0 -1 0 0 0 -1 0 0 0 -1 0 0 0 l -1,-1 v 0 0 0 0 -1 1 -1 0 0 0 0 l 17,-7 v 0 0 1 0 0 1 0 l 1,1 v 0 0 1 0 1 0 0 1 0 l 1,1 v 0 0 1 0 1 0 0 1 0 1 0 1 0 z m 1,17 h -18 v 0 0 -1 0 -1 -1 0 -1 0 -1 0 -1 -1 0 -1 0 -1 0 -1 0 -1 0 0 -1 0 -1 0 -1 0 -1 0 0 l -1,-1 18,-1 v 0 l 1,1 v 0 1 0 1 0 1 0 1 0 1 0 1 0 1 0 1 0 1 1 0 1 0 1 1 0 1 0 1 z m 0,16 -18,-1 v 0 0 -1 0 -1 0 0 -1 0 -1 0 -1 0 0 -1 0 -1 0 -1 0 -1 0 -1 0 -1 0 -1 0 -1 0 -1 0 -1 h 18 v 1 0 1 1 0 1 0 1 0 1 0 1 0 1 0 1 0 1 0 1 0 1 0 1 0 1 0 0 1 0 z m -2,12 -18,-3 v 0 l 1,-1 v 0 0 0 -1 0 0 -1 0 0 0 -1 0 0 0 -1 0 0 -1 0 0 -1 0 0 0 -1 0 l 1,-1 v 0 0 -1 0 l 18,1 v 1 0 h -1 v 1 0 0 1 0 1 0 0 1 0 1 0 0 1 0 0 1 0 0 1 0 1 0 h -1 v 1 0 0 z m -18,-3 v 0 l 1,-1 z m 15,13 -16,-9 v 0 0 0 0 0 0 0 0 0 0 l 1,-1 v 0 0 0 0 0 0 0 -1 0 0 0 0 -1 0 0 0 0 0 -1 0 0 0 l 18,3 v 0 0 1 0 1 0 0 1 0 0 h -1 v 1 0 0 1 0 0 1 0 0 l -1,1 v 0 0 1 0 0 1 h -1 v 0 0 z m -16,-9 z m 10,17 -13,-13 v 1 -1 0 0 h 1 v 0 0 0 -1 0 0 0 0 h 1 v 0 0 -1 0 0 0 0 0 0 0 0 l 1,-1 v 0 0 0 0 0 -1 0 l 16,9 v 0 0 1 h -1 v 0 0 1 0 0 l -1,1 v 0 0 0 0 1 h -1 v 0 0 1 0 0 l -1,1 v 0 0 0 0 l -1,1 v 0 0 0 1 z m 0,0 z m -17,10 -7,-17 v 0 0 h 1 l 1,-1 v 0 h 1 l 1,-1 v 0 h 1 v 0 l 1,-1 v 0 h 1 v 0 l 1,-1 v 0 h 1 v 0 0 l 1,-1 v 0 0 0 h 1 v 0 0 0 -1 0 0 0 0 0 l 13,13 v 0 l -1,1 v 0 h -1 v 1 0 h -1 v 1 h -1 v 0 h -1 v 1 0 h -1 v 1 h -1 v 0 h -1 l -1,1 v 0 h -1 v 1 h -1 -1 v 0 l -1,1 h -1 v 0 l -1,1 h -1 v 0 z m -32,10 -4,-18 v 0 h 1 1 1 l 1,-1 h 1 1 l 1,-1 h 1 1 l 1,-1 h 1 1 1 l 1,-1 h 1 1 l 1,-1 h 1 1 1 v -1 h 1 1 l 1,-1 h 1 v 0 h 1 l 1,-1 h 1 v 0 l 1,-1 h 1 l 7,17 h -1 -1 l -1,1 h -1 v 0 l -1,1 h -1 -1 l -1,1 h -1 -1 l -1,1 v 0 h -1 l -1,1 h -1 -1 -1 l -1,1 h -1 -1 l -1,1 h -1 -2 l -1,1 h -1 -1 l -1,1 h -1 -1 l -1,1 z m -42,8 -3,-17 v 0 l 2,-1 h 1 1 2 l 1,-1 h 2 1 1 l 2,-1 h 1 1 2 l 1,-1 h 1 2 1 l 1,-1 h 1 2 1 l 1,-1 h 1 2 1 l 1,-1 h 1 1 1 l 2,-1 h 1 1 l 1,-1 4,18 h -1 -1 l -1,1 h -1 -2 l -1,1 h -1 -1 -2 l -1,1 h -1 -1 l -2,1 h -1 -1 -2 l -1,1 h -1 -2 -1 l -1,1 h -2 -1 -2 l -1,1 h -1 -2 -1 l -2,1 h -1 -2 z m -52,4 v -18 0 h 2 1 2 2 1 2 1 2 2 1 2 1 l 2,-1 h 1 2 2 1 2 1 2 l 1,-1 h 2 1 2 1 1 l 2,-1 h 1 2 1 2 1 l 3,17 -2,1 h -1 -2 -1 -2 l -1,1 h -2 -1 -2 -2 -1 l -2,1 h -1 -2 -2 -1 -2 -1 -2 -2 l -1,1 h -2 -2 -1 -2 -2 -1 -2 -2 -1 -2 z m -87,-13 5,-17 v 0 l 3,1 2,1 h 2 l 2,1 3,1 h 2 l 2,1 h 3 l 2,1 h 2 l 3,1 h 2 l 3,1 h 2 l 3,1 h 2 3 l 2,1 h 3 3 l 2,1 h 3 3 2 3 l 3,1 h 3 3 2 3 3 3 v 18 h -3 -3 -3 -3 -3 -3 l -3,-1 h -3 -3 -3 -2 l -3,-1 h -3 -3 l -3,-1 h -2 -3 l -3,-1 h -3 l -2,-1 h -3 l -2,-1 h -3 l -3,-1 -2,-1 h -3 l -2,-1 -3,-1 h -2 l -3,-1 -2,-1 z m 5,-17 z m -70,-22 13,-12 v 0 l 2,1 1,1 2,2 1,1 2,2 1,1 2,1 1,1 2,2 2,1 1,1 2,1 2,2 1,1 2,1 2,1 2,1 2,1 1,1 2,1 2,1 2,1 2,1 2,1 2,1 2,1 h 2 l 2,1 2,1 2,1 2,1 h 2 l -5,17 h -3 l -2,-1 -2,-1 -3,-1 -2,-1 -2,-1 -2,-1 -3,-1 -2,-1 -2,-1 -2,-1 -2,-1 -2,-1 -2,-1 -2,-2 -2,-1 -2,-1 -2,-1 -2,-2 -2,-1 -2,-1 -2,-2 -2,-1 -2,-1 -2,-2 -1,-1 -2,-2 -2,-1 -2,-2 -1,-1 -2,-2 z m 0,0 z m -38,-66 17,-5 v 0 l 1,2 1,2 v 2 l 1,3 1,2 1,2 1,2 1,2 v 2 l 1,2 1,2 1,2 1,2 1,2 1,2 1,1 1,2 2,2 1,2 1,2 1,1 1,2 1,2 2,1 1,2 1,2 1,1 2,2 1,1 1,2 2,1 1,2 -13,12 -1,-1 -2,-2 -1,-2 -2,-2 -1,-1 -2,-2 -1,-2 -2,-2 -1,-2 -1,-2 -2,-2 -1,-1 -1,-2 -2,-2 -1,-2 -1,-3 -1,-2 -2,-2 -1,-2 -1,-2 -1,-2 -1,-2 -1,-3 -1,-2 -1,-2 -1,-2 -1,-3 -1,-2 -1,-3 v -2 l -1,-2 z m 0,0 z m -12,-91 h 18 v 0 3 3 3 3 3 3 3 3 l 1,3 v 3 2 3 l 1,3 v 3 3 l 1,2 v 3 3 l 1,2 v 3 l 1,2 v 3 l 1,2 v 3 l 1,2 v 3 l 1,2 v 3 l 1,2 1,2 v 2 l 1,3 -17,5 -1,-2 -1,-3 v -2 l -1,-3 -1,-2 v -3 l -1,-3 v -2 l -1,-3 -1,-3 v -2 l -1,-3 v -3 -3 l -1,-3 v -2 l -1,-3 v -3 -3 l -1,-3 v -3 -3 -3 l -1,-3 v -3 -3 -3 -3 -3 -4 -3 z m 13,-90 17,6 v 0 l -1,2 -1,2 v 3 l -1,2 -1,3 v 2 l -1,2 -1,3 v 2 l -1,3 v 2 l -1,3 v 3 l -1,2 v 3 2 l -1,3 v 3 2 l -1,3 v 3 2 3 l -1,3 v 3 3 2 3 3 3 3 3 h -18 v -3 -3 -3 -3 -3 -3 -3 -3 l 1,-3 v -3 -3 -3 l 1,-3 v -3 -2 l 1,-3 v -3 l 1,-3 v -3 l 1,-2 v -3 l 1,-3 v -2 l 1,-3 1,-3 v -2 l 1,-3 1,-3 v -2 l 1,-3 1,-2 z m 17,6 z m 21,-75 14,12 v 0 l -2,2 -1,1 -2,2 -1,2 -1,1 -2,2 -1,2 -1,2 -1,1 -2,2 -1,2 -1,2 -1,2 -1,2 -1,2 -2,2 -1,1 -1,2 -1,2 -1,3 -1,2 -1,2 -1,2 -1,2 v 2 l -1,2 -1,2 -1,3 -1,2 -1,2 v 2 l -1,3 -17,-6 v -2 l 1,-3 1,-2 1,-3 1,-2 1,-3 1,-2 1,-2 1,-3 1,-2 1,-2 1,-2 1,-3 1,-2 2,-2 1,-2 1,-2 1,-3 1,-2 2,-2 1,-2 1,-2 2,-2 1,-2 2,-2 1,-2 1,-2 2,-1 1,-2 2,-2 2,-2 z m 14,12 z m 48,-55 6,16 v 0 l -2,1 -2,1 -2,1 -2,1 -1,1 -2,1 -2,1 -2,1 -2,1 -2,1 -2,1 -1,1 -2,1 -2,1 -2,2 -1,1 -2,1 -2,1 -2,2 -1,1 -2,1 -1,1 -2,2 -2,1 -1,2 -2,1 -1,2 -2,1 -1,2 -2,1 -1,2 -1,1 -14,-12 2,-2 1,-1 2,-2 2,-2 1,-1 2,-2 2,-2 1,-1 2,-2 2,-1 2,-2 2,-1 1,-2 2,-1 2,-2 2,-1 2,-1 2,-2 2,-1 2,-1 2,-1 2,-2 2,-1 2,-1 2,-1 2,-1 3,-1 2,-1 2,-1 2,-1 2,-1 z m 6,16 v 0 h 1 z m 74,-31 v 18 0 h -2 -3 -2 -3 -2 -3 -2 l -3,1 h -2 -3 -2 l -2,1 h -3 -2 l -2,1 h -3 l -2,1 h -2 l -3,1 h -2 l -2,1 h -2 l -2,1 h -3 l -2,1 -2,1 h -2 l -2,1 -2,1 -2,1 -2,1 h -3 l -6,-16 2,-1 2,-1 2,-1 3,-1 2,-1 h 2 l 3,-1 2,-1 3,-1 h 2 l 3,-1 h 2 l 2,-1 3,-1 h 2 l 3,-1 h 3 2 l 3,-1 h 2 3 l 2,-1 h 3 3 l 2,-1 h 3 3 2 3 3 3 z m 82,14 -7,17 v 0 l -2,-1 -2,-1 -2,-1 h -2 l -2,-1 -2,-1 h -2 l -2,-1 -2,-1 h -2 l -3,-1 h -2 l -2,-1 h -2 l -3,-1 h -2 -2 l -3,-1 h -2 -2 l -3,-1 h -2 -3 -2 l -3,-1 h -2 -3 -3 -2 -3 -3 -3 v -18 h 3 3 3 3 3 3 2 l 3,1 h 3 3 2 l 3,1 h 2 3 l 3,1 h 2 l 3,1 h 2 l 3,1 h 2 l 3,1 h 2 l 2,1 3,1 h 2 l 2,1 3,1 2,1 h 2 l 2,1 3,1 z m -7,17 v 0 l -1,-1 z m 63,22 -14,12 h 1 l -2,-1 -1,-1 -1,-2 -1,-1 -2,-1 -1,-2 -1,-1 -2,-1 -1,-1 -2,-2 -1,-1 -2,-1 -1,-1 -1,-1 -2,-1 -2,-1 -1,-1 -2,-2 -1,-1 -2,-1 -2,-1 -1,-1 -2,-1 -2,-1 h -1 l -2,-1 -2,-1 -2,-1 -2,-1 -1,-1 -2,-1 h -2 l 7,-17 2,1 2,1 2,1 2,1 2,1 2,1 2,1 2,1 2,1 2,1 2,1 2,1 1,1 2,1 2,2 2,1 2,1 1,1 2,2 2,1 1,1 2,2 2,1 1,1 2,2 1,1 2,2 1,1 2,2 1,1 2,2 z m 0,0 v 0 1 z m 32,60 -17,5 v 0 -2 l -1,-2 -1,-1 v -2 l -1,-2 -1,-2 v -2 l -1,-2 -1,-1 -1,-2 v -2 l -1,-2 -1,-1 -1,-2 -1,-2 -1,-1 -1,-2 -1,-2 v -1 l -1,-2 -1,-1 -1,-2 -1,-2 -1,-1 -2,-2 -1,-1 -1,-2 -1,-1 -1,-1 -1,-2 -1,-1 -2,-2 14,-12 1,2 2,2 1,1 1,2 2,2 1,1 1,2 1,2 2,1 1,2 1,2 1,2 1,2 1,1 1,2 1,2 1,2 1,2 1,2 1,2 1,2 1,2 1,1 1,2 v 3 l 1,2 1,2 1,2 v 2 l 1,2 1,2 z m 10,73 h -18 v 0 -2 -2 -3 -2 -2 -2 -3 -2 -2 -2 l -1,-2 v -3 -2 -2 l -1,-2 v -2 -2 -3 l -1,-2 v -2 l -1,-2 v -2 -2 l -1,-2 v -2 l -1,-2 v -2 l -1,-2 v -2 l -1,-2 v -2 l -1,-2 17,-5 1,2 1,2 v 2 l 1,3 v 2 l 1,2 v 2 l 1,2 v 3 l 1,2 v 2 l 1,2 v 2 3 l 1,2 v 2 3 l 1,2 v 2 3 2 2 l 1,3 v 2 2 3 2 3 2 2 3 z m -18,17 v -17 h 18 v 17 0 z m -114,-92 14,-11 v 0 l 2,2 1,2 1,2 1,2 1,2 1,1 1,2 1,2 1,2 1,3 1,2 1,2 1,2 v 2 l 1,2 1,3 v 2 l 1,2 v 3 l 1,2 v 3 2 l 1,3 v 2 3 2 3 l 1,3 v 2 3 3 3 l -18,-1 v -2 -3 -2 -3 l -1,-2 v -3 -2 -2 -2 l -1,-3 v -2 -2 l -1,-2 v -2 -2 l -1,-2 v -2 l -1,-2 -1,-1 v -2 l -1,-2 v -2 l -1,-1 -1,-2 -1,-2 v -1 l -1,-2 -1,-1 -1,-2 -1,-1 -1,-1 z m 0,0 v 0 l -1,-1 z m -50,-21 v -18 0 h 3 2 3 l 2,1 h 3 2 2 l 3,1 h 2 l 2,1 h 3 l 2,1 2,1 h 2 l 2,1 2,1 2,1 2,1 2,1 2,1 2,1 2,1 2,2 1,1 2,1 2,2 1,1 2,2 1,1 2,2 1,2 1,1 -14,11 -1,-1 -1,-1 -1,-2 -1,-1 -1,-1 -1,-1 -2,-1 -1,-1 -1,-1 -1,-1 -2,-1 -1,-1 h -1 l -2,-1 -1,-1 h -2 l -1,-1 -2,-1 h -2 l -1,-1 h -2 l -2,-1 h -2 -1 l -2,-1 h -2 -2 l -2,-1 h -2 -2 -3 z m -30,7 -8,-17 v 0 h 1 l 1,-1 h 1 l 1,-1 h 1 1 l 2,-1 h 1 l 1,-1 h 1 1 l 1,-1 h 1 2 l 1,-1 h 1 1 1 l 2,-1 h 1 1 1 2 1 1 l 1,-1 h 2 1 1 1 2 1 v 18 h -1 -1 -1 -1 -1 -1 -1 l -1,1 h -1 -1 -1 -1 -1 -1 l -1,1 h -1 -1 -1 -1 l -1,1 h -1 -1 v 0 l -1,1 h -1 -1 l -1,1 h -1 v 0 l -1,1 h -1 -1 z m 0,-1 v 0 1 z m -21,18 -14,-11 v 0 l 1,-1 v -1 l 1,-1 1,-1 v -1 h 1 l 1,-1 1,-1 v -1 l 1,-1 h 1 l 1,-1 1,-1 v -1 h 1 l 1,-1 1,-1 h 1 l 1,-1 1,-1 h 1 v -1 l 1,-1 h 1 l 1,-1 h 1 l 1,-1 h 1 l 1,-1 1,-1 h 1 l 1,-1 8,17 h -1 v 0 l -1,1 h -1 l -1,1 v 0 l -1,1 h -1 -1 v 1 h -1 l -1,1 v 0 l -1,1 h -1 v 1 l -1,1 h -1 v 1 h -1 l -1,1 v 0 l -1,1 v 1 h -1 l -1,1 v 0 l -1,1 v 1 h -1 v 1 z m -13,26 -17,-5 v 0 -1 l 1,-1 v -2 -1 l 1,-1 v -1 -1 l 1,-1 v -1 l 1,-1 v -1 l 1,-1 v -1 l 1,-1 v -1 l 1,-1 v -1 l 1,-1 v -1 l 1,-1 v -1 l 1,-1 v -1 l 1,-1 1,-1 v -1 l 1,-1 v -1 l 1,-1 1,-1 v 0 l 1,-1 14,11 v 0 l -1,1 v 1 h -1 v 1 l -1,1 v 1 h -1 v 1 l -1,1 v 1 h -1 v 1 1 l -1,1 v 1 l -1,1 v 0 l -1,1 v 1 1 l -1,1 v 1 1 h -1 v 1 1 l -1,1 v 1 1 l -1,1 z m 0,0 v 0 1 z m -14,24 v 18 l -9,-9 v -1 -1 -2 -1 -1 -1 -2 -1 -1 l 1,-1 v -2 -1 -1 -1 -1 l 1,-2 v -1 -1 -1 -1 l 1,-2 v -1 -1 -1 l 1,-1 v -1 -1 l 1,-2 v -1 -1 l 1,-1 v -1 l 17,5 v 1 1 l -1,1 v 1 1 l -1,1 v 1 1 1 l -1,1 v 1 1 1 1 l -1,1 v 1 1 1 2 1 1 l -1,1 v 1 1 1 1 1 1 1 2 1 1 z m 0,18 h -10 l 1,-9 z m 153,0 h -153 v -18 h 153 l 9,10 z m 9,-8 -1,8 h -8 z m 389,214 -17,-4 v 0 -1 0 -1 0 -1 0 -1 -1 0 l 1,-1 v -1 0 -1 -1 -1 0 -1 -1 -1 -1 -1 -1 0 -1 -1 -1 -1 l 1,-1 v -1 -1 -1 -1 h 18 v 1 1 1 1 l -1,1 v 1 1 1 1 1 1 1 1 1 1 1 1 1 1 1 0 l -1,1 v 1 1 1 1 0 1 1 l -1,1 v 0 z m -8,17 -13,-12 v 0 0 0 0 0 0 -1 0 h 1 v 0 0 0 -1 0 0 0 l 1,-1 v 0 0 0 -1 0 -1 0 h 1 v -1 0 -1 0 -1 0 -1 h 1 l 17,4 v 1 0 1 l -1,1 v 0 1 1 0 l -1,1 v 0 1 0 1 l -1,1 v 0 1 0 l -1,1 v 0 1 0 l -1,1 v 0 1 h -1 v 1 0 l -1,1 v 0 1 h -1 v 1 z m -13,-12 z m -1,21 -7,-16 v 0 h 1 v 0 -1 h 1 v 0 0 h 1 v 0 0 -1 h 1 v 0 0 h 1 v 0 -1 0 0 h 1 v 0 0 0 -1 h 1 v 0 0 0 0 0 0 l 1,-1 v 0 l 13,12 v 1 h -1 v 0 1 h -1 v 0 1 h -1 v 0 l -1,1 v 0 h -1 v 1 0 h -1 v 1 h -1 v 0 h -1 v 1 0 h -1 v 0 l -1,1 v 0 h -1 v 0 l -1,1 v 0 h -1 v 0 l -1,1 z m -7,-16 z m -11,22 -4,-17 v 0 h 1 v -1 h 1 v 0 h 1 v 0 h 1 v 0 h 1 v -1 h 1 v 0 h 1 v 0 h 1 v 0 l 1,-1 v 0 h 1 v 0 0 h 1 v -1 h 1 v 0 h 1 v 0 0 l 1,-1 v 0 h 1 v 0 l 7,16 v 1 h -1 v 0 h -1 v 1 h -1 v 0 h -1 v 0 l -1,1 h -1 v 0 h -1 v 0 h -1 v 1 h -1 -1 v 0 h -1 v 1 h -1 v 0 h -1 -1 v 0 l -1,1 h -1 v 0 h -1 v 0 z m -4,-17 z m -18,21 -2,-18 v 0 h 1 1 v 0 h 1 1 v 0 l 1,-1 h 1 v 0 h 1 v 0 h 1 1 v 0 h 1 1 v -1 h 1 v 0 h 1 1 v 0 h 1 v 0 h 1 l 1,-1 v 0 h 1 v 0 h 1 v 0 h 1 l 4,17 h -1 v 1 h -1 v 0 h -1 -1 v 0 h -1 l -1,1 v 0 h -1 -1 v 0 h -1 -1 v 0 h -1 l -1,1 h -1 v 0 h -1 -1 v 0 h -1 -1 v 0 h -1 l -1,1 h -1 v 0 h -1 z m -23,1 v -18 0 0 h 1 1 v 0 h 1 1 v 0 h 1 1 v 0 h 1 1 1 v 0 h 1 1 v 0 h 1 1 v 0 h 1 1 v 0 h 1 l 1,-1 v 0 h 1 1 v 0 h 1 1 v 0 l 2,18 v 0 h -1 -1 -1 v 0 h -1 -1 -1 v 1 h -1 -1 v 0 h -1 -1 -1 v 0 h -1 -1 -1 v 0 h -1 -1 -1 v 0 h -1 -1 -1 v 0 h -1 -1 z m -56,-8 6,-17 v 0 h 1 l 1,1 h 2 l 1,1 h 2 1 l 1,1 h 2 1 l 2,1 h 1 2 l 1,1 h 2 1 2 l 1,1 h 2 1 2 2 1 l 2,1 h 2 1 2 2 2 1 2 2 2 v 18 h -2 -2 -2 -2 -2 -2 -2 -2 -1 l -2,-1 h -2 -2 -2 -1 l -2,-1 h -2 -2 -1 l -2,-1 h -2 -2 l -1,-1 h -2 -1 l -2,-1 h -2 l -1,-1 h -2 l -1,-1 h -2 l -2,-1 z m 0,0 v 0 h 1 z m -41,-26 14,-12 v 0 1 h 1 l 1,1 1,1 1,1 1,1 1,1 h 1 v 1 l 1,1 1,1 h 1 l 1,1 1,1 h 1 l 1,1 1,1 h 1 l 2,1 1,1 h 1 l 1,1 h 1 l 1,1 h 1 l 1,1 2,1 h 1 l 1,1 h 1 2 l 1,1 -6,17 -2,-1 h -1 l -2,-1 h -1 l -1,-1 -2,-1 h -1 l -2,-1 h -1 l -1,-1 -2,-1 -1,-1 h -1 l -2,-1 -1,-1 -1,-1 -2,-1 h -1 l -1,-1 -1,-1 -1,-1 -2,-1 -1,-1 -1,-1 -1,-1 -1,-1 -1,-1 -1,-1 -2,-1 -1,-1 -1,-1 z m 0,0 v 0 h 1 z m -23,-44 17,-5 v 0 1 l 1,2 v 1 l 1,1 v 2 l 1,1 v 1 l 1,2 v 1 l 1,1 v 1 l 1,2 v 1 l 1,1 1,1 v 1 l 1,2 v 1 l 1,1 1,1 v 1 l 1,1 1,1 v 1 l 1,1 1,1 1,1 v 1 l 1,1 1,1 1,1 1,1 -14,12 -1,-1 -1,-1 -1,-2 -1,-1 -1,-1 -1,-1 v -1 l -1,-2 -1,-1 -1,-1 -1,-1 -1,-2 v -1 l -1,-1 -1,-2 -1,-1 v -2 l -1,-1 -1,-1 -1,-2 v -1 l -1,-2 v -1 l -1,-2 -1,-1 v -2 l -1,-1 v -2 l -1,-1 v -2 l -1,-2 z m 17,-5 v 0 -2 z m -25,-55 h 18 v 0 l 1,2 v 2 2 2 1 2 2 2 2 2 2 2 l 1,1 v 2 2 2 1 l 1,2 v 2 1 2 l 1,2 v 1 2 l 1,1 v 2 1 l 1,2 v 1 2 l 1,1 v 2 l -17,5 -1,-2 v -2 l -1,-1 v -2 -2 l -1,-1 v -2 -2 l -1,-2 v -1 -2 l -1,-2 v -2 -2 -1 l -1,-2 v -2 -2 -2 -2 l -1,-2 v -2 -2 -2 -2 -2 -2 -2 -2 -2 -2 z m 18,-186 v 186 h -18 V 773 l 9,-9 z m -9,-9 h 9 v 9 z m -43,0 h 43 v 18 h -43 v 0 z m -20,3 16,-7 v 0 0 1 h 1 v 1 0 0 0 1 h 1 v 0 0 0 0 0 1 0 h 1 v 0 0 0 0 0 0 0 0 0 0 0 0 0 h 1 v 0 18 h -1 -1 -1 -1 -1 v -1 h -1 -1 -1 l -1,-1 v 0 h -1 l -1,-1 h -1 v -1 h -1 l -1,-1 v 0 l -1,-1 v -1 h -1 v -1 l -1,-1 v 0 l -1,-1 v -1 h -1 v -1 -1 l -1,-1 v 0 l -1,-1 z m 16,-7 z m -21,-28 h 18 v 0 1 1 1 2 1 1 1 1 2 1 1 1 1 1 l 1,1 v 1 0 1 1 1 1 0 l 1,1 v 1 0 1 1 0 l 1,1 v 0 1 0 l -16,7 -1,-1 v -1 0 l -1,-1 v -1 -1 l -1,-1 v -1 -1 -1 -1 l -1,-1 v -1 -1 -1 -1 -1 l -1,-1 v -1 -2 -1 -1 -1 -2 -1 -1 -1 -2 -1 -2 -1 z m 1,-22 18,3 v 0 h -1 v 1 0 1 0 1 0 1 0 1 0 1 0 1 0 1 1 0 1 0 1 1 0 1 1 0 1 1 0 1 1 1 h -18 v -1 -1 -1 0 -1 -1 -1 0 -1 -1 0 -1 -1 -1 0 -1 0 -1 -1 0 -1 -1 0 -1 0 -1 -1 0 -1 h 1 v -1 z m 3,-15 17,7 v 0 0 1 0 0 0 1 h -1 v 0 0 1 0 0 1 0 0 0 1 0 l -1,1 v 0 0 1 0 0 1 0 1 0 0 1 0 1 l -18,-3 v 0 -1 0 -1 0 -1 0 -1 0 l 1,-1 v 0 -1 0 -1 0 -1 0 -1 h 1 v -1 0 -1 0 -1 0 h 1 v -1 0 -1 0 -1 h 1 z m 17,7 v 0 1 z m -8,-17 10,14 v 1 0 -1 1 0 0 0 0 h -1 1 v 0 h -1 v 0 0 0 0 0 0 0 0 1 0 0 0 0 0 0 h -1 v 0 1 0 0 0 l -17,-7 h 1 v -1 0 0 -1 h 1 v -1 0 0 -1 h 1 v 0 -1 0 h 1 v -1 0 0 l 1,-1 v 0 -1 h 1 v 0 0 l 1,-1 v 0 0 h 1 v -1 0 z m 10,14 v 0 1 z m 2,-18 v 18 0 0 0 0 0 0 h -1 v 0 0 0 0 0 0 0 0 0 0 0 h -1 1 v 0 h -1 v 0 0 0 0 0 0 0 0 0 0 0 l -10,-14 v -1 0 h 1 v 0 l 1,-1 v 0 0 h 1 v 0 0 l 1,-1 v 0 0 h 1 v 0 h 1 v 0 h 1 v 0 -1 h 1 v 0 0 h 1 v 0 h 1 v 0 0 h 1 v 0 z m 43,18 h -43 v -18 h 43 l 9,9 z m 9,-9 v 9 h -9 z m 0,-81 v 81 h -18 v -81 0 z m -14,-13 15,11 v 0 0 0 0 0 0 0 0 0 0 0 0 0 0 0 1 0 0 0 0 0 0 0 0 0 0 0 0 0 1 0 h -1 v 0 h -18 v -1 h 1 v 0 -1 0 0 -1 0 -1 0 -1 0 0 -1 0 -1 h 1 v 0 -1 0 0 -1 0 l 1,-1 v 0 0 -1 0 h 1 v -1 0 z m 0,0 z m 13,-8 6,17 v 0 0 0 h -1 v 0 0 0 h -1 v 0 0 1 0 h -1 v 0 0 0 0 0 0 0 h -1 v 1 0 0 0 0 0 0 0 0 0 0 0 l -15,-11 h 1 v -1 0 h 1 v -1 0 h 1 v -1 0 h 1 v -1 0 h 1 v 0 l 1,-1 v 0 0 h 1 v -1 h 1 v 0 0 h 1 v -1 h 1 v 0 0 l 1,-1 v 0 h 1 v 0 z m 18,-4 2,18 v 0 h -1 v 0 h -1 v 0 h -1 -1 v 0 h -1 v 0 h -1 v 1 h -1 v 0 0 h -1 v 0 h -1 v 0 h -1 v 0 0 l -1,1 v 0 0 h -1 v 0 h -1 v 0 0 0 h -1 v 1 l -6,-17 v 0 l 1,-1 v 0 h 1 v 0 h 1 v 0 l 1,-1 v 0 h 1 v 0 h 1 v 0 h 1 v -1 h 1 1 v 0 h 1 v 0 h 1 v 0 h 1 l 1,-1 v 0 h 1 1 v 0 h 1 1 v 0 z m 25,-1 v 18 0 0 h -1 -1 -1 -1 -1 -1 v 0 h -1 -1 -1 -1 v 0 h -1 -1 -1 v 0 h -1 -1 -1 v 0 h -1 -1 v 0 h -1 -1 v 0 l -1,1 v 0 h -1 -1 v 0 l -2,-18 h 1 v 0 h 1 1 v 0 l 1,-1 h 1 v 0 h 1 1 1 1 v 0 h 1 1 1 v 0 h 1 1 1 1 1 v 0 h 1 1 1 1 1 1 1 z m 26,1 -2,18 v 0 0 h -1 v 0 h -1 l -1,-1 v 0 h -1 v 0 h -1 -1 v 0 h -1 -1 -1 v 0 h -1 -1 -1 v 0 h -1 -1 -1 -1 v 0 h -1 -1 -1 -1 -1 -1 -1 -1 v -18 h 1 1 1 1 1 1 1 1 1 1 v 0 h 1 1 1 1 1 v 0 h 1 1 1 v 0 h 1 1 1 v 0 h 1 l 1,1 h 1 v 0 h 1 z m 19,4 -7,16 v 1 -1 h -1 v 0 0 0 h -1 v 0 0 h -1 v 0 l -1,-1 v 0 0 h -1 v 0 0 h -1 v 0 h -1 v 0 h -1 v -1 h -1 v 0 h -1 v 0 h -1 v 0 h -1 v 0 h -1 -1 l 2,-18 h 1 1 v 0 h 1 1 v 0 h 1 1 v 1 h 1 v 0 h 1 v 0 h 1 1 v 0 h 1 v 1 h 1 v 0 h 1 v 0 h 1 1 v 1 h 1 v 0 h 1 v 0 h 1 v 1 z m 0,0 z m 11,8 -14,11 v 0 0 0 0 0 0 0 0 0 0 0 -1 0 h -1 v 0 0 0 0 0 0 0 h -1 v 0 -1 0 0 h -1 v 0 0 0 h -1 v 0 -1 l 7,-16 v 0 h 1 v 0 1 h 1 v 0 h 1 v 0 1 h 1 v 0 h 1 v 0 1 h 1 v 0 0 l 1,1 v 0 h 1 v 0 1 h 1 v 0 1 h 1 v 0 1 h 1 v 0 1 h 1 z m -14,11 v 0 -1 z m 19,2 h -18 v 0 0 0 0 0 -1 0 0 0 0 0 0 0 0 0 0 0 0 0 0 h -1 v 0 0 -1 0 0 0 0 0 0 0 0 0 l 14,-11 h 1 v 1 0 1 h 1 v 0 1 0 h 1 v 1 0 1 0 0 1 h 1 v 1 0 1 0 0 1 0 1 h 1 v 0 1 0 1 0 0 z m -18,81 v -81 h 18 v 81 l -9,9 z m 9,9 h -9 v -9 z m 78,0 h -78 v -18 h 78 v 0 z m 12,-14 -10,15 v -1 0 0 0 0 0 0 0 0 0 0 0 0 0 0 0 0 0 0 h -1 v 0 0 0 0 0 0 0 0 0 0 h -1 v 0 0 -18 h 1 v 0 0 h 1 v 0 h 1 v 0 h 1 v 0 0 h 1 v 0 l 1,1 v 0 0 h 1 v 0 0 h 1 v 0 h 1 v 1 h 1 v 0 0 h 1 v 0 1 h 1 v 0 0 l 1,1 z m -10,15 v -1 0 z m 19,-5 -17,7 v 0 0 0 0 0 0 -1 0 0 0 h -1 v 0 0 -1 0 0 0 0 0 0 0 0 0 0 0 0 0 0 0 h -1 v -1 1 0 l 10,-15 h 1 v 0 0 l 1,1 v 0 0 h 1 v 1 0 h 1 v 1 0 h 1 v 1 0 0 l 1,1 v 0 0 1 h 1 v 0 1 0 0 l 1,1 v 0 1 0 0 z m 0,0 z m 3,15 -17,3 v 0 -1 0 l -1,-1 v 0 0 -1 0 -1 0 -1 0 0 -1 0 0 -1 h -1 v 0 -1 0 0 0 -1 0 0 0 -1 0 0 h -1 v -1 0 l 17,-7 v 0 1 0 1 h 1 v 1 0 1 0 0 1 h 1 v 1 0 1 0 1 0 1 0 l 1,1 v 0 1 0 1 0 1 0 1 0 z m 2,22 h -18 v 0 -1 -1 -1 0 -1 -1 0 l -1,-1 v -1 0 -1 -1 0 -1 0 -1 -1 0 -1 0 -1 0 -1 0 -1 0 -1 0 -1 0 -1 0 l 17,-3 1,1 v 0 1 1 0 1 1 0 1 0 1 1 0 1 1 0 1 0 1 1 1 0 1 1 0 l 1,1 v 1 1 0 1 1 z m -5,35 -17,-7 v 0 0 l 1,-1 v 0 -1 0 -1 0 l 1,-1 v -1 0 -1 -1 -1 -1 -1 h 1 v -1 -1 -1 -1 -1 -1 -1 -2 -1 -1 -1 -1 l 1,-2 v -1 -1 -1 h 18 v 1 1 2 l -1,1 v 2 1 1 1 2 1 1 1 2 1 1 l -1,1 v 1 1 1 1 1 l -1,1 v 1 1 1 1 l -1,1 v 1 0 l -1,1 v 1 z m 0,0 z m -20,15 v -18 0 0 0 0 0 0 0 0 0 0 0 0 h 1 v 0 0 0 0 0 0 -1 0 0 h 1 v 0 0 -1 0 0 l 1,-1 v 0 0 -1 0 l 17,7 -1,1 v 1 0 l -1,1 v 1 0 l -1,1 v 1 h -1 v 1 l -1,1 v 0 l -1,1 -1,1 v 0 l -1,1 v 0 l -1,1 h -1 l -1,1 v 0 h -1 l -1,1 h -1 -1 v 0 l -1,1 h -1 -1 -1 v 0 z m -79,-18 h 79 v 18 h -79 l -9,-9 z m -9,9 v -9 h 9 z m 0,170 V 773 h 18 v 170 0 z m 26,40 -16,10 v 0 -2 l -1,-1 -1,-1 v -1 l -1,-1 v -2 l -1,-1 v -1 l -1,-2 v -1 l -1,-2 v -1 l -1,-1 v -2 -1 l -1,-2 v -1 -2 l -1,-2 v -1 -2 -2 -1 l -1,-2 v -2 -2 -1 -2 -2 -2 -2 -2 h 18 v 2 2 1 2 2 1 2 1 2 l 1,1 v 2 1 2 1 l 1,1 v 1 2 1 l 1,1 v 1 1 l 1,1 v 1 1 l 1,1 v 1 l 1,1 v 1 1 h 1 v 1 z m 25,11 v 18 0 h -1 l -2,-1 h -2 -1 -2 -1 -2 l -1,-1 h -2 -1 l -2,-1 h -1 -2 l -1,-1 h -1 l -2,-1 -1,-1 h -1 l -1,-1 -2,-1 h -1 l -1,-1 -1,-1 -1,-1 -1,-1 -1,-1 -1,-1 -1,-1 -1,-1 -1,-1 -1,-1 -1,-1 16,-10 v 1 0 l 1,1 v 0 l 1,1 v 0 l 1,1 v 0 l 1,1 h 1 v 1 h 1 1 v 1 h 1 l 1,1 v 0 h 1 l 1,1 h 1 1 1 l 1,1 h 1 1 1 1 1 2 1 l 1,1 z m 13,-2 4,18 v 0 h -1 v 0 h -1 v 0 h -1 v 1 h -1 v 0 h -1 v 0 h -1 v 0 h -1 v 0 h -1 v 0 h -1 v 0 h -1 v 0 h -1 v 0 h -1 v 0 h -1 v 1 h -1 -1 v 0 h -1 v 0 h -1 v -18 h 1 v 0 h 1 v 0 h 1 v 0 -1 h 1 v 0 h 1 v 0 h 1 v 0 0 h 1 v 0 h 1 v 0 0 h 1 v 0 0 h 1 v 0 h 1 v 0 0 h 1 v 0 0 z m 11,-3 5,17 h 1 -1 v 1 h -1 v 0 0 h -1 v 0 0 h -1 v 1 h -1 v 0 0 h -1 v 0 0 h -1 v 0 l -1,1 v 0 h -1 v 0 0 h -1 v 0 h -1 v 0 1 h -1 v 0 h -1 v 0 l -4,-18 v 0 h 1 v 0 0 h 1 v 0 0 h 1 v 0 0 l 1,-1 v 0 0 h 1 v 0 0 h 1 v 0 0 h 1 v -1 0 h 1 v 0 0 h 1 v 0 0 0 h 1 v 0 -1 z m -1,0 v 0 h 1 z m 8,-3 8,17 h -1 v 0 0 0 h -1 v 0 1 0 h -1 v 0 0 0 h -1 v 0 0 1 h -1 v 0 0 h -1 v 0 0 h -1 v 0 0 l -1,1 v 0 0 0 h -1 v 0 0 h -1 l -5,-17 v 0 0 h 1 v 0 0 0 h 1 v 0 -1 0 h 1 v 0 0 0 h 1 v 0 0 0 h 1 v -1 0 0 h 1 v 0 0 0 0 h 1 v 0 -1 0 h 1 z m 8,17 v 0 h -1 z m 2,-19 v 18 0 0 0 0 0 0 0 0 0 0 h -1 v 0 0 0 0 0 0 0 0 0 0 0 l -1,1 v 0 h 1 -1 v 0 0 0 0 0 0 0 l -8,-17 h 1 v 0 0 h 1 v 0 0 h 1 v 0 -1 h 1 v 0 0 0 h 1 v 0 0 h 1 v 0 0 h 1 v 0 -1 h 1 v 0 0 0 h 1 v 0 0 h 1 z m 10,3 -10,15 v 0 0 0 0 0 0 0 0 0 0 0 0 0 0 0 0 0 0 0 0 0 0 0 0 0 0 0 0 0 0 0 0 0 -18 0 h 1 v 0 0 h 1 v 0 0 h 1 v 0 0 1 h 1 v 0 h 1 v 0 0 0 h 1 v 0 0 l 1,1 v 0 0 h 1 v 0 0 0 h 1 v 1 0 0 z m 0,0 z m 7,11 -17,5 v 0 0 0 -1 0 0 0 h -1 v 0 0 0 0 0 0 0 -1 0 1 0 0 0 0 -1 0 1 0 0 0 h 1 v 0 0 0 0 l 10,-15 v 1 h 1 v 0 0 l 1,1 v 0 0 h 1 v 1 0 0 1 h 1 v 0 1 h 1 v 0 1 0 0 1 h 1 v 0 1 0 0 1 h 1 v 1 0 0 z m 0,0 z m 2,13 -17,2 v 0 0 -1 h -1 v -1 0 0 -1 0 0 -1 0 -1 0 0 -1 0 0 -1 h -1 v 0 0 -1 0 0 -1 0 0 -1 0 0 0 0 l 17,-5 v 0 1 0 0 1 h 1 v 0 0 1 0 1 0 0 1 0 1 0 0 l 1,1 v 0 1 0 0 1 0 1 0 1 0 1 0 z m 2,20 h -18 v 0 -1 -1 0 -1 -1 0 -1 l -1,-1 v 0 -1 0 -1 -1 0 -1 0 -1 0 -1 0 -1 -1 0 0 -1 0 -1 0 -1 0 -1 0 l 17,-2 h 1 v 1 0 1 0 1 0 1 0 1 1 0 1 1 0 1 0 1 1 0 1 1 0 1 1 h 1 v 1 1 0 1 1 z" />
   </g>
   <ellipse
   class="fil2"
   transform="matrix(-0.42213,-0.294722,-0.262391,0.375822,4016.18,594.333)"
   rx="102"
   ry="109"
   id="ellipse18757"
   cx="0"
   cy="0" />
   <g
   id="g18761">
    <path
   class="fil1"
   d="m 3940,436 12,-1 h 12 11 12 l 11,1 11,1 11,2 10,2 10,2 10,3 10,3 9,4 9,4 9,4 8,5 9,6 7,6 8,6 7,7 7,7 7,7 6,8 6,8 6,9 5,9 5,9 4,10 5,10 4,10 3,11 4,11 3,12 -35,9 -3,-11 -3,-10 -3,-9 -4,-9 -3,-9 -4,-9 -5,-8 -4,-7 -5,-7 -5,-7 -5,-7 -5,-6 -6,-6 -6,-5 -6,-5 -6,-5 -7,-4 -7,-4 -7,-4 -7,-3 -8,-3 -8,-3 -8,-2 -9,-2 -8,-2 -10,-1 -9,-1 -10,-1 h -10 -10 -11 l -11,1 z"
   id="path18759" />
   </g>
   <g
   id="g18765">
    <path
   class="fil1"
   d="m 3923,324 19,-1 18,-1 h 18 17 l 17,1 16,2 16,2 16,3 15,4 15,4 15,5 14,6 13,6 13,7 13,7 12,8 12,9 12,9 10,10 11,11 10,11 9,12 9,12 9,13 7,14 8,14 7,15 7,15 6,16 5,16 6,17 4,18 -35,9 -4,-17 -5,-16 -5,-15 -6,-14 -6,-14 -6,-14 -7,-12 -7,-13 -8,-11 -8,-11 -8,-11 -9,-9 -9,-10 -9,-8 -10,-9 -10,-7 -11,-7 -11,-7 -11,-6 -12,-5 -13,-5 -12,-4 -14,-4 -13,-3 -15,-3 -14,-2 -15,-2 -16,-1 h -16 -16 -17 l -18,2 z"
   id="path18763" />
   </g>
   <g
   id="g18769">
    <path
   class="fil1"
   d="m 3918,206 25,-1 23,-1 24,-1 22,1 23,1 21,3 21,3 21,4 20,5 19,5 19,7 19,7 17,8 17,9 17,10 16,10 15,11 15,13 14,13 14,14 13,14 12,16 12,16 11,17 10,18 10,18 9,19 9,20 8,21 7,22 7,22 6,23 -35,9 -6,-22 -6,-21 -7,-21 -8,-19 -8,-19 -8,-18 -9,-17 -10,-16 -10,-16 -11,-15 -11,-14 -12,-13 -12,-12 -13,-12 -13,-11 -14,-10 -14,-10 -15,-9 -15,-8 -16,-7 -17,-7 -17,-6 -18,-5 -19,-4 -19,-4 -19,-2 -20,-3 -21,-1 -22,-1 -22,1 -22,1 -24,1 z"
   id="path18767" />
   </g>
   <g
   id="g18775">
    <path
   class="fil0"
   d="m 694,0 348,200 347,201 v 802 L 1042,1403 694,1604 347,1403 0,1203 V 802 401 L 347,200 Z"
   id="path18771" />
    <path
   id="path18773"
   class="fil2"
   d="m 694,0 348,200 347,201 v 802 L 1042,1403 694,1604 347,1403 0,1203 V 802 401 L 347,200 Z M 996,278 694,104 392,278 90,453 v 349 349 l 302,174 302,175 302,-175 303,-174 V 453 Z" />
   </g>
   <g
   id="g18779">
    <path
   class="fil1"
   d="m 1069,598 h 54 l -2,84 -7,80 -11,74 -15,68 -19,64 -22,58 -25,53 -28,48 -31,43 -33,37 -36,32 -37,26 -39,21 -41,15 -41,9 -41,3 -42,-2 -41,-9 -41,-15 -39,-20 -37,-26 -36,-31 -33,-37 -31,-43 -28,-47 -26,-53 -22,-59 -18,-64 -15,-69 -12,-75 -6,-80 -3,-85 h 54 l 3,83 6,77 11,71 14,66 18,61 21,55 23,49 26,44 28,38 29,33 31,27 32,22 33,17 33,12 34,7 33,2 34,-2 33,-8 33,-12 33,-18 32,-22 31,-28 30,-33 28,-39 26,-43 23,-50 21,-54 18,-61 14,-65 11,-71 6,-76 z"
   id="path18777" />
   </g>
   <ellipse
   class="fil2"
   cx="292"
   cy="455"
   rx="45"
   ry="46"
   id="ellipse18781" />
   <ellipse
   class="fil2"
   cx="1095"
   cy="455"
   rx="45"
   ry="46"
   id="ellipse18783" />
  </g>
 </g>
</svg>
