<?xml version="1.0" encoding="UTF-8" standalone="no"?>
<!-- Creator: CorelDRAW X7 -->

<svg
   xml:space="preserve"
   width="76.352142"
   height="85.783989"
   version="1.0"
   style="clip-rule:evenodd;fill-rule:evenodd;image-rendering:optimizeQuality;shape-rendering:geometricPrecision;text-rendering:geometricPrecision"
   viewBox="0 0 7635214.2 8578398.9"
   id="svg1595"
   sodipodi:docname="Umarket Naira.svg"
   inkscape:version="1.1.2 (b8e25be833, 2022-02-05)"
   xmlns:inkscape="http://www.inkscape.org/namespaces/inkscape"
   xmlns:sodipodi="http://sodipodi.sourceforge.net/DTD/sodipodi-0.dtd"
   xmlns="http://www.w3.org/2000/svg"
   xmlns:svg="http://www.w3.org/2000/svg"><sodipodi:namedview
   id="namedview1597"
   pagecolor="#ffffff"
   bordercolor="#999999"
   borderopacity="1"
   inkscape:pageshadow="0"
   inkscape:pageopacity="0"
   inkscape:pagecheckerboard="0"
   showgrid="false"
   inkscape:zoom="3.6025641"
   inkscape:cx="36.224199"
   inkscape:cy="38.58363"
   inkscape:window-width="1366"
   inkscape:window-height="745"
   inkscape:window-x="-8"
   inkscape:window-y="-8"
   inkscape:window-maximized="1"
   inkscape:current-layer="svg1595" />
 <defs
   id="defs1548">
  <style
   type="text/css"
   id="style1546">
   <![CDATA[
    .str0 {stroke:#00C800;stroke-width:89857.1}
    .fil0 {fill:none}
    .fil3 {fill:#00C800}
    .fil1 {fill:white}
    .fil2 {fill:#00C800;fill-rule:nonzero}
   ]]>
  </style>
 </defs>
 <g
   id="Layer_x0020_1"
   inkscape:label="Layer 1"
   inkscape:groupmode="layer"
   transform="translate(-4169538.1,-3935641.3)">
  <metadata
   id="CorelCorpID_0Corel-Layer" />
  <g
   id="_2072775073584">
   <path
   class="fil0 str0"
   d="M 7966861,8225111 4940845,6477968"
   id="path1551" />
   <path
   class="fil0 str0"
   d="M 8006601,11743101 7966861,8225111 11033560,6500373"
   id="path1553" />
   <circle
   class="fil1 str0"
   transform="matrix(0.249961,-0.432938,0.432944,0.249956,8006620,11742900)"
   r="1497619"
   id="circle1555"
   cx="0"
   cy="0" />
   <circle
   class="fil1 str0"
   transform="matrix(0.249961,-0.432938,0.432944,0.249956,11033600,6500180)"
   r="1497619"
   id="circle1557"
   cx="0"
   cy="0" />
   <circle
   class="fil1 str0"
   transform="matrix(0.249961,-0.432938,0.432944,0.249956,4940980,6477780)"
   r="1497619"
   id="circle1559"
   cx="0"
   cy="0" />
   <path
   class="fil0 str0"
   d="M 7966861,8225111 4940845,9972255"
   id="path1561" />
   <path
   class="fil0 str0"
   d="M 11033442,9949732 7966861,8225111 8006483,4706886"
   id="path1563" />
   <circle
   class="fil1 str0"
   transform="matrix(-0.249955,-0.432941,0.43294,-0.249962,11033200,9949580)"
   r="1497619"
   id="circle1565"
   cx="0"
   cy="0" />
   <circle
   class="fil1 str0"
   transform="matrix(-0.249955,-0.432941,0.43294,-0.249962,8006380,4706790)"
   r="1497619"
   id="circle1567"
   cx="0"
   cy="0" />
   <circle
   class="fil1 str0"
   transform="matrix(-0.249955,-0.432941,0.43294,-0.249962,4940680,9971930)"
   r="1497619"
   id="circle1569"
   cx="0"
   cy="0" />
   <ellipse
   class="fil1 str0"
   cx="7883282"
   cy="8144461"
   rx="1780217"
   ry="1780214"
   id="ellipse1571" />
   <g
   id="g1575">
    <path
   class="fil2"
   d="m 8555177,7682431 h 71697 l -4245,150116 -12146,140917 -19693,131602 -26769,122050 -33254,112734 -39150,103419 -44693,93984 -49999,84551 -54480,75116 -58726,65565 -62263,55896 -65565,46226 -68277,36320 -70282,26297 -71933,16037 -72641,5778 -72640,-4717 -71933,-14976 -70518,-25353 -68395,-35495 -65683,-45518 -62381,-55424 -58608,-65093 -54598,-74763 -49999,-84315 -44693,-94220 -39268,-103536 -33136,-113442 -26769,-122994 -19693,-132545 -12146,-142215 -4245,-152002 h 71697 l 4009,148465 11910,138441 18986,128536 25825,118748 31957,108725 37382,98819 42334,89032 46697,79126 50589,69339 53891,59668 56249,50000 58372,40329 59904,31250 60849,21815 61555,12854 62028,4009 61791,-4834 61556,-13915 61084,-22759 60022,-31840 58490,-41272 56367,-50707 53773,-60141 50707,-69692 46697,-79362 42334,-88796 37500,-98701 31839,-108253 25825,-117805 18986,-127357 11910,-137144 z"
   id="path1573" />
   </g>
   <ellipse
   class="fil3"
   cx="7153962"
   cy="7426421"
   rx="71773"
   ry="72825"
   id="ellipse1577" />
   <ellipse
   class="fil3"
   cx="8588382"
   cy="7426421"
   rx="71773"
   ry="72825"
   id="ellipse1579" />
   <path
   class="fil3"
   d="m 5190488,6737280 c 0,7311 -1298,13679 -3656,19457 -2594,5543 -5896,10142 -10259,14033 -4246,3656 -9080,6368 -14859,8137 -5896,1769 -11674,2476 -17570,2476 h -52594 c -11084,0 -20518,-1061 -28419,-3066 -7901,-2240 -15212,-6250 -22052,-12028 -6839,-5778 -13207,-13561 -19457,-23466 -6132,-9788 -13207,-22524 -21108,-38207 l -43160,-81485 h -155304 v 140092 c 0,3066 -825,6014 -2594,8491 -1651,2358 -4717,4481 -8962,6250 -4128,1768 -9906,3066 -16981,4009 -7311,943 -16509,1415 -27712,1415 -11085,0 -20165,-472 -27358,-1415 -7193,-943 -12854,-2241 -16745,-4009 -4245,-1651 -7076,-3892 -8491,-6250 -1533,-2477 -2358,-5425 -2358,-8491 v -140092 h -142687 v -78537 h 142687 v -78300 h -142687 v -78419 h 142687 v -169337 c 0,-14740 4363,-25825 12971,-33136 8373,-7311 18986,-10967 31604,-10967 h 65919 c 11910,0 21933,825 30188,2948 8136,2123 15212,5424 21698,10023 6367,4717 12499,11203 18042,19576 5660,8136 11320,18514 17216,30660 l 79834,150233 h 110847 v -195280 c 0,-3066 944,-5896 2949,-8490 1768,-2359 4952,-4599 9198,-6486 4481,-1887 10259,-3184 17452,-4127 7311,-708 16509,-1062 27594,-1062 10849,0 19811,354 26886,1062 7312,943 12618,2240 16628,4127 3891,1887 6721,4127 8136,6486 1651,2594 2477,5306 2477,8490 v 195280 h 142686 v 78419 h -142686 v 78300 h 142686 v 78537 h -142686 z m -274878,-192686 -41509,-78300 h -72051 v 78300 z m 133606,0 h 30660 l -708,-67451 v -10849 h -69220 l 16745,32782 c 6604,12972 13207,25825 19221,38797 z m -215681,-156719 -10141,-21344 c -9080,-19457 -16981,-38561 -24292,-56957 h -943 c 1297,22524 2240,44929 2948,67334 l 236,10967 z"
   id="path1581" />
   <path
   class="fil3"
   d="m 8256479,12002531 c 0,7311 -1297,13679 -3656,19457 -2594,5542 -5896,10141 -10259,14033 -4245,3655 -9080,6368 -14858,8137 -5896,1768 -11675,2476 -17571,2476 h -52593 c -11085,0 -20519,-1061 -28420,-3066 -7900,-2241 -15212,-6250 -22051,-12028 -6840,-5778 -13208,-13561 -19457,-23467 -6132,-9787 -13208,-22523 -21109,-38207 l -43159,-81484 h -155305 v 140092 c 0,3066 -825,6014 -2594,8490 -1651,2359 -4717,4481 -8962,6250 -4127,1769 -9906,3066 -16981,4010 -7311,943 -16509,1415 -27712,1415 -11084,0 -20165,-472 -27358,-1415 -7193,-944 -12853,-2241 -16745,-4010 -4245,-1651 -7075,-3891 -8490,-6250 -1533,-2476 -2359,-5424 -2359,-8490 v -140092 h -142686 v -78537 h 142686 v -78301 h -142686 v -78418 h 142686 v -169337 c 0,-14741 4363,-25825 12972,-33137 8372,-7311 18985,-10966 31603,-10966 h 65919 c 11910,0 21934,825 30188,2948 8137,2122 15212,5424 21698,10023 6368,4717 12500,11203 18042,19575 5660,8137 11321,18514 17217,30660 l 79833,150234 h 110848 v -195280 c 0,-3066 943,-5896 2948,-8491 1769,-2358 4953,-4599 9198,-6486 4481,-1886 10259,-3183 17452,-4127 7312,-707 16510,-1061 27594,-1061 10849,0 19811,354 26887,1061 7311,944 12618,2241 16627,4127 3891,1887 6721,4128 8137,6486 1650,2595 2476,5307 2476,8491 v 195280 h 142686 v 78418 h -142686 v 78301 h 142686 v 78537 h -142686 z m -274878,-192686 -41509,-78301 h -72051 v 78301 z m 133606,0 h 30660 l -707,-67452 v -10849 h -69221 l 16745,32783 c 6604,12971 13208,25825 19222,38796 z m -215680,-156719 -10142,-21344 c -9080,-19458 -16980,-38561 -24292,-56957 h -943 c 1297,22523 2241,44929 2948,67334 l 236,10967 z"
   id="path1583" />
   <path
   class="fil3"
   d="m 11308438,10142535 c 0,7312 -1298,13679 -3656,19458 -2594,5542 -5896,10141 -10259,14032 -4246,3656 -9080,6368 -14859,8137 -5896,1769 -11674,2476 -17570,2476 h -52594 c -11084,0 -20518,-1061 -28419,-3066 -7901,-2240 -15212,-6249 -22052,-12028 -6839,-5778 -13207,-13561 -19457,-23466 -6132,-9788 -13207,-22524 -21108,-38207 l -43160,-81485 h -155304 v 140092 c 0,3066 -825,6014 -2594,8491 -1651,2358 -4717,4481 -8962,6250 -4128,1769 -9906,3066 -16981,4009 -7312,943 -16509,1415 -27712,1415 -11085,0 -20165,-472 -27358,-1415 -7194,-943 -12854,-2240 -16745,-4009 -4245,-1651 -7076,-3892 -8491,-6250 -1533,-2477 -2358,-5425 -2358,-8491 v -140092 h -142687 v -78536 h 142687 v -78301 h -142687 v -78419 h 142687 v -169337 c 0,-14740 4363,-25825 12971,-33136 8373,-7311 18986,-10967 31604,-10967 h 65918 c 11911,0 21934,826 30189,2948 8136,2123 15212,5425 21697,10024 6368,4716 12500,11202 18043,19575 5660,8136 11320,18514 17216,30660 l 79834,150233 h 110847 v -195280 c 0,-3066 944,-5896 2949,-8490 1768,-2359 4952,-4599 9197,-6486 4482,-1887 10260,-3184 17453,-4127 7311,-708 16509,-1062 27594,-1062 10849,0 19811,354 26886,1062 7312,943 12618,2240 16627,4127 3892,1887 6722,4127 8137,6486 1651,2594 2477,5306 2477,8490 v 195280 h 142686 v 78419 h -142686 v 78301 h 142686 v 78536 h -142686 z m -274878,-192685 -41509,-78301 h -72051 v 78301 z m 133606,0 h 30660 l -708,-67452 v -10849 h -69220 l 16745,32782 c 6604,12972 13207,25825 19221,38797 z m -215681,-156720 -10141,-21344 c -9080,-19457 -16981,-38561 -24292,-56956 h -943 c 1297,22523 2240,44928 2948,67333 l 235,10967 z"
   id="path1585" />
   <path
   class="fil3"
   d="m 11283438,6759686 c 0,7311 -1297,13679 -3656,19457 -2594,5542 -5896,10141 -10259,14033 -4245,3655 -9080,6367 -14858,8136 -5896,1769 -11675,2477 -17571,2477 h -52593 c -11085,0 -20519,-1062 -28420,-3066 -7900,-2241 -15212,-6250 -22051,-12028 -6840,-5779 -13208,-13562 -19457,-23467 -6132,-9788 -13208,-22523 -21109,-38207 l -43159,-81485 h -155305 v 140093 c 0,3066 -825,6014 -2594,8490 -1651,2358 -4717,4481 -8962,6250 -4127,1769 -9906,3066 -16981,4009 -7311,944 -16509,1415 -27712,1415 -11085,0 -20165,-471 -27358,-1415 -7193,-943 -12853,-2240 -16745,-4009 -4245,-1651 -7075,-3892 -8490,-6250 -1533,-2476 -2359,-5424 -2359,-8490 v -140093 h -142686 v -78536 h 142686 v -78301 h -142686 v -78419 h 142686 v -169337 c 0,-14740 4363,-25825 12972,-33136 8372,-7311 18985,-10967 31603,-10967 h 65919 c 11910,0 21933,826 30188,2948 8137,2123 15212,5425 21698,10024 6368,4717 12500,11202 18042,19575 5660,8137 11321,18514 17217,30660 l 79833,150233 h 110848 v -195280 c 0,-3066 943,-5896 2948,-8490 1769,-2359 4953,-4599 9198,-6486 4481,-1887 10259,-3184 17452,-4127 7312,-708 16510,-1061 27594,-1061 10849,0 19811,353 26887,1061 7311,943 12617,2240 16627,4127 3891,1887 6721,4127 8137,6486 1650,2594 2476,5306 2476,8490 v 195280 h 142686 v 78419 h -142686 v 78301 h 142686 v 78536 h -142686 z m -274878,-192686 -41509,-78301 h -72051 v 78301 z m 133606,0 h 30660 l -707,-67452 v -10849 h -69221 l 16745,32783 c 6604,12971 13208,25825 19222,38796 z m -215680,-156720 -10142,-21344 c -9080,-19457 -16980,-38560 -24292,-56956 h -943 c 1297,22523 2240,44928 2948,67334 l 236,10966 z"
   id="path1587" />
   <path
   class="fil3"
   d="m 8261785,4945090 c 0,7312 -1297,13679 -3655,19458 -2594,5542 -5896,10141 -10259,14032 -4246,3656 -9080,6368 -14859,8137 -5896,1769 -11674,2476 -17570,2476 h -52594 c -11084,0 -20518,-1061 -28419,-3066 -7901,-2240 -15212,-6249 -22052,-12028 -6839,-5778 -13207,-13561 -19457,-23466 -6132,-9788 -13207,-22524 -21108,-38207 l -43160,-81485 h -155304 v 140092 c 0,3066 -826,6014 -2594,8491 -1651,2358 -4717,4481 -8962,6250 -4128,1769 -9906,3066 -16981,4009 -7312,943 -16510,1415 -27712,1415 -11085,0 -20165,-472 -27358,-1415 -7194,-943 -12854,-2240 -16745,-4009 -4246,-1651 -7076,-3892 -8491,-6250 -1533,-2477 -2358,-5425 -2358,-8491 v -140092 h -142687 v -78536 h 142687 v -78301 h -142687 v -78419 h 142687 v -169337 c 0,-14740 4363,-25825 12971,-33136 8373,-7311 18986,-10967 31604,-10967 h 65918 c 11911,0 21934,826 30189,2948 8136,2123 15212,5425 21697,10024 6368,4716 12500,11202 18043,19575 5660,8136 11320,18514 17216,30660 l 79834,150233 h 110847 v -195280 c 0,-3066 944,-5896 2948,-8490 1769,-2359 4953,-4599 9198,-6486 4482,-1887 10260,-3184 17453,-4127 7311,-708 16509,-1062 27594,-1062 10849,0 19811,354 26886,1062 7312,943 12618,2240 16627,4127 3892,1887 6722,4127 8137,6486 1651,2594 2476,5306 2476,8490 v 195280 h 142687 v 78419 h -142687 v 78301 h 142687 v 78536 h -142687 z m -274877,-192685 -41509,-78301 h -72051 v 78301 z m 133606,0 h 30660 l -708,-67452 v -10849 h -69220 l 16745,32782 c 6603,12972 13207,25825 19221,38797 z m -215681,-156720 -10141,-21344 c -9080,-19457 -16981,-38561 -24292,-56956 h -944 c 1298,22523 2241,44928 2949,67333 l 235,10967 z"
   id="path1589" />
   <path
   class="fil3"
   d="m 5190370,10231567 c 0,7311 -1298,13679 -3656,19457 -2594,5543 -5896,10142 -10259,14033 -4245,3656 -9080,6368 -14859,8137 -5896,1769 -11674,2476 -17570,2476 h -52594 c -11084,0 -20518,-1061 -28419,-3066 -7901,-2240 -15212,-6250 -22051,-12028 -6840,-5778 -13208,-13561 -19458,-23467 -6132,-9787 -13207,-22523 -21108,-38207 l -43160,-81484 h -155304 v 140092 c 0,3066 -825,6014 -2594,8490 -1651,2359 -4717,4482 -8962,6250 -4128,1769 -9906,3066 -16981,4010 -7311,943 -16509,1415 -27712,1415 -11085,0 -20165,-472 -27358,-1415 -7193,-944 -12854,-2241 -16745,-4010 -4245,-1651 -7076,-3891 -8491,-6250 -1533,-2476 -2358,-5424 -2358,-8490 v -140092 h -142687 v -78537 h 142687 v -78300 h -142687 v -78419 h 142687 v -169337 c 0,-14740 4363,-25825 12971,-33136 8373,-7312 18986,-10967 31604,-10967 h 65919 c 11910,0 21933,825 30188,2948 8136,2122 15212,5424 21698,10023 6367,4717 12499,11203 18042,19575 5660,8137 11320,18514 17216,30660 l 79834,150234 h 110848 v -195280 c 0,-3066 943,-5896 2948,-8491 1768,-2358 4952,-4599 9198,-6485 4481,-1887 10259,-3184 17452,-4128 7311,-707 16509,-1061 27594,-1061 10849,0 19811,354 26886,1061 7312,944 12618,2241 16628,4128 3891,1886 6721,4127 8136,6485 1651,2595 2477,5307 2477,8491 v 195280 h 142686 v 78419 h -142686 v 78300 h 142686 v 78537 h -142686 z m -274878,-192686 -41509,-78300 h -72051 v 78300 z m 133606,0 h 30660 l -707,-67452 v -10848 h -69221 l 16745,32782 c 6604,12972 13207,25825 19221,38797 z m -215681,-156719 -10141,-21344 c -9080,-19457 -16981,-38561 -24292,-56957 h -943 c 1297,22523 2240,44929 2948,67334 l 236,10967 z"
   id="path1591" />
  </g>
 </g>
</svg>
