<?xml version="1.0" encoding="UTF-8" standalone="no"?>
<!-- Creator: CorelDRAW X7 -->

<svg
   xml:space="preserve"
   width="52.916668mm"
   height="20.6001mm"
   version="1.0"
   style="clip-rule:evenodd;fill-rule:evenodd;image-rendering:optimizeQuality;shape-rendering:geometricPrecision;text-rendering:geometricPrecision"
   viewBox="0 0 5291.5865 2059.9787"
   id="svg114915"
   sodipodi:docname="Umarket.svg"
   inkscape:version="1.1.2 (b8e25be833, 2022-02-05)"
   xmlns:inkscape="http://www.inkscape.org/namespaces/inkscape"
   xmlns:sodipodi="http://sodipodi.sourceforge.net/DTD/sodipodi-0.dtd"
   xmlns="http://www.w3.org/2000/svg"
   xmlns:svg="http://www.w3.org/2000/svg"><sodipodi:namedview
   id="namedview114917"
   pagecolor="#ffffff"
   bordercolor="#666666"
   borderopacity="1.0"
   inkscape:pageshadow="2"
   inkscape:pageopacity="0.0"
   inkscape:pagecheckerboard="0"
   inkscape:document-units="mm"
   showgrid="false"
   inkscape:zoom="1.0719972"
   inkscape:cx="100.28011"
   inkscape:cy="38.246367"
   inkscape:window-width="1366"
   inkscape:window-height="745"
   inkscape:window-x="-8"
   inkscape:window-y="-8"
   inkscape:window-maximized="1"
   inkscape:current-layer="Layer_x0020_1" />
 <defs
   id="defs114876">
  <style
   type="text/css"
   id="style114874">
   <![CDATA[
    .str2 {stroke:#00C800;stroke-width:19.13}
    .str0 {stroke:#00C800;stroke-width:9.34}
    .str1 {stroke:#00C800;stroke-width:299.65;stroke-linecap:round}
    .fil2 {fill:#00C800}
    .fil0 {fill:white}
    .fil1 {fill:#00C800;fill-rule:nonzero}
   ]]>
  </style>
 </defs>
 <g
   id="Layer_x0020_1"
   inkscape:label="Layer 1"
   inkscape:groupmode="layer"
   transform="translate(-1599.175,-3933.9456)">
  <metadata
   id="CorelCorpID_0Corel-Layer" />
  
  
  <g
   id="g115017"
   transform="matrix(0.47441899,0,0,0.47441899,840.49601,2067.6071)"><g
     id="g114882">
   <path
   class="fil0"
   d="m 7086,6764 c 0,6 -2,12 -7,17 -3,6 -10,10 -20,13 -9,3 -22,6 -38,8 -17,1 -37,2 -62,2 -26,0 -47,-1 -63,-2 -17,-2 -30,-5 -39,-8 -10,-3 -17,-7 -21,-13 -3,-5 -5,-11 -5,-17 v -535 c 0,-31 -3,-58 -9,-83 -5,-26 -14,-47 -26,-65 -12,-17 -27,-31 -44,-41 -18,-10 -39,-15 -64,-15 -31,0 -61,12 -92,36 -31,23 -65,58 -101,103 v 600 c 0,6 -2,12 -6,17 -4,6 -11,10 -21,13 -9,3 -23,6 -39,8 -16,1 -36,2 -61,2 -25,0 -45,-1 -62,-2 -16,-2 -29,-5 -39,-8 -10,-3 -17,-7 -20,-13 -5,-5 -7,-11 -7,-17 v -535 c 0,-31 -2,-58 -8,-83 -6,-26 -14,-47 -26,-65 -12,-17 -26,-31 -44,-41 -19,-10 -40,-15 -64,-15 -31,0 -62,12 -93,36 -31,23 -65,58 -100,103 v 600 c 0,6 -2,12 -6,17 -4,6 -11,10 -21,13 -10,3 -23,6 -39,8 -16,1 -37,2 -62,2 -25,0 -45,-1 -61,-2 -16,-2 -29,-5 -39,-8 -10,-3 -17,-7 -21,-13 -4,-5 -6,-11 -6,-17 v -904 c 0,-6 2,-12 5,-17 3,-5 9,-9 18,-13 9,-3 20,-6 34,-7 14,-2 31,-3 52,-3 22,0 39,1 54,3 14,1 25,4 33,7 7,4 13,8 16,13 4,5 5,11 5,17 v 105 c 50,-54 100,-94 150,-121 49,-27 101,-40 155,-40 37,0 71,3 100,11 30,8 56,19 80,33 23,15 43,32 60,52 17,21 31,43 42,68 28,-29 54,-54 80,-75 26,-20 52,-38 77,-51 25,-13 50,-23 76,-29 25,-6 51,-9 77,-9 60,0 111,10 152,30 41,20 74,48 99,82 26,35 44,76 54,122 11,47 17,96 17,148 z m 1018,3 c 0,9 -4,16 -10,22 -7,5 -18,9 -32,12 -15,2 -36,3 -65,3 -30,0 -52,-1 -66,-3 -14,-3 -24,-7 -30,-12 -5,-6 -8,-13 -8,-22 v -72 c -37,40 -80,70 -127,93 -48,22 -100,33 -158,33 -48,0 -92,-7 -132,-19 -40,-12 -75,-31 -104,-56 -30,-24 -52,-55 -69,-91 -16,-37 -24,-79 -24,-127 0,-53 11,-99 31,-138 21,-39 51,-70 92,-96 41,-25 91,-44 152,-56 61,-12 131,-18 211,-18 h 88 v -55 c 0,-28 -3,-53 -8,-74 -6,-21 -16,-39 -29,-53 -13,-15 -30,-25 -52,-32 -22,-6 -49,-10 -81,-10 -43,0 -81,5 -114,14 -34,10 -63,20 -88,32 -26,11 -47,22 -65,31 -17,9 -31,14 -41,14 -8,0 -15,-2 -20,-7 -6,-4 -11,-11 -14,-20 -4,-9 -7,-20 -9,-32 -2,-13 -3,-27 -3,-43 0,-21 2,-37 5,-49 3,-12 10,-23 19,-33 10,-10 26,-20 50,-32 23,-12 51,-23 83,-33 32,-10 66,-19 103,-25 38,-6 77,-9 116,-9 71,0 132,6 182,20 50,14 91,35 124,64 32,29 56,66 71,111 15,45 22,99 22,161 z m -251,-388 h -97 c -41,0 -76,4 -105,9 -29,7 -52,16 -71,28 -18,12 -31,27 -39,44 -9,17 -13,37 -13,59 0,38 12,68 36,89 24,22 57,32 99,32 36,0 69,-9 99,-27 30,-18 60,-45 91,-80 z m 1085,-434 c 0,24 -1,44 -2,59 -1,16 -4,28 -6,37 -3,8 -6,15 -11,18 -4,3 -10,5 -17,5 -5,0 -11,-1 -18,-4 -6,-2 -14,-4 -23,-7 -8,-3 -17,-5 -27,-8 -11,-2 -22,-3 -34,-3 -14,0 -28,3 -42,8 -14,6 -29,15 -44,27 -16,12 -31,29 -48,49 -17,20 -34,45 -53,75 v 563 c 0,6 -2,12 -6,17 -4,6 -11,10 -21,13 -10,3 -23,6 -39,8 -16,1 -37,2 -62,2 -25,0 -45,-1 -61,-2 -16,-2 -29,-5 -39,-8 -10,-3 -17,-7 -21,-13 -4,-5 -6,-11 -6,-17 v -904 c 0,-6 2,-12 5,-17 3,-5 9,-9 18,-13 9,-3 20,-6 34,-7 14,-2 31,-3 52,-3 22,0 39,1 54,3 14,1 25,4 33,7 7,4 13,8 16,13 4,5 5,11 5,17 v 113 c 24,-34 46,-61 67,-83 21,-22 41,-40 60,-52 19,-13 38,-22 57,-27 18,-5 37,-7 56,-7 9,0 19,0 29,1 10,1 20,3 31,5 11,2 21,5 28,8 9,3 15,6 18,10 4,3 7,7 8,11 2,4 3,9 5,17 1,7 2,17 3,31 1,15 1,34 1,58 z m 995,820 c 0,6 -1,12 -5,17 -4,6 -10,9 -20,12 -10,4 -24,6 -40,8 -17,1 -39,2 -66,2 -28,0 -51,-1 -68,-2 -17,-1 -31,-3 -42,-6 -11,-4 -20,-8 -26,-13 -6,-5 -12,-13 -16,-21 l -301,-476 v 478 c 0,6 -2,12 -6,17 -4,6 -11,10 -21,13 -9,3 -22,6 -38,8 -17,1 -37,2 -62,2 -25,0 -46,-1 -62,-2 -16,-2 -29,-5 -39,-8 -10,-3 -17,-7 -20,-13 -4,-5 -7,-11 -7,-17 V 5433 c 0,-7 3,-13 7,-19 3,-5 10,-10 20,-13 10,-4 23,-7 39,-9 16,-2 37,-3 62,-3 25,0 45,1 62,3 16,2 29,5 38,9 10,3 17,8 21,13 4,6 6,12 6,19 v 792 l 268,-359 c 5,-9 11,-16 18,-22 6,-6 15,-10 26,-14 11,-3 25,-6 42,-7 16,-2 37,-3 63,-3 25,0 46,1 63,3 17,1 31,4 42,7 10,4 17,8 21,13 4,5 6,11 6,19 0,10 -2,21 -7,32 -6,11 -13,23 -23,37 l -264,299 306,473 c 8,13 14,25 18,35 4,9 5,18 5,27 z m 932,-479 c 0,31 -7,54 -21,69 -14,15 -33,22 -57,22 h -550 c 0,39 5,73 14,105 9,31 24,57 43,79 20,22 46,38 77,50 32,11 69,17 113,17 44,0 83,-3 117,-10 34,-6 63,-13 88,-21 24,-8 44,-15 61,-21 16,-7 29,-10 39,-10 6,0 11,1 15,3 4,3 8,7 11,13 2,6 4,15 5,26 1,11 2,25 2,41 0,15 -1,28 -2,38 0,11 -1,20 -3,27 -1,8 -3,14 -6,19 -2,5 -6,10 -10,14 -5,5 -16,12 -36,20 -20,8 -45,16 -75,24 -30,8 -65,15 -104,21 -39,6 -81,9 -125,9 -81,0 -151,-10 -211,-31 -60,-20 -111,-50 -152,-92 -40,-41 -70,-93 -90,-155 -20,-63 -30,-137 -30,-221 0,-80 11,-152 32,-217 20,-64 51,-118 91,-163 40,-45 88,-79 145,-103 57,-24 121,-35 193,-35 76,0 140,11 194,33 54,22 97,53 132,93 34,39 60,86 76,140 16,54 24,112 24,176 z m -247,-72 c 3,-72 -12,-128 -43,-169 -30,-41 -78,-61 -142,-61 -32,0 -61,6 -85,18 -24,12 -44,28 -60,49 -15,21 -28,45 -36,73 -8,28 -13,58 -15,90 z m 977,461 c 0,30 -1,52 -5,68 -4,16 -9,27 -15,33 -6,7 -15,13 -27,18 -12,5 -26,9 -41,13 -16,4 -33,6 -52,9 -19,2 -37,3 -56,3 -51,0 -94,-7 -132,-20 -37,-12 -67,-32 -92,-59 -24,-26 -42,-60 -53,-101 -12,-40 -18,-88 -18,-143 v -463 h -109 c -13,0 -23,-7 -30,-23 -6,-16 -10,-43 -10,-80 0,-20 1,-36 3,-50 1,-13 4,-24 7,-32 4,-8 8,-13 13,-17 5,-3 11,-5 18,-5 h 108 v -202 c 0,-6 2,-12 6,-18 4,-5 11,-10 20,-13 10,-4 23,-7 40,-9 16,-1 37,-2 61,-2 25,0 46,1 63,2 16,2 29,5 39,9 9,3 16,8 20,13 4,6 6,12 6,18 v 202 h 196 c 7,0 13,2 17,5 6,4 10,9 13,17 4,8 6,19 8,32 2,14 2,30 2,50 0,37 -3,64 -10,80 -7,16 -16,23 -29,23 h -197 v 424 c 0,50 8,87 23,111 16,25 43,37 83,37 14,0 26,-1 36,-3 11,-3 21,-5 29,-8 9,-3 16,-6 21,-8 6,-3 11,-4 16,-4 4,0 8,1 12,4 3,2 6,6 8,14 2,7 4,16 6,28 2,13 2,28 2,47 z"
   id="path114879" />
   <path
   id="1"
   class="fil1"
   d="m 7098,6795 -37,-27 v -1 0 h 1 v -1 0 0 0 0 0 0 0 0 0 0 0 0 -1 0 0 0 0 0 0 0 0 0 -1 0 0 0 0 0 0 h 47 v 1 1 1 1 l -1,1 v 1 1 1 1 1 l -1,2 v 1 1 1 l -1,1 v 1 l -1,1 v 1 1 l -1,1 v 1 l -1,1 v 1 l -1,1 v 1 h -1 v 1 l -1,1 -1,1 v 1 l -1,1 -1,1 z m -37,-27 v -1 0 z m 5,48 -14,-44 h -1 1 1 v 0 h 1 v -1 h 1 v 0 l 1,-1 v 0 h 1 v 0 h 1 v -1 0 h 1 v 0 0 l 1,-1 v 0 0 0 0 h 1 v 0 0 0 0 0 -1 1 0 0 l 37,27 -1,1 -1,1 v 1 l -1,1 -1,1 -1,1 -1,1 h -1 l -1,1 -1,1 -1,1 v 0 l -1,1 -1,1 h -1 l -1,1 -1,1 h -1 l -1,1 h -1 l -1,1 h -1 l -1,1 h -1 l -1,1 h -1 l -1,1 h -1 l -1,1 h -2 -1 l -1,1 z m 1,0 v 0 h -1 z m -44,9 -5,-46 v 0 h 2 l 1,-1 h 1 2 1 1 2 l 1,-1 h 1 1 1 2 l 1,-1 h 1 1 1 1 l 1,-1 h 1 1 1 l 1,-1 h 1 1 1 v 0 l 1,-1 h 1 1 1 l 1,-1 v 0 l 14,44 h -1 l -1,1 h -1 -1 l -1,1 h -1 -2 l -1,1 h -1 -1 l -1,1 h -2 -1 l -1,1 h -2 -1 -1 l -2,1 h -1 -2 -1 l -1,1 h -2 -1 -2 l -1,1 h -2 -1 -2 -2 l -1,1 z m -64,2 v -46 0 h 2 2 3 2 2 2 2 2 2 3 1 2 2 2 2 l 2,-1 h 2 2 2 1 2 2 1 2 2 1 l 2,-1 h 1 2 1 2 1 l 5,46 h -2 -1 -2 -2 -1 l -2,1 h -2 -2 -2 -1 -2 -2 -2 -2 l -2,1 h -2 -2 -2 -2 -2 -2 -3 -2 -2 -2 -2 -3 -2 -2 -2 -3 z m -66,-2 5,-46 v 0 h 2 1 1 2 2 l 1,1 h 2 1 2 2 1 2 2 2 2 2 l 1,1 h 2 2 2 2 2 3 2 2 2 2 3 2 2 3 2 v 46 h -3 -2 -2 -3 -2 -2 -3 -2 -2 -2 -3 -2 -2 -2 -2 -2 -2 l -2,-1 h -2 -2 -2 -2 -2 -2 -2 -1 l -2,-1 h -2 -2 -1 -2 z m -44,-9 15,-44 v 0 0 l 1,1 h 1 1 1 l 1,1 v 0 h 1 1 1 l 1,1 h 1 1 1 l 1,1 h 1 1 1 2 l 1,1 h 1 1 1 2 l 1,1 h 1 1 2 1 1 l 2,1 h 1 l -5,46 h -1 l -2,-1 h -2 -1 -2 -1 l -2,-1 h -1 -2 -1 l -2,-1 h -1 -2 -1 l -1,-1 h -2 -1 -1 l -2,-1 h -1 -1 l -2,-1 h -1 -1 l -1,-1 h -2 -1 l -1,-1 h -1 -1 l -1,-1 h -1 z m 1,0 h -1 v 0 z m -32,-21 37,-27 v 0 0 0 -1 1 0 0 0 0 0 0 0 h 1 v 0 0 1 0 h 1 v 0 0 l 1,1 v 0 h 1 v 0 h 1 v 1 h 1 v 0 h 1 v 1 h 1 1 v 0 l -15,44 -1,-1 h -1 -1 l -2,-1 h -1 l -1,-1 h -1 l -1,-1 h -1 l -1,-1 h -1 l -1,-1 h -1 l -1,-1 h -1 l -1,-1 -1,-1 h -1 l -1,-1 -1,-1 h -1 l -1,-1 -1,-1 -1,-1 v 0 l -1,-1 -1,-1 -1,-1 -1,-1 -1,-1 -1,-1 z m -10,-31 h 46 v 0 0 0 0 1 0 0 0 0 0 1 0 0 0 0 0 0 0 0 1 0 0 0 0 0 h 1 v 0 0 0 0 1 0 0 l -37,27 -1,-1 -1,-1 v -1 h -1 v -2 h -1 v -1 l -1,-1 v -1 l -1,-1 v -1 l -1,-1 v -1 -1 l -1,-1 v -1 -1 l -1,-1 v -1 -1 -1 -1 l -1,-1 v -1 -1 -1 -1 -1 -1 -1 -1 z m 46,-535 v 535 h -46 v -535 0 z m -54,-78 45,-10 v -1 3 l 1,2 v 3 l 1,3 v 2 l 1,3 v 2 l 1,3 v 3 l 1,2 v 3 3 l 1,2 v 3 3 l 1,3 v 2 3 3 l 1,3 v 3 2 3 3 3 l 1,3 v 3 3 3 3 3 3 h -46 v -3 -3 -3 -2 l -1,-3 v -2 -3 -3 -2 -3 -2 -3 l -1,-2 v -3 -2 -3 l -1,-2 v -2 -3 -2 l -1,-2 v -3 -2 l -1,-2 v -3 l -1,-2 v -2 -2 l -1,-2 v -3 l -1,-2 z m 0,0 v 0 -1 z m -23,-57 38,-25 v 0 l 1,2 2,1 1,2 1,2 1,2 1,2 1,3 2,2 1,2 1,2 1,2 1,2 1,2 1,2 1,3 1,2 1,2 1,3 v 2 l 1,2 1,3 1,2 1,2 v 3 l 1,2 1,3 1,2 v 3 l 1,2 1,3 v 2 l 1,3 -45,10 -1,-2 v -3 l -1,-2 v -2 l -1,-2 -1,-2 v -2 l -1,-2 v -2 l -1,-2 -1,-1 v -2 l -1,-2 -1,-2 v -2 l -1,-2 -1,-1 v -2 l -1,-2 -1,-1 -1,-2 -1,-2 v -1 l -1,-2 -1,-1 -1,-2 -1,-1 -1,-2 -1,-1 v -2 l -1,-1 z m 0,0 z m -36,-34 22,-41 v 1 l 2,1 2,1 2,1 2,1 2,1 1,2 2,1 2,1 2,2 2,1 1,1 2,2 2,1 2,2 1,1 2,2 1,1 2,2 2,2 1,1 2,2 1,1 2,2 1,2 2,2 1,1 2,2 1,2 1,2 2,2 1,2 1,2 -38,25 -1,-1 -1,-2 -1,-1 -1,-1 -1,-2 -1,-1 -1,-1 -1,-1 -1,-2 -1,-1 -1,-1 -1,-1 -2,-1 -1,-1 -1,-1 -1,-2 -1,-1 -1,-1 -1,-1 -1,-1 -2,-1 -1,-1 -1,-1 h -1 l -2,-1 -1,-1 -1,-1 -1,-1 -2,-1 -1,-1 h -1 l -2,-1 z m 22,-41 v 1 0 z m -75,29 v -46 0 h 2 3 3 2 3 l 2,1 h 3 2 3 l 2,1 h 3 2 l 2,1 h 3 l 2,1 h 2 l 3,1 h 2 l 2,1 3,1 h 2 l 2,1 2,1 3,1 2,1 h 2 l 2,1 2,1 2,1 3,1 2,1 2,1 -22,41 -2,-1 h -1 l -1,-1 -2,-1 h -1 l -2,-1 h -1 l -1,-1 -2,-1 h -1 l -2,-1 h -1 -2 l -2,-1 h -1 l -2,-1 h -1 -2 l -2,-1 h -2 -1 -2 l -2,-1 h -2 -1 -2 -2 -2 l -2,-1 h -2 -2 z m -78,31 -28,-37 v 0 l 3,-2 3,-2 3,-3 4,-2 3,-2 3,-2 3,-2 3,-2 4,-2 3,-1 3,-2 4,-2 3,-1 3,-2 3,-1 4,-2 3,-1 3,-1 4,-1 3,-1 3,-1 4,-1 3,-1 h 4 l 3,-1 h 3 l 4,-1 h 3 l 4,-1 h 3 3 4 v 46 h -2 -3 l -2,1 h -2 -3 -2 l -2,1 h -3 l -2,1 h -2 l -3,1 h -2 l -2,1 -3,1 -2,1 -3,1 -2,1 -3,1 -2,1 -2,1 -3,1 -2,1 -3,2 -2,1 -3,2 -2,1 -3,2 -3,2 -2,1 -3,2 -2,2 z m 0,0 z m -92,85 h -46 l 5,-15 4,-4 3,-4 4,-4 3,-5 3,-4 4,-4 3,-3 3,-4 4,-4 3,-4 4,-4 3,-3 3,-4 3,-3 4,-4 3,-3 3,-3 4,-4 3,-3 3,-3 3,-3 3,-3 4,-3 3,-3 3,-3 3,-2 3,-3 3,-3 4,-2 3,-3 3,-2 3,-3 28,37 -3,2 -3,2 -2,3 -3,2 -3,2 -3,3 -3,2 -2,3 -3,2 -3,3 -3,3 -3,2 -3,3 -3,3 -3,3 -3,3 -3,3 -3,4 -3,3 -3,3 -3,4 -3,3 -4,4 -3,3 -3,4 -3,4 -3,3 -4,4 -3,4 -3,4 -4,4 -3,4 z m -46,0 v -9 l 5,-6 z m 0,600 v -600 h 46 v 600 0 z m 36,31 -38,-27 1,-1 v 0 0 -1 0 0 0 h 1 v 0 h -1 1 v 0 0 0 0 0 -1 0 0 0 0 0 0 0 0 0 -1 0 0 0 0 0 0 h 46 v 1 1 1 1 1 1 1 1 l -1,1 v 1 2 1 l -1,1 v 1 1 l -1,1 v 1 1 l -1,1 v 1 l -1,1 v 1 l -1,1 v 1 l -1,1 v 0 l -1,1 v 1 l -1,1 -1,1 v 1 l -1,1 z m -38,-27 1,-1 v 0 z m 5,48 -14,-44 v 0 0 h 1 1 v -1 h 1 1 v 0 l 1,-1 v 0 h 1 v 0 l 1,-1 v 0 0 h 1 v 0 0 -1 h 1 v 0 0 0 0 0 0 0 0 l 1,-1 h -1 v 1 0 0 l 38,27 -1,1 -1,1 -1,1 -1,1 -1,1 v 1 l -1,1 h -1 l -1,1 -1,1 -1,1 h -1 l -1,1 -1,1 h -1 l -1,1 -1,1 h -1 l -1,1 h -1 l -1,1 h -1 l -1,1 h -1 l -1,1 h -1 l -2,1 h -1 l -1,1 h -1 l -1,1 h -1 z m 1,0 h -1 v 0 z m -44,9 -5,-46 v 0 h 1 l 2,-1 h 1 1 2 1 1 l 1,-1 h 2 1 1 1 l 1,-1 h 1 2 1 1 l 1,-1 h 1 1 1 l 1,-1 h 1 1 1 v 0 l 1,-1 h 1 1 1 v -1 h 1 l 14,44 h -1 l -1,1 h -1 -1 l -1,1 h -2 -1 l -1,1 h -1 -1 l -2,1 h -1 -1 l -2,1 h -1 -1 -2 l -1,1 h -1 -2 -1 l -2,1 h -1 -2 -1 l -2,1 h -1 -2 -1 -2 l -2,1 z m -64,2 v -46 0 h 3 2 2 2 2 2 2 2 2 3 1 2 2 2 2 l 2,-1 h 2 2 1 2 2 1 2 2 1 2 l 1,-1 h 2 1 2 1 2 l 5,46 h -2 -2 -1 -2 -2 l -2,1 h -1 -2 -2 -2 -2 -2 -1 -2 l -2,1 h -2 -2 -2 -2 -2 -2 -3 -2 -2 -2 -2 -2 -3 -2 -2 -2 z m -64,-2 5,-46 v 0 h 1 2 1 2 1 l 2,1 h 1 2 2 1 2 2 1 2 2 2 l 2,1 h 2 2 2 2 2 2 2 2 2 2 2 3 2 2 2 v 46 h -2 -2 -3 -2 -2 -3 -2 -2 -2 -2 -3 -2 -2 -2 -2 -2 -2 l -2,-1 h -2 -2 -2 -2 -1 -2 -2 -2 l -2,-1 h -1 -2 -2 -1 z m -44,-9 15,-44 h -1 1 l 1,1 h 1 v 0 h 1 l 1,1 h 1 1 1 1 l 1,1 h 1 1 1 l 1,1 h 1 1 1 1 l 1,1 h 2 1 1 1 l 1,1 h 2 1 1 2 1 l 1,1 h 2 l -5,46 h -2 l -1,-1 h -2 -2 -1 -2 l -1,-1 h -2 -1 -2 l -1,-1 h -2 -1 -1 l -2,-1 h -1 -2 -1 l -1,-1 h -1 -2 l -1,-1 h -1 -2 l -1,-1 h -1 -1 l -1,-1 h -1 -2 l -1,-1 z m 0,0 z m -31,-20 36,-29 v 1 0 0 -1 0 1 0 0 0 0 0 h 1 v 0 0 0 l 1,1 v 0 0 0 h 1 v 0 1 h 1 v 0 h 1 v 1 h 1 1 v 0 l 1,1 v 0 h 1 1 l -15,44 h -1 l -1,-1 h -2 l -1,-1 h -1 l -1,-1 h -1 l -1,-1 h -1 l -1,-1 h -1 l -1,-1 h -1 l -2,-1 v 0 l -1,-1 -2,-1 v 0 l -1,-1 -1,-1 h -1 l -1,-1 -1,-1 -1,-1 h -1 l -1,-1 -1,-1 -1,-1 -1,-1 v -1 l -1,-1 -1,-1 z m 36,-29 v 0 1 z m -48,-3 h 46 v 0 0 0 0 0 0 0 l 1,1 v 0 0 0 0 0 0 0 0 0 1 0 0 0 0 0 0 0 0 0 0 0 0 1 h 1 v 0 l -36,29 -1,-1 -1,-1 v -1 l -1,-1 -1,-1 v -1 h -1 v -1 l -1,-1 v -1 l -1,-1 v -1 l -1,-1 v -1 l -1,-1 v -1 -1 l -1,-1 v -1 -1 -1 l -1,-1 v -2 -1 -1 -1 -1 l -1,-1 v -1 -1 -1 z m 46,-535 v 535 h -46 v -535 0 z m -54,-78 45,-10 v -1 l 1,3 v 2 l 1,3 v 3 l 1,2 v 3 l 1,2 v 3 l 1,3 v 2 l 1,3 v 3 2 l 1,3 v 3 3 2 l 1,3 v 3 3 3 l 1,2 v 3 3 3 3 3 3 3 3 3 3 h -46 v -3 -3 -3 -2 -3 -2 -3 -3 -2 l -1,-3 v -2 -3 -2 -3 l -1,-2 v -3 -2 -2 l -1,-3 v -2 -2 l -1,-3 v -2 -2 l -1,-3 v -2 -2 l -1,-2 v -2 l -1,-3 v -2 z m 0,0 v 0 -1 z m -23,-57 39,-25 v 0 l 1,2 2,2 1,2 1,1 1,2 1,3 1,2 2,2 1,2 1,2 1,2 1,2 1,2 1,3 1,2 1,2 v 2 l 1,3 1,2 1,2 1,3 1,2 v 2 l 1,3 1,2 1,3 v 2 l 1,3 v 2 l 1,3 1,2 v 3 l -45,10 v -3 l -1,-2 v -2 l -1,-2 v -2 l -1,-2 -1,-2 v -2 l -1,-2 v -2 l -1,-2 -1,-1 v -2 l -1,-2 -1,-2 v -2 l -1,-1 -1,-2 -1,-2 v -1 l -1,-2 -1,-2 -1,-1 v -2 l -1,-2 -1,-1 -1,-2 -1,-1 -1,-1 -1,-2 v -1 l -1,-2 z m 1,0 h -1 v 0 z m -36,-34 21,-41 1,1 2,1 2,1 2,1 2,1 2,1 1,2 2,1 2,1 2,2 2,1 1,1 2,2 2,1 2,2 1,1 2,2 2,1 1,2 2,2 1,1 2,2 1,2 2,1 1,2 2,2 1,2 2,2 1,1 1,2 2,2 1,2 1,2 -39,25 -1,-2 v -1 l -1,-1 -1,-2 -1,-1 -1,-1 -1,-1 -1,-2 -1,-1 -1,-1 -1,-1 -1,-1 -1,-1 -1,-1 -2,-2 -1,-1 -1,-1 -1,-1 -1,-1 -1,-1 -1,-1 -2,-1 -1,-1 h -1 l -1,-1 -2,-1 -1,-1 -1,-1 -2,-1 -1,-1 h -1 l -2,-1 z m 21,-41 h 1 v 1 z m -74,29 v -46 0 h 2 3 2 3 2 l 3,1 h 2 3 2 l 3,1 h 2 2 l 3,1 h 2 l 3,1 h 2 l 2,1 h 3 l 2,1 2,1 h 3 l 2,1 2,1 2,1 h 2 l 3,1 2,1 2,1 2,1 2,1 2,1 2,1 -21,41 -2,-1 h -1 l -1,-1 -2,-1 h -1 l -2,-1 h -1 l -2,-1 h -1 l -2,-1 -1,-1 h -2 -1 l -2,-1 h -2 l -1,-1 h -2 -2 l -1,-1 h -2 -2 l -2,-1 h -1 -2 -2 -2 -2 l -1,-1 h -2 -2 -2 z m -79,31 -28,-37 v 0 l 3,-2 3,-2 3,-3 4,-2 3,-2 3,-2 3,-2 4,-2 3,-2 3,-1 3,-2 4,-2 3,-1 3,-2 4,-1 3,-2 3,-1 4,-1 3,-1 4,-1 3,-1 3,-1 4,-1 h 3 l 4,-1 h 3 l 3,-1 h 4 l 3,-1 h 4 3 4 v 46 h -3 -2 l -2,1 h -3 -2 -2 l -3,1 h -2 l -3,1 h -2 l -2,1 h -3 l -2,1 -3,1 -2,1 -2,1 -3,1 -2,1 -3,1 -2,1 -3,1 -2,1 -3,2 -2,1 -3,2 -2,1 -3,2 -3,2 -2,1 -3,2 -2,2 z m 0,0 z m -91,85 h -46 l 5,-15 3,-4 3,-4 4,-4 3,-4 4,-4 3,-4 3,-4 4,-4 3,-4 3,-4 4,-3 3,-4 3,-4 3,-3 4,-4 3,-3 3,-3 3,-4 4,-3 3,-3 3,-3 3,-3 3,-3 4,-3 3,-3 3,-2 3,-3 3,-3 4,-2 3,-3 3,-2 3,-3 28,37 -3,2 -3,2 -2,3 -3,2 -3,2 -3,3 -3,2 -2,3 -3,2 -3,3 -3,3 -3,2 -3,3 -3,3 -3,3 -3,3 -3,3 -3,4 -3,3 -3,3 -3,4 -3,3 -3,4 -4,3 -3,4 -3,3 -3,4 -3,4 -3,4 -4,4 -3,4 -3,4 z m -46,0 v -8 l 5,-7 z m 0,600 v -600 h 46 v 600 0 z m 35,31 -37,-27 v -1 h 1 v 0 -1 0 0 0 0 0 0 0 0 0 0 0 0 -1 0 0 0 0 h 1 v 0 0 0 0 -1 0 0 0 0 0 0 h 46 v 1 1 1 1 1 l -1,1 v 1 1 1 1 l -1,2 v 1 1 1 l -1,1 v 1 1 l -1,1 v 1 l -1,1 v 1 l -1,1 v 1 l -1,1 v 1 h -1 v 1 l -1,1 -1,1 v 1 l -1,1 v 1 z m -37,-27 v -1 0 z m 5,48 -14,-44 h -1 1 1 v 0 l 1,-1 h 1 v 0 h 1 v -1 h 1 v 0 h 1 v -1 0 h 1 v 0 0 h 1 v -1 0 0 h 1 v 0 0 0 0 0 0 -1 0 1 0 0 l 37,27 -1,1 v 1 l -1,1 -1,1 -1,1 -1,1 -1,1 h -1 l -1,1 -1,1 -1,1 v 0 l -2,1 -1,1 v 0 l -1,1 -2,1 v 0 l -2,1 h -1 l -1,1 h -1 l -1,1 h -1 l -1,1 h -1 l -1,1 h -1 l -1,1 h -1 l -1,1 z m 0,0 z m -43,9 -5,-46 v 0 h 1 l 1,-1 h 2 1 1 2 1 l 1,-1 h 1 1 2 1 l 1,-1 h 1 1 1 1 l 1,-1 h 1 1 1 l 1,-1 h 1 1 1 1 l 1,-1 h 1 1 v 0 l 1,-1 h 1 l 14,44 h -1 l -1,1 h -2 -1 l -1,1 h -1 -1 l -1,1 h -2 -1 l -1,1 h -1 -2 l -1,1 h -1 -2 -1 l -1,1 h -2 -1 -2 l -1,1 h -2 -1 -2 l -1,1 h -2 -1 -2 -1 l -2,1 z m -65,2 v -46 0 h 3 2 2 2 2 3 2 2 2 2 2 2 2 2 2 l 2,-1 h 1 2 2 2 2 1 2 2 1 2 l 1,-1 h 2 1 2 1 2 l 5,46 h -2 -2 -1 -2 -2 l -2,1 h -2 -1 -2 -2 -2 -2 -2 -2 l -2,1 h -2 -2 -2 -2 -2 -2 -2 -2 -2 -3 -2 -2 -2 -3 -2 -2 z m -64,-2 5,-46 v 0 h 1 2 1 2 1 l 2,1 h 1 2 2 1 2 2 2 1 2 2 l 2,1 h 2 2 2 2 2 2 2 2 2 2 2 3 2 2 2 v 46 h -2 -2 -3 -2 -2 -3 -2 -2 -2 -2 -2 -2 -3 -2 -2 -2 -2 l -2,-1 h -2 -1 -2 -2 -2 -2 -2 -2 l -1,-1 h -2 -2 -2 -1 z m -44,-9 15,-44 v 0 h 1 v 1 h 1 1 1 l 1,1 h 1 v 0 h 1 1 l 1,1 h 1 1 1 l 1,1 h 1 1 2 1 l 1,1 h 1 1 1 2 l 1,1 h 1 1 2 1 1 l 2,1 h 1 l -5,46 h -2 l -1,-1 h -2 -1 -2 -1 l -2,-1 h -1 -2 -1 l -2,-1 h -1 -2 -1 l -1,-1 h -2 -1 -1 l -2,-1 h -1 -1 l -2,-1 h -1 -1 l -1,-1 h -1 -2 l -1,-1 h -1 -1 l -1,-1 h -1 z m 1,0 v 0 h -1 z m -32,-20 36,-29 1,1 v 0 0 -1 0 1 0 0 0 0 0 0 0 0 h 1 v 1 0 h 1 v 0 0 h 1 v 1 0 h 1 v 0 l 1,1 h 1 v 0 h 1 v 1 h 1 1 v 0 l -15,44 h -1 l -1,-1 h -1 l -1,-1 h -1 l -1,-1 h -2 l -1,-1 h -1 l -1,-1 h -1 l -1,-1 h -1 l -1,-1 h -1 l -1,-1 -1,-1 h -1 l -1,-1 -1,-1 h -1 l -1,-1 -1,-1 -1,-1 h -1 v -1 l -1,-1 -1,-1 -1,-1 -1,-1 -1,-1 v -1 z m 36,-29 h 1 v 1 z m -47,-3 h 46 v 0 0 0 0 0 0 0 1 0 0 0 0 0 0 0 0 0 1 0 0 0 0 0 h 1 v 0 0 0 0 0 0 1 0 0 l -36,29 -1,-1 v -1 l -1,-1 v -1 l -1,-1 -1,-1 v 0 l -1,-1 v -1 l -1,-1 v -1 l -1,-1 v -1 l -1,-1 v -1 -1 l -1,-1 v -1 -1 l -1,-1 v -1 -1 -2 -1 l -1,-1 v -1 -1 -1 -1 -1 -1 z m 46,-904 v 904 h -46 v -904 0 z m -38,-29 40,24 -1,1 v 0 0 0 0 0 0 1 0 0 0 0 h -1 v 0 0 0 1 0 0 0 0 0 0 1 0 0 0 0 1 0 0 0 0 h -46 v -1 -1 0 -2 0 -1 -1 -1 l 1,-2 v 0 -1 -2 0 -1 l 1,-2 v 0 -1 l 1,-1 v -1 -1 l 1,-1 v -1 l 1,-1 v -1 -1 l 1,-1 v 0 l 1,-2 v 0 l 1,-1 v -1 l 1,-1 z m 40,24 v 0 l -1,1 z m -9,-47 15,44 h 1 -1 -1 v 0 0 l -1,1 v 0 h -1 v 0 h -1 v 1 0 h -1 v 0 0 l -1,1 v 0 0 0 0 0 h -1 v 0 h 1 -1 v 0 h 1 v 0 0 0 0 0 0 l -40,-24 1,-1 1,-1 v -1 l 1,-1 1,-1 1,-1 1,-1 1,-1 v -1 l 1,-1 1,-1 h 1 l 1,-1 1,-1 h 1 l 1,-1 1,-1 h 1 l 1,-1 1,-1 v 0 l 1,-1 h 1 l 1,-1 h 1 l 1,-1 h 1 l 1,-1 h 1 l 2,-1 v 0 h 1 z m -2,1 1,-1 h 1 z m 40,-9 6,45 v 0 l -1,1 h -2 -1 -1 -1 -1 l -1,1 h -1 -1 -1 -1 -1 l -1,1 h -1 -1 -1 l -1,1 v 0 h -1 -1 -1 l -1,1 h -1 v 0 h -1 l -1,1 h -1 -1 v 0 h -1 l -1,1 v 0 l -15,-44 v 0 h 2 l 1,-1 h 1 1 l 1,-1 h 1 1 l 1,-1 h 1 1 l 1,-1 h 1 2 1 l 1,-1 h 1 1 l 2,-1 h 1 1 1 l 2,-1 h 1 1 2 1 l 1,-1 h 2 1 2 z m 55,-3 v 46 0 h -2 -2 -2 -1 -2 -2 -2 -1 -2 -2 -2 -1 l -2,1 h -1 -2 -2 -1 -2 -1 -2 -1 -1 -2 -1 l -2,1 h -1 -1 -1 -2 -1 -1 -1 l -6,-45 1,-1 h 2 1 2 2 1 l 1,-1 h 2 2 1 2 2 1 2 2 1 2 l 2,-1 h 2 1 2 2 2 2 2 1 2 2 2 2 2 z m 56,3 -5,45 v 0 h -1 -2 -1 -1 -1 -2 -1 l -2,-1 h -1 -1 -2 -1 -2 -1 -2 -1 -2 -2 -1 l -2,-1 h -2 -1 -2 -2 -2 -1 -2 -2 -2 -2 -2 -2 v -46 h 2 2 2 2 2 2 2 2 2 2 2 1 2 2 l 2,1 h 2 1 2 2 1 2 2 1 2 2 l 1,1 h 2 1 2 1 2 z m 40,9 -19,42 1,1 v -1 h -1 v 0 h -1 -1 v -1 h -1 -1 v 0 h -1 l -1,-1 h -1 v 0 h -1 l -1,-1 h -1 -1 -1 -1 v -1 h -1 -1 -1 -1 -1 l -2,-1 h -1 -1 -1 -1 -1 l -1,-1 5,-45 h 2 1 2 1 l 1,1 h 2 1 2 1 l 1,1 h 1 2 1 l 1,1 h 2 1 l 1,1 h 1 1 1 l 2,1 h 1 1 l 1,1 h 1 1 l 1,1 h 1 1 l 1,1 h 1 l 1,1 z m -1,0 h 1 v 0 z m 27,21 -38,26 v 0 0 -1 1 0 -1 0 0 0 0 h -1 v 0 0 0 -1 0 0 h -1 v 0 0 0 l -1,-1 v 0 0 h -1 v 0 -1 h -1 v 0 0 h -1 v -1 h -1 l 19,-42 1,1 h 1 1 l 1,1 h 1 l 1,1 h 1 l 1,1 h 1 v 1 l 1,1 h 1 l 1,1 h 1 l 1,1 h 1 v 1 l 1,1 h 1 l 1,1 1,1 v 1 h 1 l 1,1 1,1 v 1 l 1,1 h 1 l 1,1 v 1 l 1,1 z m 10,30 h -47 v 0 0 0 0 0 -1 0 0 0 0 -1 0 0 0 0 0 0 -1 0 0 0 0 0 0 0 0 0 l -1,-1 v 0 0 0 0 0 l 38,-26 1,1 1,1 v 1 l 1,1 v 1 h 1 v 1 1 l 1,1 v 1 l 1,1 v 1 1 l 1,1 v 1 1 l 1,1 v 1 0 2 l 1,1 v 1 1 1 1 1 1 0 2 h 1 v 1 z m -47,105 v -105 h 47 v 105 l -7,15 z m 40,15 -40,44 v -59 z m 122,-156 22,40 v 0 l -5,3 -4,2 -4,3 -5,2 -4,3 -5,3 -4,3 -5,3 -4,3 -5,3 -4,3 -4,3 -5,4 -4,3 -5,4 -4,3 -5,4 -4,4 -5,3 -4,4 -5,4 -4,4 -5,5 -4,4 -5,4 -4,4 -5,5 -4,4 -5,5 -5,5 -4,5 -5,4 -34,-31 5,-5 5,-5 5,-5 5,-5 4,-5 5,-5 5,-4 5,-5 5,-4 5,-5 4,-4 5,-4 5,-5 5,-4 5,-4 5,-4 4,-4 5,-3 5,-4 5,-4 5,-3 5,-4 5,-3 5,-4 4,-3 5,-3 5,-3 5,-3 5,-3 5,-3 5,-3 z m 0,0 v 0 -1 z m 166,-44 v 47 0 h -5 -4 -5 -5 l -4,1 h -5 -5 l -4,1 -5,1 h -4 l -5,1 -4,1 -5,1 -4,1 -5,1 -4,1 -5,1 -4,1 -5,2 -4,1 -5,2 -4,1 -5,2 -4,2 -5,2 -4,1 -4,2 -5,2 -4,2 -5,3 -4,2 -4,2 -22,-40 5,-3 5,-3 5,-2 5,-2 5,-3 5,-2 5,-2 5,-2 5,-2 5,-2 5,-2 5,-2 5,-1 6,-2 5,-1 5,-2 5,-1 5,-1 6,-1 5,-1 5,-1 5,-1 6,-1 5,-1 5,-1 h 6 l 5,-1 h 5 6 5 l 6,-1 z m 106,13 -11,45 h -1 l -2,-1 -3,-1 h -2 l -3,-1 -3,-1 h -2 l -3,-1 h -3 l -3,-1 h -2 l -3,-1 h -3 l -3,-1 h -3 -3 l -3,-1 h -3 -3 l -3,-1 h -3 -3 -3 l -3,-1 h -3 -3 -3 -4 -3 -3 -3 -4 -3 v -47 h 4 3 l 4,1 h 3 4 3 4 3 4 l 3,1 h 4 3 4 l 3,1 h 3 4 l 3,1 h 3 l 4,1 h 3 l 3,1 h 3 l 3,1 h 4 l 3,1 3,1 h 3 l 3,1 3,1 h 3 l 3,1 z m -11,45 v 0 h -1 z m 97,-9 -24,39 v 0 l -2,-1 -2,-1 -2,-2 -2,-1 -3,-1 -2,-1 -2,-1 -2,-1 -2,-1 -2,-1 -2,-1 -2,-2 -3,-1 -2,-1 h -2 l -2,-1 -3,-1 -2,-1 -2,-1 -3,-1 -2,-1 -2,-1 -3,-1 h -2 l -3,-1 -2,-1 -3,-1 -2,-1 h -3 l -2,-1 -3,-1 h -2 l 11,-45 3,1 h 3 l 3,1 3,1 3,1 3,1 3,1 2,1 3,1 3,1 3,1 3,1 2,1 3,1 3,1 2,1 3,1 3,1 2,1 3,2 3,1 2,1 3,1 2,2 3,1 2,1 3,2 2,1 3,1 2,2 3,1 z m 0,0 z m 66,56 -36,30 v 0 l -1,-2 -2,-1 -1,-2 -2,-2 -1,-1 -2,-2 -1,-1 -2,-2 -1,-2 -2,-1 -2,-2 -1,-1 -2,-2 -1,-1 -2,-2 -2,-1 -2,-2 -1,-1 -2,-2 -2,-1 -2,-1 -1,-2 -2,-1 -2,-2 -2,-1 -2,-1 -2,-2 -2,-1 -2,-1 -1,-2 -2,-1 -2,-1 24,-39 2,1 3,2 2,1 2,2 3,1 2,2 2,2 2,1 3,2 2,1 2,2 2,2 2,2 2,1 2,2 2,2 2,1 2,2 2,2 2,2 2,2 2,2 2,2 2,1 2,2 2,2 2,2 2,2 1,2 2,2 2,2 z m 0,0 v 0 1 z m 8,67 33,32 -38,-7 -1,-2 -1,-2 -1,-2 -1,-2 -1,-2 -1,-2 -1,-2 -1,-2 -1,-2 -1,-2 -1,-2 -2,-2 -1,-2 -1,-2 -1,-2 -1,-2 -2,-2 -1,-2 -1,-2 -1,-2 -2,-2 -1,-2 -1,-2 -2,-2 -1,-1 -1,-2 -2,-2 -1,-2 -1,-2 -2,-1 -1,-2 -2,-2 36,-30 1,2 2,3 2,2 1,2 2,2 2,2 1,2 2,2 1,2 2,3 1,2 2,2 1,2 2,3 1,2 2,2 1,2 2,3 1,2 1,2 2,3 1,2 1,2 2,3 1,2 1,2 1,3 2,2 1,3 1,2 1,3 1,2 z m 33,32 -23,25 -15,-32 z m 49,-109 28,36 v 0 l -2,2 -2,2 -3,2 -2,2 -2,2 -3,2 -2,2 -2,2 -3,2 -2,2 -3,2 -2,2 -2,3 -3,2 -2,2 -3,2 -2,3 -2,2 -3,2 -2,3 -3,2 -2,2 -2,3 -3,2 -2,3 -3,2 -2,3 -3,2 -2,3 -3,2 -2,3 -3,3 -33,-32 2,-3 3,-2 2,-3 3,-3 3,-3 2,-2 3,-3 2,-2 3,-3 2,-3 3,-2 3,-3 2,-2 3,-3 2,-2 3,-2 2,-3 3,-2 2,-2 3,-3 3,-2 2,-2 3,-3 2,-2 3,-2 2,-2 3,-2 2,-2 3,-3 2,-2 3,-2 2,-2 z m -1,0 h 1 z m 81,-53 22,41 h -1 l -2,1 -2,1 -2,1 -2,1 -3,2 -2,1 -2,1 -2,2 -3,1 -2,1 -2,2 -2,1 -3,2 -2,1 -2,2 -2,1 -3,2 -2,1 -2,2 -3,1 -2,2 -2,2 -3,1 -2,2 -2,2 -3,2 -2,1 -2,2 -3,2 -2,2 -3,2 -2,1 -28,-36 2,-2 3,-2 2,-2 3,-2 2,-2 3,-2 2,-1 3,-2 2,-2 3,-2 2,-2 3,-1 2,-2 3,-2 2,-2 3,-1 2,-2 3,-2 2,-1 3,-2 2,-1 3,-2 3,-2 2,-1 3,-2 2,-1 3,-1 2,-2 3,-1 2,-2 3,-1 z m 81,-31 12,45 h -1 -2 l -2,1 h -2 l -3,1 -2,1 h -2 l -2,1 -2,1 h -3 l -2,1 -2,1 h -2 l -2,1 -3,1 -2,1 -2,1 -2,1 h -2 l -3,1 -2,1 -2,1 -2,1 -3,1 -2,1 -2,1 -2,1 -2,1 -3,1 -2,1 -2,1 -2,2 -2,1 -22,-41 3,-2 2,-1 3,-1 2,-1 3,-2 2,-1 3,-1 2,-1 3,-1 2,-1 3,-1 2,-1 3,-1 2,-1 3,-2 h 2 l 3,-1 3,-1 2,-1 3,-1 2,-1 3,-1 2,-1 3,-1 h 2 l 3,-1 2,-1 3,-1 h 3 l 2,-1 3,-1 z m 12,45 v 0 h -1 z m 71,-56 v 47 0 h -2 -2 -3 -2 -2 -3 -2 -2 -2 -3 l -2,1 h -2 -2 -3 l -2,1 h -2 -2 -3 l -2,1 h -2 -2 l -2,1 h -3 l -2,1 h -2 -2 l -2,1 h -3 l -2,1 h -2 l -2,1 -2,1 -12,-45 3,-1 h 2 l 3,-1 2,-1 h 3 l 2,-1 h 3 l 2,-1 h 3 l 3,-1 h 2 l 3,-1 h 2 3 l 3,-1 h 2 3 l 2,-1 h 3 3 2 l 3,-1 h 3 2 3 2 3 3 2 l 3,-1 h 2 z m 162,33 -20,42 h -1 l -3,-2 -4,-2 -3,-1 -4,-2 -4,-1 -3,-2 -4,-1 -4,-2 -4,-1 -4,-1 -4,-1 -4,-1 -5,-1 -4,-1 -4,-1 -5,-1 -4,-1 -5,-1 -4,-1 h -5 l -4,-1 -5,-1 h -5 l -5,-1 h -5 -5 l -5,-1 h -5 -5 -5 -6 -5 v -47 h 6 l 6,1 h 5 6 6 l 5,1 h 6 5 l 6,1 5,1 h 5 l 6,1 5,1 5,1 h 5 l 5,1 5,1 5,2 5,1 5,1 5,1 5,2 5,1 4,2 5,1 5,2 4,2 5,1 4,2 4,2 5,2 z m -20,42 h -1 z m 128,48 -37,27 h -1 l -2,-3 -2,-3 -2,-3 -3,-3 -2,-2 -2,-3 -3,-3 -2,-3 -3,-2 -2,-3 -3,-2 -2,-3 -3,-2 -3,-3 -3,-2 -2,-3 -3,-2 -3,-2 -3,-3 -3,-2 -3,-2 -3,-2 -3,-2 -3,-2 -4,-2 -3,-2 -3,-2 -4,-2 -3,-2 -3,-2 -4,-2 -3,-1 20,-42 4,2 4,2 4,2 4,3 4,2 4,2 4,2 3,3 4,2 4,3 4,2 3,3 4,3 3,2 4,3 3,3 4,3 3,3 3,2 3,3 3,3 4,4 3,3 3,3 3,3 2,3 3,4 3,3 3,3 3,4 2,3 z m -37,27 h -1 l 1,1 z m 95,103 -45,10 v 0 l -1,-4 -1,-4 -1,-4 -1,-4 -1,-4 -2,-4 -1,-3 -1,-4 -1,-4 -2,-4 -1,-4 -1,-3 -2,-4 -1,-4 -2,-3 -1,-4 -2,-3 -2,-4 -1,-3 -2,-4 -2,-3 -1,-3 -2,-4 -2,-3 -2,-3 -2,-3 -2,-4 -2,-3 -2,-3 -2,-3 -2,-3 -2,-3 37,-27 2,3 3,4 2,3 3,4 2,4 2,3 3,4 2,4 2,4 2,4 2,3 2,4 2,4 2,4 2,4 2,4 2,5 1,4 2,4 2,4 1,4 2,5 1,4 2,4 1,5 2,4 1,4 1,5 1,4 2,5 1,5 z m 17,153 h -47 v 0 -5 -4 -5 -5 -4 -5 -5 l -1,-4 v -5 -4 -5 l -1,-4 v -5 l -1,-4 v -5 -4 l -1,-5 -1,-4 v -5 l -1,-4 v -4 l -1,-5 -1,-4 v -4 l -1,-5 -1,-4 -1,-4 -1,-5 v -4 l -1,-4 -1,-4 -1,-5 45,-10 1,5 1,4 1,5 1,4 1,5 1,5 v 4 l 1,5 1,5 1,4 v 5 l 1,5 1,4 v 5 l 1,5 v 5 l 1,4 v 5 l 1,5 v 5 l 1,5 v 5 4 l 1,5 v 5 5 5 5 l 1,5 v 5 5 z m -47,578 v -578 h 47 v 578 0 z m 1046,43 -29,-36 v 0 0 0 0 h 1 v 0 -1 0 0 0 0 0 0 0 0 0 0 0 0 -1 0 0 0 h 1 v 0 0 -1 0 0 0 -1 0 0 h 46 v 1 2 1 1 2 l -1,1 v 2 1 2 l -1,1 v 1 l -1,2 v 1 l -1,1 v 2 l -1,1 v 1 l -1,1 -1,2 v 1 l -1,1 -1,1 -1,2 -1,1 v 1 l -1,1 -1,1 -1,1 -1,1 -1,1 -1,1 -1,1 z m 1,0 h -1 v 0 z m -44,16 -7,-45 v 0 h 1 l 1,-1 h 1 1 1 1 l 1,-1 h 1 1 1 l 1,-1 h 1 1 v 0 h 1 l 1,-1 v 0 h 1 1 v -1 h 1 v 0 h 1 v -1 0 h 1 v 0 0 l 1,-1 v 0 0 0 l 29,36 -1,1 -1,1 -1,1 h -1 l -1,1 -2,1 h -1 l -1,1 -1,1 h -2 l -1,1 -1,1 h -1 l -2,1 h -1 l -2,1 h -1 l -1,1 h -2 -1 l -1,1 h -2 l -1,1 h -2 -1 l -1,1 h -2 -1 l -2,1 h -1 -2 z m -68,4 v -46 0 h 3 2 3 2 3 2 2 3 2 2 2 3 2 l 2,-1 h 2 2 1 2 2 2 1 2 l 2,-1 h 1 2 1 2 1 l 1,-1 h 2 1 1 l 7,45 -1,1 h -2 -1 -2 l -2,1 h -2 -1 -2 -2 l -2,1 h -2 -2 -2 -2 -2 -2 -2 l -2,1 h -3 -2 -2 -2 -3 -2 -3 -2 -3 -2 -3 -2 -3 z m -70,-4 8,-45 v 0 h 1 1 1 l 1,1 h 2 1 1 2 2 l 1,1 h 2 2 1 2 2 2 2 2 l 2,1 h 2 2 3 2 2 3 2 3 2 3 3 2 3 v 46 h -3 -3 -2 -3 -3 -2 -3 -3 -2 -3 -2 -2 -3 -2 l -2,-1 h -2 -3 -2 -2 -2 -2 -2 l -2,-1 h -2 -1 -2 -2 l -2,-1 h -1 -2 -2 z m -41,-17 31,-34 1,1 v 0 0 0 0 0 0 0 0 h 1 v 0 1 h 1 v 0 h 1 v 0 l 1,1 v 0 h 1 v 0 h 1 l 1,1 v 0 h 1 1 1 l 1,1 h 1 1 1 l 1,1 h 1 1 l -8,45 h -2 -1 -2 l -1,-1 h -2 -1 l -1,-1 h -2 -1 l -1,-1 h -2 l -1,-1 h -1 l -2,-1 h -1 l -1,-1 h -2 l -1,-1 h -1 l -2,-1 h -1 l -1,-1 -1,-1 h -1 l -2,-1 -1,-1 -1,-1 -1,-1 -1,-1 -2,-1 -1,-1 -1,-1 z m 31,-34 h 1 v 1 z m -47,-5 h 46 v 0 0 1 0 0 1 0 0 1 0 0 0 0 1 0 0 h 1 v 0 0 0 0 0 0 0 0 1 0 0 0 0 0 0 0 l -31,34 -1,-1 -1,-1 -1,-1 -1,-1 -1,-1 -1,-1 -1,-1 v -2 l -1,-1 -1,-1 -1,-1 v -1 l -1,-1 -1,-2 v -1 l -1,-1 v -1 -2 l -1,-1 v -1 l -1,-2 v -1 -1 -2 l -1,-1 v -1 -2 -1 -1 -2 -1 z m 46,-72 v 72 h -46 v -72 l 6,-16 z m -40,-16 40,-42 v 58 z m -100,129 -20,-41 v 0 l 4,-2 4,-2 5,-2 4,-3 4,-2 4,-2 4,-2 4,-3 4,-2 4,-2 4,-3 3,-2 4,-3 4,-2 4,-3 4,-3 3,-3 4,-2 4,-3 3,-3 4,-3 4,-3 3,-3 4,-3 3,-3 4,-4 3,-3 4,-3 3,-3 3,-4 4,-3 3,-4 34,32 -4,4 -4,4 -3,3 -4,4 -4,4 -4,3 -4,4 -4,3 -4,4 -4,3 -4,4 -4,3 -4,3 -4,3 -4,3 -4,4 -4,3 -5,3 -4,2 -4,3 -5,3 -4,3 -4,3 -5,2 -4,3 -5,2 -4,3 -5,2 -4,3 -5,2 -5,2 -4,3 z m -20,-41 v 0 h -1 z m -148,77 v -46 0 h 5 l 5,-1 h 5 5 5 5 l 5,-1 h 5 l 5,-1 h 5 l 4,-1 5,-1 5,-1 h 5 l 4,-1 5,-1 5,-1 4,-1 5,-1 4,-2 5,-1 4,-1 5,-1 4,-2 4,-1 5,-2 4,-1 4,-2 4,-2 5,-2 4,-1 4,-2 20,41 -5,3 -5,2 -5,2 -5,2 -5,2 -4,2 -5,1 -5,2 -5,2 -6,1 -5,2 -5,1 -5,1 -5,2 -5,1 -6,1 -5,1 -5,1 -5,1 -6,1 -5,1 h -6 l -5,1 -6,1 h -5 l -6,1 h -5 -6 l -5,1 h -6 -6 z m -139,-20 14,-44 v 0 l 3,1 4,1 3,1 4,1 4,1 3,1 4,1 4,1 h 3 l 4,1 4,1 4,1 h 3 l 4,1 4,1 h 4 l 4,1 h 4 l 4,1 h 4 l 4,1 h 4 4 4 l 4,1 h 4 5 4 4 l 4,1 h 4 5 v 46 h -5 -5 -4 -5 l -4,-1 h -5 -4 -5 l -4,-1 h -5 -4 l -5,-1 h -4 l -5,-1 h -4 l -4,-1 -5,-1 h -4 l -4,-1 -5,-1 -4,-1 h -4 l -4,-1 -4,-1 -5,-1 -4,-1 -4,-1 -4,-1 -4,-1 -4,-1 -4,-2 z m -112,-60 30,-35 v 0 l 2,2 3,2 2,2 3,2 3,2 2,2 3,2 3,2 3,1 2,2 3,2 3,2 3,1 3,2 3,2 3,1 3,2 3,2 3,1 3,2 3,1 3,1 3,2 4,1 3,2 3,1 4,1 3,1 3,2 4,1 3,1 4,1 -14,44 -4,-1 -4,-1 -4,-2 -4,-1 -4,-2 -4,-1 -3,-2 -4,-1 -4,-2 -4,-1 -3,-2 -4,-2 -4,-1 -3,-2 -4,-2 -3,-2 -4,-2 -3,-2 -3,-2 -4,-2 -3,-2 -4,-2 -3,-2 -3,-2 -3,-2 -4,-3 -3,-2 -3,-2 -3,-3 -3,-2 -3,-2 z m 0,0 z m -75,-100 43,-18 v 0 l 1,3 1,3 2,3 1,3 2,3 2,3 1,3 2,2 1,3 2,3 2,3 2,3 2,2 1,3 2,3 2,2 2,3 2,2 2,3 2,2 2,3 3,2 2,3 2,2 2,2 2,3 3,2 2,2 2,2 3,3 2,2 3,2 -30,35 -3,-2 -3,-3 -3,-3 -3,-2 -3,-3 -2,-3 -3,-3 -3,-2 -2,-3 -3,-3 -3,-3 -2,-3 -3,-3 -2,-3 -2,-3 -3,-3 -2,-3 -2,-3 -3,-4 -2,-3 -2,-3 -2,-4 -2,-3 -2,-3 -2,-4 -2,-3 -2,-4 -2,-3 -1,-4 -2,-3 -2,-4 z m 0,0 z m -26,-136 h 46 v 0 4 4 l 1,4 v 4 5 4 4 l 1,4 v 4 l 1,4 v 3 l 1,4 v 4 l 1,4 v 4 l 1,3 1,4 v 4 l 1,3 1,4 1,3 1,4 1,3 1,4 1,3 1,3 1,4 1,3 2,3 1,3 1,3 2,4 -43,18 -1,-3 -2,-4 -1,-4 -2,-4 -1,-4 -2,-4 -1,-4 -1,-4 -1,-4 -2,-4 -1,-4 -1,-4 -1,-4 -1,-5 -1,-4 v -4 l -1,-4 -1,-5 -1,-4 v -4 l -1,-5 v -4 l -1,-5 v -4 l -1,-5 v -4 -5 -5 l -1,-4 v -5 -5 z m 34,-148 40,21 v 0 l -1,4 -2,3 -1,3 -2,4 -2,3 -1,4 -1,3 -2,4 -1,3 -1,4 -1,4 -1,3 -2,4 -1,4 -1,4 v 4 l -1,4 -1,4 -1,4 -1,4 v 4 l -1,4 v 4 l -1,5 v 4 l -1,4 v 5 4 5 4 l -1,5 v 5 h -46 v -6 -5 -5 l 1,-5 v -5 -5 l 1,-5 v -5 l 1,-5 v -5 l 1,-5 1,-5 1,-4 1,-5 v -5 l 1,-4 2,-5 1,-5 1,-4 1,-5 2,-4 1,-4 1,-5 2,-4 2,-4 1,-5 2,-4 2,-4 2,-4 2,-4 2,-4 z m 0,0 v 0 h -1 z m 100,-105 24,39 v 0 l -3,2 -3,2 -4,3 -3,2 -4,2 -3,3 -3,2 -3,3 -3,2 -3,3 -3,2 -3,3 -3,2 -2,3 -3,3 -3,2 -2,3 -3,3 -2,3 -3,2 -2,3 -2,3 -3,3 -2,3 -2,3 -2,3 -2,3 -2,3 -2,4 -2,3 -2,3 -2,3 -40,-21 2,-4 2,-4 2,-4 3,-4 2,-4 3,-4 2,-3 3,-4 2,-4 3,-3 3,-4 3,-3 3,-4 3,-3 3,-3 3,-4 3,-3 3,-3 4,-3 3,-3 3,-4 4,-3 3,-3 4,-2 4,-3 3,-3 4,-3 4,-3 4,-3 4,-2 4,-3 z m 0,0 v 0 h -1 z m 160,-59 9,45 v 0 l -6,1 -5,1 -6,1 -5,2 -5,1 -5,1 -5,1 -5,2 -5,1 -5,2 -5,1 -5,2 -5,1 -4,2 -5,1 -4,2 -5,2 -4,1 -5,2 -4,2 -4,2 -4,2 -4,1 -4,2 -4,2 -4,2 -4,2 -4,2 -4,2 -3,2 -4,3 -4,2 -24,-39 4,-3 4,-2 5,-3 4,-2 4,-3 5,-2 4,-2 5,-2 4,-3 5,-2 4,-2 5,-2 5,-2 5,-2 5,-2 5,-1 5,-2 5,-2 5,-2 5,-1 5,-2 6,-2 5,-1 5,-2 6,-1 5,-2 6,-1 6,-1 5,-2 6,-1 6,-1 z m 9,45 v 0 l 5,-1 z m 206,-64 v 46 0 h -7 -8 -7 -7 -7 l -7,1 h -7 -7 -7 l -7,1 h -7 l -6,1 h -7 l -7,1 h -6 l -7,1 h -6 l -7,1 h -6 l -6,1 -6,1 -6,1 h -6 l -6,1 -6,1 -6,1 -6,1 -6,1 -6,1 -5,1 -6,1 -5,1 -9,-45 5,-2 6,-1 6,-1 6,-1 7,-1 6,-1 6,-1 6,-1 h 6 l 7,-1 6,-1 7,-1 6,-1 h 7 l 7,-1 h 6 l 7,-1 7,-1 h 7 l 7,-1 h 7 7 l 7,-1 h 7 7 l 7,-1 h 8 7 7 8 8 z m 88,46 h -88 v -46 h 88 l 23,23 z m 23,-23 v 23 h -23 z m 0,-55 v 55 h -46 v -55 0 z m -54,-68 45,-12 v 0 2 l 1,2 1,3 v 2 l 1,2 v 3 l 1,2 v 2 3 l 1,2 v 2 l 1,3 v 2 3 l 1,2 v 3 2 l 1,3 v 2 3 3 2 l 1,3 v 3 2 3 3 2 3 3 3 2 h -46 v -2 -3 -2 -3 -2 -2 -3 -2 l -1,-2 v -3 -2 -2 -2 -3 l -1,-2 v -2 -2 -2 l -1,-2 v -2 -2 l -1,-2 v -2 -2 l -1,-2 v -2 l -1,-2 v -2 -2 l -1,-2 v -1 z m 0,0 z m -23,-44 34,-31 v 0 l 2,2 1,1 1,2 2,2 1,1 2,2 1,2 1,2 2,1 1,2 1,2 1,2 1,2 1,2 2,2 1,2 1,2 1,2 1,2 1,2 1,2 v 2 l 1,2 1,2 1,2 1,3 v 2 l 1,2 1,2 1,2 v 3 l 1,2 -45,12 v -2 l -1,-2 v -1 l -1,-2 v -1 l -1,-2 v -2 l -1,-1 -1,-2 v -1 l -1,-2 v -1 l -1,-1 -1,-2 v -1 l -1,-2 -1,-1 -1,-1 v -1 l -1,-2 -1,-1 -1,-1 -1,-2 v -1 l -1,-1 -1,-1 -1,-1 -1,-1 -1,-1 -1,-2 -1,-1 z m -42,-25 13,-44 h 1 l 2,1 2,1 h 3 l 2,1 2,1 2,1 3,1 2,1 2,1 2,1 2,1 2,1 2,1 2,1 2,1 2,1 2,2 2,1 2,1 2,1 2,2 1,1 2,1 2,2 2,1 1,2 2,1 2,2 1,1 2,2 2,1 1,2 -34,31 -1,-1 -1,-1 -1,-1 -1,-1 -1,-1 h -1 l -1,-1 -1,-1 -1,-1 -1,-1 -1,-1 -2,-1 -1,-1 h -1 l -1,-1 -2,-1 -1,-1 -1,-1 h -2 l -1,-1 -1,-1 h -2 l -1,-1 -2,-1 h -1 l -2,-1 -2,-1 h -1 l -2,-1 -2,-1 h -1 z m 13,-44 h 1 z m -87,35 v -46 0 h 3 3 3 3 3 3 l 3,1 h 3 3 3 3 l 3,1 h 3 2 3 l 3,1 h 3 l 2,1 h 3 3 l 2,1 h 3 l 2,1 h 3 l 2,1 h 3 l 2,1 h 3 l 2,1 3,1 h 2 l 2,1 -13,44 h -2 l -2,-1 h -1 l -2,-1 h -2 l -2,-1 h -2 l -2,-1 h -2 -2 l -3,-1 h -2 -2 l -2,-1 h -3 -2 l -2,-1 h -3 -2 -2 l -3,-1 h -2 -3 -3 -2 -3 -3 l -2,-1 h -3 -3 -3 z m -108,14 -12,-45 v 0 l 3,-1 3,-1 4,-1 h 3 l 4,-1 3,-1 4,-1 h 3 l 4,-1 3,-1 h 4 l 4,-1 3,-1 h 4 l 4,-1 h 3 l 4,-1 h 4 4 l 4,-1 h 3 4 l 4,-1 h 4 4 4 l 4,-1 h 4 4 4 4 5 v 46 h -4 -4 -4 l -3,1 h -4 -4 -3 -4 -4 l -3,1 h -4 -3 l -4,1 h -3 -3 l -4,1 h -3 l -3,1 h -4 l -3,1 h -3 l -3,1 h -4 l -3,1 h -3 l -3,1 -3,1 -3,1 h -3 l -3,1 -3,1 z m 0,0 v 0 l 2,-1 z m -85,30 -19,-42 v 0 l 3,-1 2,-2 3,-1 2,-1 3,-1 3,-1 2,-1 3,-1 3,-1 2,-1 3,-1 3,-1 3,-1 2,-1 3,-1 3,-1 3,-1 3,-2 3,-1 3,-1 3,-1 3,-1 h 3 l 3,-1 3,-1 3,-1 3,-1 3,-1 3,-1 3,-1 4,-1 3,-1 12,45 h -3 l -3,1 -3,1 -3,1 -3,1 -3,1 -2,1 -3,1 -3,1 h -3 l -3,1 -3,1 -2,1 -3,1 -3,1 -2,1 -3,1 -3,1 -2,1 -3,1 -2,1 -3,1 -2,1 -3,1 -2,1 -3,1 -2,1 -3,1 -2,1 -2,1 -3,1 z m -63,31 -22,-41 v 0 l 2,-1 2,-1 1,-1 2,-1 2,-1 2,-1 2,-1 1,-1 2,-1 2,-1 h 2 l 2,-1 2,-1 2,-1 2,-1 2,-1 2,-2 2,-1 2,-1 3,-1 2,-1 2,-1 2,-1 2,-1 3,-1 2,-1 2,-1 3,-1 2,-1 2,-1 3,-1 2,-1 19,42 -2,1 -3,1 -2,1 -2,1 -2,1 -3,1 -2,1 -2,1 -2,1 -2,1 -2,1 -2,1 -2,1 -2,1 -2,1 -2,1 -2,1 -2,1 -2,1 -2,1 -2,1 -2,1 -2,1 h -1 l -2,1 -2,1 -1,1 -2,1 -2,1 -1,1 -2,1 z m -52,16 v -46 0 0 0 h 1 v 0 h 1 v 0 h 1 1 v 0 l 1,-1 h 1 1 1 1 l 1,-1 h 1 1 l 1,-1 h 1 l 1,-1 h 1 l 1,-1 h 1 l 2,-1 h 1 l 1,-1 1,-1 h 2 l 1,-1 2,-1 h 1 l 1,-1 22,41 h -1 l -2,1 -2,1 -2,1 -1,1 -2,1 -2,1 h -1 l -2,1 -2,1 -1,1 h -2 l -2,1 h -1 l -2,1 -2,1 h -1 l -2,1 h -1 l -2,1 h -2 -1 l -2,1 h -1 -2 l -2,1 h -1 -2 -1 -2 -2 z m -35,-12 30,-35 -1,-1 1,1 v 0 0 0 0 0 h 1 v 0 0 0 1 0 0 0 h 1 v 0 0 0 0 0 0 h 1 v 0 0 0 0 0 h 1 v 0 0 0 h 1 v 46 h -2 -1 -1 -1 -1 -1 -2 -1 l -1,-1 h -1 -1 -1 l -2,-1 v 0 h -2 l -1,-1 h -1 l -1,-1 h -1 -1 l -1,-1 h -1 l -1,-1 -1,-1 h -1 l -1,-1 h -1 l -1,-1 -1,-1 h -1 l -1,-1 z m 0,0 z m -20,-29 42,-18 v 0 1 l 1,1 v 0 1 0 h 1 v 1 0 1 0 l 1,1 v 0 0 1 h 1 v 0 1 0 l 1,1 v 0 0 0 l 1,1 v 0 0 0 1 h 1 v 0 0 0 l 1,1 -30,35 h -1 l -1,-1 v -1 l -1,-1 -1,-1 h -1 l -1,-1 v -1 l -1,-1 -1,-1 -1,-1 v 0 l -1,-1 -1,-1 v -1 l -1,-1 -1,-1 v -1 l -1,-1 -1,-1 v -1 l -1,-1 v -1 l -1,-1 v -1 l -1,-1 v -1 l -1,-1 v -1 l -1,-1 v -1 l -1,-1 z m 42,-18 z m -53,-20 46,-7 v 0 1 1 1 l 1,1 v 1 1 1 1 l 1,1 v 1 1 1 1 l 1,1 v 1 0 1 l 1,1 v 1 1 1 h 1 v 1 1 1 0 l 1,1 v 0 1 1 h 1 v 1 l -42,18 -1,-1 v -1 l -1,-1 v -1 l -1,-1 v -1 -1 l -1,-1 v -2 l -1,-1 v -1 -1 l -1,-1 v -1 -2 l -1,-1 v -1 -1 -1 l -1,-2 v -1 -1 l -1,-1 v -2 -1 -1 l -1,-1 v -2 -1 -1 -1 z m -3,-46 h 46 v 0 2 1 1 2 1 1 2 1 1 1 2 l 1,1 v 1 1 1 2 1 1 1 2 1 1 l 1,1 v 1 1 1 1 2 1 l 1,1 v 1 1 l -46,7 v -1 -1 -2 -1 l -1,-1 v -2 -1 -2 -1 -1 l -1,-2 v -1 -2 -1 -1 -2 -1 -2 l -1,-1 v -2 -1 -2 -1 -1 -2 -2 -1 -1 -2 -1 -2 z m 6,-55 45,12 h -1 v 1 1 1 1 l -1,1 v 1 1 1 l -1,1 v 1 1 1 2 1 l -1,1 v 2 1 1 2 1 2 1 l -1,2 v 2 1 2 2 1 2 2 2 1 h -46 v -2 -2 -2 -2 -2 -2 -2 -2 -1 -2 l 1,-2 v -2 -2 -2 -1 -2 l 1,-2 v -2 -1 -2 -2 l 1,-1 v -2 -2 -1 l 1,-2 v -1 -2 l 1,-1 v -2 l 1,-1 v -2 z m 45,12 h -1 v 0 z m -20,-55 33,32 v 0 h -1 v 1 l -1,1 -1,1 v 0 l -1,1 v 1 l -1,1 v 0 l -1,1 v 1 h -1 v 1 l -1,1 v 1 h -1 v 1 l -1,1 v 0 1 l -1,1 v 0 1 l -1,1 v 1 0 1 l -1,1 v 0 1 1 1 l -45,-12 v -2 l 1,-1 v -2 l 1,-1 v -2 l 1,-1 v -2 l 1,-1 v -1 l 1,-2 1,-1 v -2 l 1,-1 1,-1 1,-2 v -1 l 1,-1 1,-2 1,-1 1,-1 1,-2 v -1 l 1,-1 1,-1 1,-2 1,-1 1,-1 1,-1 1,-1 1,-1 1,-2 1,-1 z m -1,0 h 1 v 0 z m 57,-37 20,42 v 0 l -2,1 -2,1 -2,1 -2,1 -2,1 -2,1 -2,1 -1,1 -2,1 -2,1 -1,1 h -2 l -1,1 -2,1 -1,1 -2,1 -1,1 -1,1 -2,1 -1,1 h -1 l -1,1 -1,1 -1,1 h -1 l -1,1 -1,1 -1,1 h -1 v 1 l -1,1 v 0 l -33,-32 1,-2 1,-1 2,-1 1,-1 1,-1 2,-1 1,-2 1,-1 2,-1 1,-1 2,-1 2,-1 1,-1 2,-1 1,-2 2,-1 2,-1 2,-1 1,-1 2,-1 2,-1 2,-1 2,-2 2,-1 2,-1 2,-1 2,-1 3,-1 2,-1 2,-2 2,-1 z m 20,42 v 0 h -1 z m 66,-76 14,44 v 0 l -3,1 -3,1 -3,1 -3,1 -2,1 -3,1 -3,1 -3,1 h -2 l -3,1 -3,1 -2,1 -3,1 -2,1 -3,1 -2,1 -3,1 -2,1 -3,1 -2,1 -2,1 -3,1 -2,1 -2,1 -3,1 -2,1 -2,1 -2,1 -2,1 -3,1 -2,1 -2,2 -20,-42 2,-1 2,-1 3,-1 2,-1 2,-2 3,-1 2,-1 3,-1 2,-1 3,-1 3,-1 2,-1 3,-1 2,-2 3,-1 3,-1 2,-1 3,-1 3,-1 3,-1 2,-1 3,-1 3,-1 3,-1 3,-1 3,-1 3,-1 3,-1 3,-1 3,-1 3,-1 z m 14,44 v 0 h -1 z m 92,-70 8,46 v 0 l -3,1 h -4 l -3,1 h -3 l -4,1 -3,1 h -3 l -4,1 -3,1 h -3 l -3,1 -3,1 h -4 l -3,1 -3,1 -3,1 h -3 l -3,1 -3,1 -4,1 h -3 l -3,1 -3,1 -3,1 -3,1 -3,1 h -3 l -2,1 -3,1 -3,1 -3,1 -3,1 -14,-44 3,-1 3,-1 3,-1 3,-1 3,-1 3,-1 4,-1 3,-1 h 3 l 3,-1 4,-1 3,-1 3,-1 3,-1 4,-1 h 3 l 3,-1 4,-1 3,-1 4,-1 h 3 l 3,-1 4,-1 h 3 l 4,-1 3,-1 h 4 l 3,-1 4,-1 h 3 l 4,-1 4,-1 z m 8,46 z m 112,-56 v 47 0 h -3 -4 -3 -4 -4 -3 -4 -3 -4 l -3,1 h -4 -3 -4 -3 l -4,1 h -4 -3 l -3,1 h -4 -3 l -4,1 h -3 -4 l -3,1 h -4 l -3,1 h -4 l -3,1 h -3 l -4,1 h -3 l -4,1 -8,-46 h 4 l 4,-1 h 3 l 4,-1 4,-1 h 3 l 4,-1 h 4 4 l 3,-1 h 4 l 4,-1 h 3 4 l 4,-1 h 4 3 l 4,-1 h 4 4 4 l 3,-1 h 4 4 4 3 4 4 4 l 4,-1 h 4 z m 188,22 -12,45 v 0 l -5,-2 -4,-1 -5,-1 -5,-1 -4,-1 -5,-1 -5,-1 -5,-1 -5,-1 -5,-1 -5,-1 -5,-1 h -6 l -5,-1 -5,-1 h -6 l -5,-1 -6,-1 h -6 l -5,-1 h -6 -6 l -6,-1 h -6 -6 l -6,-1 h -6 -6 -6 -7 -6 -7 v -47 h 7 l 7,1 h 6 7 7 6 6 l 7,1 h 6 6 l 6,1 h 7 l 6,1 h 6 l 6,1 5,1 h 6 l 6,1 6,1 5,1 6,1 6,1 h 5 l 6,1 5,1 5,2 6,1 5,1 5,1 5,1 5,2 z m 0,0 v 0 h -1 z m 133,69 -31,34 v 0 l -3,-2 -2,-2 -3,-3 -3,-2 -3,-2 -3,-3 -3,-2 -3,-2 -3,-2 -4,-2 -3,-2 -3,-2 -4,-2 -3,-2 -4,-2 -3,-2 -4,-2 -3,-1 -4,-2 -4,-2 -4,-2 -3,-1 -4,-2 -4,-1 -4,-2 -5,-1 -4,-2 -4,-1 -4,-2 -4,-1 -5,-1 -4,-1 12,-45 5,1 5,2 5,1 5,2 4,1 5,2 5,2 4,1 5,2 4,2 5,2 4,2 4,2 5,2 4,2 4,2 4,2 4,2 4,3 4,2 4,2 4,3 4,2 4,3 3,2 4,3 4,3 3,2 4,3 3,3 4,3 z m -31,34 z m 109,87 -44,14 v 0 l -2,-4 -1,-4 -1,-3 -2,-4 -1,-4 -2,-3 -1,-4 -2,-4 -2,-3 -1,-4 -2,-3 -2,-3 -2,-4 -2,-3 -2,-3 -2,-3 -2,-3 -2,-3 -2,-3 -2,-3 -2,-3 -3,-3 -2,-3 -2,-3 -3,-3 -2,-2 -3,-3 -2,-3 -3,-2 -2,-3 -3,-2 -3,-3 31,-34 3,3 3,3 4,3 3,3 3,3 3,3 3,4 3,3 3,4 3,3 2,3 3,4 3,4 2,3 3,4 2,4 3,4 2,4 2,3 2,4 3,4 2,4 2,5 2,4 2,4 2,4 1,5 2,4 2,4 2,5 1,4 z m -44,14 v 0 l -1,-3 z m 67,154 h -46 v 0 -6 -6 -5 l -1,-6 v -5 -5 -6 l -1,-5 v -5 -5 l -1,-5 v -5 l -1,-5 v -5 l -1,-5 -1,-5 v -5 l -1,-4 -1,-5 -1,-5 v -4 l -1,-5 -1,-4 -1,-5 -1,-4 -1,-4 -1,-4 -1,-5 -2,-4 -1,-4 -1,-4 -1,-4 44,-14 1,4 2,5 1,4 1,5 1,5 2,5 1,4 1,5 1,5 1,5 1,5 1,5 1,5 1,5 v 5 l 1,6 1,5 1,5 v 6 l 1,5 v 6 l 1,5 v 6 l 1,5 v 6 5 6 l 1,6 v 6 6 6 z m -46,607 v -607 h 46 v 607 0 z m -325,-411 h 97 v 47 h -97 v 0 z m -100,55 -10,-45 h 1 l 2,-1 h 3 l 3,-1 h 3 l 3,-1 h 4 l 3,-1 h 3 l 3,-1 h 3 l 3,-1 h 4 3 l 3,-1 h 4 3 l 4,-1 h 3 4 3 l 4,-1 h 3 4 4 3 4 4 l 4,-1 h 3 4 4 4 v 47 h -4 -3 -4 -4 -3 -4 -3 -4 -3 -3 l -4,1 h -3 -3 -4 -3 l -3,1 h -3 -3 l -3,1 h -3 -3 l -3,1 h -3 -3 l -3,1 h -2 l -3,1 h -3 l -3,1 h -2 l -3,1 z m -10,-45 v 0 h 1 z m -53,69 -25,-38 h -1 l 2,-1 3,-2 2,-1 2,-1 2,-2 2,-1 2,-1 2,-1 3,-1 2,-1 2,-2 3,-1 2,-1 2,-1 3,-1 2,-1 3,-1 2,-1 h 3 l 2,-1 3,-1 3,-1 2,-1 3,-1 h 3 l 2,-1 3,-1 3,-1 h 3 l 3,-1 2,-1 h 3 l 10,45 -3,1 h -2 l -2,1 h -3 l -2,1 -3,1 h -2 l -2,1 h -2 l -3,1 -2,1 -2,1 h -2 l -2,1 -2,1 h -2 l -2,1 -2,1 -2,1 -1,1 h -2 l -2,1 -2,1 -1,1 -2,1 -2,1 -1,1 h -2 l -1,1 -2,1 -1,1 z m 0,0 z m -32,35 -41,-20 v 0 l 1,-2 1,-2 1,-2 1,-2 1,-2 1,-2 1,-2 2,-1 1,-2 1,-2 2,-2 1,-2 1,-1 2,-2 1,-2 2,-1 1,-2 2,-2 1,-1 2,-2 2,-2 1,-1 2,-2 2,-1 1,-2 2,-1 2,-1 2,-2 2,-1 2,-2 2,-1 2,-1 25,38 -1,1 -2,1 -1,1 -1,1 -2,1 -1,1 -1,1 -1,1 -2,1 -1,1 -1,1 -1,1 -1,1 -1,1 -1,1 -1,2 -1,1 -1,1 -1,1 -1,1 -1,1 v 1 l -1,1 -1,1 -1,1 -1,2 v 1 l -1,1 -1,1 v 1 l -1,2 z m 0,0 z m -10,49 h -46 v 0 -2 -3 -2 -2 -3 -2 -2 l 1,-2 v -3 -2 -2 l 1,-3 v -2 l 1,-2 v -2 -2 l 1,-2 v -3 l 1,-2 1,-2 v -2 l 1,-2 v -2 l 1,-2 1,-2 1,-2 v -2 l 1,-3 1,-1 1,-2 1,-3 1,-1 41,20 v 2 l -1,1 v 1 l -1,1 -1,2 v 1 l -1,2 v 1 l -1,1 v 2 l -1,1 v 2 1 l -1,1 v 2 1 l -1,2 v 1 2 l -1,2 v 1 2 2 1 2 l -1,1 v 2 2 2 1 2 z m 28,72 -31,34 v 0 l -2,-2 -3,-3 -2,-2 -3,-3 -2,-3 -2,-3 -3,-2 -2,-3 -2,-3 -2,-3 -2,-3 -1,-4 -2,-3 -2,-3 -1,-3 -2,-4 -1,-3 -1,-3 -1,-4 -1,-4 -1,-3 -1,-4 -1,-3 -1,-4 v -4 l -1,-4 v -3 l -1,-4 v -4 -4 -4 -4 h 46 v 3 3 3 3 l 1,3 v 2 3 l 1,3 v 2 l 1,3 1,2 v 3 l 1,2 1,3 v 2 l 1,2 1,2 1,2 1,2 1,2 1,2 2,2 1,2 1,2 1,2 2,2 1,2 2,1 1,2 2,2 2,1 z m 0,0 z m 84,26 v 47 0 h -4 l -4,-1 h -5 -4 -4 l -4,-1 h -4 l -4,-1 h -4 l -4,-1 -4,-1 -4,-1 h -4 l -3,-1 -4,-1 -4,-2 -3,-1 -4,-1 -3,-2 -4,-1 -3,-2 -4,-1 -3,-2 -3,-2 -3,-2 -3,-2 -3,-2 -3,-2 -3,-2 -3,-2 -3,-2 -3,-3 31,-34 2,2 2,1 2,2 2,1 2,1 2,2 2,1 2,1 2,1 2,2 2,1 3,1 2,1 3,1 2,1 h 3 l 2,1 3,1 3,1 h 3 l 2,1 3,1 h 3 l 3,1 h 4 3 l 3,1 h 3 4 3 4 z m 87,-24 24,40 v 0 l -4,2 -3,2 -3,1 -3,2 -3,2 -4,1 -3,2 -3,1 -4,2 -3,1 -3,1 -4,2 -3,1 -3,1 -4,1 -3,1 -4,1 -3,1 -4,1 h -3 l -4,1 -3,1 h -4 l -4,1 h -3 l -4,1 h -3 -4 -4 -3 l -4,1 h -4 v -47 h 3 3 3 3 3 3 l 3,-1 h 2 l 3,-1 h 3 3 l 2,-1 3,-1 h 3 l 3,-1 2,-1 h 3 l 3,-1 2,-1 3,-1 3,-1 2,-1 3,-1 2,-1 3,-1 3,-1 2,-2 3,-1 2,-1 3,-2 2,-1 z m 80,-60 h 46 l -6,15 -3,4 -3,3 -3,3 -3,4 -3,3 -3,3 -3,3 -3,3 -3,3 -3,3 -3,3 -3,3 -3,3 -3,3 -3,2 -3,3 -3,2 -3,3 -3,3 -3,2 -3,2 -3,3 -3,2 -3,2 -3,3 -3,2 -3,2 -3,2 -3,2 -3,2 -3,2 -3,2 -24,-40 2,-1 3,-2 2,-1 3,-2 3,-2 2,-2 3,-2 2,-2 3,-2 3,-2 2,-2 3,-2 3,-2 2,-2 3,-3 3,-2 2,-2 3,-3 3,-2 3,-3 2,-2 3,-3 3,-3 3,-2 2,-3 3,-3 3,-3 3,-3 2,-3 3,-3 3,-3 3,-3 z m 46,0 v 9 l -6,6 z m 0,-154 v 154 h -46 v -154 l 23,-23 z m -23,-23 h 23 v 23 z m 1106,-349 -46,-5 v 0 -1 -1 -2 -1 -2 l 1,-1 v -2 -1 -2 -2 -1 -2 -2 -1 -2 -2 -2 l 1,-2 v -2 -1 -2 -2 -2 -2 -2 -2 -2 -3 -2 -2 -2 -2 h 46 v 2 2 3 2 2 2 2 2 3 2 2 2 2 2 2 2 2 l -1,1 v 2 2 2 2 2 1 2 2 1 l -1,2 v 2 1 2 z m -7,41 -44,-14 v 0 0 -1 -1 0 l 1,-1 v -1 0 -1 -1 l 1,-1 v -1 -1 -1 -1 -1 l 1,-1 v -1 -1 -1 -1 -1 l 1,-1 v -1 -1 -2 -1 -1 -1 l 1,-2 v -1 -1 -2 l 46,5 v 1 2 1 l -1,2 v 1 1 2 1 2 l -1,1 v 1 2 1 1 l -1,2 v 1 1 1 2 l -1,1 v 1 1 1 l -1,1 v 2 1 1 l -1,1 v 1 1 1 l -1,1 z m 0,-1 v 0 1 z m -19,30 -28,-36 v 0 h -1 v 0 0 0 0 h 1 -1 v 0 h 1 v 0 0 0 0 0 -1 0 0 h 1 v -1 0 0 -1 0 l 1,-1 v 0 0 -1 0 -1 h 1 v -1 0 l 44,14 v 1 l -1,1 v 1 1 l -1,1 v 1 l -1,1 v 1 1 l -1,1 v 1 l -1,1 v 1 l -1,1 v 1 l -1,1 v 0 l -1,1 -1,1 v 1 l -1,1 v 1 l -1,1 h -1 v 1 l -1,1 -1,1 -1,1 v 1 h -1 l -1,1 -1,1 z m 1,0 v 0 h -1 z m -32,10 v -46 0 h 1 v 0 0 h 1 v 0 0 0 h 1 v 0 0 0 0 0 l 1,-1 v 0 0 0 0 0 0 0 0 0 0 l -1,1 v 0 0 h 1 -1 v 0 0 0 l 28,36 -1,1 v 1 h -1 l -1,1 h -1 l -1,1 h -1 l -1,1 h -1 l -1,1 h -1 l -1,1 h -1 -1 l -1,1 h -1 -1 l -1,1 h -1 -1 -1 -1 -1 l -1,1 h -1 -1 -1 -1 -1 -1 -1 z m -26,-5 16,-43 v 0 0 h 1 v 0 0 h 1 v 0 l 1,1 v 0 0 h 1 v 0 h 1 v 0 0 h 1 v 0 h 1 v 0 0 l 1,1 v 0 0 0 h 1 v 0 0 0 h 1 v 0 0 0 0 46 0 h -1 -1 -1 v 0 h -1 -1 -1 -1 v -1 h -1 -1 -1 -1 v 0 h -1 -1 l -1,-1 h -1 v 0 h -1 -1 -1 l -1,-1 h -1 v 0 h -1 l -1,-1 h -1 -1 l -1,-1 v 0 z m 1,0 h -1 v 0 z m -23,-7 15,-44 h -1 1 1 l 1,1 h 1 v 0 h 1 l 1,1 h 1 1 v 0 l 1,1 h 1 v 0 h 1 l 1,1 h 1 1 v 0 l 1,1 h 1 v 0 h 1 l 1,1 v 0 h 1 1 l 1,1 v 0 h 1 1 v 0 l 1,1 -16,43 v 0 h -1 v -1 h -1 -1 v 0 h -1 v -1 h -1 -1 v 0 h -1 l -1,-1 v 0 h -1 -1 v -1 h -1 -1 v 0 h -1 l -1,-1 h -1 v 0 h -1 l -1,-1 h -1 v 0 h -1 l -1,-1 h -1 z m 0,0 z m -25,-7 10,-45 v 0 h 1 1 1 l 1,1 h 1 1 1 l 1,1 h 1 1 1 l 1,1 v 0 h 1 1 l 1,1 h 1 1 1 l 1,1 h 1 1 1 l 1,1 h 1 v 0 h 1 l 1,1 h 1 1 l 1,1 h 1 l -15,44 -1,-1 v 0 h -1 -1 v 0 l -1,-1 h -1 -1 v 0 l -1,-1 h -1 -1 -1 v 0 l -1,-1 h -1 -1 -1 v 0 l -1,-1 h -1 -1 -1 l -1,-1 v 0 h -1 -1 -1 l -1,-1 h -1 -1 -1 z m 10,-45 z m -39,42 v -46 0 h 1 2 1 1 1 2 1 1 1 2 1 1 1 2 1 l 1,1 h 1 1 2 1 1 1 l 1,1 h 1 2 1 1 l 1,1 h 1 2 1 l 1,1 -10,45 h -1 l -1,-1 h -1 -1 v 0 h -1 -1 l -1,-1 h -1 -1 v 0 h -1 -1 -1 -1 -1 l -1,-1 h -1 v 0 h -1 -1 -1 -1 -1 -1 -1 -1 -1 -1 -1 -1 z m -33,7 -18,-43 v 0 l 2,-1 h 1 l 2,-1 h 1 l 2,-1 1,-1 h 2 l 2,-1 h 1 2 l 1,-1 h 2 l 2,-1 h 1 2 l 1,-1 h 2 2 l 1,-1 h 2 2 1 l 2,-1 h 1 2 2 1 2 1 2 2 1 v 46 h -1 -1 -1 -1 -1 -1 -1 -1 -1 l -1,1 h -1 -1 -1 -1 -1 l -1,1 h -1 -2 -1 -1 l -1,1 h -1 -1 l -1,1 h -1 -1 l -1,1 h -1 -1 l -1,1 h -1 z m -39,23 -29,-36 v 0 l 2,-1 1,-1 2,-1 1,-2 2,-1 1,-1 2,-1 2,-1 1,-1 2,-1 1,-1 2,-1 1,-2 h 2 l 2,-1 1,-1 2,-1 1,-1 2,-1 1,-1 2,-1 2,-1 h 1 l 2,-1 1,-1 2,-1 1,-1 h 2 l 1,-1 2,-1 h 1 l 2,-1 18,43 h -2 l -1,1 h -1 l -1,1 h -1 l -1,1 h -1 l -2,1 -1,1 h -1 l -1,1 h -1 l -1,1 -2,1 h -1 l -1,1 -1,1 -1,1 h -2 l -1,1 -1,1 -1,1 -2,1 -1,1 h -1 l -1,1 -2,1 -1,1 -1,1 -1,1 -1,1 z m 0,0 z m -44,45 -36,-29 v 0 l 2,-2 1,-2 2,-2 2,-2 1,-2 2,-1 1,-2 2,-2 2,-2 1,-2 2,-1 1,-2 2,-2 2,-1 1,-2 2,-2 1,-1 2,-2 2,-1 1,-2 2,-1 1,-2 2,-2 2,-1 1,-1 2,-2 1,-1 2,-2 1,-1 2,-1 2,-2 1,-1 29,36 -1,1 -2,1 -1,2 -1,1 -1,1 -2,1 -1,1 -1,1 -2,2 -1,1 -1,1 -2,1 -1,2 -2,1 -1,1 -1,2 -2,1 -1,2 -1,1 -2,2 -1,1 -2,2 -1,1 -2,2 -1,1 -1,2 -2,2 -1,1 -2,2 -1,2 -2,2 z m -36,-29 z m -12,90 h -46 l 3,-13 2,-3 2,-2 2,-3 1,-3 2,-3 2,-2 2,-3 2,-3 1,-2 2,-3 2,-2 2,-3 1,-2 2,-3 2,-2 1,-3 2,-2 2,-3 1,-2 2,-2 2,-2 2,-3 1,-2 2,-2 2,-2 1,-2 2,-3 2,-2 1,-2 2,-2 1,-2 2,-2 36,29 -2,2 -1,2 -2,2 -1,2 -2,2 -1,2 -2,2 -1,2 -2,2 -1,2 -2,2 -2,2 -1,2 -2,3 -1,2 -2,2 -2,2 -1,3 -2,2 -1,2 -2,3 -2,2 -1,3 -2,2 -2,3 -1,2 -2,3 -2,2 -2,3 -1,3 -2,2 -2,3 z m -46,0 v -7 l 3,-6 z m 0,563 v -563 h 46 v 563 0 z m 35,31 -37,-27 v -1 h 1 v 0 -1 0 0 0 0 0 0 0 0 0 0 0 0 -1 0 0 0 0 h 1 v 0 0 0 0 -1 0 0 0 0 0 0 h 46 v 1 1 1 1 1 l -1,1 v 1 1 1 1 l -1,2 v 1 1 1 l -1,1 v 1 1 l -1,1 v 1 l -1,1 v 1 l -1,1 v 1 l -1,1 v 1 h -1 v 1 l -1,1 -1,1 v 1 l -1,1 v 1 z m -37,-27 v -1 0 z m 5,48 -14,-44 h -1 1 1 v 0 l 1,-1 h 1 v 0 h 1 v -1 h 1 v 0 h 1 v -1 h 1 v 0 0 h 1 v 0 -1 0 0 h 1 v 0 0 0 0 0 0 -1 0 1 0 0 l 37,27 -1,1 v 1 l -1,1 -1,1 -1,1 -1,1 -1,1 h -1 l -1,1 -1,1 -1,1 v 0 l -1,1 -1,1 h -1 l -1,1 -1,1 h -1 l -2,1 h -1 v 1 h -2 l -1,1 h -1 l -1,1 h -1 l -1,1 h -1 l -1,1 h -1 l -1,1 z m 0,0 z m -43,9 -5,-46 v 0 h 1 l 1,-1 h 2 1 1 2 1 l 1,-1 h 1 2 1 1 l 1,-1 h 1 1 1 1 l 1,-1 h 2 v 0 h 1 l 1,-1 h 1 1 1 1 l 1,-1 h 1 1 v 0 l 1,-1 h 1 l 14,44 h -1 l -1,1 h -2 -1 l -1,1 h -1 -1 l -1,1 h -2 -1 l -1,1 h -1 -2 l -1,1 h -1 -2 -1 l -1,1 h -2 -1 -2 l -1,1 h -2 -1 -1 l -2,1 h -1 -2 -2 -1 l -2,1 z m -65,2 v -46 0 h 3 2 2 2 2 3 2 2 2 2 2 2 2 2 2 l 2,-1 h 1 2 2 2 2 1 2 2 1 2 l 1,-1 h 2 1 2 1 2 l 5,46 h -2 -2 -1 -2 -2 l -2,1 h -2 -1 -2 -2 -2 -2 -2 -2 l -2,1 h -2 -2 -2 -2 -2 -2 -2 -2 -2 -3 -2 -2 -2 -3 -2 -2 z m -64,-2 5,-46 v 0 h 1 2 1 2 1 l 2,1 h 1 2 2 1 2 2 2 1 2 2 l 2,1 h 2 2 2 2 2 2 2 2 2 2 2 3 2 2 2 v 46 h -2 -2 -3 -2 -2 -3 -2 -2 -2 -2 -2 -2 -3 -2 -2 -2 -2 l -2,-1 h -2 -1 -2 -2 -2 -2 -2 -2 l -1,-1 h -2 -2 -2 -1 z m -44,-9 15,-44 v 0 h 1 v 1 h 1 1 1 l 1,1 h 1 v 0 h 1 1 l 1,1 h 1 1 1 l 1,1 h 1 1 2 1 l 1,1 h 1 1 1 2 l 1,1 h 1 1 2 1 1 l 2,1 h 1 l -5,46 h -2 l -1,-1 h -2 -1 -2 -1 l -2,-1 h -1 -2 -1 l -2,-1 h -1 -2 -1 l -1,-1 h -2 -1 -1 l -2,-1 h -1 -1 l -1,-1 h -2 -1 l -1,-1 h -1 -2 l -1,-1 h -1 -1 l -1,-1 h -1 z m 1,0 v 0 h -1 z m -32,-20 36,-29 1,1 v 0 0 -1 1 0 0 0 0 0 0 0 0 h 1 v 0 1 0 h 1 v 0 0 h 1 v 1 h 1 v 0 0 l 1,1 h 1 v 0 h 1 v 1 h 1 1 v 0 l -15,44 h -1 l -1,-1 h -1 l -1,-1 h -1 l -1,-1 h -2 l -1,-1 h -1 l -1,-1 h -1 l -1,-1 h -1 l -1,-1 h -1 l -1,-1 -1,-1 h -1 l -1,-1 -1,-1 h -1 l -1,-1 -1,-1 -1,-1 h -1 v -1 l -1,-1 -1,-1 -1,-1 -1,-1 -1,-1 v -1 z m 36,-29 v 0 l 1,1 z m -47,-3 h 46 v 0 0 0 0 0 0 0 1 0 0 0 0 0 0 0 0 0 1 0 -1 1 0 0 h 1 v 0 0 0 0 0 0 1 0 0 l -36,29 -1,-1 v -1 l -1,-1 v -1 l -1,-1 h -1 v -1 l -1,-1 v -1 l -1,-1 v -1 l -1,-1 v -1 l -1,-1 v -1 -1 l -1,-1 v -1 -1 l -1,-1 v -1 -1 -2 -1 l -1,-1 v -1 -1 -1 -1 -1 -1 z m 46,-904 v 904 h -46 v -904 0 z m -38,-29 40,24 -1,1 v 0 0 0 0 0 1 0 0 0 0 0 0 h -1 1 -1 v 1 0 0 0 0 0 0 1 0 0 0 0 1 0 0 0 0 h -46 v -1 -1 0 -2 0 -1 -1 -1 l 1,-2 v 0 -1 -2 0 l 1,-1 v -2 0 -1 l 1,-1 v -1 -1 l 1,-1 v -1 -1 l 1,-1 v -1 l 1,-1 v -1 l 1,-1 v 0 l 1,-1 v -1 l 1,-1 z m 40,24 v 0 l -1,1 z m -9,-47 15,44 h 1 -1 -1 v 0 0 l -1,1 v 0 h -1 v 0 h -1 v 1 0 h -1 v 0 0 l -1,1 v 0 0 0 0 0 0 h -1 1 v 0 0 h -1 1 v 0 0 0 0 0 l -40,-24 1,-1 1,-1 v -1 l 1,-1 1,-1 1,-1 1,-1 1,-1 v -1 l 1,-1 1,-1 h 1 l 1,-1 1,-1 h 1 l 1,-1 1,-1 h 1 l 1,-1 1,-1 v 0 l 1,-1 h 1 l 1,-1 h 1 l 1,-1 h 1 l 1,-1 h 1 l 2,-1 v 0 h 1 z m -2,1 1,-1 h 1 z m 40,-9 6,45 v 0 l -1,1 h -2 -1 -1 -1 -1 l -1,1 h -1 -1 -1 -1 -1 l -1,1 h -1 -1 -1 l -1,1 v 0 h -1 -1 -1 l -1,1 h -1 v 0 h -1 l -1,1 h -1 -1 v 0 h -1 l -1,1 v 0 l -15,-44 h 1 1 l 1,-1 h 1 1 l 1,-1 h 1 1 l 1,-1 h 1 1 l 1,-1 h 1 2 1 l 1,-1 h 1 1 l 2,-1 h 1 1 1 l 2,-1 h 1 1 2 1 l 1,-1 h 2 1 2 z m 55,-3 v 46 0 h -2 -2 -2 -1 -2 -2 -2 -1 -2 -2 -2 -1 l -2,1 h -1 -2 -2 -1 -2 -1 -2 -1 -1 -2 -1 l -2,1 h -1 -1 -1 -2 -1 -1 -1 l -6,-45 2,-1 h 1 1 2 2 1 l 2,-1 h 1 2 1 2 2 1 2 2 1 2 l 2,-1 h 2 1 2 2 2 2 2 1 2 2 2 2 2 z m 56,3 -5,45 v 0 h -1 -2 -1 -1 -1 -2 -1 l -1,-1 h -2 -1 -2 -1 -2 -1 -2 -1 -2 -2 -1 l -2,-1 h -2 -1 -2 -2 -2 -1 -2 -2 -2 -2 -2 -2 v -46 h 2 2 2 2 2 2 2 2 2 2 2 1 2 2 l 2,1 h 2 1 2 2 1 2 2 1 2 2 l 1,1 h 2 1 2 1 2 z m 40,9 -19,42 1,1 v -1 h -1 v 0 h -1 -1 v -1 h -1 -1 v 0 h -1 l -1,-1 h -1 v 0 h -1 l -1,-1 h -1 -1 -1 v 0 l -1,-1 h -1 -1 -1 -1 -1 l -2,-1 h -1 -1 -1 -1 -1 l -1,-1 5,-45 h 2 1 2 1 l 1,1 h 2 1 2 1 l 1,1 h 1 2 1 l 1,1 h 2 1 l 1,1 h 1 1 1 l 2,1 h 1 1 l 1,1 h 1 1 l 1,1 h 1 1 l 1,1 h 1 l 1,1 z m -1,0 h 1 v 0 z m 27,21 -38,26 v 0 0 -1 1 -1 0 0 0 0 h -1 v 0 0 0 0 0 -1 0 h -1 v 0 0 0 l -1,-1 v 0 0 0 h -1 v -1 h -1 v 0 0 h -1 v -1 h -1 l 19,-42 1,1 h 1 1 l 1,1 h 1 l 1,1 h 1 l 1,1 h 1 l 1,1 v 1 h 1 l 1,1 h 1 l 1,1 h 1 l 1,1 v 1 h 1 l 1,1 1,1 v 1 h 1 l 1,1 1,1 v 1 l 1,1 h 1 l 1,1 v 1 l 1,1 1,1 z m 10,30 h -47 v 0 0 0 0 0 -1 0 0 0 0 -1 0 0 0 0 0 0 -1 0 0 0 0 0 0 0 0 0 l -1,-1 v 0 0 0 0 0 l 38,-26 1,1 1,1 v 1 h 1 v 1 l 1,1 v 1 1 l 1,1 v 1 l 1,1 v 1 1 l 1,1 v 1 1 l 1,1 v 1 0 2 l 1,1 v 1 1 1 1 1 1 0 2 h 1 v 1 z m -47,113 v -113 h 47 v 113 l -5,13 z m 42,13 -42,61 v -74 z m 32,-112 33,32 v 0 l -2,2 -2,2 -2,2 -2,2 -2,2 -1,2 -2,2 -2,2 -2,3 -2,2 -2,2 -2,3 -2,2 -2,2 -2,3 -2,2 -2,3 -2,2 -2,3 -2,3 -2,2 -2,3 -3,3 -2,3 -2,2 -2,3 -2,3 -2,3 -2,3 -2,3 -2,3 -3,3 -38,-26 3,-3 2,-4 2,-3 2,-3 3,-3 2,-3 2,-3 2,-3 3,-3 2,-3 2,-3 2,-3 2,-2 2,-3 3,-3 2,-3 2,-2 2,-3 2,-2 2,-3 2,-3 3,-2 2,-3 2,-2 2,-2 2,-3 2,-2 2,-2 2,-3 2,-2 2,-2 2,-2 z m -1,0 h 1 v 0 z m 64,-55 26,38 v 0 l -2,1 -1,1 -2,1 -1,1 -2,2 -2,1 -1,1 -2,1 -2,2 -2,1 -1,1 -2,2 -2,1 -1,2 -2,1 -2,2 -2,1 -1,2 -2,2 -2,1 -2,2 -2,2 -1,1 -2,2 -2,2 -2,2 -2,1 -2,2 -2,2 -2,2 -1,2 -2,2 -33,-32 2,-2 2,-2 2,-2 2,-3 2,-2 2,-1 2,-2 2,-2 2,-2 2,-2 2,-2 2,-2 2,-2 2,-1 2,-2 2,-2 2,-2 2,-1 2,-2 2,-2 1,-1 2,-2 2,-1 2,-2 2,-1 2,-2 2,-1 2,-2 2,-1 2,-2 2,-1 z m 0,0 v 0 -1 z m 64,-30 12,44 v 0 l -2,1 h -1 l -2,1 h -1 l -2,1 h -1 l -2,1 h -2 l -1,1 h -2 l -1,1 -2,1 h -1 l -2,1 -1,1 h -2 l -1,1 -2,1 -2,1 h -1 l -2,1 -1,1 -2,1 -1,1 -2,1 -2,1 -1,1 -2,1 -1,1 -2,1 -2,1 -1,1 -26,-38 2,-2 2,-1 2,-1 2,-2 2,-1 2,-1 2,-1 2,-1 2,-1 2,-1 2,-1 2,-2 2,-1 2,-1 2,-1 h 2 l 2,-1 2,-1 2,-1 2,-1 2,-1 2,-1 h 2 l 2,-1 2,-1 2,-1 h 2 l 2,-1 2,-1 h 2 l 2,-1 z m 12,44 z m 50,-53 v 47 0 h -1 -2 -1 -2 -1 -2 -2 -1 -2 -1 -2 l -2,1 h -1 -2 -1 -2 -2 l -1,1 h -2 -1 -2 l -1,1 h -2 -2 l -1,1 h -2 -1 l -2,1 h -1 l -2,1 h -1 -2 l -12,-44 2,-1 h 2 l 2,-1 h 1 l 2,-1 h 2 2 l 2,-1 h 2 l 2,-1 h 2 2 l 2,-1 h 2 2 l 2,-1 h 2 2 2 2 l 2,-1 h 2 2 2 2 2 2 2 l 2,-1 h 2 1 z m 31,2 -5,46 v 0 h -1 v 0 h -1 -1 l -1,-1 h -1 -1 v 0 h -1 -1 -1 -1 -1 v 0 h -1 -1 -1 v 0 h -1 -1 -1 -1 -1 v 0 h -1 -1 -1 -1 v 0 h -1 -1 -1 v -47 h 1 1 1 1 1 1 1 1 v 1 h 1 1 1 1 1 1 1 1 1 1 1 1 1 1 1 1 1 1 l 1,1 h 1 1 1 z m 34,6 -10,45 v 0 l -1,-1 h -1 -1 -1 v 0 l -1,-1 h -1 -1 -1 -1 -1 l -1,-1 h -1 -1 -1 v 0 h -1 l -1,-1 h -1 -1 -1 -1 -1 -1 -1 l -1,-1 v 0 h -1 -1 -1 -1 -1 l 5,-46 h 1 1 1 1 1 l 1,1 h 1 1 2 1 1 l 1,1 h 1 1 1 1 1 l 1,1 h 1 1 1 1 l 1,1 h 2 1 1 1 l 1,1 h 1 1 1 z m 32,8 -17,44 h 1 -1 v -1 h -1 -1 v 0 l -1,-1 h -1 -1 v 0 h -1 l -1,-1 h -1 -1 v 0 l -1,-1 h -1 -1 v 0 l -1,-1 h -1 -1 -1 -1 l -1,-1 h -1 -1 v 0 l -1,-1 h -1 -1 -1 -1 l 10,-45 h 1 1 1 l 1,1 h 2 1 1 l 1,1 h 1 1 1 l 1,1 h 1 1 1 l 1,1 h 1 v 0 l 2,1 v 0 h 1 1 l 1,1 h 1 1 1 l 1,1 h 1 1 v 1 h 1 1 z m -1,0 v 0 h 1 z m 27,15 -33,33 1,1 v 0 0 0 0 0 0 l -1,-1 v 0 0 0 0 h -1 v 0 -1 0 h -1 v 0 h -1 v 0 -1 h -1 v 0 h -1 v -1 h -1 v 0 h -1 v 0 l -1,-1 v 0 h -1 -1 l 17,-44 1,1 v 0 h 1 l 1,1 h 1 1 l 1,1 h 1 v 1 h 1 1 l 1,1 h 1 l 1,1 v 0 h 1 l 1,1 h 1 v 1 h 1 l 1,1 h 1 l 1,1 v 0 l 1,1 h 1 v 1 h 1 l 1,1 v 0 l 1,1 1,1 z m -1,0 v 0 h 1 z m 14,19 -43,18 v 0 0 0 0 0 0 0 0 0 0 -1 0 0 0 h -1 v 0 0 -1 0 0 0 0 0 h -1 v -1 0 0 0 0 l -1,-1 v 0 0 0 l 33,-33 v 1 h 1 v 1 h 1 v 1 h 1 v 1 h 1 v 1 0 l 1,1 v 0 l 1,1 v 0 1 h 1 v 1 l 1,1 v 0 1 h 1 v 1 0 l 1,1 v 1 0 l 1,1 v 1 0 l 1,1 v 0 1 z m -1,-1 h 1 v 1 z m 7,22 -46,9 v 0 -1 0 -1 0 -1 l -1,-1 v 0 -1 0 0 -1 0 -1 0 l -1,-1 v 0 0 -1 0 0 -1 0 -1 0 0 h -1 v 0 -1 0 0 0 0 l 43,-18 v 0 1 l 1,1 v 0 1 1 0 l 1,1 v 1 0 1 0 l 1,1 v 1 0 1 1 1 h 1 v 1 0 1 1 1 h 1 v 1 1 0 1 1 1 z m -46,9 v 0 -1 z m 49,26 -46,3 v 0 -2 -1 -1 -1 -2 l -1,-1 v -1 -1 -1 -1 -1 -1 -1 -1 -1 -1 -1 -1 h -1 v -1 -1 -1 -1 0 -1 -1 0 -1 0 l -1,-1 v 0 -1 l 46,-9 v 1 1 1 1 1 0 l 1,1 v 1 1 1 1 1 1 1 l 1,1 v 2 1 1 1 1 1 1 2 1 l 1,1 v 1 2 1 1 2 1 z m 1,59 h -46 v 0 -3 -2 -2 -2 -2 -2 -2 -2 -2 -2 -2 -2 -2 -2 -1 -2 -2 -2 -1 -2 l -1,-2 v -1 -2 -1 -2 -1 -2 -1 -1 -2 -1 -1 l 46,-3 v 2 1 2 1 2 1 2 l 1,1 v 2 1 2 2 2 1 2 2 2 2 2 1 2 2 2 2 2 3 2 2 2 2 2 z m 986,851 -38,-27 v 0 0 0 l 1,-1 v 0 0 0 0 0 0 0 0 0 -1 1 -1 0 0 0 0 0 0 0 -1 0 0 0 0 0 -1 0 0 0 h 47 v 1 1 l -1,1 v 1 1 1 1 1 1 1 l -1,1 v 1 1 1 l -1,1 v 1 1 1 l -1,1 v 1 l -1,1 v 1 1 l -1,1 -1,1 v 1 0 l -1,2 h -1 v 1 l -1,1 z m -32,20 -14,-44 v 0 0 h 1 1 v -1 h 1 v 0 h 1 1 v 0 -1 h 1 v 0 0 h 1 v -1 0 0 h 1 v 0 0 0 0 0 0 0 0 l 1,-1 -1,1 v 0 0 0 0 l 38,27 -1,1 -1,1 -1,1 -1,1 -1,1 v 1 l -1,1 h -1 l -1,1 -1,1 -1,1 -1,1 h -1 l -1,1 h -1 l -1,1 -1,1 h -1 l -1,1 h -1 l -1,1 h -1 l -1,1 h -2 l -1,1 h -1 l -1,1 h -1 -1 l -1,1 h -1 l -2,1 z m -14,-44 v 0 l -1,1 z m -31,53 -5,-46 v 0 h 2 l 1,-1 h 2 1 1 2 1 l 1,-1 h 2 1 1 1 l 2,-1 h 1 1 1 1 l 1,-1 h 1 1 1 1 l 1,-1 h 1 1 1 1 l 1,-1 v 0 h 1 1 l 1,-1 14,44 -1,1 h -2 l -1,1 h -1 -1 l -2,1 h -1 -1 -1 l -2,1 h -1 -1 l -2,1 h -1 -1 -2 l -1,1 h -1 -2 -1 l -2,1 h -1 -2 -1 -2 l -1,1 h -2 -2 -1 -2 l -1,1 z m -68,2 v -46 0 h 2 3 2 2 3 2 2 3 2 2 2 2 3 2 2 l 2,-1 h 2 1 2 2 2 2 2 1 2 2 l 1,-1 h 2 2 1 2 1 l 5,46 h -2 -2 -1 -2 -2 l -2,1 h -2 -2 -2 -1 -2 -3 -1 -3 l -2,1 h -2 -2 -2 -2 -2 -3 -2 -2 -3 -2 -2 -3 -2 -3 -2 -3 z m -70,-2 4,-46 v 0 h 2 1 2 1 l 2,1 h 2 2 1 2 2 2 2 2 2 2 l 2,1 h 2 2 2 2 2 3 2 2 2 3 2 3 2 3 2 3 v 46 h -3 -3 -2 -3 -2 -3 -2 -3 -2 -2 -3 -2 -2 -2 -3 -2 -2 -2 l -2,-1 h -2 -2 -2 -2 -2 -2 -2 -2 -2 l -1,-1 h -2 -2 z m -47,-7 13,-45 v 0 h 1 l 1,1 h 1 v 0 h 1 l 1,1 h 1 1 1 1 l 1,1 h 2 1 1 1 l 1,1 h 1 2 1 1 1 l 2,1 h 1 1 2 1 2 l 1,1 h 2 1 2 1 l -4,46 h -1 -2 -2 -1 l -2,-1 h -2 -1 -2 -1 l -2,-1 h -1 -2 -1 -2 l -1,-1 h -2 -1 -2 -1 l -2,-1 h -1 -1 -2 l -1,-1 h -1 -2 l -1,-1 h -1 -2 l -1,-1 h -1 z m -34,-17 30,-36 v 0 l 1,1 v 0 0 0 l 1,1 v 0 0 h 1 v 0 1 h 1 v 0 l 1,1 v 0 h 1 v 0 l 1,1 v 0 h 1 v 0 l 1,1 h 1 v 0 h 1 l 1,1 v 0 h 1 1 l 1,1 v 0 h 1 1 l -13,45 -1,-1 h -1 -1 l -1,-1 h -2 -1 l -1,-1 h -1 l -1,-1 h -1 l -2,-1 h -1 l -1,-1 h -1 l -1,-1 h -1 l -1,-1 h -1 l -1,-1 -2,-1 h -1 l -1,-1 h -1 l -1,-1 -1,-1 h -1 l -1,-1 -1,-1 -1,-1 h -1 l -1,-1 v -1 z m 30,-36 z m -51,9 39,-25 1,1 v 1 l 1,1 v 0 1 l 1,1 v 0 1 l 1,1 v 0 l 1,1 v 0 1 h 1 v 1 0 l 1,1 v 0 0 l 1,1 v 0 1 h 1 v 0 1 h 1 v 0 1 0 h 1 v 1 0 h 1 l -30,36 -1,-1 -1,-1 -1,-1 v 0 l -1,-1 -1,-1 -1,-1 v -1 l -1,-1 h -1 l -1,-1 v -1 l -1,-1 -1,-1 -1,-1 v -1 h -1 v -1 l -1,-1 -1,-1 v -1 l -1,-1 -1,-1 v -1 l -1,-1 v 0 l -1,-1 v -1 l -1,-1 v -1 l -1,-1 -1,-1 z m 39,-25 1,1 v 0 z m -300,-475 300,475 -39,25 -300,-476 -4,-12 z m -43,12 v -80 l 43,68 z m 0,478 v -478 h 46 v 478 0 z m 36,31 -38,-27 1,-1 v 0 0 -1 0 0 0 h 1 v 0 0 0 0 0 0 0 0 -1 0 0 0 0 0 0 0 0 0 -1 0 0 0 0 0 0 h 46 v 1 1 1 1 1 1 1 1 l -1,1 v 1 2 1 l -1,1 v 1 1 l -1,1 v 1 1 l -1,1 v 1 l -1,1 v 1 1 l -1,1 -1,1 v 0 l -1,1 v 1 l -1,1 -1,1 v 1 l -1,1 z m -38,-27 1,-1 v 0 z m 5,48 -14,-44 v 0 0 h 1 1 v -1 h 1 1 v 0 l 1,-1 v 0 h 1 v 0 l 1,-1 v 0 0 h 1 v 0 0 -1 h 1 v 0 0 0 0 0 0 0 h 1 v -1 0 1 h -1 v 0 l 38,27 -1,1 -1,1 -1,1 -1,1 v 1 l -1,1 -1,1 h -1 l -1,1 -1,1 -1,1 h -1 l -1,1 -1,1 h -1 l -1,1 -1,1 h -1 l -1,1 h -1 l -1,1 h -1 l -1,1 h -1 l -1,1 h -1 l -1,1 h -2 l -1,1 h -1 l -1,1 h -1 z m 1,0 v 0 h -1 z m -44,9 -5,-46 v 0 h 2 l 1,-1 h 1 2 1 1 1 l 2,-1 h 1 1 1 1 l 1,-1 h 2 1 1 1 l 1,-1 h 1 1 1 l 1,-1 h 1 1 1 v 0 l 1,-1 h 1 1 1 v -1 h 1 l 14,44 h -1 l -1,1 h -1 -1 l -1,1 h -1 -2 l -1,1 h -1 -1 l -2,1 h -1 -1 l -2,1 h -1 -1 -2 l -1,1 h -1 -2 -1 l -2,1 h -1 -2 -1 l -1,1 h -2 -2 -1 -2 l -1,1 z m -64,2 v -46 0 h 2 2 3 2 2 2 2 2 2 2 2 2 2 2 2 l 2,-1 h 2 2 2 1 2 2 1 2 2 1 l 2,-1 h 1 2 1 2 1 l 5,46 h -2 -1 -2 -2 -1 l -2,1 h -2 -2 -2 -1 -2 -2 -2 -2 l -2,1 h -2 -2 -2 -2 -2 -2 -3 -2 -2 -2 -2 -3 -2 -2 -2 -3 z m -64,-2 5,-46 h -1 2 1 2 1 2 l 1,1 h 2 2 1 2 2 1 2 2 2 2 l 1,1 h 2 2 2 2 2 2 2 2 3 2 2 2 2 3 2 v 46 h -3 -2 -2 -2 -3 -2 -2 -2 -3 -2 -2 -2 -2 -2 -2 -2 -2 l -2,-1 h -2 -2 -2 -2 -2 -1 -2 -2 l -2,-1 h -2 -1 -2 -2 z m -44,-9 15,-44 h -1 1 l 1,1 h 1 v 0 h 1 l 1,1 h 1 1 1 1 l 1,1 h 1 1 1 l 1,1 h 1 1 1 1 l 1,1 h 2 1 1 1 l 1,1 h 2 1 1 2 1 l 1,1 h 2 l -5,46 h -2 l -2,-1 h -1 -2 -1 -2 l -1,-1 h -2 -1 -2 l -1,-1 h -2 -1 -1 l -2,-1 h -1 -2 -1 l -1,-1 h -1 -2 l -1,-1 h -1 -1 l -2,-1 h -1 -1 l -1,-1 h -1 -1 l -2,-1 z m 0,0 z m -31,-20 36,-29 v 1 0 0 -1 1 0 0 0 0 h 1 -1 1 v 0 0 0 l 1,1 v 0 0 0 h 1 v 0 l 1,1 v 0 0 h 1 l 1,1 v 0 h 1 v 0 l 1,1 v 0 h 1 1 l -15,44 h -1 l -1,-1 h -2 l -1,-1 h -1 l -1,-1 h -1 l -1,-1 h -1 l -1,-1 h -1 l -1,-1 h -1 l -1,-1 h -1 l -1,-1 -1,-1 h -1 l -1,-1 -1,-1 h -1 l -1,-1 -1,-1 -1,-1 h -1 l -1,-1 -1,-1 -1,-1 -1,-1 v -1 l -1,-1 -1,-1 z m 36,-29 v 0 1 z m -48,-3 h 47 v 0 0 0 0 0 0 0 1 0 0 0 0 0 0 0 0 0 1 0 -1 1 0 0 0 0 0 0 0 0 0 1 h 1 v 0 l -36,29 -1,-1 -1,-1 v -1 l -1,-1 -1,-1 v 0 l -1,-1 v -1 l -1,-1 v -1 l -1,-1 v -1 l -1,-1 v -1 -1 l -1,-1 v -1 -1 l -1,-1 v -1 -1 l -1,-1 v -2 -1 -1 -1 -1 -1 l -1,-1 v -1 -1 z m 47,-1331 v 1331 h -47 v -1331 0 z m -36,-32 37,27 v 0 0 1 0 0 h -1 v 0 0 1 0 0 0 0 0 0 0 1 0 0 0 0 0 0 0 0 0 1 0 0 0 0 0 1 h -47 v -1 -1 -2 -1 l 1,-1 v -1 -1 -1 -1 -1 l 1,-1 v -1 -1 -1 l 1,-2 v -1 0 l 1,-2 v -1 h 1 v -1 l 1,-2 v 0 l 1,-1 v -1 l 1,-1 v -1 l 1,-1 v -1 l 1,-1 1,-1 v -1 z m 37,27 z m -6,-49 17,43 -1,1 h -1 v 0 h -1 v 1 h -1 -1 v 0 l -1,1 v 0 0 h -1 v 0 l -1,1 v 0 0 h -1 v 0 1 0 h -1 v 0 0 0 1 0 0 0 h -1 v 0 0 0 0 l -37,-27 1,-1 1,-1 v -1 l 1,-1 1,-1 1,-1 1,-1 v 0 l 1,-1 1,-1 1,-1 1,-1 h 1 l 1,-1 1,-1 h 1 l 1,-1 1,-1 h 1 l 1,-1 h 1 l 1,-1 1,-1 h 1 l 1,-1 h 2 l 1,-1 h 1 l 1,-1 h 1 l 2,-1 h 1 z m 17,43 -1,1 v 0 z m 27,-53 6,46 v 0 h -1 l -2,1 h -1 -1 -2 -1 l -1,1 h -1 -2 -1 -1 l -1,1 h -1 -1 -2 l -1,1 h -1 -1 -1 -1 l -1,1 h -1 v 0 h -1 l -1,1 h -1 -1 -1 v 1 h -1 -1 v 0 l -17,-43 h 1 1 l 2,-1 h 1 l 1,-1 h 1 l 2,-1 h 1 1 l 1,-1 h 2 1 l 1,-1 h 2 1 l 1,-1 h 2 1 2 l 1,-1 h 1 2 l 1,-1 h 2 1 2 l 1,-1 h 2 1 2 1 z m 0,0 v 0 h -1 z m 65,-3 v 46 0 h -2 -3 -2 -2 -2 -2 -2 -3 l -2,1 h -2 -2 -2 -1 -2 -2 -2 -2 -2 -2 -1 l -2,1 h -2 -1 -2 -2 -1 -2 l -1,1 h -2 -1 -2 -1 l -6,-46 h 2 2 1 2 l 2,-1 h 2 1 2 2 2 l 2,-1 h 2 2 2 2 2 2 2 2 2 l 2,-1 h 2 2 2 3 2 2 2 3 2 2 z m 65,3 -6,46 v 0 h -2 -1 -2 -1 l -2,-1 h -1 -2 -1 -2 -2 -1 l -2,-1 h -2 -2 -1 -2 -2 -2 -2 -2 -2 -2 -2 l -2,-1 h -2 -2 -2 -2 -2 -3 -2 -2 v -46 h 2 3 2 2 2 3 2 2 2 3 2 l 2,1 h 2 2 2 2 2 2 2 2 2 l 2,1 h 2 2 1 2 2 l 2,1 h 1 2 2 z m 0,0 z m 43,10 -15,44 -1,-1 h -1 v 0 h -1 l -1,-1 h -1 v 0 h -1 l -1,-1 h -1 -1 -1 l -1,-1 h -1 -1 -1 -1 l -1,-1 h -1 -1 -1 l -1,-1 h -1 -2 -1 -1 l -1,-1 h -2 -1 -1 -2 l -1,-1 h -1 l 6,-46 1,1 h 2 1 2 1 l 2,1 h 1 2 1 l 2,1 h 1 2 l 1,1 h 2 1 1 l 2,1 h 1 1 l 2,1 h 1 1 l 2,1 h 1 1 l 1,1 h 2 l 1,1 h 1 l 1,1 h 2 1 z m -15,44 h -1 v -1 z m 47,-22 -37,27 h -1 v 0 0 0 0 0 0 0 0 -1 0 h -1 v 0 0 0 -1 h -1 v 0 0 h -1 v -1 h -1 v 0 0 h -1 v -1 h -1 v 0 h -1 v -1 h -1 -1 v 0 l 15,-44 h 1 l 1,1 h 2 l 1,1 h 1 l 1,1 h 1 l 1,1 h 1 l 2,1 1,1 h 1 l 1,1 h 1 l 1,1 1,1 h 1 l 1,1 1,1 h 1 l 1,1 1,1 v 1 l 1,1 h 1 l 1,1 1,1 1,1 v 1 l 1,1 1,1 z m -37,27 h -1 v 0 z m 47,5 h -46 v 0 -1 0 0 0 0 0 -1 0 0 0 0 0 0 0 0 0 -1 0 0 0 0 0 h -1 v 0 -1 0 0 0 0 0 -1 0 l 37,-27 v 0 l 1,1 v 1 l 1,1 1,1 v 1 l 1,1 v 1 l 1,1 v 1 l 1,1 v 0 1 l 1,2 v 1 h 1 v 1 2 l 1,1 v 1 1 1 l 1,1 v 1 1 1 1 1 1 2 1 z m -46,792 v -792 h 46 v 792 l -4,14 z m 42,14 -42,56 v -70 z m 267,-360 -267,360 -37,-28 267,-359 38,26 z m 1,-1 -1,1 v 0 z m -17,-51 31,34 v 0 1 h -1 v 1 h -1 v 1 h -1 v 1 h -1 v 1 h -1 v 1 0 l -1,1 v 0 l -1,1 v 0 l -1,1 v 0 l -1,1 v 0 1 h -1 v 1 h -1 v 1 l -1,1 v 0 l -1,1 v 1 0 l -1,1 v 0 l -39,-25 1,-1 v -1 l 1,-1 1,-1 v -1 h 1 l 1,-1 v -1 l 1,-1 1,-1 v -1 l 1,-1 v 0 l 1,-1 1,-1 1,-1 v -1 h 1 l 1,-1 v -1 l 1,-1 1,-1 h 1 v -1 l 1,-1 1,-1 v 0 l 1,-1 1,-1 1,-1 h 1 z m 36,-19 13,44 v 0 0 l -1,1 h -1 -1 -1 v 1 h -1 -1 v 1 h -1 -1 v 0 l -1,1 h -1 v 0 l -1,1 v 0 h -1 v 1 h -1 v 0 h -1 v 1 h -1 v 0 l -1,1 v 0 0 l -1,1 v 0 0 h -1 l -31,-34 1,-1 1,-1 h 1 l 1,-1 1,-1 1,-1 h 1 l 1,-1 1,-1 h 1 l 1,-1 1,-1 h 1 l 1,-1 h 1 l 2,-1 1,-1 h 1 l 1,-1 h 1 l 1,-1 h 1 l 1,-1 h 2 l 1,-1 h 1 l 1,-1 h 2 l 1,-1 h 1 l 1,-1 h 1 z m -1,0 h 1 v 0 z m 46,-8 5,45 v 0 l -1,1 h -2 -1 -1 -2 -1 l -1,1 h -2 -1 -1 -2 l -1,1 h -1 -1 -2 l -1,1 h -1 -1 -1 -1 l -1,1 h -1 -1 -2 l -1,1 h -1 -1 -1 l -1,1 h -1 v 0 h -1 l -13,-44 h 1 l 2,-1 h 1 1 l 1,-1 h 1 2 l 1,-1 h 1 2 l 1,-1 h 1 2 1 l 1,-1 h 2 1 2 l 1,-1 h 2 1 2 l 1,-1 h 2 1 2 l 1,-1 h 2 1 2 2 z m 66,-3 v 46 0 h -2 -3 -2 -2 -2 -3 -2 -2 -2 -2 -2 l -2,1 h -2 -2 -2 -2 -2 -2 -2 -2 -1 -2 -2 -1 l -2,1 h -2 -1 -2 -1 -2 -1 -2 l -5,-45 2,-1 h 2 2 1 2 2 l 2,-1 h 2 1 2 2 2 2 2 2 2 l 2,-1 h 2 2 3 2 2 2 2 3 2 2 2 3 2 3 z m 66,3 -5,45 v 0 h -2 -1 -2 -1 -2 -2 -1 l -2,-1 h -2 -1 -2 -2 -2 -2 -1 -2 -2 -2 -2 -2 l -2,-1 h -2 -2 -2 -3 -2 -2 -2 -2 -2 -3 -2 v -46 h 2 3 2 2 3 2 2 2 3 2 2 2 2 2 2 l 2,1 h 2 2 2 2 2 2 2 2 2 l 2,1 h 2 1 2 2 2 l 1,1 z m 46,8 -15,44 h 1 -1 -1 v 0 l -1,-1 h -1 -1 -1 l -1,-1 h -1 -1 -1 l -2,-1 h -1 -1 -1 -1 l -1,-1 h -1 -2 -1 l -1,-1 h -1 -2 -1 -1 l -2,-1 h -1 -1 -2 -1 -2 l -1,-1 5,-45 h 1 2 2 1 2 l 1,1 h 2 2 1 l 2,1 h 1 2 1 l 2,1 h 1 1 2 l 1,1 h 2 1 1 l 2,1 h 1 1 l 2,1 h 1 1 l 1,1 h 1 2 l 1,1 h 1 z m -1,0 v 0 h 1 z m 33,20 -36,29 h -1 1 v 0 0 0 0 0 0 0 h -1 v 0 0 -1 0 0 h -1 v 0 0 l -1,-1 v 0 0 h -1 v -1 h -1 v 0 h -1 -1 v -1 h -1 v 0 h -1 l -1,-1 h -1 l 15,-44 1,1 h 1 1 l 2,1 h 1 l 1,1 h 1 l 1,1 h 1 l 1,1 h 1 l 1,1 h 1 l 2,1 v 0 l 2,1 1,1 h 1 l 1,1 1,1 h 1 l 1,1 1,1 v 1 h 1 l 1,1 1,1 1,1 1,1 1,1 1,1 1,1 z m -36,29 v 0 h -1 z m 47,5 h -46 v 0 -1 0 0 0 -1 0 0 0 -1 0 0 0 0 0 0 0 0 -1 0 0 0 0 h -1 v 0 0 0 0 0 0 0 -1 0 l 36,-29 1,1 v 1 l 1,1 1,1 v 1 l 1,1 v 1 l 1,1 1,1 v 1 l 1,1 v 1 1 l 1,1 v 1 l 1,1 v 1 1 l 1,1 v 1 1 2 l 1,1 v 1 1 1 1 1 1 1 2 z m -9,42 -42,-20 v 0 0 -1 l 1,-1 v -1 -1 h 1 v -1 -1 -1 h 1 v -1 -1 -1 h 1 v -1 -1 -1 0 -1 -1 h 1 v -1 -1 0 -1 -1 0 -1 -1 0 -1 0 h 46 v 1 1 1 2 1 1 2 1 1 l -1,2 v 1 1 1 l -1,2 v 1 1 2 l -1,1 v 1 2 l -1,1 v 1 l -1,2 v 1 l -1,1 v 2 l -1,1 v 1 l -1,2 v 1 l -1,1 z m -27,42 -34,-31 -2,2 1,-2 1,-1 1,-1 1,-1 1,-1 v -1 l 1,-1 1,-1 1,-1 v -1 l 1,-1 1,-2 1,-1 v -1 l 1,-1 v -1 l 1,-1 1,-1 v -1 l 1,-1 v -1 l 1,-1 v 0 l 1,-1 1,-1 v -1 -1 l 1,-1 v -1 l 1,-1 v -1 l 1,-1 42,20 -1,1 -1,1 v 1 l -1,2 v 1 l -1,1 -1,1 v 2 l -1,1 -1,1 -1,2 v 1 l -1,1 -1,1 -1,2 v 1 l -1,1 -1,1 -1,2 -1,1 v 1 l -1,2 -1,1 -1,1 -1,1 -1,2 -1,1 -1,1 -1,2 -1,1 -1,1 -1,2 z m 1,-1 v 0 l -1,1 z m -299,270 264,-300 34,31 -264,300 -36,-3 z m -2,28 -10,-15 12,-13 z m 306,473 -306,-473 38,-25 307,472 v 1 z m 39,-26 v 1 0 z m 19,39 -43,17 v 0 -1 0 -1 l -1,-1 v -1 l -1,-1 v 0 -1 l -1,-1 v -1 l -1,-1 v -1 -1 l -1,-1 v -1 l -1,-1 v -1 l -1,-1 -1,-1 v -1 l -1,-1 v -1 l -1,-1 v -1 l -1,-1 -1,-1 v -1 l -1,-2 -1,-1 v -1 l -1,-1 -1,-1 40,-24 1,2 1,1 1,1 v 2 l 1,1 1,1 v 1 l 1,2 1,1 1,1 v 1 l 1,2 v 1 l 1,1 1,1 v 1 l 1,2 v 1 l 1,1 1,1 v 1 l 1,1 v 2 l 1,1 v 1 l 1,1 v 1 l 1,1 v 1 l 1,1 v 1 z m 8,36 h -47 v 0 -1 0 -1 0 -1 0 -1 0 -1 0 -1 0 -1 0 -1 l -1,-1 v 0 -1 0 -1 -1 0 l -1,-1 v 0 -1 -1 0 l -1,-1 v -1 0 -1 l -1,-1 43,-17 1,1 v 2 l 1,1 v 1 1 l 1,1 v 1 l 1,1 v 1 2 1 l 1,1 v 1 1 l 1,1 v 1 1 1 2 l 1,1 v 1 1 1 1 1 1 1 1 l 1,2 v 1 1 z m 904,-394 -34,-32 v 0 l 1,-1 1,-1 h 1 v -1 l 1,-2 1,-1 v -1 l 1,-1 1,-1 v -1 l 1,-2 1,-1 v -1 l 1,-2 v -1 l 1,-2 v -2 l 1,-1 v -2 -2 l 1,-2 v -2 l 1,-2 v -2 -2 -2 -3 l 1,-2 v -2 -3 -2 -3 h 46 v 3 4 3 3 3 l -1,3 v 3 3 l -1,3 v 3 l -1,3 v 2 l -1,3 -1,3 v 3 l -1,2 -1,3 -1,3 -1,2 -1,3 -1,2 -1,3 -1,2 -1,2 -2,3 -1,2 -2,2 -1,2 -2,3 -1,2 -2,2 z m -74,29 v -46 0 h 2 2 1 2 2 1 l 2,-1 h 1 2 1 l 2,-1 h 1 1 l 2,-1 h 1 l 1,-1 h 1 l 2,-1 h 1 l 1,-1 h 1 l 1,-1 1,-1 h 1 l 1,-1 1,-1 1,-1 h 1 l 1,-1 1,-1 v -1 l 1,-1 34,32 -2,1 -1,2 -2,2 -2,2 -2,1 -2,2 -2,1 -2,2 -2,1 -2,2 -2,1 -3,1 -2,1 -2,1 -3,1 -2,1 -2,1 -3,1 -2,1 h -3 l -2,1 -3,1 h -2 l -3,1 h -2 -3 l -3,1 h -2 -3 -3 -2 z m -550,-46 h 550 v 46 h -550 l -23,-23 z m -23,23 v -23 h 23 z m 59,98 -44,13 v 0 l -1,-3 -1,-3 -1,-3 -1,-4 v -3 l -1,-3 -1,-3 -1,-4 v -3 l -1,-3 -1,-4 v -3 l -1,-4 v -3 l -1,-3 v -4 l -1,-3 v -4 -3 l -1,-4 v -3 -4 l -1,-4 v -3 -4 -3 -4 l -1,-4 v -3 -4 -4 -4 h 46 v 4 3 l 1,4 v 3 3 3 4 3 3 l 1,3 v 4 3 l 1,3 v 3 3 l 1,3 v 3 3 l 1,3 v 3 l 1,3 v 3 l 1,3 1,3 v 3 l 1,2 1,3 v 3 l 1,3 1,3 v 2 z m 0,0 z m 38,70 -34,32 v 0 l -2,-3 -2,-2 -2,-2 -2,-3 -2,-2 -2,-3 -2,-2 -1,-3 -2,-2 -2,-3 -2,-3 -1,-2 -2,-3 -2,-3 -1,-2 -2,-3 -1,-3 -2,-3 -1,-3 -1,-2 -2,-3 -1,-3 -1,-3 -2,-3 -1,-3 -1,-3 -1,-3 -1,-3 -1,-3 -1,-4 -1,-3 -1,-3 44,-13 1,3 1,2 1,3 1,3 v 2 l 1,3 1,2 1,2 1,3 1,2 1,2 1,3 2,2 1,2 1,3 1,2 1,2 1,2 2,2 1,2 1,2 2,2 1,3 1,2 2,1 1,2 2,2 1,2 2,2 1,2 2,2 1,2 z m -34,32 v 0 -1 z m 102,12 -16,43 v 0 l -3,-1 -3,-1 -3,-1 -3,-1 -3,-2 -3,-1 -3,-2 -3,-1 -3,-1 -3,-2 -3,-2 -3,-1 -3,-2 -3,-1 -2,-2 -3,-2 -3,-2 -2,-1 -3,-2 -3,-2 -2,-2 -3,-2 -2,-2 -3,-2 -2,-2 -2,-2 -3,-2 -2,-2 -2,-3 -2,-2 -3,-2 -2,-2 34,-32 2,2 2,2 1,2 2,1 2,2 2,2 1,1 2,2 2,1 2,2 2,1 2,2 2,1 2,2 2,1 2,1 2,2 2,1 2,1 3,2 2,1 2,1 3,1 2,2 2,1 3,1 2,1 3,1 2,1 3,1 3,1 z m 105,16 v 46 0 h -4 -5 -4 -4 -4 l -4,-1 h -4 -5 -3 l -4,-1 h -4 -4 l -4,-1 h -4 l -4,-1 h -4 l -3,-1 -4,-1 h -4 l -3,-1 -4,-1 -4,-1 h -3 l -4,-1 -3,-1 -4,-1 -3,-1 -3,-1 -4,-1 -3,-1 -3,-1 -4,-2 16,-43 3,1 3,1 2,1 3,1 3,1 h 3 l 3,1 3,1 3,1 h 3 l 3,1 3,1 h 3 l 3,1 h 3 l 3,1 h 4 l 3,1 h 3 l 4,1 h 3 4 l 3,1 h 4 3 4 l 4,1 h 4 3 4 4 z m 113,-9 9,45 v 0 l -4,1 h -3 l -4,1 h -3 l -3,1 -4,1 h -4 l -3,1 h -4 -3 l -4,1 h -4 l -3,1 h -4 -4 l -4,1 h -3 -4 l -4,1 h -4 -4 -4 -4 l -4,1 h -4 -4 -4 -4 -4 -5 -4 -4 v -46 h 4 4 4 4 4 4 4 l 3,-1 h 4 4 4 3 l 4,-1 h 4 3 4 l 3,-1 h 4 3 l 4,-1 h 3 3 l 4,-1 h 3 l 3,-1 h 3 l 3,-1 h 4 l 3,-1 h 3 l 3,-1 z m 9,45 z m 75,-66 15,44 v 0 l -3,1 -2,1 h -3 l -2,1 -3,1 -2,1 h -3 l -3,1 -2,1 h -3 l -3,1 -2,1 -3,1 h -3 l -2,1 -3,1 h -3 l -3,1 -3,1 h -3 l -3,1 -3,1 h -3 l -3,1 -3,1 h -3 l -3,1 -3,1 h -3 l -3,1 h -3 l -3,1 -9,-45 3,-1 3,-1 h 3 l 3,-1 h 3 l 3,-1 3,-1 h 3 l 3,-1 h 2 l 3,-1 3,-1 h 3 l 2,-1 3,-1 h 3 l 2,-1 3,-1 h 3 l 2,-1 3,-1 h 2 l 3,-1 2,-1 h 3 l 2,-1 2,-1 h 3 l 2,-1 2,-1 h 2 z m 60,-21 17,43 v 0 l -1,1 h -2 l -2,1 -1,1 h -2 l -2,1 -1,1 h -2 l -2,1 -2,1 h -2 l -2,1 -1,1 h -2 l -2,1 -2,1 h -2 l -2,1 -2,1 h -2 l -2,1 -2,1 h -2 l -3,1 -2,1 -2,1 h -2 l -2,1 -2,1 h -3 l -2,1 -2,1 -15,-44 3,-1 h 2 l 2,-1 2,-1 3,-1 h 2 l 2,-1 2,-1 h 2 l 2,-1 2,-1 h 2 l 2,-1 2,-1 h 2 l 2,-1 2,-1 h 1 l 2,-1 2,-1 h 2 l 1,-1 2,-1 h 2 l 1,-1 h 2 l 2,-1 1,-1 h 2 l 1,-1 h 2 z m 48,-11 v 46 0 0 h -1 -1 v 0 h -1 v 0 h -1 -1 -1 v 1 h -1 -1 -1 -1 -1 l -1,1 h -1 -1 -1 l -1,1 h -1 -1 l -1,1 h -1 l -2,1 h -1 -1 l -1,1 h -2 l -1,1 h -1 l -2,1 -17,-43 2,-1 h 1 l 2,-1 h 2 l 1,-1 2,-1 h 1 l 2,-1 h 2 l 1,-1 h 2 l 1,-1 h 2 1 l 2,-1 h 1 l 2,-1 h 1 2 1 l 2,-1 h 1 1 2 l 1,-1 h 2 1 1 2 1 2 z m 27,6 -23,40 h -1 v 0 0 0 0 0 h 1 v 0 0 0 0 0 0 0 0 0 0 h -1 v 0 0 0 0 0 h -1 v 0 0 0 0 h -1 v 0 0 h -1 v 0 -46 h 1 1 1 v 0 h 1 1 1 1 1 v 0 h 1 1 l 1,1 h 1 1 v 0 h 2 v 1 h 1 1 1 l 1,1 h 1 1 v 1 h 1 1 l 1,1 h 1 l 1,1 h 1 l 1,1 z m -23,40 h -1 v 0 z m 43,-16 -43,18 1,1 -1,-1 v 0 0 -1 0 0 0 0 h -1 v -1 0 0 0 0 0 0 0 0 0 0 0 0 0 0 0 0 0 0 0 0 h 1 v 0 l 23,-40 1,1 h 1 l 1,1 v 1 h 1 l 1,1 h 1 v 1 l 1,1 h 1 v 1 l 1,1 1,1 h 1 v 1 l 1,1 v 0 l 1,1 1,1 v 1 l 1,1 v 0 l 1,1 v 1 l 1,1 v 1 h 1 v 1 l 1,1 v 1 1 z m 0,0 z m 7,33 -46,4 v 0 -1 -1 -1 -1 0 -1 l -1,-1 v -1 0 -1 -1 0 -1 -1 h -1 v -1 -1 0 -1 0 -1 h -1 v -1 0 -1 0 -1 0 0 0 l -1,-1 v 0 l 43,-18 v 1 l 1,1 v 1 1 l 1,1 v 1 0 1 l 1,1 v 1 1 1 l 1,1 v 1 1 1 l 1,1 v 1 1 1 1 l 1,1 v 1 1 1 1 2 l 1,1 v 1 1 1 1 z m 2,43 h -47 v 0 -1 -2 -1 -2 -1 -1 -2 -1 -2 -1 -1 -2 -1 -1 -2 -1 -1 -1 -1 -2 -1 -1 -1 -1 -1 -1 -1 l -1,-1 v -1 -1 -1 -1 l 46,-4 v 1 1 1 l 1,1 v 2 1 1 1 1 2 1 1 2 1 1 2 1 2 1 1 2 l 1,1 v 2 1 2 1 2 1 2 1 2 z m -1,40 -47,-3 v 0 -1 l 1,-1 v -1 -1 -1 -1 -1 -1 -1 -1 -1 -1 -1 -1 -1 -2 -1 -1 -1 -1 -1 -2 -1 -1 -1 -2 -1 -1 -2 -1 -1 -2 h 47 v 2 1 2 1 1 2 1 1 2 1 l -1,1 v 2 1 1 1 2 1 1 1 2 1 1 1 1 1 2 1 1 1 1 1 z m -4,29 -45,-8 v 0 -1 0 -1 -1 0 -1 0 -1 l 1,-1 v -1 0 -1 -1 0 -1 -1 -1 0 -1 l 1,-1 v -1 0 -1 -1 -1 -1 -1 0 -1 -1 -1 -1 l 47,3 -1,1 v 1 1 1 1 1 1 1 1 1 1 1 l -1,1 v 1 1 0 1 1 1 1 1 l -1,1 v 1 1 1 0 1 1 1 l -1,1 v 0 z m -45,-8 z m 37,34 -41,-22 v -1 h 1 v 0 0 0 0 -1 0 0 0 -1 0 0 h 1 v -1 0 0 -1 0 0 -1 0 l 1,-1 v 0 -1 0 -1 0 -1 -1 0 h 1 v -1 l 45,8 v 1 1 1 h -1 v 1 1 1 1 1 h -1 v 1 1 1 l -1,1 v 0 1 1 l -1,1 v 1 0 1 l -1,1 v 1 1 h -1 v 1 1 l -1,1 v 1 l -1,1 v 0 z m -41,-22 v -1 0 z m 26,42 -33,-33 v 1 -1 0 h 1 v -1 0 h 1 v 0 -1 0 h 1 v -1 0 0 l 1,-1 v 0 0 -1 0 h 1 v 0 -1 0 0 l 1,-1 v 0 0 -1 h 1 v 0 0 -1 0 l 41,22 v 0 l -1,1 v 1 h -1 v 1 0 l -1,1 v 1 0 l -1,1 v 1 h -1 v 1 h -1 v 1 l -1,1 v 0 1 h -1 v 1 l -1,1 v 0 l -1,1 v 1 h -1 v 1 h -1 v 1 h -1 v 1 l -1,1 v 0 z m 1,-1 h -1 v 1 z m -44,25 -18,-42 v 0 l 2,-1 1,-1 2,-1 h 2 l 1,-1 2,-1 h 1 l 1,-1 2,-1 h 1 l 1,-1 h 1 l 1,-1 2,-1 h 1 v -1 h 1 l 1,-1 h 1 1 l 1,-1 v 0 l 1,-1 v 0 h 1 v 0 -1 0 h 1 v 0 0 h -1 l 33,33 -1,1 -1,1 -1,1 h -1 l -1,1 -1,1 -1,1 h -1 l -1,1 -1,1 -1,1 h -2 l -1,1 -1,1 h -1 l -1,1 -2,1 h -1 l -1,1 -2,1 -1,1 h -2 l -1,1 -2,1 -2,1 h -1 l -2,1 -2,1 -2,1 -1,1 h -2 z m -78,25 -12,-44 v 0 l 3,-1 3,-1 2,-1 h 3 l 3,-1 2,-1 h 3 l 2,-1 3,-1 2,-1 h 3 l 2,-1 2,-1 h 3 l 2,-1 2,-1 3,-1 h 2 l 2,-1 2,-1 2,-1 h 2 l 2,-1 2,-1 h 2 l 2,-1 2,-1 2,-1 h 2 l 1,-1 2,-1 h 2 l 18,42 -2,1 -2,1 -2,1 h -2 l -2,1 -3,1 -2,1 -2,1 h -2 l -2,1 -3,1 -2,1 -2,1 h -3 l -2,1 -2,1 -3,1 -2,1 h -3 l -2,1 -3,1 -3,1 h -2 l -3,1 -3,1 -2,1 -3,1 h -3 l -3,1 -2,1 -3,1 z m -107,22 -6,-46 v 0 l 3,-1 h 4 l 3,-1 h 4 l 3,-1 h 4 l 3,-1 4,-1 h 3 l 3,-1 h 4 l 3,-1 3,-1 h 3 l 4,-1 3,-1 h 3 l 3,-1 h 3 l 3,-1 3,-1 h 3 l 3,-1 3,-1 h 3 l 3,-1 3,-1 3,-1 h 3 l 3,-1 2,-1 h 3 l 12,44 -3,1 -3,1 -3,1 h -3 l -3,1 -3,1 -3,1 h -3 l -4,1 -3,1 h -3 l -3,1 -3,1 h -4 l -3,1 -3,1 h -4 l -3,1 -3,1 h -4 l -3,1 -4,1 h -3 l -4,1 h -3 l -4,1 -3,1 h -4 l -3,1 h -4 l -4,1 z m -128,9 v -46 0 h 4 4 4 l 4,-1 h 4 4 4 4 4 4 4 l 3,-1 h 4 4 4 l 4,-1 h 4 3 l 4,-1 h 4 4 l 3,-1 h 4 4 l 3,-1 h 4 l 4,-1 h 3 l 4,-1 h 3 l 4,-1 h 4 l 6,46 h -3 l -4,1 h -4 l -4,1 h -4 l -3,1 h -4 l -4,1 h -4 -4 l -4,1 h -4 l -4,1 h -4 -4 -4 l -4,1 h -4 -4 -4 l -4,1 h -4 -4 -5 -4 -4 l -4,1 h -4 -5 -4 -4 z m -219,-32 15,-44 v 0 l 6,2 5,2 6,2 5,1 6,2 6,1 5,2 6,1 6,1 6,2 6,1 6,1 6,1 6,1 7,1 6,1 6,1 7,1 6,1 h 7 l 7,1 6,1 h 7 l 7,1 h 7 l 7,1 h 7 7 7 7 l 7,1 h 8 v 46 h -8 -8 -7 l -8,-1 h -7 -8 l -7,-1 h -7 l -8,-1 h -7 l -7,-1 -7,-1 h -7 l -7,-1 -7,-1 -7,-1 -6,-1 -7,-1 -7,-1 -6,-1 -7,-2 -7,-1 -6,-1 -6,-2 -7,-1 -6,-2 -6,-2 -6,-1 -7,-2 -6,-2 -6,-2 z m 15,-44 z m -175,-53 33,-33 v 0 l 3,4 4,3 4,4 4,3 3,3 4,4 4,3 4,3 4,3 4,3 4,3 5,3 4,3 4,3 4,3 5,3 4,2 5,3 4,2 5,3 5,2 4,3 5,2 5,2 5,3 5,2 5,2 5,2 5,2 5,2 6,2 5,1 -15,44 -5,-2 -6,-2 -6,-2 -6,-2 -5,-2 -6,-3 -6,-2 -5,-3 -6,-2 -5,-3 -5,-3 -6,-2 -5,-3 -5,-3 -5,-3 -5,-3 -5,-3 -5,-3 -5,-3 -5,-4 -5,-3 -4,-3 -5,-4 -4,-4 -5,-3 -4,-4 -5,-4 -4,-3 -4,-4 -5,-4 -4,-4 z m 0,0 z m -96,-165 44,-14 v 0 l 2,5 2,6 2,5 2,6 2,5 2,5 2,5 2,5 2,5 3,5 2,5 2,5 3,5 2,5 3,4 3,5 2,5 3,4 3,4 3,5 3,4 3,4 2,5 4,4 3,4 3,4 3,4 3,3 4,4 3,4 3,4 4,3 -33,33 -4,-5 -4,-4 -4,-4 -4,-4 -3,-5 -4,-4 -4,-5 -3,-4 -4,-5 -3,-5 -4,-5 -3,-5 -3,-5 -3,-5 -3,-5 -3,-5 -3,-5 -3,-5 -3,-6 -3,-5 -3,-5 -2,-6 -3,-5 -2,-6 -3,-6 -2,-6 -2,-5 -3,-6 -2,-6 -2,-6 -2,-6 z m 0,0 v 0 -1 z m -31,-228 h 46 v 0 8 l 1,7 v 8 7 8 7 l 1,8 v 7 l 1,7 v 7 l 1,7 1,7 v 7 l 1,7 1,7 1,6 1,7 1,7 1,6 1,7 1,6 1,6 1,7 2,6 1,6 1,6 2,6 1,6 2,6 2,5 1,6 2,6 -44,14 -2,-7 -2,-6 -2,-6 -1,-6 -2,-7 -1,-6 -2,-7 -1,-6 -2,-7 -1,-7 -2,-7 -1,-6 -1,-7 -1,-7 -1,-7 -1,-7 -1,-8 -1,-7 -1,-7 v -7 l -1,-8 -1,-7 v -8 l -1,-7 v -8 l -1,-8 v -7 -8 l -1,-8 v -8 -8 z m 33,-224 44,14 v 0 l -2,6 -2,6 -2,6 -1,6 -2,6 -2,6 -1,6 -2,6 -1,7 -1,6 -2,6 -1,6 -1,7 -1,6 -1,7 -1,6 -1,7 -1,6 -1,7 v 7 l -1,7 -1,6 v 7 l -1,7 v 7 7 l -1,7 v 7 7 8 l -1,7 v 7 h -46 v -8 -7 l 1,-8 v -7 -8 -7 l 1,-8 v -7 l 1,-7 v -8 l 1,-7 1,-7 1,-7 v -7 l 1,-7 1,-7 1,-7 1,-7 2,-7 1,-7 1,-7 2,-7 1,-6 1,-7 2,-7 2,-6 1,-7 2,-6 2,-7 2,-6 2,-7 z m 44,14 v 0 -1 z m 52,-186 34,31 v 0 l -3,4 -4,4 -3,4 -4,4 -3,5 -3,4 -3,4 -3,4 -4,5 -3,4 -3,5 -2,5 -3,4 -3,5 -3,5 -3,4 -2,5 -3,5 -3,5 -2,5 -3,5 -2,6 -2,5 -3,5 -2,5 -2,6 -2,5 -2,6 -2,5 -2,6 -2,6 -2,5 -44,-14 2,-6 2,-6 2,-6 2,-6 3,-6 2,-6 2,-6 3,-6 2,-6 3,-6 3,-5 2,-6 3,-6 3,-5 3,-6 3,-5 3,-5 3,-6 3,-5 3,-5 4,-5 3,-5 3,-5 4,-5 3,-5 4,-5 4,-5 3,-4 4,-5 4,-5 4,-4 z m 34,31 z m 119,-139 18,42 v 0 l -5,3 -5,2 -5,2 -5,2 -5,3 -5,2 -4,2 -5,3 -5,3 -4,2 -5,3 -4,3 -5,2 -4,3 -4,3 -5,3 -4,3 -4,3 -4,3 -4,4 -4,3 -4,3 -4,4 -4,3 -4,4 -4,3 -4,4 -3,4 -4,3 -4,4 -3,4 -4,4 -34,-31 4,-4 4,-4 4,-5 4,-4 4,-4 4,-4 5,-4 4,-4 4,-4 5,-4 4,-4 5,-3 4,-4 5,-4 5,-3 5,-4 4,-3 5,-3 5,-3 5,-4 5,-3 5,-3 6,-3 5,-3 5,-2 5,-3 6,-3 5,-2 5,-3 6,-3 6,-2 z m 18,42 v 0 l -1,1 z m 184,-80 v 47 0 h -6 -7 -6 -7 -6 l -6,1 h -6 l -6,1 h -6 l -6,1 -6,1 h -6 l -6,1 -6,1 -6,1 -6,1 -5,1 -6,1 -6,2 -5,1 -6,1 -5,2 -6,1 -5,2 -6,1 -5,2 -5,2 -6,1 -5,2 -5,2 -5,2 -5,2 -18,-42 6,-3 5,-2 6,-2 6,-2 6,-2 6,-2 6,-2 6,-2 6,-1 6,-2 6,-2 6,-1 6,-2 6,-1 7,-1 6,-1 6,-1 7,-2 6,-1 h 7 l 6,-1 7,-1 6,-1 h 7 l 6,-1 h 7 l 7,-1 h 7 6 7 l 7,-1 z m 202,36 -17,42 v 0 l -5,-2 -5,-1 -5,-2 -5,-2 -4,-2 -6,-1 -5,-2 -5,-1 -5,-2 -5,-1 -6,-2 -5,-1 -6,-1 -5,-1 -6,-1 -6,-1 -6,-1 -6,-1 -5,-1 -6,-1 -7,-1 h -6 l -6,-1 h -6 l -7,-1 h -6 l -7,-1 h -6 -7 -6 -7 -7 v -47 h 7 l 7,1 h 8 7 7 l 7,1 h 7 l 6,1 h 7 l 7,1 h 7 l 6,1 7,1 6,1 7,1 6,1 6,1 7,1 6,2 6,1 6,1 6,2 6,1 6,2 6,2 5,2 6,1 6,2 5,2 6,2 5,2 6,3 z m -17,42 v 0 h -1 z m 158,56 -35,31 h 1 l -4,-4 -3,-3 -3,-3 -3,-4 -3,-3 -3,-3 -4,-3 -3,-3 -4,-3 -3,-3 -4,-3 -3,-3 -4,-3 -4,-3 -3,-3 -4,-2 -4,-3 -4,-3 -4,-2 -4,-3 -4,-2 -4,-3 -5,-2 -4,-2 -4,-3 -5,-2 -4,-2 -5,-2 -4,-3 -5,-2 -4,-2 -5,-2 17,-42 6,2 5,2 5,2 5,3 5,2 5,3 5,2 5,3 5,3 5,2 5,3 4,3 5,3 4,3 5,3 4,3 5,3 4,3 4,3 4,4 5,3 4,3 4,4 4,3 4,4 3,4 4,3 4,4 4,4 3,4 4,3 z m 0,0 v 1 z m 81,149 -44,13 v 0 l -2,-4 -1,-5 -2,-5 -1,-4 -2,-5 -2,-5 -2,-4 -1,-5 -2,-4 -2,-4 -2,-5 -2,-4 -2,-4 -2,-4 -3,-5 -2,-4 -2,-4 -2,-4 -3,-4 -2,-4 -2,-4 -3,-4 -3,-4 -2,-3 -3,-4 -2,-4 -3,-4 -3,-3 -3,-4 -3,-3 -3,-4 -3,-3 35,-31 4,4 3,4 3,4 4,4 3,5 3,4 3,4 3,4 3,5 3,4 3,4 2,5 3,4 3,5 2,5 3,4 2,5 3,5 2,4 3,5 2,5 2,5 2,5 2,5 2,5 2,5 2,5 2,5 2,5 2,5 1,6 z m 25,183 h -46 v 0 -6 -6 -5 -6 l -1,-6 v -5 -6 l -1,-5 v -6 -5 l -1,-6 v -5 l -1,-6 -1,-5 v -5 l -1,-6 -1,-5 v -5 l -1,-5 -1,-6 -1,-5 -1,-5 -1,-5 -1,-5 -1,-5 -1,-5 -2,-5 -1,-5 -1,-5 -1,-5 -2,-5 -1,-5 44,-13 2,5 1,6 2,5 1,5 1,6 2,5 1,6 1,5 1,6 1,5 1,6 1,5 1,6 1,6 1,5 1,6 1,6 v 6 l 1,5 1,6 v 6 l 1,6 v 6 l 1,6 v 6 5 l 1,6 v 6 7 6 6 z m -46,40 v -40 h 46 v 40 0 z m -285,-227 37,-28 v 0 l 3,5 3,4 3,5 3,4 3,5 2,5 3,5 2,5 3,5 2,5 2,5 2,6 2,5 1,6 2,5 2,6 1,6 1,6 2,6 1,6 1,6 v 6 l 1,6 1,7 1,6 v 7 6 l 1,7 v 7 6 7 7 l -47,-1 1,-6 v -7 -6 l -1,-6 v -6 -5 l -1,-6 v -6 l -1,-5 v -6 l -1,-5 -1,-5 -1,-5 -1,-6 -1,-4 -1,-5 -1,-5 -2,-5 -1,-4 -2,-5 -1,-4 -2,-4 -2,-5 -2,-4 -2,-4 -2,-3 -2,-4 -2,-4 -2,-4 -2,-3 -3,-4 z m 0,0 z m -124,-52 v -46 0 h 7 6 6 l 6,1 h 6 l 6,1 6,1 6,1 6,1 6,1 5,2 6,1 5,2 6,2 5,2 5,2 5,2 5,3 5,2 5,3 4,3 5,3 4,3 4,3 5,4 4,3 4,4 4,4 3,4 4,4 3,4 4,4 -37,28 -3,-3 -2,-3 -3,-3 -3,-3 -2,-3 -3,-3 -3,-2 -3,-3 -3,-2 -3,-2 -4,-2 -3,-2 -3,-2 -4,-2 -4,-2 -3,-2 -4,-1 -4,-2 -4,-1 -4,-1 -5,-2 -4,-1 -5,-1 -4,-1 h -5 l -5,-1 -5,-1 h -5 l -5,-1 h -5 -5 z m -74,16 -21,-42 v 0 l 3,-1 2,-1 3,-1 3,-1 2,-2 3,-1 3,-1 3,-1 2,-1 3,-1 h 3 l 3,-1 3,-1 3,-1 3,-1 h 3 l 3,-1 h 3 l 3,-1 h 3 l 3,-1 h 3 l 3,-1 h 3 3 l 4,-1 h 3 3 3 3 4 3 v 46 h -3 -2 -3 -3 -2 -3 l -3,1 h -2 -3 -2 l -3,1 h -2 l -2,1 h -3 -2 l -3,1 h -2 l -2,1 -2,1 h -3 l -2,1 h -2 l -2,1 -2,1 -2,1 h -2 l -2,1 -2,1 -2,1 -2,1 -2,1 z m 0,0 z m -52,42 -37,-28 v 0 l 2,-2 2,-2 1,-2 2,-3 2,-2 2,-2 2,-2 2,-2 1,-2 2,-2 2,-2 2,-1 2,-2 3,-2 2,-2 2,-2 2,-1 2,-2 2,-2 2,-1 3,-2 2,-2 2,-1 3,-2 2,-1 2,-1 3,-2 2,-1 3,-2 2,-1 3,-1 2,-2 21,42 -2,1 -2,1 -2,1 -2,1 -2,1 -2,1 -2,1 -1,1 -2,2 -2,1 -2,1 -1,1 -2,1 -2,2 -1,1 -2,1 -2,2 -1,1 -2,1 -1,2 -2,1 -1,2 -2,1 -1,1 -2,2 -1,1 -2,2 -1,2 -1,1 -2,2 -1,1 z m -33,66 -44,-14 v 0 l 1,-2 1,-3 1,-3 1,-3 1,-3 1,-2 1,-3 1,-3 1,-2 1,-3 1,-3 1,-2 1,-3 1,-2 2,-3 1,-3 1,-2 1,-2 2,-3 1,-2 1,-3 2,-2 1,-3 2,-2 1,-2 2,-3 1,-2 2,-2 1,-2 2,-3 1,-2 2,-2 37,28 -2,2 -1,2 -1,1 -1,2 -2,2 -1,2 -1,2 -1,1 -1,2 -1,2 -2,2 -1,2 -1,2 -1,2 -1,2 -1,2 -1,2 -1,2 -1,2 -1,2 -1,3 -1,2 -1,2 v 2 l -1,2 -1,3 -1,2 -1,2 v 2 l -1,3 -1,2 -1,2 z m 0,-1 v 1 0 z m -37,61 v 46 l -23,-24 v -3 l 1,-4 v -3 -3 -3 -3 l 1,-3 v -3 -3 l 1,-3 v -3 -3 l 1,-3 v -3 l 1,-3 v -3 l 1,-3 v -3 l 1,-3 v -3 l 1,-3 1,-3 v -3 l 1,-3 1,-3 v -3 l 1,-3 1,-2 1,-3 v -3 l 1,-3 1,-3 44,14 v 2 l -1,3 -1,2 -1,3 v 2 l -1,3 -1,2 v 3 l -1,2 v 3 l -1,2 v 3 l -1,3 v 2 l -1,3 v 2 l -1,3 v 3 2 l -1,3 v 3 2 l -1,3 v 3 2 l -1,3 v 3 3 2 3 3 l -1,3 z m 0,46 h -24 l 1,-24 z m 381,0 h -381 v -46 h 381 l 24,23 z m 24,-23 -1,23 h -23 z m 970,535 -45,-11 v 0 l 1,-1 v -1 -2 -1 l 1,-2 v -1 -2 -1 l 1,-2 v -1 -2 -2 -2 l 1,-2 v -1 -2 -2 -3 -2 -2 l 1,-2 v -2 -2 -3 -2 -3 -2 -3 -2 -3 -2 -3 h 46 v 3 3 2 3 3 3 2 3 2 3 2 3 l -1,2 v 3 2 2 2 3 l -1,2 v 2 2 2 l -1,2 v 2 2 l -1,2 v 2 2 l -1,2 v 2 2 z m -20,43 -34,-31 1,-1 v 0 0 0 0 -1 0 h 1 v -1 0 0 l 1,-1 v 0 -1 l 1,-1 v 0 -1 -1 h 1 v -1 -1 l 1,-1 v -1 -1 l 1,-1 v -1 -1 l 1,-1 v -1 -1 l 1,-2 v -1 -1 l 45,11 v 1 l -1,2 v 2 1 l -1,2 v 1 l -1,2 v 1 l -1,2 v 1 l -1,2 v 1 l -1,2 v 1 l -1,2 -1,1 v 1 l -1,2 -1,1 v 1 l -1,2 -1,1 -1,1 v 1 l -1,2 -1,1 -1,1 -1,1 -1,2 -1,1 -1,1 -1,1 z m -34,-31 v 0 l 1,-1 z m -1,54 -18,-42 1,-1 v 0 h 1 l 1,-1 h 1 1 l 1,-1 v 0 l 1,-1 h 1 v 0 l 1,-1 h 1 v 0 l 1,-1 h 1 v -1 h 1 v 0 l 1,-1 v 0 h 1 v -1 h 1 v 0 -1 h 1 v 0 -1 h 1 v 0 -1 h 1 l 34,31 -1,1 -1,1 -1,1 v 1 h -1 l -1,1 -1,1 -1,1 -1,1 -1,1 h -1 l -1,1 -1,1 -1,1 h -1 l -2,1 -1,1 -1,1 h -1 l -1,1 -1,1 h -1 l -2,1 h -1 l -1,1 -1,1 h -2 l -1,1 h -1 l -1,1 -2,1 z m -18,-42 1,-1 v 0 z m -27,56 -11,-45 h 1 1 1 l 2,-1 h 1 1 l 2,-1 h 1 1 l 1,-1 h 2 1 l 1,-1 h 1 1 l 2,-1 h 1 1 l 1,-1 h 1 l 2,-1 h 1 1 l 1,-1 h 1 l 1,-1 h 1 1 l 1,-1 h 1 l 1,-1 h 1 1 l 18,42 -1,1 h -1 l -1,1 h -2 l -1,1 h -1 l -2,1 h -1 l -1,1 h -2 l -1,1 h -2 l -1,1 h -1 l -2,1 h -1 -2 l -1,1 h -2 l -1,1 h -1 l -2,1 h -1 -2 l -2,1 h -1 l -2,1 h -1 -2 l -1,1 h -2 -2 z m -11,-45 v 0 h 1 z m -43,54 -5,-45 v 0 l 1,-1 h 2 2 1 2 l 1,-1 h 2 2 1 l 2,-1 h 2 1 2 1 l 2,-1 h 1 2 1 l 2,-1 h 1 2 l 1,-1 h 2 1 2 l 1,-1 h 1 2 l 1,-1 h 1 2 l 1,-1 11,45 -2,1 h -1 -2 l -1,1 h -2 l -2,1 h -1 -2 l -1,1 h -2 -2 -2 l -1,1 h -2 -2 l -1,1 h -2 -2 -1 l -2,1 h -2 -2 -1 l -2,1 h -2 -2 -1 l -2,1 h -2 -2 -2 z m -59,4 v -46 0 h 2 1 l 2,-1 h 2 1 2 2 1 2 2 1 2 2 1 2 2 1 2 l 2,-1 h 2 1 2 2 1 2 2 l 1,-1 h 2 2 1 2 2 l 5,45 -2,1 h -2 -2 -2 -1 l -2,1 h -2 -2 -2 -2 -1 -2 l -2,1 h -2 -2 -2 -1 -2 -2 -2 -2 -2 -2 l -1,1 h -2 -2 -2 -2 -2 -1 -2 z m -139,-21 15,-44 v 0 l 3,2 3,1 4,1 3,1 3,1 h 4 l 3,1 4,1 3,1 4,1 4,1 h 3 l 4,1 4,1 h 4 l 4,1 h 3 l 4,1 h 4 l 4,1 h 4 l 4,1 h 5 4 l 4,1 h 4 5 4 4 5 l 4,1 h 5 v 46 h -5 -5 -5 l -5,-1 h -4 -5 -5 l -4,-1 h -5 -5 l -4,-1 h -5 l -4,-1 h -4 l -5,-1 h -4 l -5,-1 -4,-1 h -4 l -4,-1 -5,-1 -4,-1 -4,-1 -4,-1 -4,-1 -4,-1 -4,-1 -4,-1 -4,-1 -4,-1 -3,-2 z m 0,0 v 0 l 3,1 z m -102,-65 34,-31 v 0 l 2,2 2,2 2,2 3,2 2,2 2,2 2,2 2,2 3,2 2,2 3,2 2,2 2,1 3,2 2,2 3,1 3,2 2,2 3,1 3,2 2,1 3,2 3,1 3,2 3,1 3,1 2,2 3,1 3,1 4,1 3,1 3,1 -15,44 -4,-1 -4,-2 -3,-1 -4,-1 -4,-2 -3,-2 -4,-1 -3,-2 -4,-1 -3,-2 -4,-2 -3,-2 -3,-2 -4,-2 -3,-2 -3,-2 -3,-2 -3,-2 -3,-2 -3,-2 -3,-2 -3,-3 -3,-2 -3,-2 -3,-3 -3,-2 -3,-3 -2,-2 -3,-3 -3,-3 -2,-2 z m 0,0 v 0 l 1,1 z m -59,-110 45,-13 v 0 l 1,4 1,3 1,4 1,3 1,3 1,4 2,3 1,3 1,3 1,3 2,4 1,3 2,3 1,3 1,2 2,3 1,3 2,3 2,3 1,2 2,3 2,3 1,2 2,3 2,2 2,3 1,2 2,3 2,2 2,2 2,2 2,3 -34,31 -3,-3 -2,-3 -2,-3 -3,-3 -2,-3 -2,-3 -3,-3 -2,-3 -2,-3 -2,-3 -2,-3 -2,-4 -2,-3 -2,-3 -2,-4 -2,-3 -2,-3 -1,-4 -2,-4 -2,-3 -2,-4 -1,-3 -2,-4 -1,-4 -2,-4 -1,-4 -1,-3 -2,-4 -1,-4 -1,-4 -2,-4 z m 45,-13 v 0 l -1,-2 z m -63,-137 h 46 v 0 5 5 l 1,5 v 5 4 5 5 5 l 1,4 v 5 4 l 1,5 v 4 l 1,5 v 4 l 1,4 v 5 l 1,4 v 4 l 1,4 1,4 v 4 l 1,4 1,4 1,4 v 4 l 1,4 1,4 1,3 1,4 1,4 1,3 -45,13 -1,-4 -1,-4 -1,-5 -1,-4 -1,-4 -1,-4 -1,-5 -1,-4 v -4 l -1,-5 -1,-4 -1,-5 v -4 l -1,-5 -1,-4 v -5 l -1,-5 v -4 l -1,-5 v -5 l -1,-5 v -5 -5 l -1,-5 v -5 -5 -5 l -1,-5 v -5 -6 -5 z m 46,-463 v 463 h -46 v -463 l 23,-23 z m -23,-23 h 23 v 23 z m -109,0 h 109 v 47 h -109 v 0 z m -51,9 43,-19 v 1 1 l 1,1 v 1 h 1 v 1 1 h 1 v 1 0 l 1,1 v 0 1 h 1 v 0 0 1 h 1 v 0 0 0 0 0 0 0 0 h 1 v 0 0 0 0 h 1 v 0 47 h -2 l -2,-1 h -2 -3 -2 l -2,-1 -2,-1 h -2 l -2,-1 -2,-1 -2,-1 -2,-1 -1,-1 -2,-1 -2,-1 -2,-2 -1,-1 -2,-1 -1,-2 -2,-1 -1,-2 -1,-1 -2,-2 -1,-2 -1,-2 -1,-1 -1,-2 -1,-2 -1,-2 -1,-2 -1,-2 -1,-2 z m 43,-19 v 1 0 z m -55,-70 h 46 v 0 3 3 4 3 3 l 1,3 v 3 3 2 3 3 l 1,2 v 3 2 3 l 1,2 v 2 2 l 1,2 v 2 2 l 1,2 v 2 1 l 1,2 v 1 l 1,2 v 1 1 l 1,1 v 1 l 1,1 -43,19 -1,-2 v -2 l -1,-2 -1,-3 -1,-2 v -2 l -1,-2 v -3 l -1,-2 -1,-3 v -2 l -1,-3 v -2 -3 l -1,-3 v -2 l -1,-3 v -3 -3 -3 l -1,-3 v -3 -3 -3 -3 l -1,-3 v -4 -3 -3 -4 -4 z m 3,-53 45,6 v 0 1 1 2 1 1 1 2 l -1,1 v 1 1 2 1 2 1 1 2 1 2 1 2 l -1,1 v 2 2 1 2 1 2 2 2 1 2 2 h -46 v -2 -2 -2 -2 -1 -2 -2 -2 -2 -1 -2 -2 -1 -2 l 1,-2 v -1 -2 -2 -1 -2 -1 -2 -2 -1 l 1,-2 v -1 -2 -1 -1 -2 -1 z m 9,-38 43,18 v 0 l -1,1 v 0 1 0 1 l -1,1 v 0 1 0 1 l -1,1 v 1 0 1 1 l -1,1 v 0 1 1 1 l -1,1 v 1 1 1 1 l -1,1 v 1 1 1 1 1 l -1,1 -45,-6 v -1 -2 -1 -1 l 1,-2 v -1 -1 -2 l 1,-1 v -1 -1 -2 l 1,-1 v -1 -1 -2 l 1,-1 v -1 -1 l 1,-1 v -1 -1 l 1,-2 v -1 -1 l 1,-1 v -1 l 1,-1 v -1 -1 l 1,-1 z m 43,18 z m -22,-44 27,37 -1,1 v 0 0 0 0 0 0 h -1 v 0 0 0 1 0 0 0 0 h -1 v 1 0 0 0 0 l -1,1 v 0 0 1 0 0 h -1 v 1 0 0 1 l -43,-18 1,-1 v -1 -1 l 1,-1 v -1 l 1,-1 v -1 l 1,-1 1,-1 v -1 l 1,-1 v 0 l 1,-1 1,-1 v -1 l 1,-1 1,-1 v -1 h 1 l 1,-1 1,-1 v -1 l 1,-1 h 1 l 1,-1 v -1 h 1 l 1,-1 1,-1 1,-1 h 1 v -1 z m 27,37 v 0 l -1,1 z m 4,-47 v 46 0 0 h -1 v 0 0 0 0 h -1 v 1 0 0 0 0 h -1 v 0 0 0 0 0 h -1 v 0 0 0 0 0 0 0 0 0 0 0 0 0 l -27,-37 1,-1 1,-1 h 1 v -1 h 1 l 1,-1 h 1 l 1,-1 h 1 1 l 1,-1 h 1 l 1,-1 h 1 1 l 1,-1 h 1 1 1 l 1,-1 h 1 1 1 1 1 l 1,-1 h 1 1 1 1 1 z m 108,46 h -108 v -46 h 108 l 23,23 z m 23,-23 v 23 h -23 z m 0,-202 v 202 h -46 v -202 0 z m -36,-32 37,28 1,-1 v 0 0 1 h -1 v 0 0 0 0 0 0 1 0 0 0 0 0 0 1 0 0 0 0 1 0 h -1 v 0 0 0 1 0 0 0 h -46 v -1 -1 -1 -1 -1 -1 l 1,-1 v -1 -1 -1 -1 -1 l 1,-1 v -1 -1 -1 l 1,-1 v -1 -1 l 1,-1 v -1 l 1,-1 v -1 l 1,-1 v -1 0 l 1,-1 1,-1 v -1 l 1,-1 v -1 l 1,-1 z m 0,1 v 0 -1 z m 31,-22 17,43 v 0 h -1 l -1,1 v 0 h -1 v 0 l -1,1 h -1 v 0 h -1 v 1 h -1 v 0 0 l -1,1 v 0 h -1 v 0 0 1 h -1 v 0 0 0 0 0 1 0 0 h -1 v 0 0 0 l -37,-28 1,-1 1,-1 v -1 h 1 l 1,-1 1,-1 1,-1 1,-1 1,-1 h 1 v -1 l 1,-1 1,-1 h 1 l 1,-1 1,-1 h 1 l 1,-1 h 1 l 1,-1 1,-1 h 1 l 1,-1 h 1 l 1,-1 h 1 l 1,-1 h 1 l 1,-1 h 2 l 1,-1 z m 46,-10 4,46 v 0 h -1 l -2,1 h -1 -1 -2 -1 -1 l -2,1 h -1 -1 -1 -1 l -2,1 h -1 -1 -1 -1 l -1,1 h -1 -1 -1 l -1,1 h -1 v 0 h -1 l -1,1 h -1 -1 v 0 l -1,1 h -1 v 0 l -17,-43 h 1 l 1,-1 h 1 l 2,-1 h 1 l 1,-1 h 1 2 l 1,-1 h 1 2 l 1,-1 h 2 1 l 1,-1 h 2 1 l 2,-1 h 1 2 1 l 2,-1 h 1 2 1 l 2,-1 h 1 2 2 1 l 2,-1 z m 63,-2 v 46 0 h -2 -2 -2 -2 -3 -2 -2 -2 -2 -2 -2 -2 -2 -2 -2 l -2,1 h -1 -2 -2 -2 -1 -2 -2 -1 -2 -2 l -1,1 h -2 -1 -2 -1 -2 l -4,-46 h 1 2 2 1 l 2,-1 h 2 2 2 1 2 2 2 2 l 2,-1 h 2 2 2 2 2 2 2 2 2 2 3 2 2 2 2 3 2 z m 65,2 -5,46 v 0 h -1 -2 -1 -2 -1 l -2,-1 h -2 -1 -2 -2 -1 -2 -2 -2 -1 -2 l -2,-1 h -2 -2 -2 -2 -2 -2 -2 -2 -2 -3 -2 -2 -2 -2 -3 v -46 h 3 2 2 3 2 2 2 3 2 2 2 2 2 2 2 2 2 2 l 2,1 h 2 2 2 2 2 2 1 2 l 2,1 h 2 2 1 z m 46,10 -18,43 v 0 0 h -1 l -1,-1 v 0 h -1 -1 l -1,-1 v 0 h -1 -1 l -1,-1 h -1 -1 -1 l -1,-1 h -1 -1 -1 -1 l -1,-1 h -2 -1 -1 -1 l -1,-1 h -2 -1 -1 -2 -1 l -1,-1 h -2 l 5,-46 h 2 l 1,1 h 2 2 1 2 l 1,1 h 2 1 2 l 1,1 h 2 1 2 l 1,1 h 2 1 l 1,1 h 2 1 l 1,1 h 2 1 l 1,1 h 2 1 l 1,1 h 1 l 2,1 h 1 l 1,1 h 1 z m -1,0 h 1 v 0 z m 30,21 -37,28 v 0 0 0 0 0 0 0 -1 0 0 0 h -1 v 0 0 -1 h -1 v 0 0 h -1 v -1 0 h -1 v 0 l -1,-1 v 0 h -1 v 0 l -1,-1 v 0 h -1 -1 v -1 h -1 l 18,-43 1,1 h 1 1 l 1,1 1,1 h 1 1 l 1,1 1,1 h 1 l 1,1 h 1 l 1,1 h 1 l 1,1 1,1 h 1 l 1,1 v 0 l 1,1 2,1 v 1 h 1 l 1,1 1,1 1,1 1,1 v 1 h 1 l 1,1 1,1 1,1 z m -37,28 z m 48,4 h -46 v 0 0 0 0 0 0 0 -1 0 0 0 0 0 -1 0 0 0 0 0 0 0 h -1 v -1 0 0 0 0 0 0 -1 0 0 h -1 l 37,-28 1,1 1,1 v 1 l 1,1 v 1 l 1,1 v 0 l 1,2 1,1 v 0 1 l 1,1 v 1 l 1,1 v 1 1 l 1,1 v 1 2 l 1,1 v 1 1 1 l 1,1 v 1 1 1 1 1 1 1 z m -46,202 v -202 h 46 v 202 l -23,23 z m 23,23 h -23 v -23 z m 196,0 h -196 v -46 h 196 v 0 z m 30,-37 -25,39 -1,-1 v 0 0 0 0 0 0 0 0 0 h -1 v 0 0 0 0 0 0 0 0 0 h -1 v 0 0 0 0 -1 h -1 v 0 0 0 h -1 v 0 0 -46 h 1 1 1 1 1 1 l 1,1 h 1 1 1 1 1 l 1,1 h 1 1 1 l 1,1 h 1 1 l 1,1 h 1 l 1,1 h 1 1 l 1,1 h 1 l 1,1 v 0 l 1,1 h 1 l 1,1 1,1 z m -25,39 -1,-1 v 0 z m 46,-12 -42,18 v 1 -1 0 -1 h -1 v -1 0 0 -1 h -1 v 0 -1 0 0 h -1 v -1 0 0 0 0 0 l -1,-1 v 0 0 0 0 0 0 0 0 0 0 0 l 25,-39 1,1 1,1 h 1 l 1,1 1,1 h 1 v 1 l 1,1 1,1 h 1 v 1 l 1,1 1,1 h 1 v 1 l 1,1 1,1 v 1 l 1,1 v 1 l 1,1 v 0 l 1,1 v 1 l 1,1 v 1 l 1,1 1,1 v 1 1 h 1 v 1 z m 0,-1 v 1 h 1 z m 10,39 -46,6 v 0 -1 -1 l -1,-1 v -1 -1 -2 -1 0 l -1,-1 v -1 -1 -1 -1 -1 l -1,-1 v -1 0 -1 -1 l -1,-1 v -1 0 -1 -1 h -1 v -1 0 -1 0 l -1,-1 v 0 -1 l 42,-18 1,1 v 1 l 1,1 v 1 l 1,1 v 1 1 l 1,2 v 1 1 l 1,1 v 1 1 l 1,1 v 2 1 1 l 1,1 v 1 2 l 1,1 v 1 1 2 1 l 1,1 v 1 2 1 2 l 1,1 z m 2,53 h -46 v 0 -2 -2 -1 -2 -2 -2 -1 -2 -1 -2 -2 -1 -2 -1 -2 -1 -2 -1 l -1,-1 v -2 -1 -2 -1 -1 -1 -2 -1 l -1,-1 v -1 -2 -1 -1 l 46,-6 v 2 1 2 1 l 1,1 v 2 1 2 1 2 2 1 l 1,2 v 1 2 2 1 2 2 1 2 2 1 2 2 2 2 1 2 2 2 z m -12,89 -42,-19 v 1 -1 l 1,-1 v -1 l 1,-2 v -1 -1 l 1,-2 v -2 -1 l 1,-2 v -2 l 1,-2 v -2 -2 l 1,-2 v -2 -2 -3 l 1,-2 v -3 -2 -3 -3 l 1,-2 v -3 -3 -3 -3 -3 -4 -3 -3 h 46 v 3 4 4 3 3 4 3 3 3 l -1,3 v 3 3 3 l -1,3 v 3 3 l -1,2 v 3 3 l -1,2 v 3 l -1,2 v 3 l -1,2 v 2 l -1,3 -1,2 v 2 l -1,2 -1,2 -1,2 v 2 z m 1,-1 -1,1 v 0 z m -51,39 v -47 0 0 0 h 1 v 0 0 0 0 0 0 0 0 h 1 v 0 0 0 0 -1 h 1 v 0 0 l 1,-1 v 0 -1 h 1 v -1 0 l 1,-1 v -1 l 1,-1 v -1 l 1,-1 v -1 l 42,19 v 2 l -1,2 -1,1 -1,2 -1,2 -1,2 -1,2 -1,1 -2,2 -1,2 -1,1 -2,2 -1,1 -1,2 -2,1 -2,1 -1,2 -2,1 -2,1 -2,1 -1,1 -2,1 -2,1 -2,1 h -2 l -2,1 h -3 l -2,1 h -2 -2 l -2,1 z m -197,-47 h 197 v 47 h -197 l -23,-24 z m -23,23 v -23 h 23 z m 0,424 v -424 h 46 v 424 0 z m 66,99 -39,25 v 0 l -2,-3 -2,-3 -1,-3 -2,-3 -1,-3 -2,-4 -1,-3 -2,-3 -1,-4 -1,-3 -1,-4 -1,-3 -1,-4 -1,-4 -1,-3 -1,-4 -1,-4 v -4 l -1,-4 -1,-4 v -4 l -1,-4 v -4 -5 l -1,-4 v -5 -4 l -1,-5 v -4 -5 -5 -5 h 46 v 5 4 4 l 1,4 v 5 3 4 l 1,4 v 4 3 l 1,4 v 3 l 1,4 v 3 l 1,3 v 3 l 1,4 1,3 1,2 v 3 l 1,3 1,2 1,3 1,2 1,3 1,2 1,2 1,2 1,2 1,2 1,2 z m 63,26 v 46 0 h -4 -4 -4 -4 l -4,-1 h -4 l -4,-1 h -4 l -3,-1 -4,-1 -4,-1 -3,-1 -4,-1 -3,-1 -3,-2 -4,-1 -3,-1 -3,-2 -3,-2 -3,-2 -3,-2 -3,-2 -3,-2 -3,-2 -2,-2 -3,-3 -2,-2 -3,-3 -2,-3 -2,-2 -2,-3 -2,-3 39,-25 1,1 1,2 1,1 1,2 1,1 2,1 1,2 1,1 2,1 1,1 2,1 1,1 2,1 1,1 2,1 2,1 2,1 h 2 l 2,1 2,1 2,1 h 3 l 2,1 h 3 l 2,1 h 3 3 l 3,1 h 3 3 3 z m 31,-3 10,45 v 0 l -1,1 h -1 -1 -1 l -2,1 h -1 -1 -1 -2 l -1,1 h -1 -1 -2 -1 -1 -2 l -1,1 h -1 -1 -2 -1 -1 -2 -1 -1 -2 -1 -1 -2 -1 -2 -1 v -46 h 1 1 2 1 1 1 1 1 1 1 1 1 1 1 1 l 1,-1 h 1 1 1 1 1 1 1 1 v -1 h 1 1 1 1 1 v -1 z m 27,-7 14,44 1,-1 h -1 l -1,1 h -1 l -1,1 v 0 h -1 -1 l -1,1 h -1 -1 l -1,1 h -1 -1 l -1,1 h -1 -1 -1 l -1,1 h -1 -1 l -1,1 h -1 -1 -1 l -1,1 h -1 -1 -1 l -1,1 h -1 -1 -2 l -10,-45 h 1 1 1 l 1,-1 h 1 1 1 v 0 l 1,-1 h 1 1 1 l 1,-1 h 1 v 0 h 1 l 1,-1 h 1 1 v 0 h 1 l 1,-1 h 1 v 0 h 1 l 1,-1 h 1 v 0 h 1 l 1,-1 v 0 h 1 z m -1,0 v 0 h 1 z m 20,-8 19,43 h -1 v 0 h -1 l -1,1 v 0 h -1 v 0 l -1,1 h -1 v 0 h -1 l -1,1 v 0 h -1 -1 v 1 h -1 -1 l -1,1 v 0 h -1 -1 l -1,1 v 0 h -1 l -1,1 h -1 -1 v 0 l -1,1 h -1 -1 l -1,1 -14,-44 1,-1 v 0 h 1 1 v -1 h 1 1 1 v -1 h 1 v 0 h 1 l 1,-1 v 0 h 1 v 0 h 1 l 1,-1 v 0 h 1 1 v -1 h 1 v 0 h 1 v -1 h 1 v 0 h 1 1 v -1 h 1 z m 19,43 h -1 z m 6,-48 v 46 0 0 0 0 0 h -1 v 0 0 0 0 0 h -1 v 0 0 0 0 l -1,1 v 0 0 0 0 h -1 v 0 0 h -1 v 0 0 0 0 h -1 v 1 0 0 l -19,-43 h 1 1 l 1,-1 v 0 h 1 1 l 1,-1 h 1 v 0 h 1 l 1,-1 h 1 1 v 0 l 1,-1 h 1 v 0 h 1 1 1 1 v 0 l 1,-1 h 1 1 1 v 0 h 1 1 v 0 h 1 z m 25,8 -27,37 1,1 v 0 0 0 0 0 0 0 0 0 0 0 0 h 1 -1 1 v 0 0 h -1 1 v 0 0 0 0 0 0 0 0 0 0 0 0 0 -46 h 1 1 v 0 h 1 1 v 0 h 1 1 l 1,1 h 1 v 0 h 1 1 1 l 1,1 v 0 h 1 1 1 v 1 h 1 1 l 1,1 v 0 h 1 l 1,1 v 0 h 1 l 1,1 h 1 v 1 h 1 z m -1,-1 h 1 v 1 z m 19,28 -45,11 v 1 0 -1 0 0 -1 0 h -1 v 0 0 0 -1 0 0 0 0 0 0 0 0 0 0 0 0 1 0 -1 l 1,1 v 0 0 0 0 0 l 27,-37 h 1 l 1,1 v 0 l 1,1 1,1 1,1 h 1 v 1 l 1,1 1,1 v 1 h 1 v 1 l 1,1 1,1 v 1 h 1 v 1 l 1,1 v 1 l 1,1 v 1 1 l 1,1 v 1 h 1 v 2 1 h 1 v 1 1 l 1,1 z m 0,-1 v 1 0 z m 6,32 -46,7 v 0 -1 -1 -1 l -1,-2 v 0 -1 -1 -1 -1 l -1,-1 v -1 -1 -1 -1 -1 h -1 v -1 -1 -1 -1 0 l -1,-1 v -1 0 -1 -1 0 l -1,-1 v -1 0 -1 -1 l 45,-11 v 1 0 1 l 1,1 v 1 1 1 0 1 l 1,1 v 1 1 1 1 l 1,1 v 1 1 1 1 l 1,1 v 1 1 1 1 1 l 1,1 v 1 1 2 1 l 1,1 z m 2,50 h -46 v 0 -2 -1 -2 -2 -1 -2 -2 -1 -2 -1 -2 -1 -1 -2 -1 -2 -1 -1 l -1,-2 v -1 -1 -1 -2 -1 -1 -1 -1 -1 l -1,-1 v -1 -1 -1 l 46,-7 v 2 1 1 2 l 1,1 v 1 2 1 2 1 2 1 l 1,1 v 2 2 1 2 1 2 1 2 2 1 2 2 1 2 2 2 1 2 z" />
  </g><g
     id="g114898">
   <path
   class="fil2 str0"
   d="m 11827,5486 c -59,-41 -139,-29 -178,27 -39,56 -23,136 36,177 59,41 139,29 179,-27 39,-56 23,-135 -37,-177 z"
   id="path114884" />
   <g
   id="g114888">
    <path
   class="fil1"
   d="m 11566,5190 30,-3 30,-1 h 29 l 29,1 28,2 27,2 27,4 26,5 25,6 25,8 24,8 24,9 23,10 22,12 21,12 21,14 19,15 19,16 19,16 17,18 17,19 15,20 15,20 14,22 14,23 12,23 12,24 11,26 10,26 9,27 9,28 7,29 -96,24 -6,-26 -8,-25 -8,-23 -9,-23 -9,-22 -10,-20 -11,-20 -11,-19 -11,-18 -12,-17 -13,-16 -13,-15 -14,-14 -15,-13 -15,-12 -15,-12 -16,-11 -17,-10 -18,-9 -18,-8 -19,-7 -19,-7 -21,-6 -21,-5 -22,-4 -22,-3 -24,-3 -24,-1 -25,-1 h -26 l -26,1 -28,2 z"
   id="path114886" />
   </g>
   <g
   id="g114892">
    <path
   class="fil1"
   d="m 11524,4910 46,-4 46,-2 h 44 l 43,1 43,3 41,4 40,6 40,8 38,9 37,11 37,12 35,14 34,15 33,18 32,18 30,21 30,22 28,23 28,25 26,27 24,28 24,29 22,31 22,33 20,34 18,35 18,37 16,38 16,40 14,41 13,42 12,44 -96,24 -11,-40 -12,-39 -13,-38 -14,-36 -15,-35 -16,-33 -17,-32 -17,-30 -19,-29 -20,-27 -20,-26 -22,-24 -22,-23 -24,-21 -24,-21 -25,-18 -27,-18 -27,-16 -29,-15 -29,-13 -31,-12 -31,-11 -33,-9 -34,-8 -35,-7 -36,-5 -38,-4 -38,-3 -40,-1 h -41 l -42,2 -43,3 z"
   id="path114890" />
   </g>
   <g
   id="g114896">
    <path
   class="fil1"
   d="m 11512,4617 61,-5 59,-2 58,-1 57,2 56,4 54,5 53,8 51,10 50,12 49,14 47,16 46,18 44,20 43,22 42,25 40,26 38,29 37,30 36,33 33,35 33,36 31,39 29,40 27,43 27,44 24,47 23,48 22,50 20,52 18,54 17,55 16,58 -96,24 -15,-54 -16,-53 -17,-50 -19,-49 -20,-46 -21,-45 -23,-42 -24,-41 -25,-39 -26,-36 -28,-35 -29,-33 -30,-31 -32,-29 -33,-27 -34,-26 -36,-23 -37,-22 -38,-20 -40,-18 -41,-16 -43,-15 -44,-13 -46,-10 -47,-9 -48,-8 -51,-5 -51,-3 -54,-2 -54,1 -57,2 -57,4 z"
   id="path114894" />
   </g>
  </g><g
     id="g114912">
   <path
   class="fil0 str1"
   d="m 3479,4107 865,500 865,499 v 1998 l -865,499 -865,500 -865,-500 -865,-499 v -999 -999 l 865,-499 z"
   id="path114900" />
   <g
   id="g114910">
    <g
   id="g114904">
     <path
   class="fil1"
   d="m 4375,5597 h 212 l -6,212 -17,200 -28,186 -38,174 -48,161 -56,148 -64,135 -72,122 -79,108 -86,96 -91,82 -97,69 -102,54 -105,39 -108,24 -110,9 -110,-7 -108,-23 -106,-38 -102,-53 -97,-67 -92,-82 -86,-95 -79,-108 -72,-122 -64,-135 -56,-148 -48,-162 -37,-175 -28,-188 -18,-201 -5,-215 h 211 l 6,204 16,191 26,176 35,162 44,148 50,134 58,120 62,106 68,93 71,79 74,65 75,53 77,39 78,28 77,17 78,5 78,-7 78,-17 78,-29 77,-41 76,-54 74,-66 71,-80 68,-93 63,-106 57,-120 51,-134 43,-148 35,-160 26,-175 17,-188 z"
   id="path114902" />
    </g>
    <path
   class="fil2 str2"
   d="m 2477,5098 c 78,0 141,63 141,142 0,79 -63,143 -141,143 -77,0 -141,-64 -141,-143 0,-79 64,-142 141,-142 z"
   id="path114906" />
    <path
   class="fil2 str2"
   d="m 4477,5098 c 78,0 141,63 141,142 0,79 -63,143 -141,143 -77,0 -140,-64 -140,-143 0,-79 63,-142 140,-142 z"
   id="path114908" />
   </g>
  </g></g>
 </g>
</svg>
