<?xml version="1.0" encoding="UTF-8" standalone="no"?>
<!-- Creator: CorelDRAW X7 -->

<svg
   xml:space="preserve"
   width="23.772875"
   height="25.978008"
   version="1.0"
   style="clip-rule:evenodd;fill-rule:evenodd;image-rendering:optimizeQuality;shape-rendering:geometricPrecision;text-rendering:geometricPrecision"
   viewBox="0 0 620961.79 678560.82"
   id="svg113"
   sodipodi:docname="Umarket Naira.svg"
   inkscape:version="1.1.2 (b8e25be833, 2022-02-05)"
   xmlns:inkscape="http://www.inkscape.org/namespaces/inkscape"
   xmlns:sodipodi="http://sodipodi.sourceforge.net/DTD/sodipodi-0.dtd"
   xmlns="http://www.w3.org/2000/svg"
   xmlns:svg="http://www.w3.org/2000/svg"><sodipodi:namedview
   id="namedview115"
   pagecolor="#ffffff"
   bordercolor="#999999"
   borderopacity="1"
   inkscape:pageshadow="0"
   inkscape:pageopacity="0"
   inkscape:pagecheckerboard="0"
   inkscape:document-units="mm"
   showgrid="false"
   fit-margin-left="0.3"
   fit-margin-right="0.3"
   fit-margin-top="0"
   fit-margin-bottom="0"
   units="px"
   inkscape:zoom="21.700451"
   inkscape:cx="11.866113"
   inkscape:cy="13.041203"
   inkscape:window-width="1366"
   inkscape:window-height="745"
   inkscape:window-x="-8"
   inkscape:window-y="-8"
   inkscape:window-maximized="1"
   inkscape:current-layer="Layer_x0020_1" />
 <defs
   id="defs11">
  <style
   type="text/css"
   id="style9">
   <![CDATA[
    .str6 {stroke:#00C800;stroke-width:7522.73}
    .str4 {stroke:#00C800;stroke-width:4176}
    .str5 {stroke:#00C800;stroke-width:4176}
    .str1 {stroke:#00C800;stroke-width:4176}
    .str0 {stroke:#00C800;stroke-width:4176}
    .str3 {stroke:#00C800;stroke-width:4176}
    .str2 {stroke:#00C800;stroke-width:4176}
    .fil5 {fill:none;fill-rule:nonzero}
    .fil3 {fill:#00C800}
    .fil6 {fill:#00C800}
    .fil1 {fill:white}
    .fil4 {fill:white}
    .fil2 {fill:#00C800;fill-rule:nonzero}
    .fil0 {fill:#00C800;fill-rule:nonzero}
   ]]>
  </style>
 </defs>
 <g
   id="Layer_x0020_1"
   inkscape:label="Layer 1"
   inkscape:groupmode="layer"
   transform="translate(8890.2471,1043.8144)">
  <metadata
   id="CorelCorpID_0Corel-Layer" />
  <g
   id="_1933639143328">
   <g
   id="g16">
    <path
   class="fil0"
   d="m 324583,320121 217162,-125379 4186,7266 -217162,125379 z"
   id="path14" />
   </g>
   <g
   id="g20">
    <path
   class="fil0"
   d="m 64022,470556 217162,-125379 4186,7266 -217162,125379 z"
   id="path18" />
   </g>
   <circle
   class="fil1 str0"
   transform="matrix(1.29922,-0.750103,0.750103,1.29922,64772.1,474964)"
   r="41790"
   id="circle22"
   cx="0"
   cy="0" />
   <circle
   class="fil1 str1"
   transform="matrix(1.29922,-0.750103,0.750103,1.29922,538409,201509)"
   r="41790"
   id="circle24"
   cx="0"
   cy="0" />
   <g
   id="g28">
    <path
   class="fil0"
   d="m 328769,349086 217162,125379 -4186,7266 -217162,-125379 z"
   id="path26" />
   </g>
   <g
   id="g32">
    <path
   class="fil0"
   d="m 68208,198651 217162,125379 -4186,7266 L 64022,205917 Z"
   id="path30" />
   </g>
   <circle
   class="fil1 str2"
   transform="matrix(1.29922,0.750103,-0.750103,1.29922,64772.1,201509)"
   r="41790"
   id="circle34"
   cx="0"
   cy="0" />
   <circle
   class="fil1 str3"
   transform="matrix(1.29922,0.750103,-0.750103,1.29922,538409,474964)"
   r="41790"
   id="circle36"
   cx="0"
   cy="0" />
   <g
   id="g40">
    <path
   class="fil0"
   d="M 297395,309271 V 58513 h 8391 v 250758 z"
   id="path38" />
   </g>
   <g
   id="g44">
    <path
   class="fil0"
   d="M 297395,610131 V 359373 h 8391 v 250758 z"
   id="path42" />
   </g>
   <circle
   class="fil1 str4"
   transform="matrix(0,-1.50021,1.50021,0,301590,611691)"
   r="41790"
   id="circle46"
   cx="0"
   cy="0" />
   <circle
   class="fil1 str5"
   transform="matrix(0,-1.50021,1.50021,0,301590,64782.4)"
   r="41790"
   id="circle48"
   cx="0"
   cy="0" />
   <path
   class="fil2"
   d="m 95959,218100 c 0,464 -79,869 -237,1244 -158,355 -375,651 -651,898 -267,237 -583,405 -948,523 -375,109 -750,158 -1125,158 h -3367 c -701,0 -1303,-69 -1816,-197 -504,-148 -978,-405 -1402,-770 -445,-365 -849,-869 -1244,-1501 -405,-631 -849,-1441 -1353,-2448 l -9625,-18126 c -563,-1086 -1126,-2251 -1708,-3494 -583,-1254 -1086,-2469 -1550,-3643 h -59 c 79,1441 138,2873 177,4304 50,1422 69,2902 69,4413 v 20298 c 0,197 -59,375 -167,542 -109,158 -306,287 -573,395 -267,119 -632,198 -1096,257 -454,69 -1046,99 -1767,99 -701,0 -1283,-30 -1747,-99 -464,-59 -820,-138 -1076,-257 -267,-98 -445,-237 -543,-395 -99,-167 -149,-345 -149,-542 v -34840 c 0,-948 277,-1649 830,-2123 543,-464 1214,-701 2024,-701 h 4215 c 760,0 1402,60 1925,188 523,138 987,355 1392,652 405,296 800,710 1155,1244 356,523 731,1184 1106,1964 l 7533,14177 c 444,859 868,1708 1303,2537 424,829 849,1659 1234,2488 395,829 790,1649 1165,2438 385,810 760,1610 1115,2409 h 30 c -59,-1402 -109,-2863 -138,-4383 -40,-1520 -50,-2972 -50,-4354 v -18195 c 0,-197 69,-385 188,-543 108,-158 316,-296 592,-424 286,-119 652,-198 1116,-247 464,-59 1056,-79 1767,-79 691,0 1264,20 1718,79 464,49 809,128 1066,247 247,128 424,266 523,424 99,158 148,336 148,543 z"
   id="path50" />
   <rect
   class="fil3"
   x="57646"
   y="194806"
   width="44681"
   height="4468"
   id="rect52" />
   <rect
   class="fil3"
   x="57646"
   y="208210"
   width="44681"
   height="4468"
   id="rect54" />
   <path
   class="fil0"
   d="m 42046,181977 c 4433,0 7888,1323 10396,3969 2962,3129 4452,8332 4452,15578 0,7237 -1500,12449 -4492,15608 -2478,2617 -5923,3920 -10356,3920 -4442,0 -8026,-1432 -10761,-4295 -2714,-2853 -4077,-7967 -4077,-15302 0,-7207 1501,-12399 4492,-15559 2478,-2616 5924,-3919 10346,-3919 z m 0,6081 c -1036,0 -1974,277 -2774,849 -829,563 -1471,1570 -1915,3041 -592,1886 -889,5084 -889,9576 0,4492 257,7582 790,9261 533,1678 1205,2793 2014,3356 810,563 1738,839 2774,839 1057,0 1985,-286 2804,-859 800,-562 1441,-1569 1886,-3040 612,-1876 898,-5065 898,-9557 0,-4492 -266,-7572 -800,-9250 -533,-1678 -1194,-2804 -2014,-3367 -799,-572 -1717,-849 -2774,-849 z"
   id="path56" />
   <g
   id="g61">
    <path
   class="fil4"
   d="m 305480,190605 c 82316,0 149043,66728 149043,149033 0,82316 -66727,149043 -149043,149043 -82306,0 -149033,-66727 -149033,-149043 0,-82305 66727,-149033 149033,-149033 z"
   id="path58" />
    <path
   id="1"
   class="fil5 str6"
   d="m 305480,190605 c 82316,0 149043,66728 149043,149033 0,82316 -66727,149043 -149043,149043 -82306,0 -149033,-66727 -149033,-149043 0,-82305 66727,-149033 149033,-149033 z" />
   </g>
   <g
   id="g65">
    <path
   class="fil0"
   d="m 361743,300959 h 5982 l -355,12567 -1017,11798 -1649,11007 -2241,10228 -2774,9438 -3287,8658 -3742,7858 -4176,7089 -4571,6279 -4906,5489 -5213,4679 -5489,3880 -5716,3031 -5894,2201 -6012,1353 -6091,474 -6072,-395 -6022,-1254 -5904,-2113 -5726,-2981 -5489,-3801 -5222,-4640 -4917,-5450 -4570,-6259 -4176,-7068 -3742,-7878 -3288,-8668 -2784,-9498 -2241,-10296 -1638,-11097 -1017,-11906 -356,-12725 h 5983 l 336,12429 997,11590 1599,10761 2162,9941 2666,9103 3129,8273 3544,7463 3920,6615 4235,5805 4502,4995 4709,4186 4896,3386 5016,2606 5094,1837 5153,1076 5183,335 5183,-414 5163,-1155 5104,-1906 5025,-2675 4897,-3446 4719,-4245 4512,-5035 4235,-5844 3919,-6634 3544,-7444 3130,-8263 2675,-9063 2162,-9853 1590,-10672 997,-11481 z"
   id="path63" />
   </g>
   <ellipse
   class="fil6"
   cx="244425"
   cy="279526"
   rx="6009"
   ry="6097"
   id="ellipse67" />
   <ellipse
   class="fil6"
   cx="364513"
   cy="279526"
   rx="6009"
   ry="6097"
   id="ellipse69" />
   <path
   class="fil2"
   d="m 95959,491564 c 0,464 -79,869 -237,1244 -158,355 -375,652 -651,898 -267,237 -583,405 -948,524 -375,108 -750,158 -1125,158 h -3367 c -701,0 -1303,-70 -1816,-198 -504,-148 -978,-405 -1402,-770 -445,-365 -849,-869 -1244,-1501 -405,-631 -849,-1441 -1353,-2448 l -9625,-18126 c -563,-1085 -1126,-2250 -1708,-3494 -583,-1254 -1086,-2468 -1550,-3643 h -59 c 79,1441 138,2873 177,4304 50,1422 69,2903 69,4413 v 20298 c 0,197 -59,375 -167,543 -109,158 -306,286 -573,394 -267,119 -632,198 -1096,257 -454,69 -1046,99 -1767,99 -701,0 -1283,-30 -1747,-99 -464,-59 -820,-138 -1076,-257 -267,-98 -445,-236 -543,-394 -99,-168 -149,-346 -149,-543 v -34840 c 0,-948 277,-1649 830,-2122 543,-464 1214,-701 2024,-701 h 4215 c 760,0 1402,59 1925,187 523,138 987,356 1392,652 405,296 800,711 1155,1244 356,523 731,1184 1106,1964 l 7533,14177 c 444,859 868,1708 1303,2537 424,829 849,1659 1234,2488 395,829 790,1649 1165,2438 385,810 760,1610 1115,2409 h 30 c -59,-1402 -109,-2863 -138,-4383 -40,-1520 -50,-2972 -50,-4354 v -18194 c 0,-198 69,-385 188,-543 108,-158 316,-297 592,-425 286,-118 652,-197 1116,-247 464,-59 1056,-79 1767,-79 691,0 1264,20 1718,79 464,50 809,129 1066,247 247,128 424,267 523,425 99,158 148,335 148,543 z"
   id="path71" />
   <rect
   class="fil3"
   x="57646"
   y="468270"
   width="44681"
   height="4468"
   id="rect73" />
   <rect
   class="fil3"
   x="57646"
   y="481675"
   width="44681"
   height="4468"
   id="rect75" />
   <path
   class="fil0"
   d="m 42046,455441 c 4433,0 7888,1323 10396,3969 2962,3129 4452,8332 4452,15578 0,7237 -1500,12449 -4492,15609 -2478,2616 -5923,3919 -10356,3919 -4442,0 -8026,-1432 -10761,-4295 -2714,-2853 -4077,-7967 -4077,-15302 0,-7207 1501,-12399 4492,-15559 2478,-2616 5924,-3919 10346,-3919 z m 0,6081 c -1036,0 -1974,277 -2774,850 -829,562 -1471,1569 -1915,3040 -592,1886 -889,5084 -889,9576 0,4492 257,7582 790,9261 533,1678 1205,2794 2014,3356 810,563 1738,839 2774,839 1057,0 1985,-286 2804,-859 800,-562 1441,-1569 1886,-3040 612,-1876 898,-5065 898,-9557 0,-4492 -266,-7572 -800,-9250 -533,-1678 -1194,-2804 -2014,-3366 -799,-573 -1717,-850 -2774,-850 z"
   id="path77" />
   <path
   class="fil2"
   d="m 332787,81368 c 0,464 -79,869 -237,1244 -158,355 -375,651 -651,898 -267,237 -583,405 -948,523 -375,109 -751,158 -1126,158 h -3366 c -701,0 -1303,-69 -1817,-197 -503,-148 -977,-405 -1402,-770 -444,-365 -849,-869 -1243,-1501 -405,-632 -849,-1441 -1353,-2448 l -9625,-18126 c -563,-1086 -1126,-2251 -1708,-3494 -583,-1254 -1086,-2469 -1550,-3643 h -60 c 79,1441 139,2872 178,4304 49,1422 69,2902 69,4413 v 20297 c 0,198 -59,376 -168,543 -108,158 -306,287 -572,395 -267,119 -632,198 -1096,257 -454,69 -1047,99 -1767,99 -701,0 -1284,-30 -1748,-99 -464,-59 -819,-138 -1076,-257 -266,-98 -444,-237 -543,-395 -98,-167 -148,-345 -148,-543 V 48187 c 0,-948 277,-1649 830,-2123 543,-464 1214,-701 2023,-701 h 4216 c 760,0 1402,60 1925,188 523,138 987,355 1392,652 405,296 800,710 1155,1244 355,523 731,1184 1106,1964 l 7532,14177 c 445,859 869,1708 1303,2537 425,829 850,1659 1235,2488 394,829 789,1649 1164,2438 385,810 761,1609 1116,2409 h 30 c -60,-1402 -109,-2863 -139,-4383 -39,-1521 -49,-2972 -49,-4354 V 46528 c 0,-197 69,-385 188,-543 108,-158 316,-296 592,-424 286,-119 652,-198 1116,-247 464,-59 1056,-79 1767,-79 691,0 1263,20 1718,79 464,49 809,128 1066,247 247,128 424,266 523,424 99,158 148,336 148,543 z"
   id="path79" />
   <rect
   class="fil3"
   x="294474"
   y="58074"
   width="44681"
   height="4468"
   id="rect81" />
   <rect
   class="fil3"
   x="294474"
   y="71478"
   width="44681"
   height="4468"
   id="rect83" />
   <path
   class="fil0"
   d="m 278874,45245 c 4433,0 7888,1323 10396,3969 2961,3129 4452,8332 4452,15578 0,7237 -1500,12449 -4492,15608 -2478,2617 -5923,3920 -10356,3920 -4442,0 -8026,-1432 -10761,-4295 -2715,-2853 -4077,-7967 -4077,-15302 0,-7207 1501,-12400 4492,-15559 2478,-2616 5923,-3919 10346,-3919 z m 0,6081 c -1036,0 -1974,277 -2774,849 -829,563 -1471,1570 -1915,3041 -593,1886 -889,5084 -889,9576 0,4492 257,7582 790,9260 533,1679 1204,2794 2014,3357 810,563 1738,839 2774,839 1056,0 1984,-286 2804,-859 800,-562 1441,-1569 1886,-3040 612,-1876 898,-5065 898,-9557 0,-4492 -267,-7572 -800,-9250 -533,-1678 -1194,-2804 -2014,-3367 -799,-572 -1718,-849 -2774,-849 z"
   id="path85" />
   <path
   class="fil2"
   d="m 569605,218090 c 0,464 -79,869 -237,1244 -158,355 -375,652 -652,898 -266,237 -582,405 -947,524 -375,108 -751,158 -1126,158 h -3366 c -701,0 -1303,-70 -1817,-198 -503,-148 -977,-405 -1402,-770 -444,-365 -849,-869 -1243,-1501 -405,-631 -850,-1441 -1353,-2448 l -9626,-18125 c -562,-1086 -1125,-2251 -1707,-3495 -583,-1254 -1086,-2468 -1550,-3643 h -60 c 79,1441 139,2873 178,4304 49,1422 69,2903 69,4413 v 20298 c 0,197 -59,375 -168,543 -108,158 -306,286 -572,395 -267,118 -632,197 -1096,256 -454,69 -1047,99 -1767,99 -701,0 -1284,-30 -1748,-99 -464,-59 -819,-138 -1076,-256 -266,-99 -444,-237 -543,-395 -98,-168 -148,-346 -148,-543 v -34840 c 0,-948 277,-1649 829,-2122 543,-464 1215,-701 2024,-701 h 4216 c 760,0 1402,59 1925,187 523,138 987,356 1392,652 405,296 800,711 1155,1244 355,523 731,1184 1106,1964 l 7532,14177 c 445,859 869,1708 1303,2537 425,829 849,1659 1234,2488 395,829 790,1649 1165,2438 385,810 761,1610 1116,2409 h 30 c -60,-1402 -109,-2863 -139,-4383 -39,-1520 -49,-2972 -49,-4354 v -18194 c 0,-198 69,-385 188,-543 108,-158 316,-297 592,-425 286,-118 652,-197 1116,-247 464,-59 1056,-79 1767,-79 691,0 1263,20 1717,79 464,50 810,129 1067,247 246,128 424,267 523,425 99,158 148,335 148,543 z"
   id="path87" />
   <rect
   class="fil3"
   x="531292"
   y="194796"
   width="44681"
   height="4468"
   id="rect89" />
   <rect
   class="fil3"
   x="531292"
   y="208201"
   width="44681"
   height="4468"
   id="rect91" />
   <path
   class="fil0"
   d="m 515692,181967 c 4433,0 7888,1323 10396,3969 2961,3129 4452,8332 4452,15578 0,7237 -1501,12449 -4492,15609 -2478,2616 -5923,3919 -10356,3919 -4442,0 -8026,-1432 -10761,-4295 -2715,-2853 -4077,-7967 -4077,-15302 0,-7207 1501,-12399 4492,-15559 2478,-2616 5923,-3919 10346,-3919 z m 0,6082 c -1037,0 -1974,276 -2774,849 -829,562 -1471,1569 -1915,3040 -593,1886 -889,5084 -889,9576 0,4492 257,7582 790,9261 533,1678 1204,2794 2014,3356 809,563 1737,839 2774,839 1056,0 1984,-286 2804,-858 799,-563 1441,-1570 1885,-3041 613,-1876 899,-5065 899,-9557 0,-4492 -267,-7572 -800,-9250 -533,-1678 -1194,-2804 -2014,-3366 -799,-573 -1718,-849 -2774,-849 z"
   id="path93" />
   <path
   class="fil2"
   d="m 332787,628286 c 0,464 -79,869 -237,1244 -158,356 -375,652 -651,899 -267,236 -583,404 -948,523 -375,108 -751,158 -1126,158 h -3366 c -701,0 -1303,-69 -1817,-198 -503,-148 -977,-404 -1402,-770 -444,-365 -849,-869 -1243,-1500 -405,-632 -849,-1442 -1353,-2449 l -9625,-18125 c -563,-1086 -1126,-2251 -1708,-3495 -583,-1254 -1086,-2468 -1550,-3643 h -60 c 79,1441 139,2873 178,4304 49,1422 69,2903 69,4413 v 20298 c 0,197 -59,375 -168,543 -108,158 -306,286 -572,395 -267,118 -632,197 -1096,256 -454,69 -1047,99 -1767,99 -701,0 -1284,-30 -1748,-99 -464,-59 -819,-138 -1076,-256 -266,-99 -444,-237 -543,-395 -98,-168 -148,-346 -148,-543 v -34840 c 0,-947 277,-1648 830,-2122 543,-464 1214,-701 2023,-701 h 4216 c 760,0 1402,59 1925,187 523,139 987,356 1392,652 405,296 800,711 1155,1244 355,523 731,1185 1106,1964 l 7532,14177 c 445,859 869,1708 1303,2537 425,830 850,1659 1235,2488 394,829 789,1649 1164,2439 385,809 761,1609 1116,2408 h 30 c -60,-1401 -109,-2863 -139,-4383 -39,-1520 -49,-2971 -49,-4354 v -18194 c 0,-198 69,-385 188,-543 108,-158 316,-296 592,-425 286,-118 652,-197 1116,-247 464,-59 1056,-79 1767,-79 691,0 1263,20 1718,79 464,50 809,129 1066,247 247,129 424,267 523,425 99,158 148,335 148,543 z"
   id="path95" />
   <rect
   class="fil3"
   x="294474"
   y="604992"
   width="44681"
   height="4468"
   id="rect97" />
   <rect
   class="fil3"
   x="294474"
   y="618397"
   width="44681"
   height="4468"
   id="rect99" />
   <path
   class="fil0"
   d="m 278874,592163 c 4433,0 7888,1323 10396,3969 2961,3130 4452,8332 4452,15579 0,7236 -1500,12449 -4492,15608 -2478,2616 -5923,3919 -10356,3919 -4442,0 -8026,-1431 -10761,-4294 -2715,-2854 -4077,-7967 -4077,-15303 0,-7206 1501,-12399 4492,-15558 2478,-2617 5923,-3920 10346,-3920 z m 0,6082 c -1036,0 -1974,276 -2774,849 -829,562 -1471,1569 -1915,3040 -593,1886 -889,5085 -889,9577 0,4491 257,7582 790,9260 533,1678 1204,2794 2014,3356 810,563 1738,840 2774,840 1056,0 1984,-287 2804,-859 800,-563 1441,-1570 1886,-3041 612,-1876 898,-5065 898,-9556 0,-4492 -267,-7573 -800,-9251 -533,-1678 -1194,-2804 -2014,-3366 -799,-573 -1718,-849 -2774,-849 z"
   id="path101" />
   <path
   class="fil2"
   d="m 569605,491554 c 0,464 -79,869 -237,1244 -158,356 -375,652 -652,898 -266,237 -582,405 -947,524 -375,108 -751,158 -1126,158 h -3366 c -701,0 -1303,-69 -1817,-198 -503,-148 -977,-405 -1402,-770 -444,-365 -849,-869 -1243,-1500 -405,-632 -850,-1442 -1353,-2449 l -9626,-18125 c -562,-1086 -1125,-2251 -1707,-3495 -583,-1254 -1086,-2468 -1550,-3643 h -60 c 79,1441 139,2873 178,4304 49,1422 69,2903 69,4413 v 20298 c 0,197 -59,375 -168,543 -108,158 -306,286 -572,395 -267,118 -632,197 -1096,256 -454,69 -1047,99 -1767,99 -701,0 -1284,-30 -1748,-99 -464,-59 -819,-138 -1076,-256 -266,-99 -444,-237 -543,-395 -98,-168 -148,-346 -148,-543 v -34840 c 0,-948 277,-1648 829,-2122 543,-464 1215,-701 2024,-701 h 4216 c 760,0 1402,59 1925,187 523,139 987,356 1392,652 405,296 800,711 1155,1244 355,523 731,1184 1106,1964 l 7532,14177 c 445,859 869,1708 1303,2537 425,830 849,1659 1234,2488 395,829 790,1649 1165,2439 385,809 761,1609 1116,2408 h 30 c -60,-1401 -109,-2863 -139,-4383 -39,-1520 -49,-2971 -49,-4354 v -18194 c 0,-198 69,-385 188,-543 108,-158 316,-296 592,-425 286,-118 652,-197 1116,-247 464,-59 1056,-79 1767,-79 691,0 1263,20 1717,79 464,50 810,129 1067,247 246,129 424,267 523,425 99,158 148,335 148,543 z"
   id="path103" />
   <rect
   class="fil3"
   x="531292"
   y="468260"
   width="44681"
   height="4468"
   id="rect105" />
   <rect
   class="fil3"
   x="531292"
   y="481665"
   width="44681"
   height="4468"
   id="rect107" />
   <path
   class="fil0"
   d="m 515692,455431 c 4433,0 7888,1323 10396,3969 2961,3129 4452,8332 4452,15579 0,7236 -1501,12449 -4492,15608 -2478,2616 -5923,3919 -10356,3919 -4442,0 -8026,-1431 -10761,-4294 -2715,-2854 -4077,-7967 -4077,-15303 0,-7206 1501,-12399 4492,-15558 2478,-2617 5923,-3920 10346,-3920 z m 0,6082 c -1037,0 -1974,276 -2774,849 -829,562 -1471,1569 -1915,3040 -593,1886 -889,5085 -889,9577 0,4491 257,7581 790,9260 533,1678 1204,2794 2014,3356 809,563 1737,840 2774,840 1056,0 1984,-287 2804,-859 799,-563 1441,-1570 1885,-3041 613,-1876 899,-5065 899,-9556 0,-4492 -267,-7573 -800,-9251 -533,-1678 -1194,-2804 -2014,-3366 -799,-573 -1718,-849 -2774,-849 z"
   id="path109" />
  </g>
 </g>
</svg>
