<?xml version="1.0" encoding="UTF-8"?>
<!DOCTYPE svg PUBLIC "-//W3C//DTD SVG 1.0//EN" "http://www.w3.org/TR/2001/REC-SVG-20010904/DTD/svg10.dtd">
<!-- Creator: CorelDRAW X7 -->
<svg xmlns="http://www.w3.org/2000/svg" xml:space="preserve" width="41.4981mm" height="15.0747mm" version="1.0" style="shape-rendering:geometricPrecision; text-rendering:geometricPrecision; image-rendering:optimizeQuality; fill-rule:evenodd; clip-rule:evenodd"
viewBox="0 0 4414263 1603536"
 xmlns:xlink="http://www.w3.org/1999/xlink">
 <defs>
  <style type="text/css">
   <![CDATA[
    .fil0 {fill:#00C800}
    .fil2 {fill:white}
    .fil1 {fill:#00C800;fill-rule:nonzero}
   ]]>
  </style>
 </defs>
 <g id="Layer_x0020_1">
  <metadata id="CorelCorpID_0Corel-Layer"/>
  <path class="fil0" d="M2141696 1066152c0,2627 -819,4989 -2489,7063 -1521,2074 -4297,3744 -8042,5127 -3871,1245 -9009,2362 -15519,3042 -6510,702 -14818,979 -24796,979 -10403,0 -18849,-277 -25359,-979 -6510,-680 -11786,-1797 -15669,-3042 -3872,-1383 -6648,-3053 -8169,-5127 -1521,-2074 -2213,-4436 -2213,-7063l0 -214777c0,-12201 -1117,-23285 -3467,-33263 -2224,-10116 -5819,-18711 -10531,-25774 -4713,-7201 -10659,-12743 -17733,-16764 -7212,-3883 -15668,-5819 -25635,-5819 -12201,0 -24530,4712 -36859,14275 -12477,9414 -25912,23275 -40464,41294l0 240828c0,2627 -829,4989 -2489,7063 -1521,2074 -4297,3744 -8318,5127 -3883,1245 -9148,2362 -15658,3042 -6510,702 -14690,979 -24391,979 -10117,0 -18424,-277 -24934,-979 -6521,-680 -11786,-1797 -15658,-3042 -4021,-1383 -6797,-3053 -8319,-5127 -1659,-2074 -2499,-4436 -2499,-7063l0 -214777c0,-12201 -1107,-23285 -3468,-33263 -2213,-10116 -5670,-18711 -10382,-25774 -4585,-7201 -10531,-12743 -17743,-16764 -7340,-3883 -15935,-5819 -25636,-5819 -12467,0 -24795,4712 -37273,14275 -12467,9414 -25912,23275 -40187,41294l0 240828c0,2627 -830,4989 -2490,7063 -1521,2074 -4297,3744 -8318,5127 -3872,1245 -9148,2362 -15509,3042 -6521,702 -14839,979 -24817,979 -9978,0 -18285,-277 -24795,-979 -6383,-680 -11637,-1797 -15520,-3042 -4021,-1383 -6797,-3053 -8318,-5127 -1660,-2074 -2489,-4436 -2489,-7063l0 -362497c0,-2638 691,-4989 2084,-7063 1234,-2085 3734,-3744 7202,-5138 3595,-1234 8031,-2340 13573,-3042 5542,-692 12616,-968 20934,-968 8723,0 15786,276 21466,968 5691,702 10116,1808 13307,3042 3053,1394 5266,3053 6649,5138 1393,2074 2074,4425 2074,7063l0 41847c19955,-21615 40049,-37688 59866,-48506 19956,-10797 40731,-16200 62356,-16200 14967,0 28402,1521 40326,4712 11914,3053 22445,7478 31869,13297 9287,5829 17328,12743 24104,20785 6798,8180 12478,17190 17052,27157 10946,-11637 21476,-21615 31869,-29923 10531,-8318 20785,-15243 30901,-20509 10116,-5265 20232,-9148 30487,-11637 10116,-2638 20498,-3882 31029,-3882 23976,0 44357,4010 60834,12190 16488,8031 29795,19115 39911,33114 10254,13860 17467,30210 21753,48921 4298,18710 6510,38379 6510,59313l0 231818zm408642 1244c0,3745 -1383,6649 -4021,8861 -2766,2223 -7063,3755 -12882,4723 -5819,968 -14414,1383 -25912,1383 -12191,0 -21062,-415 -26615,-1383 -5542,-968 -9552,-2500 -11765,-4723 -2361,-2212 -3467,-5116 -3467,-8861l0 -28827c-14967,15946 -31870,28274 -50995,37135 -18977,8882 -40188,13318 -63462,13318 -19126,0 -36859,-2500 -52931,-7489 -16073,-4989 -29934,-12477 -41709,-22317 -11786,-9977 -20924,-22168 -27444,-36719 -6510,-14680 -9691,-31731 -9691,-51134 0,-21200 4149,-39485 12318,-55005 8329,-15658 20658,-28412 37007,-38656 16360,-10116 36582,-17605 60962,-22455 24264,-4840 52527,-7340 84673,-7340l35337 0 0 -21902c0,-11350 -1106,-21328 -3468,-29923 -2212,-8456 -6095,-15668 -11360,-21338 -5266,-5680 -12201,-9840 -21062,-12616 -8733,-2627 -19679,-4010 -32561,-4010 -17051,0 -32284,1936 -45591,5670 -13446,3755 -25221,8041 -35475,12615 -10255,4574 -18850,8872 -25775,12616 -6924,3734 -12466,5680 -16764,5680 -3053,0 -5680,-968 -7903,-2776 -2351,-1946 -4287,-4712 -5681,-8180 -1521,-3457 -2627,-7893 -3457,-13020 -840,-5127 -1244,-10807 -1244,-16903 0,-8456 691,-15115 2074,-19955 1244,-4851 3872,-9137 7616,-13158 3883,-3883 10403,-8180 19956,-12893 9424,-4712 20508,-9148 33262,-13158 12744,-4170 26604,-7489 41571,-9978 15105,-2638 30614,-3882 46549,-3882 28412,0 52665,2776 72886,8318 20094,5542 36720,14126 49612,25636 13031,11499 22583,26316 28551,44474 5957,18009 8861,39624 8861,64430l0 243742zm-100597 -155474l-38932 0c-16499,0 -30497,1255 -42135,3606 -11637,2489 -21061,6095 -28412,11084 -7329,4851 -12605,10669 -15924,17594 -3468,6925 -5138,14829 -5138,23700 0,15243 4862,27157 14414,35752 9563,8722 22870,13031 39922,13031 14264,0 27422,-3617 39485,-10957 12052,-7340 24242,-18009 36720,-32146l0 -61664zm435383 -174451c0,9691 -287,17732 -840,23976 -553,6223 -1383,11084 -2362,14542 -1106,3467 -2627,5956 -4286,7339 -1809,1394 -4021,1947 -6798,1947 -2074,0 -4563,-426 -7329,-1394 -2638,-968 -5691,-1936 -9148,-3042 -3329,-1106 -7074,-2085 -11094,-3053 -4160,-968 -8595,-1383 -13435,-1383 -5691,0 -11361,1117 -17041,3457 -5691,2362 -11637,5830 -17743,10819 -6095,4850 -12467,11360 -19126,19391 -6648,8180 -13711,18158 -21338,30072l0 226010c0,2627 -830,4989 -2489,7063 -1522,2074 -4298,3744 -8319,5127 -3872,1245 -9148,2362 -15509,3042 -6521,702 -14839,979 -24817,979 -9977,0 -18285,-277 -24795,-979 -6382,-680 -11637,-1797 -15520,-3042 -4021,-1383 -6797,-3053 -8318,-5127 -1660,-2074 -2500,-4436 -2500,-7063l0 -362497c0,-2638 702,-4989 2096,-7063 1234,-2085 3733,-3744 7201,-5138 3595,-1234 8031,-2340 13573,-3042 5542,-692 12616,-968 20934,-968 8723,0 15786,276 21466,968 5691,702 10116,1808 13308,3042 3052,1394 5265,3053 6648,5138 1393,2074 2074,4425 2074,7063l0 45177c9425,-13584 18434,-24668 26742,-33401 8457,-8723 16499,-15786 23977,-20924 7616,-5127 15243,-8722 22870,-10669 7478,-2074 15105,-3042 22721,-3042 3468,0 7340,127 11360,553 4021,415 8319,1106 12616,2074 4287,968 8170,2085 11361,3191 3329,1245 5680,2500 7201,3872 1383,1394 2489,2915 3191,4436 692,1670 1245,3883 1798,6797 564,2766 968,7063 1245,12744 276,5680 425,13307 425,23008zm399493 329096c0,2627 -702,4989 -2223,7063 -1521,2074 -4159,3606 -8169,4850 -3893,1245 -9287,2224 -16084,2904 -6776,702 -15520,979 -26465,979 -11084,0 -20094,-277 -27008,-830 -6936,-553 -12616,-1383 -17052,-2638 -4436,-1244 -7903,-2904 -10392,-5127 -2500,-2074 -4574,-4989 -6510,-8457l-120563 -190938 0 191779c0,2627 -830,4989 -2489,7063 -1521,2074 -4287,3744 -8308,5127 -3883,1245 -9159,2362 -15520,3042 -6520,702 -14839,979 -24817,979 -9967,0 -18285,-277 -24795,-979 -6382,-680 -11637,-1797 -15520,-3042 -4021,-1383 -6786,-3053 -8308,-5127 -1670,-2074 -2499,-4436 -2499,-7063l0 -534182c0,-2777 829,-5128 2499,-7351 1522,-2074 4287,-4010 8308,-5393 3883,-1521 9138,-2638 15520,-3468 6510,-829 14828,-1244 24795,-1244 9978,0 18297,415 24817,1244 6361,830 11637,1947 15520,3468 4021,1383 6787,3319 8308,5393 1659,2223 2489,4574 2489,7351l0 318011 107266 -144241c2213,-3329 4563,-6095 7329,-8595 2638,-2361 6244,-4297 10669,-5691 4436,-1234 9978,-2340 16637,-3042 6648,-692 15105,-968 25359,-968 9978,0 18435,276 25359,968 6787,702 12329,1808 16626,3042 4160,1394 7064,3053 8595,5138 1660,2074 2489,4574 2489,7478 0,4021 -968,8457 -3042,13020 -2085,4574 -5138,9425 -9158,14701l-105852 120275 122903 189695c3191,5403 5542,10116 7063,13988 1521,3882 2223,7488 2223,10818zm373847 -192056c0,12467 -2776,21615 -8318,27582 -5542,5947 -13159,8999 -22987,8999l-220607 0c0,15382 1798,29242 5542,41847 3606,12478 9414,23147 17318,31870 8042,8733 18285,15381 30901,19955 12616,4574 27572,6936 45166,6936 17881,0 33539,-1256 47123,-3883 13446,-2638 25210,-5414 35060,-8595 9840,-3180 18009,-5957 24530,-8595 6510,-2627 11765,-3882 15786,-3882 2499,0 4574,425 6095,1393 1670,968 3053,2628 4170,5127 968,2351 1787,5819 2212,10244 415,4436 553,10127 553,16775 0,5957 -138,11084 -425,15243 -266,4149 -681,7765 -1234,10669 -553,3043 -1255,5542 -2362,7478 -1106,2075 -2499,4021 -4286,5957 -1809,1809 -6521,4436 -14414,7765 -7903,3319 -17881,6510 -30071,9702 -12191,3180 -26062,5956 -41709,8307 -15658,2362 -32423,3617 -50304,3617 -32284,0 -60409,-4021 -84672,-12212 -24104,-8031 -44337,-20359 -60686,-36847 -16211,-16499 -28274,-37411 -36305,-62494 -7893,-25232 -11914,-54729 -11914,-88555 0,-32146 4159,-61101 12616,-87013 8308,-25774 20509,-47666 36582,-65685 15924,-18009 35326,-31731 58185,-41145 23009,-9563 48783,-14275 77472,-14275 30337,0 56250,4435 77726,13434 21615,8872 39209,21339 53080,37146 13712,15786 23966,34635 30487,56250 6510,21625 9690,45176 9690,70663l0 16222zm-98937 -29093c840,-28689 -4989,-51272 -17318,-67632 -12328,-16488 -31316,-24657 -57090,-24657 -13030,0 -24391,2489 -33954,7340 -9691,4850 -17732,11360 -24115,19679 -6361,8307 -11211,18019 -14541,29231 -3468,11371 -5404,23285 -5957,36039l152975 0zm392015 185120c0,11914 -691,21062 -2213,27434 -1531,6372 -3467,10807 -5967,13296 -2351,2638 -5957,4989 -10669,6936 -4851,2074 -10393,3882 -16765,5276 -6233,1521 -13168,2627 -20646,3446 -7489,841 -14967,1256 -22594,1256 -20221,0 -37826,-2628 -52793,-7766 -14817,-5127 -27157,-13020 -36996,-23689 -9701,-10669 -16903,-24114 -21477,-40464 -4563,-16211 -6925,-35475 -6925,-57643l0 -185535 -43921 0c-5138,0 -9159,-3192 -11786,-9563 -2766,-6383 -4149,-17052 -4149,-32019 0,-7892 266,-14541 968,-19955 692,-5393 1798,-9691 3181,-12882 1255,-3042 3053,-5265 5127,-6648 1936,-1383 4436,-2085 7063,-2085l43517 0 0 -81056c0,-2627 692,-5127 2213,-7350 1521,-2075 4297,-3872 8180,-5393 3872,-1521 9286,-2638 15935,-3330 6658,-691 14828,-968 24657,-968 9977,0 18296,277 24944,968 6648,692 11924,1809 15807,3330 3734,1521 6510,3318 8031,5393 1670,2223 2489,4723 2489,7350l0 81056 78578 0c2766,0 5127,702 7063,2085 2074,1383 3734,3606 5127,6648 1383,3191 2362,7489 3042,12882 702,5414 979,12063 979,19955 0,14967 -1393,25636 -4021,32019 -2766,6371 -6648,9563 -11775,9563l-78993 0 0 170153c0,19817 3064,34635 9287,44485 6233,9840 17317,14829 33262,14829 5404,0 10255,-415 14542,-1383 4308,-979 8180,-2085 11509,-3330 3457,-1106 6223,-2223 8584,-3191 2224,-968 4436,-1383 6244,-1383 1660,0 3181,415 4713,1383 1383,968 2627,2766 3457,5680 691,2777 1532,6649 2212,11499 702,4989 979,11084 979,18711z"/>
  <g id="_2385509489008">
   <ellipse class="fil0" transform="matrix(-0.42213 -0.294722 -0.262391 0.375822 4.01618E+006 594333)" rx="102022" ry="108787"/>
   <g>
    <path class="fil1" d="M3939777 436256l12159 -894 11913 -489 11648 -85 11414 319 11148 734 10914 1138 10658 1574 10393 1979 10137 2404 9882 2840 9606 3266 9350 3691 9063 4138 8765 4552 8478 4989 8201 5425 7861 5840 7563 6255 7255 6669 6914 7074 6595 7467 6276 7861 5936 8244 5616 8616 5297 9000 4957 9360 4649 9712 4329 10074 4021 10424 3712 10786 3404 11148 3096 11489 -34912 8828 -2797 -10382 -3043 -9956 -3308 -9574 -3531 -9190 -3777 -8776 -4010 -8393 -4233 -7999 -4468 -7595 -4702 -7212 -4935 -6840 -5170 -6478 -5383 -6106 -5616 -5733 -5851 -5393 -6095 -5042 -6329 -4691 -6584 -4362 -6840 -4010 -7127 -3702 -7382 -3372 -7649 -3031 -7967 -2691 -8244 -2373 -8541 -2021 -8861 -1702 -9148 -1340 -9467 -989 -9787 -649 -10095 -277 -10413 64 -10723 447 -11031 808 -3191 -35868z"/>
   </g>
   <g>
    <path class="fil1" d="M3923077 323894l18551 -1361 18137 -756 17743 -127 17338 489 16914 1106 16530 1734 16105 2372 15711 2989 15286 3638 14871 4266 14466 4914 14020 5553 13584 6191 13158 6839 12712 7468 12254 8116 11786 8755 11318 9360 10861 9989 10371 10594 9903 11223 9414 11807 8936 12403 8456 12978 7989 13562 7499 14137 7042 14701 6563 15286 6095 15838 5638 16403 5180 16956 4723 17509 -34911 8829 -4425 -16403 -4819 -15786 -5233 -15190 -5606 -14583 -6010 -13967 -6404 -13382 -6776 -12775 -7159 -12180 -7542 -11573 -7935 -10999 -8308 -10425 -8690 -9839 -9074 -9276 -9456 -8712 -9851 -8148 -10254 -7605 -10658 -7053 -11053 -6510 -11498 -5967 -11925 -5425 -12339 -4894 -12786 -4340 -13254 -3797 -13690 -3255 -14158 -2713 -14616 -2138 -15084 -1585 -15551 -1021 -16020 -447 -16488 128 -16966 691 -17424 1277 -3191 -35869z"/>
   </g>
   <g>
    <path class="fil1" d="M3918194 206342l24391 -1787 23839 -990 23295 -170 22753 638 22200 1458 21647 2276 21094 3085 20551 3925 19998 4755 19445 5574 18870 6425 18307 7244 17743 8073 17147 8925 16563 9733 15977 10584 15360 11382 14765 12222 14158 13031 13530 13818 12914 14637 12297 15413 11679 16201 11053 16977 10435 17743 9829 18508 9211 19265 8606 20030 7999 20774 7393 21519 6808 22264 6212 23030 -34911 8829 -5915 -21902 -6446 -21115 -6989 -20307 -7510 -19519 -8052 -18733 -8574 -17923 -9105 -17148 -9627 -16360 -10137 -15573 -10659 -14796 -11190 -14031 -11701 -13254 -12233 -12498 -12754 -11755 -13297 -10988 -13828 -10254 -14382 -9521 -14924 -8775 -15488 -8053 -16041 -7308 -16647 -6584 -17211 -5851 -17807 -5105 -18402 -4372 -18998 -3628 -19605 -2872 -20221 -2127 -20817 -1372 -21435 -596 -22040 170 -22668 926 -23264 1702 -3191 -35869z"/>
   </g>
  </g>
  <g>
   <g>
    <path class="fil2" d="M694348 0l347179 200459 347168 200438 0 801742 -347168 200438 -347179 200459 -347180 -200459 -347168 -200438 0 -400876 0 -400866 347168 -200438 347180 -200459z"/>
    <path id="1" class="fil0" d="M694348 0l347179 200459 347168 200438 0 801742 -347168 200438 -347179 200459 -347180 -200459 -347168 -200438 0 -400876 0 -400866 347168 -200438 347180 -200459zm302151 278207l-302151 -174462 -302152 174462 -302141 174441 0 349115 0 349125 302141 174441 302152 174462 302151 -174462 302141 -174441 0 -698240 -302141 -174441z"/>
   </g>
   <g>
    <path class="fil1" d="M1069449 598016l53931 0 -2351 84375 -6850 79184 -11073 73982 -15031 68749 -18711 63558 -22136 58302 -25295 53080 -28210 47825 -30870 42528 -33273 37220 -35454 31805 -37369 26349 -38996 20743 -40294 15051 -41219 9212 -41698 3287 -41709 -2670 -41273 -8637 -40368 -14520 -39060 -20275 -37433 -25933 -35518 -31487 -33315 -36964 -30902 -42379 -28210 -47761 -25316 -53123 -22137 -58494 -18711 -63856 -15019 -69216 -11084 -74589 -6840 -79982 -2351 -85364 53931 0 2266 82705 6605 77131 10616 71546 14318 65983 17711 60409 20754 54857 23487 49293 25869 43783 27902 38273 29593 32837 30944 27444 31965 22147 32699 16977 33156 11924 33444 6999 33560 2160 33593 -2649 33496 -7488 33231 -12414 32763 -17445 32029 -22583 31007 -27827 29636 -33135 27933 -38486 25870 -43889 23508 -49293 20754 -54708 17711 -60111 14307 -65515 10627 -70919 6595 -76311 2265 -81695z"/>
   </g>
   <ellipse class="fil0" cx="292272" cy="454752" rx="45039" ry="45681"/>
   <ellipse class="fil0" cx="1094926" cy="454752" rx="45031" ry="45678"/>
  </g>
 </g>
</svg>
