<?xml version="1.0" encoding="UTF-8" standalone="no"?>
<!-- Creator: CorelDRAW X7 -->

<svg
   xml:space="preserve"
   width="14.999999"
   height="22.324545"
   version="1.0"
   style="clip-rule:evenodd;fill-rule:evenodd;image-rendering:optimizeQuality;shape-rendering:geometricPrecision;text-rendering:geometricPrecision"
   viewBox="0 0 148.72454 221.34866"
   id="svg35"
   sodipodi:docname="Umarket Icon.svg"
   inkscape:version="1.1.2 (b8e25be833, 2022-02-05)"
   xmlns:inkscape="http://www.inkscape.org/namespaces/inkscape"
   xmlns:sodipodi="http://sodipodi.sourceforge.net/DTD/sodipodi-0.dtd"
   xmlns="http://www.w3.org/2000/svg"
   xmlns:svg="http://www.w3.org/2000/svg"
   xmlns:rdf="http://www.w3.org/1999/02/22-rdf-syntax-ns#"
   xmlns:cc="http://creativecommons.org/ns#"><sodipodi:namedview
   id="namedview37"
   pagecolor="#ffffff"
   bordercolor="#666666"
   borderopacity="1.0"
   inkscape:pageshadow="2"
   inkscape:pageopacity="0.0"
   inkscape:pagecheckerboard="0"
   inkscape:document-units="px"
   showgrid="false"
   inkscape:zoom="18.477638"
   inkscape:cx="-7.8743831"
   inkscape:cy="10.607416"
   inkscape:window-width="1366"
   inkscape:window-height="745"
   inkscape:window-x="-8"
   inkscape:window-y="-8"
   inkscape:window-maximized="1"
   inkscape:current-layer="Layer_x0020_1"
   fit-margin-top="5"
   units="px"
   lock-margins="true"
   height="17.32455px"
   fit-margin-left="0"
   fit-margin-right="0"
   fit-margin-bottom="0" />
 <defs
   id="defs11">
  <style
   type="text/css"
   id="style9">
   <![CDATA[
    .str0 {stroke:#00C800;stroke-width:112.32;stroke-linecap:round}
    .fil2 {fill:#00C800}
    .fil0 {fill:white}
    .fil1 {fill:#00C800;fill-rule:nonzero}
   ]]>
  </style>
 </defs>
 <g
   id="Layer_x0020_1"
   inkscape:label="Layer 1"
   inkscape:groupmode="layer"
   transform="translate(0.15950674,40.270755)">
  <metadata
   id="CorelCorpID_0Corel-Layer" />
  <g
   id="_2348263974224"
   transform="matrix(0.10552999,0,0,0.10552999,-0.14311507,9.285187)">
   <path
   class="fil0 str0"
   d="m 705,65 324,187 324,187 v 749 L 1029,1375 705,1563 380,1375 56,1188 V 814 439 L 380,252 Z"
   id="path14" />
   <g
   id="g31">
    <g
   id="g18">
     <path
   class="fil1"
   d="m 1041,623 h 79 l -2,80 -7,75 -10,70 -15,65 -17,60 -21,55 -24,51 -27,46 -30,40 -32,36 -34,31 -37,26 -38,20 -39,15 -41,9 -41,3 -41,-3 -41,-8 -39,-14 -39,-20 -36,-25 -34,-31 -33,-36 -29,-40 -27,-46 -24,-51 -21,-55 -18,-61 -14,-65 -11,-71 -6,-75 -2,-81 h 79 l 2,77 6,71 10,66 13,61 16,55 19,51 22,45 23,40 25,34 27,30 28,24 28,20 29,15 29,10 29,7 29,1 30,-2 29,-6 29,-11 29,-16 28,-20 28,-25 27,-30 25,-34 24,-40 21,-45 19,-51 16,-55 14,-60 9,-66 6,-70 z"
   id="path16" />
    </g>
    <g
   id="g23">
     <path
   class="fil2"
   d="m 329,436 c 29,0 53,24 53,54 0,29 -24,53 -53,53 -29,0 -53,-24 -53,-53 0,-30 24,-54 53,-54 z"
   id="path20" />
     <path
   id="1"
   class="fil1"
   d="m 385,490 h -7 v 0 -3 -3 -2 l -1,-2 v -3 l -1,-2 -1,-3 -1,-2 -1,-2 -1,-2 -1,-2 -1,-2 -1,-2 -2,-2 -1,-2 -2,-2 -2,-1 -2,-2 -1,-1 -2,-2 -2,-1 -2,-1 -3,-1 -2,-1 -2,-1 -2,-1 -3,-1 h -2 l -2,-1 h -3 -2 -3 v -8 l 3,1 h 3 3 l 3,1 h 2 l 3,1 3,1 2,1 3,1 2,1 2,2 3,1 2,2 2,2 2,1 2,2 2,2 2,2 1,2 2,3 1,2 2,2 1,3 1,2 1,3 1,3 1,2 v 3 l 1,3 v 3 3 z m -56,57 v -7 0 l 3,-1 h 2 3 2 l 2,-1 3,-1 2,-1 h 2 l 2,-1 3,-1 2,-2 2,-1 2,-1 1,-2 2,-1 2,-2 2,-2 1,-2 2,-2 1,-1 1,-2 1,-3 1,-2 1,-2 1,-2 1,-3 1,-2 v -2 l 1,-3 v -2 -3 -2 h 7 v 3 2 3 l -1,3 v 3 l -1,3 -1,2 -1,3 -1,2 -1,3 -2,2 -1,3 -2,2 -1,2 -2,2 -2,2 -2,2 -2,2 -2,1 -2,2 -3,1 -2,2 -2,1 -3,1 -2,1 -3,1 -3,1 -2,1 h -3 -3 l -3,1 z m -56,-57 h 7 v 0 2 3 l 1,2 v 3 l 1,2 v 2 l 1,3 1,2 1,2 1,2 1,3 1,2 2,1 1,2 2,2 1,2 2,2 2,1 2,2 2,1 2,1 2,2 2,1 2,1 h 2 l 3,1 2,1 2,1 h 3 2 3 l 2,1 v 7 h -3 l -3,-1 h -2 -3 l -3,-1 -3,-1 -2,-1 -3,-1 -2,-1 -3,-1 -2,-2 -2,-1 -3,-2 -2,-1 -2,-2 -2,-2 -2,-2 -1,-2 -2,-2 -2,-2 -1,-3 -1,-2 -2,-3 -1,-2 -1,-3 -1,-2 v -3 l -1,-3 -1,-3 v -3 -2 z m 56,-58 v 8 0 h -2 -3 -2 l -3,1 h -2 l -2,1 -3,1 -2,1 -2,1 -2,1 -2,1 -2,1 -2,2 -2,1 -2,2 -2,1 -1,2 -2,2 -1,2 -2,2 -1,2 -1,2 -1,2 -1,2 -1,2 -1,3 v 2 l -1,3 v 2 l -1,2 v 3 3 h -7 v -3 -3 -3 l 1,-3 1,-3 v -2 l 1,-3 1,-3 1,-2 2,-3 1,-2 1,-2 2,-3 2,-2 1,-2 2,-2 2,-2 2,-1 2,-2 3,-2 2,-1 2,-2 3,-1 2,-1 3,-1 2,-1 3,-1 h 3 l 3,-1 h 2 3 z" />
    </g>
    <g
   id="g29">
     <path
   class="fil2"
   d="m 1079,436 c 29,0 53,24 53,54 0,29 -24,53 -53,53 -29,0 -53,-24 -53,-53 0,-30 24,-54 53,-54 z"
   id="path25" />
     <path
   id="path27"
   class="fil1"
   d="m 1135,490 h -7 v 0 -3 -3 l -1,-2 v -2 l -1,-3 v -2 l -1,-3 -1,-2 -1,-2 -1,-2 -1,-2 -1,-2 -2,-2 -1,-2 -2,-2 -1,-2 -2,-1 -2,-2 -2,-1 -2,-2 -2,-1 -2,-1 -2,-1 -2,-1 -2,-1 -3,-1 -2,-1 h -2 l -3,-1 h -2 -3 -2 v -8 l 3,1 h 3 2 l 3,1 h 3 l 3,1 2,1 3,1 2,1 3,1 2,2 2,1 3,2 2,2 2,1 2,2 2,2 1,2 2,2 2,3 1,2 1,2 2,3 1,2 1,3 1,3 v 2 l 1,3 1,3 v 3 3 z m -56,57 v -7 0 l 2,-1 h 3 2 3 l 2,-1 2,-1 3,-1 h 2 l 2,-1 2,-1 2,-2 2,-1 2,-1 2,-2 2,-1 2,-2 1,-2 2,-2 1,-2 2,-1 1,-2 1,-3 1,-2 1,-2 1,-2 1,-3 v -2 l 1,-2 v -3 l 1,-2 v -3 -2 h 7 v 3 2 3 l -1,3 -1,3 v 3 l -1,2 -1,3 -1,2 -2,3 -1,2 -1,3 -2,2 -2,2 -1,2 -2,2 -2,2 -2,2 -2,1 -3,2 -2,1 -2,2 -3,1 -2,1 -3,1 -2,1 -3,1 -3,1 h -3 -2 l -3,1 z m -57,-57 h 8 v 0 2 3 2 l 1,3 v 2 l 1,2 1,3 1,2 1,2 1,2 1,3 1,2 1,1 2,2 1,2 2,2 2,2 2,1 1,2 2,1 2,1 2,2 3,1 2,1 h 2 l 2,1 3,1 2,1 h 2 3 2 l 3,1 v 7 h -3 l -3,-1 h -3 -3 l -2,-1 -3,-1 -3,-1 -2,-1 -3,-1 -2,-1 -2,-2 -3,-1 -2,-2 -2,-1 -2,-2 -2,-2 -2,-2 -2,-2 -1,-2 -2,-2 -1,-3 -2,-2 -1,-3 -1,-2 -1,-3 -1,-2 -1,-3 v -3 l -1,-3 v -3 -2 z m 57,-58 v 8 0 h -3 -2 -3 l -2,1 h -2 l -3,1 -2,1 -2,1 -2,1 -3,1 -2,1 -2,1 -2,2 -1,1 -2,2 -2,1 -2,2 -1,2 -2,2 -1,2 -1,2 -1,2 -1,2 -1,2 -1,2 -1,3 -1,2 v 3 l -1,2 v 2 3 3 h -8 l 1,-3 v -3 -3 l 1,-3 v -3 l 1,-2 1,-3 1,-3 1,-2 1,-3 2,-2 1,-2 2,-3 1,-2 2,-2 2,-2 2,-2 2,-1 2,-2 2,-2 3,-1 2,-2 2,-1 3,-1 2,-1 3,-1 3,-1 h 2 l 3,-1 h 3 3 z" />
    </g>
   </g>
  </g>
 </g>
<metadata
   id="metadata70"><rdf:RDF><cc:Work
       rdf:about="" /></rdf:RDF></metadata></svg>
