<?xml version="1.0" encoding="UTF-8"?>
<!DOCTYPE svg PUBLIC "-//W3C//DTD SVG 1.0//EN" "http://www.w3.org/TR/2001/REC-SVG-20010904/DTD/svg10.dtd">
<!-- Creator: CorelDRAW X7 -->
<svg xmlns="http://www.w3.org/2000/svg" xml:space="preserve" width="5.9876mm" height="6.3501mm" version="1.0" style="shape-rendering:geometricPrecision; text-rendering:geometricPrecision; image-rendering:optimizeQuality; fill-rule:evenodd; clip-rule:evenodd"
viewBox="0 0 598760 635010"
 xmlns:xlink="http://www.w3.org/1999/xlink">
 <defs>
  <style type="text/css">
   <![CDATA[
    .str0 {stroke:#00C800;stroke-width:7620}
    .fil0 {fill:#00C800}
    .fil2 {fill:#00C800}
    .fil1 {fill:white}
   ]]>
  </style>
 </defs>
 <g id="Layer_x0020_1">
  <metadata id="CorelCorpID_0Corel-Layer"/>
  <g id="_2332117429616">
   <g>
    <path class="fil0" d="M308030 324860l2120 2110c9870,9880 9870,26010 0,35880l-264750 264750c-9870,9870 -26010,9870 -35880,0l-2110 -2110c-9870,-9880 -9870,-26010 0,-35880l264750 -264750c9870,-9870 26000,-9870 35870,0z"/>
    <path id="1" class="fil0" d="M296590 336300l2120 2110 -40 40c1760,1760 2650,4120 2650,6460 0,2400 -870,4770 -2610,6500l-264750 264750 -40 -40c-1760,1760 -4120,2650 -6460,2650 -2390,0 -4770,-870 -6500,-2610l40 -40 -2110 -2110c-1760,-1760 -2650,-4120 -2650,-6460 0,-2340 890,-4700 2650,-6460l-40 -40 264750 -264750 40 40c1760,-1760 4110,-2650 6450,-2650 2340,0 4700,890 6460,2650l40 -40zm11440 -11440l2120 2110c9870,9880 9870,26010 0,35880l-264750 264750c-9870,9870 -26010,9870 -35880,0l-2110 -2110c-9870,-9880 -9870,-26010 0,-35880l264750 -264750c9870,-9870 26000,-9870 35870,0z"/>
   </g>
   <g>
    <path class="fil1" d="M386220 0c117380,0 212540,95160 212540,212550 0,117380 -95160,212540 -212540,212540 -117390,0 -212540,-95160 -212540,-212540 0,-117390 95150,-212550 212540,-212550z"/>
    <path id="1" class="fil0" d="M386220 0c117380,0 212540,95160 212540,212550 0,117380 -95160,212540 -212540,212540 -117390,0 -212540,-95160 -212540,-212540 0,-117390 95150,-212550 212540,-212550zm121590 90710c-31020,-31020 -74020,-50230 -121590,-50230 -47570,0 -90570,19210 -121590,50230 -31100,31110 -50350,74190 -50350,121840 0,47650 19250,90730 50350,121830 31020,31020 74020,50230 121590,50230 47570,0 90570,-19210 121590,-50230 31100,-31100 50350,-74180 50350,-121830 0,-47640 -19250,-90730 -50350,-121840z"/>
   </g>
   <rect class="fil2 str0" x="297560" y="195626" width="177319" height="33848"/>
  </g>
 </g>
</svg>
