<?xml version="1.0" encoding="UTF-8"?>
<!DOCTYPE svg PUBLIC "-//W3C//DTD SVG 1.0//EN" "http://www.w3.org/TR/2001/REC-SVG-20010904/DTD/svg10.dtd">
<!-- Creator: CorelDRAW X7 -->
<svg xmlns="http://www.w3.org/2000/svg" xml:space="preserve" width="156px" height="156px" version="1.0" style="shape-rendering:geometricPrecision; text-rendering:geometricPrecision; image-rendering:optimizeQuality; fill-rule:evenodd; clip-rule:evenodd"
viewBox="0 0 15600000 15600000"
 xmlns:xlink="http://www.w3.org/1999/xlink">
 <defs>
  <style type="text/css">
   <![CDATA[
    .fil0 {fill:#2DC000}
   ]]>
  </style>
 </defs>
 <g id="Layer_x0020_1">
  <metadata id="CorelCorpID_0Corel-Layer"/>
  <g id="_1698605397168">
   <g>
    <path class="fil0" d="M7987379 3307025c624519,0 1130761,506243 1130761,1130880 0,624518 -506242,1130761 -1130761,1130761 -624637,0 -1130879,-506243 -1130879,-1130761 0,-624637 506242,-1130880 1130879,-1130880z"/>
    <path id="1" class="fil0" d="M7987379 3307025c624519,0 1130761,506243 1130761,1130880 0,624518 -506242,1130761 -1130761,1130761 -624637,0 -1130879,-506243 -1130879,-1130761 0,-624637 506242,-1130880 1130879,-1130880zm446692 684188c-114268,-114267 -272284,-185021 -446692,-185021 -175705,0 -333721,69929 -446691,183017l-2005 2004c-113088,112970 -183016,270987 -183016,446692 0,174407 70754,332424 185021,446691 114149,114149 272284,184903 446691,184903 174408,0 332424,-70754 446692,-185021 114149,-114149 184902,-272166 184902,-446573 0,-174408 -70753,-332543 -184902,-446692z"/>
   </g>
   <g>
    <path class="fil0" d="M11639211 11107143l-7300833 0c-170634,-5829039 7111803,-6745063 7300833,0z"/>
    <path id="1" class="fil0" d="M11639211 11107143l-7300833 0c-170634,-5829039 7111803,-6745063 7300833,0zm-6798718 -500818l6271367 0c-168040,-1855750 -945858,-2974365 -1902447,-3449947 -398933,-198228 -830294,-285963 -1260123,-269690 -431597,16510 -865317,139503 -1266608,362023 -983829,545629 -1758346,1693960 -1842189,3357614z"/>
   </g>
  </g>
 </g>
</svg>
